<svg width="13" height="13" viewBox="0 0 13 13" fill="none" xmlns="http://www.w3.org/2000/svg">
<path d="M3.15714 6.31429C1.39286 6.31429 0 4.92143 0 3.15714C0 1.39286 1.39286 0 3.15714 0C4.92143 0 6.31429 1.39286 6.31429 3.15714C6.31429 4.92143 4.92143 6.31429 3.15714 6.31429ZM3.15714 1.85714C2.41429 1.85714 1.85714 2.41429 1.85714 3.15714C1.85714 3.9 2.41429 4.45714 3.15714 4.45714C3.9 4.45714 4.45714 3.9 4.45714 3.15714C4.45714 2.41429 3.9 1.85714 3.15714 1.85714ZM9.84286 13C8.07857 13 6.68571 11.6071 6.68571 9.84286C6.68571 8.07857 8.07857 6.68571 9.84286 6.68571C11.6071 6.68571 13 8.07857 13 9.84286C13 11.6071 11.6071 13 9.84286 13ZM9.84286 8.54286C9.1 8.54286 8.54286 9.1 8.54286 9.84286C8.54286 10.5857 9.1 11.1429 9.84286 11.1429C10.5857 11.1429 11.1429 10.5857 11.1429 9.84286C11.1429 9.1 10.5857 8.54286 9.84286 8.54286ZM2.13571 12.2571L12.1643 2.22857C12.5357 1.85714 12.5357 1.3 12.1643 0.928571C11.7929 0.557143 11.2357 0.557143 10.8643 0.928571L0.835714 10.8643C0.464286 11.2357 0.464286 11.7929 0.835714 12.1643C1.20714 12.5357 1.76429 12.5357 2.13571 12.2571C2.13571 12.1643 2.13571 12.1643 2.13571 12.2571Z" fill="currentColor"/>
</svg>
