
<svg width="20" height="22" viewBox="0 0 20 22" fill="none" xmlns="http://www.w3.org/2000/svg">
    <path d="M0.0632818 15.4582C-0.212197 16.569 0.430587 17.6797 1.62433 17.9574C1.80798 17.9574 1.99163 18.05 2.08346 18.05H15.031C16.2247 18.05 17.143 17.1244 17.143 15.921C17.143 15.7359 17.143 15.5508 17.0511 15.4582L14.7555 6.10923C14.6637 5.73897 14.3882 5.55385 14.1127 5.55385H12.919V5.36872C12.919 3.42487 12.0007 0 8.5113 0C5.0219 0 4.19546 3.33231 4.19546 5.36872V5.55385H3.00172C2.72624 5.55385 2.35894 5.73897 2.35894 6.10923L0.0632818 15.4582ZM5.57286 5.36872C5.57286 3.88769 6.21564 1.38846 8.60312 1.38846C10.9906 1.38846 11.6334 3.98026 11.6334 5.36872V5.55385H5.57286V5.36872ZM3.55268 6.94231H13.4699L15.6737 15.7359C15.7656 15.921 15.6737 16.1987 15.5819 16.2913C15.4901 16.4764 15.2146 16.569 15.031 16.569H2.08346C1.89981 16.569 1.62433 16.4764 1.5325 16.2913C1.44068 16.1062 1.34885 15.921 1.44068 15.7359L3.55268 6.94231Z" fill="white"/>
    <circle cx="14" cy="16" r="6" fill="white"/>
    <path d="M13.59 19.342V16.752H11V15.576H13.59V13H14.766V15.576H17.349V16.752H14.766V19.342H13.59Z" fill="#E85D5D"/>
</svg>
