<svg width="21" height="23" viewBox="0 0 21 23" fill="none" xmlns="http://www.w3.org/2000/svg">
<path d="M17.7838 13L16.8924 8.60268C16.7034 7.67023 15.8837 7 14.9323 7H4.66885C3.67863 7 2.83748 7.72461 2.69089 8.70392L1.68739 15.4078C1.32544 17.8259 3.19834 20 5.64332 20H11" stroke="white" stroke-width="1.5"/>
<path d="M6.5 8.3V4.94545C6.5 3.35 8 2 10 2C12 2 13.5 3.35 13.5 4.94545V8.3" stroke="white" stroke-width="1.5" stroke-linecap="round"/>
<path fill-rule="evenodd" clip-rule="evenodd" d="M15 23C18.3137 23 21 20.3137 21 17C21 13.6863 18.3137 11 15 11C11.6863 11 9 13.6863 9 17C9 20.3137 11.6863 23 15 23ZM14.59 17.752V20.342H15.766V17.752H18.349V16.576H15.766V14H14.59V16.576H12V17.752H14.59Z" fill="white"/>
</svg>
