<svg width="5" height="8" viewBox="0 0 5 8" fill="none" xmlns="http://www.w3.org/2000/svg">
<path fill-rule="evenodd" clip-rule="evenodd" d="M1.70705 7.36397C1.31652 7.75449 0.68336 7.75449 0.292835 7.36397C-0.0976892 6.97344 -0.0976892 6.34028 0.292835 5.94975L2.41413 3.82846L0.292809 1.70714C-0.0977157 1.31661 -0.0977157 0.683449 0.292809 0.292925C0.683333 -0.0975988 1.3165 -0.0975989 1.70702 0.292925L4.52934 3.11524C4.53139 3.11726 4.53344 3.11929 4.53548 3.12133C4.9199 3.50575 4.9259 4.12529 4.5535 4.51706C4.54758 4.52328 4.54158 4.52944 4.53548 4.53554C4.53547 4.53555 4.53546 4.53556 4.53545 4.53557C4.53538 4.53564 4.53531 4.5357 4.53524 4.53577L1.70705 7.36397Z" fill="#EEEEEE"/>
</svg>
