<svg width="5" height="8" viewBox="0 0 5 8" fill="none" xmlns="http://www.w3.org/2000/svg">
<path fill-rule="evenodd" clip-rule="evenodd" d="M3.29295 7.36397C3.68348 7.75449 4.31664 7.75449 4.70716 7.36397C5.09769 6.97344 5.09769 6.34028 4.70716 5.94975L2.58587 3.82846L4.70719 1.70714C5.09772 1.31661 5.09772 0.683449 4.70719 0.292925C4.31667 -0.0975988 3.6835 -0.0975989 3.29298 0.292925L0.470659 3.11524C0.468608 3.11726 0.466563 3.11929 0.464524 3.12133C0.0801019 3.50575 0.0740953 4.12529 0.446504 4.51706C0.452416 4.52328 0.458422 4.52944 0.464524 4.53554C0.464533 4.53555 0.464541 4.53556 0.46455 4.53557C0.464619 4.53564 0.464689 4.5357 0.464758 4.53577L3.29295 7.36397Z" fill="#EEEEEE"/>
</svg>
