<svg width="8" height="5" viewBox="0 0 8 5" fill="none" xmlns="http://www.w3.org/2000/svg">
<path fill-rule="evenodd" clip-rule="evenodd" d="M0.292893 1.87868C-0.0976311 1.48816 -0.0976311 0.85499 0.292893 0.464466C0.683418 0.0739417 1.31658 0.0739417 1.70711 0.464466L3.8284 2.58576L5.94972 0.46444C6.34025 0.0739155 6.97341 0.0739155 7.36394 0.46444C7.75446 0.854964 7.75446 1.48813 7.36394 1.87865L4.54162 4.70097C4.5396 4.70302 4.53757 4.70507 4.53553 4.70711C4.15111 5.09153 3.53157 5.09754 3.1398 4.72513C3.13358 4.71922 3.12742 4.71321 3.12132 4.70711C3.12131 4.7071 3.1213 4.70709 3.12129 4.70708C3.12123 4.70701 3.12116 4.70694 3.12109 4.70687L0.292893 1.87868Z" fill="#1E3CAD"/>
</svg>
