<svg version="1.1" viewBox="0 0 16.7 18.8" width="16.7px" height="18.8px" style="enable-background:new 0 0 16.7 18.8;" xml:space="preserve">
<path d="M12.7,18.8H4c-1.2,0-2.3-0.5-3-1.4c-0.8-0.9-1.1-2-0.9-3.2l1.1-7.7c0.1-1,1-1.7,2-1.7h10.2c1,0,1.8,0.7,2,1.7
	l1.3,7.7c0.2,1.2-0.1,2.4-0.9,3.3C15,18.2,13.8,18.8,12.7,18.8z M2.6,6.7l-1.1,7.7c-0.1,0.7,0.1,1.4,0.6,2c0.5,0.5,1.2,0.9,1.9,0.9
	h8.7c0.7,0,1.4-0.3,1.9-0.9c0.5-0.6,0.7-1.3,0.5-2l-1.3-7.7c0-0.2-0.2-0.4-0.5-0.4H3.1C2.8,6.3,2.6,6.4,2.6,6.7L2.6,6.7z"/>
<path d="M11.9,7.8c-0.4,0-0.8-0.3-0.8-0.8V3.7c0-1.2-1.2-2.2-2.8-2.2s-2.8,1-2.8,2.2V7c0,0.4-0.3,0.8-0.8,0.8
	S4.2,7.5,4.2,7V3.7C4.2,1.6,6,0,8.4,0c2.4,0,4.3,1.6,4.3,3.7V7C12.7,7.5,12.3,7.8,11.9,7.8z"/>
</svg>
