<svg width="20" height="20" viewBox="0 0 20 20" fill="none" xmlns="http://www.w3.org/2000/svg">
<g clip-path="url(#clip0_820_1184)">
<path d="M9.20792 7.64674L0.165017 4.72865C0.0660066 4.69623 0 4.76107 0 4.85834V16.9522C0 17.017 0.0330033 17.0495 0.0990099 17.0819L9.14192 20C9.20792 20.0324 9.30693 19.9676 9.30693 19.8703V7.77643C9.27393 7.71159 9.24092 7.67916 9.20792 7.64674Z" fill="currentColor"/>
<path d="M18.0861 3.59386L10.0333 1C10.0002 1 9.96724 1 9.96724 1L1.91444 3.59386C1.78243 3.62628 1.78243 3.7884 1.91444 3.82082L9.96724 6.41468C10.0002 6.41468 10.0333 6.41468 10.0333 6.41468L18.0861 3.82082C18.1851 3.82082 18.1851 3.6587 18.0861 3.59386Z" fill="currentColor"/>
<path d="M19.8353 4.72865L10.7924 7.64674C10.7264 7.67916 10.6934 7.71158 10.6934 7.77643V19.8703C10.6934 19.9676 10.7924 20 10.8584 20L19.9013 17.0819C19.9673 17.0495 20.0003 17.017 20.0003 16.9522V4.85834C20.0003 4.76107 19.9013 4.69623 19.8353 4.72865Z" fill="currentColor"/>
</g>
<defs>
<clipPath id="clip0_820_1184">
<rect width="20" height="20" fill="white"/>
</clipPath>
</defs>
</svg>
