<svg width="40" height="40" viewBox="0 0 40 40" fill="none" xmlns="http://www.w3.org/2000/svg">
<g clip-path="url(#clip0)">
<path fill-rule="evenodd" clip-rule="evenodd" d="M-0.0928955 0.888916C-0.0928955 0.336631 0.35482 -0.111084 0.907104 -0.111084H5.62366C6.91271 -0.111084 8.08186 0.852921 8.24648 2.16947L8.94663 6.37781H37.1883C38.868 6.37781 40.2704 7.88162 39.9902 9.66623L39.9891 9.67344L37.2719 25.4729C37.1012 26.9418 35.7777 27.8445 34.4672 27.8445H10.4906L6.2656 2.44962L6.26268 2.4238C6.23222 2.15517 5.95781 1.88892 5.62366 1.88892H0.907104C0.35482 1.88892 -0.0928955 1.4412 -0.0928955 0.888916ZM9.27937 8.37781L12.1853 25.8445H34.4672C34.9594 25.8445 35.2572 25.5183 35.2864 25.2318L35.2899 25.1977L38.0153 9.35018C38.094 8.82619 37.6836 8.37781 37.1883 8.37781H9.27937Z" fill="#21A038"/>
<path fill-rule="evenodd" clip-rule="evenodd" d="M10.2494 27.6666C9.05922 27.6666 8.07483 28.6601 8.07483 29.7777C8.07483 30.8954 9.05922 31.8888 10.2494 31.8888H36.5533C37.1056 31.8888 37.5533 32.3366 37.5533 32.8888C37.5533 33.4411 37.1056 33.8888 36.5533 33.8888H10.2494C7.99293 33.8888 6.07483 32.0379 6.07483 29.7777C6.07483 27.5176 7.99293 25.6666 10.2494 25.6666H11.9728C12.5251 25.6666 12.9728 26.1143 12.9728 26.6666C12.9728 27.2189 12.5251 27.6666 11.9728 27.6666H10.2494Z" fill="#21A038"/>
<path fill-rule="evenodd" clip-rule="evenodd" d="M15.0567 34.3334C13.9367 34.3334 13.0635 35.2179 13.0635 36.2667C13.0635 37.3155 13.9367 38.2 15.0567 38.2C16.1766 38.2 17.0499 37.3155 17.0499 36.2667C17.0499 35.2179 16.1766 34.3334 15.0567 34.3334ZM11.0635 36.2667C11.0635 34.0754 12.8704 32.3334 15.0567 32.3334C17.2429 32.3334 19.0499 34.0754 19.0499 36.2667C19.0499 38.458 17.2429 40.2 15.0567 40.2C12.8704 40.2 11.0635 38.458 11.0635 36.2667Z" fill="#21A038"/>
<path fill-rule="evenodd" clip-rule="evenodd" d="M32.2903 34.3334C31.1704 34.3334 30.2971 35.2179 30.2971 36.2667C30.2971 37.3155 31.1704 38.2 32.2903 38.2C33.4103 38.2 34.2835 37.3155 34.2835 36.2667C34.2835 35.2179 33.4103 34.3334 32.2903 34.3334ZM28.2971 36.2667C28.2971 34.0754 30.1041 32.3334 32.2903 32.3334C34.4766 32.3334 36.2835 34.0754 36.2835 36.2667C36.2835 38.458 34.4766 40.2 32.2903 40.2C30.1041 40.2 28.2971 38.458 28.2971 36.2667Z" fill="#21A038"/>
<path fill-rule="evenodd" clip-rule="evenodd" d="M23.6735 11.7111C24.2257 11.7111 24.6735 12.1588 24.6735 12.7111V22.0444C24.6735 22.5967 24.2257 23.0444 23.6735 23.0444C23.1212 23.0444 22.6735 22.5967 22.6735 22.0444V12.7111C22.6735 12.1588 23.1212 11.7111 23.6735 11.7111Z" fill="#21A038"/>
<path fill-rule="evenodd" clip-rule="evenodd" d="M15.7561 11.8069C16.3046 11.7423 16.8016 12.1346 16.8662 12.6831L17.9546 21.9275C18.0192 22.476 17.6269 22.973 17.0784 23.0376C16.5299 23.1022 16.0329 22.7099 15.9683 22.1614L14.8799 12.917C14.8153 12.3685 15.2076 11.8715 15.7561 11.8069Z" fill="#21A038"/>
<path fill-rule="evenodd" clip-rule="evenodd" d="M31.5908 11.8069C32.1393 11.8715 32.5316 12.3685 32.467 12.917L31.3786 22.1614C31.314 22.7099 30.817 23.1022 30.2685 23.0376C29.72 22.973 29.3278 22.476 29.3923 21.9275L30.4808 12.6831C30.5453 12.1346 31.0423 11.7423 31.5908 11.8069Z" fill="#21A038"/>
</g>
<defs>
<clipPath id="clip0">
<rect width="40" height="40" fill="white"/>
</clipPath>
</defs>
</svg>
