<svg width="15" height="13" viewBox="0 0 15 13" fill="none" xmlns="http://www.w3.org/2000/svg">
<path d="M10.3713 0.159065C12.586 0.154933 14.3421 1.90274 14.3338 4.04721C14.3297 5.11325 13.9537 6.0388 13.2017 6.79494C11.2101 8.79479 9.21437 10.7864 7.21865 12.778C6.99966 12.997 6.68563 13.0052 6.4873 12.8028C6.28897 12.6003 6.30136 12.2945 6.52449 12.0714C8.48302 10.1129 10.4374 8.15434 12.396 6.19994C12.8546 5.7413 13.1521 5.20415 13.2719 4.5637C13.5529 3.03902 12.4745 1.48955 10.9456 1.22923C9.93746 1.05983 9.06149 1.3284 8.3384 2.05149C6.23112 4.15051 4.12797 6.25366 2.02895 8.36094C1.1034 9.28649 1.35131 10.7657 2.52065 11.2739C3.19002 11.5673 3.83047 11.4723 4.38415 10.993C4.74776 10.679 5.07418 10.3236 5.413 9.98479C7.0823 8.31549 8.75159 6.64619 10.4209 4.98102C10.6192 4.78269 10.7143 4.55957 10.6316 4.28273C10.4953 3.84474 9.96225 3.69599 9.61517 3.98936C9.57385 4.02655 9.53253 4.06787 9.49121 4.10919C7.67729 5.91484 5.86751 7.72462 4.05773 9.53441C3.92964 9.6625 3.78915 9.76166 3.59495 9.741C3.40075 9.72034 3.25613 9.62118 3.18176 9.43524C3.11151 9.24517 3.13631 9.0675 3.27266 8.91462C3.42554 8.75347 3.58669 8.60059 3.7437 8.44358C5.43779 6.74949 7.13188 5.0554 8.8301 3.36131C9.41683 2.77457 10.2763 2.67128 10.9415 3.101C11.739 3.61336 11.9001 4.7579 11.2762 5.50578C11.239 5.55123 11.2018 5.59255 11.1605 5.62974C9.16479 7.62546 7.16907 9.62944 5.16508 11.621C4.15276 12.6292 2.59089 12.7036 1.48354 11.8194C0.22743 10.8153 0.0952079 8.90635 1.23149 7.75768C3.38422 5.58842 5.54935 3.42742 7.71448 1.27055C8.46649 0.530938 9.38378 0.171461 10.3713 0.159065Z" fill="white"/>
</svg>
