<svg width="20" height="20" viewBox="0 0 20 20" fill="none" xmlns="http://www.w3.org/2000/svg">
<g clip-path="url(#clip0_2556_10327)">
<path d="M9.91784 0C5.09816 0 0.934222 3.39286 0.0161888 8.08442C-0.114959 8.75 0.327664 9.39935 0.999796 9.52922C1.67193 9.65909 2.32767 9.22078 2.45881 8.55519C3.14734 5.03247 6.27849 2.46753 9.91784 2.46753C14.1146 2.46753 17.5244 5.84416 17.5244 10C17.5244 14.1558 14.1146 17.5325 9.91784 17.5325C9.04898 17.5325 8.19652 17.3864 7.39324 17.1104C6.7539 16.8831 6.03259 17.224 5.80308 17.8571C5.57357 18.4903 5.91783 19.2045 6.55718 19.4318C7.63915 19.8052 8.77029 20 9.91784 20C15.4752 20 19.9998 15.5195 19.9998 10.0162C19.9998 4.51299 15.4752 0 9.91784 0Z" fill="currentColor"/>
<path d="M11.3279 10.9091L14.7213 8.29544L14.4426 7.64609L10.1803 8.32791C10.0983 8.31167 10.0164 8.29544 9.91802 8.29544C8.98359 8.29544 8.22949 9.04219 8.22949 9.96752C8.22949 10.8928 8.98359 11.6396 9.91802 11.6396C10.5082 11.6558 11.0164 11.3636 11.3279 10.9091Z" fill="currentColor"/>
<path d="M3.55739 17.2889C4.23643 17.2889 4.7869 16.7438 4.7869 16.0714C4.7869 15.399 4.23643 14.8539 3.55739 14.8539C2.87835 14.8539 2.32788 15.399 2.32788 16.0714C2.32788 16.7438 2.87835 17.2889 3.55739 17.2889Z" fill="currentColor"/>
<path d="M1.34425 13.3441C2.02329 13.3441 2.57376 12.799 2.57376 12.1266C2.57376 11.4542 2.02329 10.9091 1.34425 10.9091C0.665216 10.9091 0.114746 11.4542 0.114746 12.1266C0.114746 12.799 0.665216 13.3441 1.34425 13.3441Z" fill="currentColor"/>
</g>
<defs>
<clipPath id="clip0_2556_10327">
<rect width="20" height="20" fill="white"/>
</clipPath>
</defs>
</svg>
