<svg width="20" height="20" viewBox="0 0 20 20" fill="none" xmlns="http://www.w3.org/2000/svg">
<g clip-path="url(#clip0_620_1398)">
<path fill-rule="evenodd" clip-rule="evenodd" d="M19.7333 7.79999C18.4667 2.26666 13 -1.06668 7.53333 0.333324C5.8 0.799991 4.26667 1.66666 3 2.93332C2.73333 3.13332 2.66667 3.46666 2.86667 3.79999C3.13333 4.26666 3.66667 4.26666 4.06667 3.86666C6.2 1.86666 8.66667 1.06666 11.5333 1.53332C16.2 2.26666 19.4 6.93332 18.4667 11.6C17.5333 16.4 12.9333 19.4 8.13333 18.3333C4.33333 17.4667 1.53333 14 1.53333 10.1333C1.53333 8.73332 1.8 7.33332 2.46667 6.06666C2.66667 5.66666 2.53333 5.26666 2.2 5.06666C1.73333 4.93332 1.33333 5.06666 1.13333 5.46666C0.4 6.93332 0 8.39999 0 9.99999C0.0666667 10.4667 0.0666667 10.9333 0.133333 11.4C0.2 11.6667 0.2 12 0.266667 12.2667C1.53333 17.5333 6.53333 20.8 11.8667 19.8667C17.3333 18.8667 21 13.2667 19.7333 7.79999Z" fill="currentColor"/>
<path fill-rule="evenodd" clip-rule="evenodd" d="M9.53327 10.5333C10.7333 11.4667 11.9333 12.4667 13.1333 13.4C13.3333 13.5333 13.5333 13.6 13.7333 13.5333C13.9999 13.4667 14.1999 13.2667 14.2666 13C14.3333 12.6667 14.1999 12.4667 13.9333 12.2667C12.9333 11.4667 11.8666 10.6 10.8666 9.79999C10.7333 9.73332 10.6666 9.59999 10.6666 9.46665C10.6666 7.79999 10.6666 6.13332 10.6666 4.46666C10.6666 4.39999 10.6666 4.26666 10.6666 4.19999C10.5999 3.86666 10.2666 3.59999 9.8666 3.66666C9.53327 3.73332 9.2666 3.99999 9.2666 4.39999C9.2666 5.33332 9.2666 6.33332 9.2666 7.26666C9.2666 8.19999 9.2666 9.13332 9.2666 10.0667C9.2666 10.2 9.33327 10.4 9.53327 10.5333Z" fill="currentColor"/>
</g>
<defs>
<clipPath id="clip0_620_1398">
<rect width="20" height="20" fill="white"/>
</clipPath>
</defs>
</svg>
