<svg version="1.1" width="15" height="15" xmlns="http://www.w3.org/2000/svg"  x="0px" y="0px"
	 viewBox="0 0 15.2 15.2" style="enable-background:new 0 0 15.2 15.2;" xml:space="preserve">
<path class="st0" d="M7.6,15.2C3.4,15.2,0,11.8,0,7.6S3.4,0,7.6,0s7.6,3.4,7.6,7.6S11.8,15.2,7.6,15.2z M7.6,1.5
	c-3.4,0-6.1,2.7-6.1,6.1s2.7,6.1,6.1,6.1s6.1-2.7,6.1-6.1S10.9,1.5,7.6,1.5z"/>
<path class="st0" d="M9.9,10.6c-0.2,0-0.3,0-0.4-0.1l-3-2.1V3.6c0-0.4,0.3-0.8,0.8-0.8S8,3.2,8,3.6v4l2.3,1.7c0.3,0.2,0.4,0.7,0.2,1
	C10.4,10.5,10.1,10.6,9.9,10.6z"/>
</svg>
