<svg width="14" height="14" viewBox="0 0 14 14" fill="none" xmlns="http://www.w3.org/2000/svg">
<path fill-rule="evenodd" clip-rule="evenodd" d="M6.53346 5.20325C6.23351 5.50329 6.065 5.91018 6.065 6.33445C6.065 6.75871 6.23351 7.1656 6.53346 7.46565L6.53586 7.46725L5.40386 8.60005L5.40226 8.59765C5.1051 8.3005 4.86937 7.94772 4.70855 7.55947C4.54772 7.17122 4.46495 6.75509 4.46495 6.33485C4.46495 5.9146 4.54772 5.49847 4.70855 5.11022C4.86937 4.72197 5.1051 4.3692 5.40226 4.07205L7.66546 1.80965C8.26787 1.22067 9.07825 0.893029 9.92073 0.897818C10.7632 0.902606 11.5698 1.23944 12.1655 1.83522C12.7612 2.43101 13.0978 3.23767 13.1025 4.08014C13.1071 4.92262 12.7793 5.73294 12.1903 6.33525L11.4303 7.09525L10.2991 5.96325L11.0591 5.20325C11.3505 4.90148 11.5118 4.49732 11.5081 4.0778C11.5045 3.65829 11.3362 3.25699 11.0396 2.96034C10.7429 2.66368 10.3416 2.49541 9.9221 2.49177C9.50259 2.48812 9.09843 2.64939 8.79666 2.94085L6.53346 5.20325ZM7.46946 8.78885C7.76862 8.48939 7.93693 8.08359 7.93753 7.66031C7.93813 7.23702 7.77097 6.83075 7.47266 6.53045L8.60466 5.39925C9.20271 5.99981 9.53808 6.81309 9.53718 7.66064C9.53628 8.50819 9.19918 9.32076 8.59986 9.92005L6.33666 12.1824C6.03951 12.4796 5.68673 12.7153 5.29848 12.8761C4.91023 13.037 4.4941 13.1197 4.07386 13.1197C3.65362 13.1197 3.23749 13.037 2.84924 12.8761C2.46099 12.7153 2.10822 12.4796 1.81106 12.1824C1.51391 11.8853 1.27819 11.5325 1.11737 11.1443C0.956552 10.756 0.873779 10.3399 0.873779 9.91965C0.873779 9.49941 0.956552 9.08328 1.11737 8.69503C1.27819 8.30678 1.51391 7.954 1.81106 7.65685L4.07426 5.39445C4.11906 5.34965 4.16466 5.30645 4.21106 5.26485L2.38146 7.09605L3.50946 8.22405L2.94386 8.78885C2.64374 9.08886 2.4751 9.49581 2.47502 9.92016C2.47498 10.1303 2.51633 10.3384 2.59671 10.5325C2.67708 10.7266 2.79491 10.903 2.94346 11.0516C3.09201 11.2003 3.26838 11.3181 3.46249 11.3986C3.6566 11.479 3.86466 11.5205 4.07478 11.5205C4.49914 11.5206 4.90614 11.3521 5.20626 11.052L7.46866 8.78885H7.46946Z" fill="white"/>
</svg>
