<svg width="10" height="10" viewBox="0 0 10 10" fill="none" xmlns="http://www.w3.org/2000/svg">
<path fill-rule="evenodd" clip-rule="evenodd" d="M4.34285 5.38048C4.68571 5.70657 5.31428 5.70657 5.65714 5.38048L9.71428 1.52179C10.0571 1.1957 10.0571 0.597874 9.71428 0.271787C9.37142 -0.0543001 8.74285 -0.0543001 8.39999 0.271787L4.97142 3.47831L1.59999 0.271787C1.25714 -0.0543001 0.628564 -0.0543001 0.285707 0.271787C-0.0571498 0.597874 -0.0571498 1.1957 0.285707 1.52179L4.34285 5.38048Z" fill="currentColor"/>
<path fill-rule="evenodd" clip-rule="evenodd" d="M4.34285 9.72826C4.68571 10.0543 5.31428 10.0543 5.65714 9.72826L9.71428 5.86957C10.0571 5.54348 10.0571 4.94565 9.71428 4.61957C9.37142 4.29348 8.74285 4.29348 8.39999 4.61957L5.02856 7.82609L1.59999 4.61957C1.25714 4.29348 0.628564 4.29348 0.285707 4.61957C-0.0571498 4.94565 -0.0571498 5.54348 0.285707 5.86957L4.34285 9.72826Z" fill="currentColor"/>
</svg>
