<svg width="20" height="20" viewBox="0 0 20 20" fill="none" xmlns="http://www.w3.org/2000/svg">
<path fill-rule="evenodd" clip-rule="evenodd" d="M4.0002 9.86667C4.2002 10.2 4.4002 10.4667 4.66686 10.6667C6.06686 12.0667 7.4002 13.4 8.8002 14.8C9.0002 15 9.26686 15.2667 9.53353 15.4667C9.86686 15.6667 10.2002 15.7333 10.6002 15.4667C10.8002 15.3333 10.9335 15.2 11.1335 15.0667C12.1335 14.0667 13.1335 13.0667 14.1335 12.0667C14.6002 11.6 15.0669 11.1333 15.5335 10.6C15.8669 10.2667 16.1335 9.93333 16.2669 9.46667C16.4669 8.86667 16.2002 8.4 15.5335 8.2C15.3335 8.13333 15.2002 8.13333 15.0002 8.13333C14.4669 8.13333 13.9335 8.13333 13.4002 8.13333C13.2669 8.13333 13.2002 8.06667 13.2002 7.93333C13.2002 5.53333 13.2002 3.13333 13.2002 0.733333C13.2002 0.266667 12.9335 0 12.4669 0C10.8669 0 9.26686 0 7.66686 0C7.2002 0 6.93353 0.266667 6.93353 0.733333C6.93353 1.93333 6.93353 3.13333 6.93353 4.33333C6.93353 5.53333 6.93353 6.8 6.93353 8C6.93353 8.13333 6.93353 8.2 6.73353 8.2C6.53353 8.2 6.26686 8.2 6.06686 8.2C5.6002 8.2 5.13353 8.13333 4.73353 8.26667C4.06686 8.4 3.73353 8.86667 3.86686 9.53333C3.8002 9.53333 3.86686 9.73333 4.0002 9.86667Z" fill="currentColor"/>
<path fill-rule="evenodd" clip-rule="evenodd" d="M19.2667 16.8666C15.5333 16.8666 3.2 16.8666 0.733333 16.8666C0.266667 16.8666 0 17.1333 0 17.6C0 18.1333 0 18.7333 0 19.2666C0 19.8 0.266667 20 0.733333 20C3.8 20 16.2 20 19.2667 20C19.7333 20 20 19.7333 20 19.3333C20 18.8 20 18.2 20 17.6666C20 17.1333 19.8 16.8666 19.2667 16.8666Z" fill="currentColor"/>
</svg>
