<svg width="15" height="15" viewBox="0 0 15 15" fill="none" xmlns="http://www.w3.org/2000/svg">
<path d="M6.17645 14.16C6.17645 14.4601 5.84557 14.7227 5.51469 14.7227L0.661747 14.7227C0.308806 14.7227 -1.71413e-05 14.4601 -1.7113e-05 14.16L-1.5908e-05 1.40726C-1.58796e-05 1.1072 0.308808 0.844641 0.661749 0.844641L5.51469 0.844642C5.86763 0.844642 6.17645 1.1072 6.17645 1.40726C6.17645 1.70733 5.84557 1.96989 5.51469 1.96989L1.32351 1.96989L1.32351 13.5974L5.51469 13.5974C5.86763 13.5974 6.17645 13.86 6.17645 14.16Z" fill="#E85D5D"/>
<path d="M15 7.78306C15 7.91434 14.9338 8.06438 14.8235 8.1769L11.2941 11.3651C11.0515 11.5526 10.5882 11.6276 10.3235 11.4214C10.0588 11.2151 10.0588 10.8025 10.3235 10.5962L12.8162 8.34568L3.75 8.34568C3.375 8.34568 3.08824 8.10188 3.08824 7.78306C3.08824 7.46424 3.375 7.22044 3.75 7.22044L12.8162 7.22044L10.3235 4.98871C10.1029 4.80117 10.0588 4.36982 10.3235 4.16353C10.5882 3.95723 11.0515 4.01349 11.2941 4.21979L14.8235 7.40798C14.9338 7.5205 15 7.63303 15 7.78306Z" fill="#E85D5D"/>
</svg>
