<svg width="14" height="9" viewBox="0 0 14 9" fill="none" xmlns="http://www.w3.org/2000/svg">
<g clip-path="url(#clip0_502_484)">
<path d="M0 4.47283C0.137003 4.24587 0.269725 4.01891 0.415291 3.79607C1.1474 2.64477 2.09786 1.69566 3.30092 0.998276C4.20856 0.474205 5.18899 0.139954 6.2422 0.0367905C8.37003 -0.169537 10.2281 0.453572 11.8465 1.77819C12.7498 2.51685 13.4477 3.41231 13.9872 4.42744C14.0086 4.46458 14.0086 4.5306 13.9872 4.56774C13.2165 6.00378 12.1462 7.18397 10.6948 8.01753C9.8 8.53335 8.82813 8.85935 7.78777 8.95839C5.65994 9.16471 3.80183 8.5416 2.18349 7.21698C1.32294 6.51134 0.642202 5.66127 0.111315 4.69979C0.0770642 4.63789 0.0342508 4.58012 0 4.52235C0 4.50997 0 4.48933 0 4.47283ZM7.02141 1.68328C5.42446 1.67503 4.11865 2.92537 4.09297 4.48933C4.06728 6.02441 5.39449 7.30777 7.00856 7.31602C8.6055 7.32427 9.91132 6.07393 9.937 4.50997C9.96269 2.97489 8.63547 1.69154 7.02141 1.68328Z" fill="#989898"/>
<path d="M7.02142 2.81056C7.98473 2.81469 8.76821 3.57397 8.76821 4.50245C8.76821 5.43917 7.97188 6.19846 7.00002 6.19021C6.03671 6.18195 5.25323 5.41854 5.26179 4.49007C5.26607 3.5616 6.05812 2.80644 7.02142 2.81056Z" fill="#989898"/>
</g>
<defs>
<clipPath id="clip0_502_484">
<rect width="14" height="9" fill="white"/>
</clipPath>
</defs>
</svg>
