<svg version="1.1" id="Слой_1" width="13" height="15" xmlns="http://www.w3.org/2000/svg"  x="0px" y="0px"
	 viewBox="0 0 13 15.1" style="enable-background:new 0 0 13 15.1;" xml:space="preserve">
<path class="st0" d="M6.5,15.1C2.9,15.1,0,12.3,0,8.9c0-1.1,0.6-2.6,1.2-3.6C1.4,5,1.6,4.7,1.8,4.5l0.7-0.7L2.6,4l0.7-0.2v1.2
	c0.2,0.2,0.3,0.3,0.5,0.4C3.9,5.6,4,5.6,4.1,5.6v0h0.1c0.1-0.1,0.1-0.1,0.1-0.2c0.1-0.3,0-0.9-0.1-1.7c-0.1-0.9,0.2-1.8,1-2.5
	c0.3-0.3,0.7-0.6,1.1-0.8c0.1,0,0.2-0.1,0.3-0.1L7.1,0l0.3,0.6C7.6,0.8,7.7,1,7.9,1.2C8.4,2.1,9,2.8,9.6,3.4l0.2,0.2
	c1.8,1.7,3.2,3,3.2,5.3C13,12.3,10.1,15.1,6.5,15.1z M2.3,6.3C1.9,7.1,1.5,8.2,1.5,8.9c0,2.6,2.2,4.7,5,4.7s5-2.1,5-4.7
	c0-1.6-1.1-2.6-2.7-4.2L8.5,4.5C7.9,3.8,7.2,3,6.6,2.1c0,0,0-0.1-0.1-0.1C6.5,2,6.4,2.1,6.3,2.2C5.8,2.6,5.6,3.1,5.7,3.5
	c0.2,1,0.2,1.7,0.1,2.2C5.7,6,5.6,6.3,5.4,6.6C5.3,6.8,5.1,6.9,4.9,7C4.7,7.1,4.6,7.1,4.5,7.1l-0.2,0c0,0-0.1,0-0.1,0h0c0,0,0,0,0,0
	L4,7.2c-0.1,0-0.2,0-0.3-0.1C3.4,7,3.2,6.9,3,6.8C2.7,6.6,2.5,6.5,2.3,6.3z M2.7,5.3l0-0.2L2.7,5.3z"/>
</svg>
