<svg width="20" height="20" viewBox="0 0 20 20" fill="none" xmlns="http://www.w3.org/2000/svg">
<path d="M0.976372 6.35051H2.12459C2.66354 8.70552 5.01074 10.174 7.36184 9.63503C8.99434 9.2601 10.2714 7.98301 10.6464 6.35051H19.0197C19.5587 6.35051 19.9961 5.9131 19.9961 5.37414C19.9961 4.83519 19.5587 4.39777 19.0197 4.39777H10.6503C10.1074 2.04276 7.76411 0.570393 5.4091 1.11326C3.77661 1.48428 2.49951 2.76137 2.12459 4.39777H0.976372C0.437415 4.39777 0 4.83519 0 5.37414C0 5.9131 0.437415 6.35051 0.976372 6.35051ZM6.38547 2.95274C7.72115 2.95274 8.80297 4.03456 8.80297 5.37024C8.80297 6.70591 7.72115 7.78773 6.38547 7.78773C5.0498 7.78773 3.96798 6.70591 3.96798 5.37024C3.96798 4.03847 5.0498 2.95665 6.38547 2.95274Z" fill="currentColor"/>
<path d="M19.0236 13.4117H17.8754C17.3365 11.0566 14.9893 9.58818 12.6382 10.1271C11.0057 10.5021 9.72857 11.7792 9.35364 13.4117H0.976372C0.437415 13.4117 0 13.8491 0 14.388C0 14.927 0.437415 15.3644 0.976372 15.3644H9.34974C9.88869 17.7194 12.2359 19.1879 14.587 18.6489C16.2195 18.274 17.4966 16.9969 17.8715 15.3644H19.0197C19.5587 15.3644 19.9961 14.927 19.9961 14.388C19.9961 13.8491 19.5626 13.4117 19.0236 13.4117ZM13.6106 16.8094C12.2749 16.8094 11.1931 15.7276 11.1931 14.3919C11.1931 13.0563 12.2749 11.9744 13.6106 11.9744C14.9463 11.9744 16.0281 13.0563 16.0281 14.3919C16.0281 15.7237 14.9463 16.8055 13.6106 16.8094Z" fill="currentColor"/>
</svg>
