<svg width="12" height="15" viewBox="0 0 12 15" fill="none" xmlns="http://www.w3.org/2000/svg">
<path fill-rule="evenodd" clip-rule="evenodd" d="M5.79992 15C4.49992 13.4 3.09992 12 1.89992 10.4C1.19992 9.50003 0.599916 8.50003 0.299916 7.40003C-0.200084 5.40003 0.099916 3.50003 1.49992 1.90003C2.39992 0.900028 3.49992 0.300028 4.79992 0.100028C5.99992 -0.0999724 7.39992 2.76566e-05 8.59992 0.700028C10.0999 1.50003 10.9999 2.80003 11.3999 4.50003C11.7999 6.30003 11.3999 7.90003 10.4999 9.40003C9.79992 10.5 8.99992 11.4 8.19992 12.3C7.39992 13.2 6.59992 14.1 5.79992 14.9C5.79992 14.9 5.79992 14.9 5.79992 15ZM5.79992 7.80003C7.09992 7.80003 8.19992 6.70003 8.19992 5.40003C8.19992 4.10003 7.09992 3.00003 5.89992 3.00003C4.59992 3.00003 3.49992 4.00003 3.49992 5.40003C3.39992 6.70003 4.49992 7.80003 5.79992 7.80003Z" fill="#E85D5D"/>
</svg>
