<svg width="36" height="33" viewBox="0 0 36 33" fill="none" xmlns="http://www.w3.org/2000/svg">
<path d="M18.0334 3.82295C18.3794 3.47128 18.6695 3.16984 18.9653 2.87399C20.1092 1.70732 21.4763 0.953735 23.0889 0.719285C25.3879 0.389939 27.4246 0.99281 29.1042 2.61721C30.6666 4.12997 32.1955 5.68181 33.7244 7.23364C34.913 8.44496 35.5714 9.91306 35.6998 11.61C35.8728 13.8652 35.125 15.7687 33.5291 17.3485C33.345 17.5327 33.1497 17.7113 32.9823 17.9067C32.9377 17.9625 32.9153 18.1021 32.9544 18.1579C33.6073 19.0734 33.4064 20.7257 32.4968 21.5239C31.9388 22.0096 31.3083 22.311 30.5662 22.3668C30.3206 22.3836 30.2258 22.4673 30.2146 22.7352C30.1756 24.1587 29.0093 25.3756 27.592 25.4872C27.313 25.5096 27.1568 25.5765 27.1233 25.9059C27.0173 26.9218 26.4872 27.681 25.572 28.1332C24.9471 28.4402 24.283 28.4569 23.6134 28.295C23.407 28.2448 23.2842 28.2783 23.1503 28.4681C22.3523 29.6348 21.2754 30.5502 20.2877 31.5438C19.1996 32.6324 17.4029 32.6435 16.2924 31.9346C15.6507 31.5215 15.2601 30.9242 15.0425 30.2097C14.97 29.9864 14.8584 29.8971 14.6352 29.8357C13.0728 29.4115 11.9456 28.5239 11.5717 26.8604C11.5494 26.7655 11.4266 26.6371 11.3318 26.6204C9.92004 26.3748 9.02166 25.5319 8.64221 24.1866C8.49155 23.6451 8.27951 23.4051 7.71593 23.2432C6.31534 22.8413 5.42812 21.8756 5.19376 20.4186C5.1268 20.0112 4.95939 19.7488 4.69155 19.4808C3.90477 18.7105 3.11799 17.9346 2.34794 17.1419C1.24867 16.0143 0.595812 14.6579 0.417251 13.0893C0.154989 10.8285 0.791113 8.85246 2.37584 7.21689C3.93267 5.61482 5.50066 4.02949 7.11887 2.48882C8.49155 1.17702 10.1711 0.585314 12.0739 0.629971C13.9879 0.669046 15.6117 1.37798 16.9676 2.72327C17.3136 3.06937 17.6484 3.42662 18.0334 3.82295ZM11.9177 2.03667C10.333 2.04783 8.97702 2.61163 7.86101 3.72248C6.38788 5.17941 4.92033 6.64751 3.46395 8.1212C1.17613 10.4378 1.19287 13.9769 3.49185 16.2767C4.20051 16.9856 4.91475 17.7001 5.62342 18.4091C5.8801 18.6659 5.8801 18.6603 6.14236 18.4035C7.19699 17.382 8.24603 16.3493 9.30624 15.3389C10.0372 14.6411 10.9189 14.4402 11.8842 14.6914C13.1007 15.004 14.0493 16.2153 14.1051 17.4713C14.1218 17.8732 14.1218 17.8732 14.5403 17.8788C14.7189 17.8844 14.8974 17.8788 15.0648 17.9179C16.3371 18.1858 17.2076 19.1348 17.3917 20.4466C17.414 20.6084 17.4754 20.6643 17.6372 20.681C19.2108 20.8206 20.4663 22.0933 20.5723 23.673C20.5835 23.8461 20.6449 23.9075 20.8178 23.9298C21.3424 24.0024 21.8222 24.1978 22.2519 24.4992C22.9717 25.0072 23.3177 25.7384 23.5353 26.559C23.5632 26.6651 23.6246 26.8214 23.7083 26.8493C24.5286 27.1395 25.4604 26.9386 25.6948 25.8612C25.7729 25.504 25.7841 25.1411 25.4939 24.8453C23.7697 23.0813 22.051 21.3174 20.3324 19.5534C19.819 19.0287 19.3056 18.504 18.7979 17.9737C18.5468 17.7113 18.5077 17.4322 18.6639 17.1308C18.7979 16.8628 19.0601 16.6842 19.3782 16.7847C19.6405 16.8684 19.886 17.0749 20.0869 17.2759C22.2296 19.4585 24.3612 21.6523 26.5039 23.8405C26.6211 23.9633 26.8108 24.0526 26.9838 24.0805C27.4748 24.1643 27.9268 24.0247 28.3118 23.7177C28.9256 23.2265 28.9647 22.3222 28.4067 21.7639C26.4871 19.8325 24.5676 17.8955 22.6481 15.9585C22.397 15.7073 22.1459 15.4617 21.9059 15.1994C21.7051 14.9816 21.666 14.6467 21.7888 14.3955C21.9283 14.122 22.1515 14.0215 22.4528 14.0215C22.715 14.0215 22.8824 14.1722 23.0443 14.3397C25.1535 16.4665 27.2572 18.5933 29.3664 20.7201C29.4557 20.8094 29.5617 20.9266 29.6733 20.9434C30.3541 21.0606 30.9791 20.9434 31.5259 20.4856C31.9221 20.1563 32.056 19.2464 31.6264 18.811C28.5908 15.7687 25.5888 12.6986 22.5811 9.62838C22.4026 9.44975 22.3077 9.53348 22.1794 9.66187C21.0801 10.7336 19.9864 11.811 18.876 12.8716C17.4866 14.1946 15.8516 14.7695 13.9488 14.3118C12.8607 14.055 11.9344 13.4912 11.276 12.5646C10.7347 11.8054 10.7961 11.0909 11.4211 10.4155C11.7503 10.0638 12.0963 9.72327 12.4366 9.37718C13.9042 7.90908 15.3717 6.44656 16.8449 4.98404C16.9955 4.83332 17.0178 4.73842 16.8504 4.58212C16.5435 4.29744 16.259 3.99042 15.9576 3.70015C14.836 2.61721 13.4913 2.04783 11.9177 2.03667ZM34.3271 12.2017C34.3271 12.1292 34.3327 12.051 34.3271 11.9785C34.3215 11.8947 34.2992 11.811 34.2936 11.7328C34.1988 10.3875 33.6798 9.22646 32.7479 8.27192C31.219 6.70892 29.6733 5.16825 28.1165 3.63316C27.1456 2.67862 25.957 2.15389 24.6011 2.06458C22.8713 1.95294 21.3535 2.52232 20.1203 3.73922C17.5814 6.25118 15.0704 8.78547 12.5371 11.3086C12.3306 11.5151 12.325 11.677 12.5092 11.878C13.1341 12.5757 13.9153 12.9665 14.8416 13.0391C16.0413 13.134 17.0402 12.6874 17.8883 11.8668C19.1996 10.5997 20.5054 9.32694 21.8111 8.0598C22.2352 7.64672 22.5867 7.64672 23.0108 8.06538C23.3902 8.44496 23.7697 8.83013 24.1491 9.2153C26.6601 11.7663 29.1656 14.323 31.671 16.8796C31.8049 17.0135 31.8886 17.008 32.0114 16.8796C32.2402 16.6395 32.4913 16.4107 32.72 16.1651C33.7691 15.0486 34.2936 13.7201 34.3271 12.2017ZM19.1661 23.9466C19.1717 23.0757 18.5244 22.2663 17.7209 22.1045C17.3805 22.0375 17.0792 22.0877 16.8058 22.3612C15.5838 23.6005 14.3506 24.823 13.1118 26.0399C12.9556 26.1906 12.9054 26.3413 12.95 26.559C13.1453 27.508 13.7814 28.0271 14.6352 28.3676C15.0258 28.5239 15.288 28.4569 15.5782 28.1443C16.6328 27.0056 17.7153 25.8891 18.7979 24.7839C19.0601 24.5271 19.1829 24.248 19.1661 23.9466ZM14.4287 19.2966C13.9935 19.2911 13.5917 19.3469 13.2569 19.6818C12.2804 20.6475 11.3095 21.63 10.2827 22.5399C9.80844 22.9585 9.79728 23.3549 10.0093 23.8572C10.0205 23.8852 10.0261 23.9075 10.0372 23.9354C10.3218 24.7113 10.8742 25.1467 11.6889 25.2304C11.8061 25.2416 11.9735 25.1914 12.0572 25.1076C13.3183 23.8572 14.5738 22.6013 15.8237 21.3397C15.8963 21.2671 15.9632 21.1555 15.98 21.055C16.1195 20.0223 15.3103 19.1962 14.4287 19.2966ZM12.738 17.6778C12.671 17.4378 12.6319 17.1866 12.5315 16.9633C12.0572 15.9529 10.9802 15.6962 10.2214 16.4218C9.04956 17.5383 7.90007 18.677 6.73384 19.799C6.58318 19.9442 6.54412 20.1005 6.58876 20.3014C6.8008 21.2057 7.63781 21.9482 8.56409 22.0096C8.69801 22.0207 8.871 21.937 8.97702 21.8421C10.0819 20.7927 11.17 19.7209 12.2804 18.677C12.5761 18.3923 12.7101 18.0853 12.738 17.6778ZM18.0725 31.008C18.4686 31.0303 18.8648 30.9298 19.155 30.6395C20.0255 29.7799 20.9015 28.9202 21.7274 28.0104C22.33 27.3405 22.3244 26.9721 21.8836 26.185C21.878 26.1794 21.8725 26.1683 21.8669 26.1627C21.599 25.6714 21.1638 25.4202 20.6393 25.3477C20.4551 25.3253 20.1873 25.3979 20.059 25.5319C18.8313 26.7767 17.6261 28.0438 16.4208 29.311C16.3594 29.378 16.3148 29.5175 16.3371 29.6013C16.5547 30.3883 16.9732 30.9968 18.0725 31.008Z" fill="#FFA300"/>
</svg>
