<svg width="21" height="18" viewBox="0 0 21 18" fill="none" xmlns="http://www.w3.org/2000/svg">
<path d="M14.4 0C12.7 0 11.2 0.7 10.1 2C9 0.7 7.5 0 5.8 0C2.6 0 0 2.8 0 6.3C0 13.4 9.7 17.7 9.8 17.7C9.9 17.7 10 17.8 10.1 17.8C10.2 17.8 10.3 17.8 10.4 17.7C10.5 17.7 20.2 13.4 20.2 6.3C20.3 2.8 17.7 0 14.4 0ZM5.8 1.6C7.3 1.6 8.6 2.4 9.5 3.8C9.6 4 9.9 4.2 10.2 4.2C10.5 4.2 10.8 4 10.9 3.8C11.6 2.4 13 1.6 14.5 1.6C16.9 1.6 18.7 3.6 18.7 6.3C18.7 11.7 11.7 15.3 10.1 16.1C8.5 15.3 1.5 11.7 1.5 6.3C1.6 3.6 3.4 1.6 5.8 1.6Z" fill="#131313"/>
</svg>
