
<svg version="1.1" width="20" height="17.8" id="Слой_1" xmlns="http://www.w3.org/2000/svg" xmlns:xlink="http://www.w3.org/1999/xlink" x="0px" y="0px"
	 viewBox="0 0 20.2 17.8" style="enable-background:new 0 0 20.2 17.8;" xml:space="preserve">
<path class="st0" d="M14.4,0c-1.7,0-3.2,0.7-4.3,2C9,0.7,7.5,0,5.8,0C2.6,0,0,2.8,0,6.3c0,7.1,9.7,11.4,9.8,11.4
	c0.1,0,0.2,0.1,0.3,0.1c0.1,0,0.2,0,0.3-0.1c0.1,0,9.8-4.3,9.8-11.4C20.3,2.8,17.7,0,14.4,0z M5.8,1.6c1.5,0,2.8,0.8,3.7,2.2
	C9.6,4,9.9,4.2,10.2,4.2s0.6-0.2,0.7-0.4c0.7-1.4,2.1-2.2,3.6-2.2c2.4,0,4.2,2,4.2,4.7c0,5.4-7,9-8.6,9.8c-1.6-0.8-8.6-4.4-8.6-9.8
	C1.6,3.6,3.4,1.6,5.8,1.6z"/>
</svg>
