<svg width="21" height="19" viewBox="0 0 21 19" fill="none" xmlns="http://www.w3.org/2000/svg">
<path d="M20.5645 9.34747L11.6142 0.777805L11.0143 0.203092C10.8776 0.0730081 10.6927 0 10.5 0C10.3074 0 10.1225 0.0730081 9.98582 0.203092L0.435567 9.34747C0.295501 9.48113 0.184804 9.64031 0.110011 9.81562C0.035218 9.99094 -0.00215565 10.1788 9.60113e-05 10.3682C0.00936135 11.1493 0.688047 11.7728 1.5034 11.7728H2.48784V19H18.5122V11.7728H19.5175C19.9136 11.7728 20.2866 11.6241 20.5668 11.3556C20.7048 11.2239 20.8142 11.0672 20.8885 10.8946C20.9629 10.7221 21.0008 10.5371 21 10.3504C21 9.97322 20.8448 9.61597 20.5645 9.34747ZM11.7972 17.4023H9.20289V12.8756H11.7972V17.4023ZM16.8445 10.1751V17.4023H13.2796V12.3431C13.2796 11.8527 12.865 11.4555 12.3531 11.4555H8.64697C8.13506 11.4555 7.72044 11.8527 7.72044 12.3431V17.4023H4.1556V10.1751H1.93192L10.5024 1.97161L11.0374 2.48419L19.0705 10.1751H16.8445Z" fill="#E85D5D"/>
</svg>
