<svg version="1.1" width="80" height="64" id="Слой_1" xmlns="http://www.w3.org/2000/svg"
	 viewBox="0 0 80 63.6" style="enable-background:new 0 0 80 63.6;" xml:space="preserve" fill="currentColor">
<path class="st0" d="M78.8,45h-15v-7.2c0-0.6-0.6-1.2-1.2-1.2h-1.4v-7.2c2.4-2.2,5-4.8,6-6c0.4-0.4,0.5-1,0.2-1.4
	c-1-2.5-9.4-12.4-11.1-14.4C51.9,2.2,42.4,0.1,42,0c-0.3-0.1-0.7,0-1,0.2c-1.5,1-4.2,1.7-7,1.7s-5.5-0.6-7-1.7
	c-0.3-0.2-0.7-0.3-1-0.2c-0.4,0.1-10,2.2-14.5,7.5c-1.7,2-10,11.9-11.2,14.6c-0.2,0.5-0.1,1,0.2,1.4c2.2,2.2,9.5,9.6,11.2,10.2
	c0.5,0.2,1,0.1,1.4-0.3l0.5-0.5v24.5c0,0.7,0.6,1.3,1.3,1.3h22.2v3.7c0,0.6,0.6,1.2,1.2,1.2h40.7c0.6,0,1.2-0.6,1.2-1.2V46.2
	C80,45.6,79.5,45,78.8,45z M36.9,37.9v18.3H16V30c0-0.6-0.3-1-0.8-1.2c-0.5-0.2-1-0.1-1.4,0.2l-1.9,1.9c-1.4-1.2-5.1-4.6-9-8.6
	c1.6-2.6,6.6-8.6,10.3-13.2c3.4-4,10.3-5.9,12.5-6.5c2,1.2,4.9,1.8,8.1,1.8s6.1-0.6,8.1-1.8c2.2,0.6,9.2,2.6,12.6,6.6
	c3.8,4.5,8.7,10.6,10.3,13.2c-1.2,1.2-2.4,2.4-3.5,3.5v-4.3c0-0.6-0.6-1.2-1.2-1.2H43.9c-0.6,0-1.2,0.6-1.2,1.2v15h-4.6
	C37.5,36.7,36.9,37.2,36.9,37.9z M50.7,25.6h2.6c0.4,0,0.8-0.3,0.8-0.8v-2H59v13.8H45.1V22.8H50v2C49.9,25.3,50.3,25.6,50.7,25.6z
	 M61.5,61.2H39.3V39H48v4.1c0,0.4,0.3,0.8,0.8,0.8H52c0.4,0,0.8-0.3,0.8-0.8V39h8.7L61.5,61.2L61.5,61.2z M77.7,61.2H63.9V47.4h4.9
	v2c0,0.4,0.3,0.8,0.8,0.8H72c0.4,0,0.8-0.3,0.8-0.8v-2h4.9V61.2z"/>
</svg>
