<svg width="55" height="55" viewBox="0 0 55 55" fill="none" xmlns="http://www.w3.org/2000/svg">
<path d="M42.7779 31C36.0557 31 30.5557 36.4 30.5557 43C30.5557 49.6 36.0557 55 42.7779 55C49.5001 55 55.0001 49.6 55.0001 43C55.0001 36.4 49.5001 31 42.7779 31ZM42.7779 53C37.176 53 32.5927 48.5 32.5927 43C32.5927 37.5 37.176 33 42.7779 33C48.3797 33 52.9631 37.5 52.9631 43C52.9631 48.5 48.3797 53 42.7779 53Z" fill="#E85D5D"/>
<path d="M48.8884 42H43.7958V37C43.7958 36.5 43.2866 36 42.7773 36C42.268 36 41.7588 36.5 41.7588 37V43C41.7588 43.5 42.268 44 42.7773 44H48.8884C49.3977 44 49.9069 43.5 49.9069 43C49.9069 42.5 49.3977 42 48.8884 42Z" fill="#E85D5D"/>
<path d="M27.5 14H45.8333C46.3426 14 46.8518 13.6 46.8518 13C46.8518 12.4 46.3426 12 45.8333 12H27.5C26.9907 12 26.4814 12.4 26.4814 13C26.4814 13.6 26.9907 14 27.5 14Z" fill="#E85D5D"/>
<path d="M27.5 28H45.8333C46.3426 28 46.8518 27.5 46.8518 27C46.8518 26.5 46.3426 26 45.8333 26H27.5C26.9907 26 26.4814 26.5 26.4814 27C26.4814 27.5 26.9907 28 27.5 28Z" fill="#E85D5D"/>
<path d="M20.9816 7.20001C20.5742 6.80001 19.9631 6.90001 19.5557 7.30001L13.139 14.6L9.26863 11.7C8.86122 11.4 8.14826 11.5 7.8427 12C7.53715 12.4 7.639 13.1 8.04641 13.4L12.7316 16.8C12.9353 16.9 13.139 17 13.3427 17C13.6483 17 13.9538 16.9 14.1575 16.6L21.1853 8.60001C21.389 8.20001 21.389 7.60001 20.9816 7.20001Z" fill="#E85D5D"/>
<path d="M20.9816 21.2C20.5742 20.8 19.9631 20.9 19.5557 21.3L13.139 28.6L9.26863 25.7C8.86122 25.4 8.14826 25.5 7.8427 26C7.53715 26.4 7.639 27.1 8.04641 27.4L12.7316 30.8C12.9353 30.9 13.139 31 13.3427 31C13.6483 31 13.9538 30.9 14.1575 30.6L21.1853 22.6C21.389 22.2 21.389 21.6 20.9816 21.2Z" fill="#E85D5D"/>
<path d="M19.5557 36.3L13.139 43.6L9.26863 40.7C8.86122 40.4 8.14826 40.5 7.8427 41C7.53715 41.4 7.639 42.1 8.04641 42.4L12.7316 45.8C12.9353 45.9 13.139 46 13.3427 46C13.6483 46 13.9538 45.9 14.1575 45.7L21.1853 37.7C21.5927 37.3 21.4909 36.7 21.0834 36.3C20.5742 35.9 19.8612 35.9 19.5557 36.3Z" fill="#E85D5D"/>
<path d="M42.5741 0H12.4259C5.60185 0 0 5.5 0 12.2V41.9C0 48.5 5.60185 54 12.4259 54H27.5C28.0093 54 28.5185 53.5 28.5185 53C28.5185 52.5 28.0093 52 27.5 52H12.4259C6.72222 52 2.03704 47.4 2.03704 41.8V12.2C2.03704 6.6 6.72222 2 12.4259 2H42.6759C48.2778 2 52.963 6.6 52.963 12.2V27C52.963 27.5 53.4722 28 53.9815 28C54.4907 28 55 27.5 55 27V12.2C55 5.5 49.3982 0 42.5741 0Z" fill="#E85D5D"/>
</svg>
