<svg version="1.1" width="60" height="80" xmlns="http://www.w3.org/2000/svg"
	 viewBox="0 0 60 80" style="enable-background:new 0 0 60 80;" xml:space="preserve">
<linearGradient x1="30.1201" y1="71.1199" x2="30.1201" y2="30.5599">
	<stop  offset="0" style="stop-color:#000000"/>
	<stop  offset="0.9999" style="stop-color:#000000"/>
	<stop  offset="1" style="stop-color:#000000"/>
</linearGradient>
<path class="st0" d="M15,42.1l3.2,5.4l6.1,1.4l5.8,2.6l5.8-2.5l6.2-1.4l3.2-5.4l4.2-4.7l-0.6-6.2l0.6-6.3l-4.2-4.7l-3.2-5.4L36,13.4
	l-5.8-2.6l-5.8,2.5l-6.2,1.4L15,20.1l-4.2,4.7l0.6,6.2l-0.6,6.3L15,42.1z M13.4,25.7l3.6-4l2.8-4.7l5.3-1.1l5-2.2l4.9,2.2l5.4,1.2
	l2.7,4.6l3.7,4.2l-0.6,5.4l0.6,5.4l-3.6,4l-2.8,4.7l-5.3,1.1l-5,2.2l-4.9-2.2l-5.4-1.2l-2.7-4.6l-3.7-4.2L14,31L13.4,25.7z"/>
<linearGradient x1="30" y1="82" x2="30" y2="2">
	<stop  offset="0" style="stop-color:#000000"/>
	<stop  offset="0.9999" style="stop-color:#000000"/>
	<stop  offset="1" style="stop-color:#000000"/>
</linearGradient>
<path class="st1" d="M51.5,50.2l1.2-2.3l7-7.1l-1.4-9.4l1.4-9.9L53,14.8l-4.6-8.9L39,4.5l-9-4.5l-8.5,4.3l-9.8,1.6l-4.3,8.5l-7,7.1
	l1.4,9.4l-1.4,9.9l6.7,6.7l1.4,2.6L0,70.6l12.6,1.7L22.6,80L30,62.3h0.1L37.4,80l10.1-7.7L60,70.6L51.5,50.2z M3.1,39.9l1.1-7.8
	l4.3,0.1l0.1-2.5l-4.4-0.1l-1.1-7.3l5.4-5.6l3.3,2.5l1.5-2l-3.3-2.5l3.4-6.6L21.1,7l1.2,4.2l2.4-0.7l-1.3-4.2L30,2.9l7,3.4l-1.5,4
	l2.3,0.9l1.6-4.1l7.3,1.2l3.8,6.9l-3.7,2.6l1.4,2.1l3.8-2.6l5.2,5.2L56,30.2l-4.2-0.2l-0.1,2.5l4.2,0.2l1.1,7.3l-5.6,5.7l-3.4-2.6
	l-1.5,2l3.4,2.6l-3.3,6.4L39,55.4l-1.3-4.2L35.4,52l1.3,4.2l-6.6,3.4L23,56l1.4-4.2L22,51l-1.5,4.3l-7.1-1.1l-3.6-7l3.5-2.5
	l-1.4-2.1l-3.6,2.5L3.1,39.9z M21.6,76l-7-5.3l2.5-5.1l-2.2-1.1l-2.5,5.2l-8.8-1.1L10,53l1.8,3.4l8.2,1.3l2.2,0.7v-0.1l5.6,2.8
	L21.6,76z M32.3,61.2l6.2-3.2l9.8-1.7l1.7-3.2l6.4,15.4l-8.6,1.1l-2.4-5l-2.2,1.1l2.3,4.9L38.4,76L32.3,61.2z"/>
<linearGradient x1="30.08" y1="65.04" x2="30.08" y2="40.32">
	<stop  offset="0" style="stop-color:#000000"/>
	<stop  offset="0.9999" style="stop-color:#000000"/>
	<stop  offset="1" style="stop-color:#000000"/>
</linearGradient>
<path d="M22.1,41.7l8-3.7l8,3.7l-1-8.7l5.9-6.5l-8.6-1.8L30.1,17l-4.3,7.7l-8.6,1.8l5.9,6.5L22.1,41.7z M22,28l5.4-1.1
	l2.7-4.8l2.7,4.8l5.4,1.1l-3.7,4.1l0.6,5.4l-5-2.2l-5,2.2l0.6-5.4L22,28z"/>
</svg>
