<svg width="90" height="85" viewBox="0 0 90 85" fill="none" xmlns="http://www.w3.org/2000/svg">
<path d="M0 84.0308C0 84.5156 0.48913 85.0004 0.978261 85.0004H89.1848C89.6739 85.0004 90.163 84.5156 90.163 84.0308V30.219L45.3261 0.161969C45 0.00037225 44.5109 0.00037225 44.1848 0.161969L0 29.7342V29.8958V30.0574V84.0308ZM2.93478 83.0612L34.5652 54.4585L44.5109 61.084C44.5109 61.084 44.6739 61.084 44.837 61.084H45C45 61.084 45.163 61.084 45.3261 60.9224L45.4891 60.7608L55.1087 54.4585L55.2717 54.6201L86.7391 83.0612H2.93478ZM18.2609 41.2076V28.603H71.413V41.2076L44.837 58.9833L44.6739 58.8217L18.2609 41.2076ZM88.0435 81.7684L56.5761 53.3274L88.0435 32.3198V81.7684ZM2.77174 30.219L44.837 2.10113L45 2.26273L87.3913 30.5422L73.3696 39.9148V27.6335C73.3696 27.1487 72.8804 26.6639 72.3913 26.6639H17.2826C16.7935 26.6639 16.3043 27.1487 16.3043 27.6335V39.9148L2.28261 30.5422L2.77174 30.219ZM1.46739 32.3198L32.9348 53.3274L1.46739 81.7684V32.3198Z" fill="currentColor"/>
<path d="M27.3913 36.3594H62.2826C63.0978 36.3594 63.5869 35.713 63.5869 35.0666C63.5869 34.4202 62.9347 33.7738 62.2826 33.7738H27.3913C26.576 33.7738 26.0869 34.4202 26.0869 35.0666C26.0869 35.713 26.576 36.3594 27.3913 36.3594Z" fill="currentColor"/>
<path d="M62.2826 41.8536H27.3913C26.576 41.8536 26.0869 42.5 26.0869 43.1464C26.0869 43.7928 26.7391 44.4392 27.3913 44.4392H62.2826C63.0978 44.4392 63.5869 43.7928 63.5869 43.1464C63.5869 42.5 63.0978 41.8536 62.2826 41.8536Z" fill="currentColor"/>
<defs>
<clipPath id="clip0_1119:2342">
<rect width="90" height="85" fill="white"/>
</clipPath>
</defs>
</svg>
