
<svg width="15px" height="10px" xmlns="http://www.w3.org/2000/svg" xmlns:xlink="http://www.w3.org/1999/xlink" x="0px" y="0px"
	 viewBox="0 0 15 10.8" style="enable-background:new 0 0 15 10.8;" xml:space="preserve">
	<defs>
		<rect id="SVGID_1_" width="15" height="10.8"/>
	</defs>
    <clipPath id="SVGID_2_">
		<use xlink:href="#SVGID_1_"  style="overflow:visible;"/>
	</clipPath>
    <g class="st0">
		<path class="st1" d="M0.7,0.1C0.9,0.1,1.1,0,1.3,0c3.3,0,6.6,0,10,0c0.8,0,1.6,0,2.4,0c0.2,0,0.4,0.1,0.6,0.1c0,0,0,0,0,0.1
			l-0.1,0.1c-2,2-3.9,3.9-5.9,5.9c-0.5,0.5-1.1,0.5-1.6,0c-2-2-3.9-3.9-5.9-5.9C0.8,0.3,0.7,0.3,0.7,0.1C0.7,0.2,0.7,0.2,0.7,0.1z"
        />
        <path class="st1" d="M5.4,5.9c0.2,0.2,0.5,0.5,0.8,0.8C7,7.6,8,7.6,8.9,6.7C9.1,6.5,9.4,6.2,9.6,6c1.6,1.6,3.1,3.1,4.7,4.7
			c-0.2,0-0.4,0.1-0.7,0.1c-2.5,0-4.9,0-7.4,0c-1.6,0-3.3,0-4.9,0c-0.2,0-0.5,0-0.7-0.2C2.2,9,3.8,7.5,5.4,5.9z"/>
        <path class="st1" d="M10.2,5.4c1.5-1.5,3.1-3,4.7-4.6C15,0.9,15,1.1,15,1.3c0,2.7,0,5.4,0,8.1c0,0.2-0.1,0.4-0.1,0.6
			C13.3,8.5,11.8,6.9,10.2,5.4z"/>
        <path class="st1" d="M0.1,0.7c1.6,1.6,3.1,3.1,4.7,4.7C3.2,6.9,1.7,8.5,0.1,10C0.1,9.9,0,9.7,0,9.5C0,6.8,0,4,0,1.3
			C0,1.1,0.1,0.9,0.1,0.7z"/>
	</g>
</svg>
