<svg width="17" height="17" viewBox="0 0 17 17" fill="none" xmlns="http://www.w3.org/2000/svg">
<g clip-path="url(#clip0_1128_2670)">
<path d="M4.6997 10.1081H3.07512V12.6811H0.609253V14.427H3.07512V17H4.6997V14.427H7.16557V12.6811H4.6997V10.1081Z" fill="currentColor"/>
<path d="M16.5918 2.2973L12.9945 0.122522C12.8785 0.0306306 12.7624 0 12.6174 0H10.5867L10.1515 0.0306306C9.89043 0.0306306 9.74538 0.551351 9.74538 0.857657C9.74538 1.59279 9.19419 2.17477 8.49794 2.17477C7.80169 2.17477 7.2505 1.59279 7.2505 0.857657C7.2505 0.398198 6.90238 0 6.43821 0H4.37849C4.23343 0 4.11739 0.0306306 3.97234 0.122522L0.404082 2.26667C0.0849696 2.45045 -0.0600816 2.84865 0.0269492 3.24685L1.04231 7.04504C1.15835 7.47387 1.5935 7.74955 1.99965 7.62703L3.04401 7.35135V8H4.63958V6.24865C4.63958 5.97297 4.52354 5.72793 4.32046 5.57477C4.11739 5.42162 3.8563 5.36036 3.62422 5.42162L2.31876 5.75856L1.73855 3.43063L4.61057 1.71531H5.77098C6.1191 2.97117 7.2505 3.89009 8.52695 3.89009C9.8034 3.89009 10.9058 3.0018 11.2829 1.71531H12.4433L15.3153 3.43063L14.6771 5.78919L13.3717 5.45225C13.1396 5.39099 12.8785 5.45225 12.6754 5.6054C12.4723 5.75856 12.3563 6.0036 12.3563 6.27928V12.7423H9V14.427H13.1396C13.5747 14.427 13.9519 14.0595 13.9519 13.5694V7.35135L14.9962 7.62703C15.4024 7.74955 15.8375 7.47387 15.9536 7.04504L16.9689 3.24685C17.085 2.87928 16.9109 2.48108 16.5918 2.2973Z" fill="currentColor"/>
</g>
<defs>
<clipPath id="clip0_1128_2670">
<rect width="17" height="17" fill="white"/>
</clipPath>
</defs>
</svg>
