<svg width="8" height="14" viewBox="0 0 8 14" fill="none" xmlns="http://www.w3.org/2000/svg">
<path fill-rule="evenodd" clip-rule="evenodd" d="M3.9611 7.22781C3.02906 7.22781 2.12809 6.8507 1.46013 6.17506C0.807703 5.49941 0.434887 4.58808 0.434887 3.64532C0.434887 2.68684 0.807703 1.77551 1.47566 1.09986C2.14363 0.424216 3.02906 0.0313987 3.97664 0.015686C4.44266 0.015686 4.90868 0.109962 5.34363 0.298514C5.77858 0.487067 6.16693 0.754182 6.49314 1.08415C6.81936 1.42983 7.08343 1.82264 7.25431 2.2626C7.42518 2.70256 7.51838 3.17394 7.50285 3.64532C7.50285 4.1167 7.42518 4.58808 7.23877 5.02803C7.0679 5.46799 6.80382 5.86081 6.47761 6.19077C6.15139 6.52074 5.76304 6.78785 5.32809 6.96069C4.89314 7.14925 4.42712 7.22781 3.9611 7.22781ZM3.9611 2.1369C3.75916 2.1369 3.57275 2.18404 3.38634 2.2626C3.19994 2.34116 3.0446 2.45115 2.90479 2.59257C2.76499 2.73398 2.65625 2.90682 2.59411 3.09537C2.51644 3.28392 2.48537 3.48819 2.50091 3.67674C2.50091 3.86529 2.53198 4.06956 2.60965 4.2424C2.68732 4.41524 2.79605 4.58808 2.93586 4.71378C3.07566 4.85519 3.231 4.94947 3.41741 5.02803C3.60382 5.09088 3.79023 5.12231 3.97664 5.12231C4.16304 5.12231 4.34945 5.09088 4.53586 5.02803C4.70673 4.96518 4.87761 4.85519 5.01741 4.71378C5.15722 4.57236 5.26596 4.41524 5.34363 4.2424C5.4213 4.06956 5.45236 3.88101 5.4679 3.67674C5.4679 3.47248 5.43683 3.28392 5.37469 3.09537C5.29702 2.90682 5.20382 2.73398 5.06401 2.59257C4.92421 2.45115 4.76887 2.34116 4.58246 2.2626C4.36499 2.18404 4.16304 2.1369 3.9611 2.1369ZM5.39023 10.2132L7.40965 12.2087C7.50285 12.303 7.58052 12.413 7.62712 12.5387C7.67372 12.6644 7.70479 12.7901 7.70479 12.9315C7.70479 13.0729 7.67372 13.1986 7.62712 13.3243C7.58052 13.45 7.50285 13.56 7.40965 13.6543C7.31644 13.7643 7.20771 13.8428 7.08343 13.9057C6.95916 13.9686 6.81936 14 6.69508 14C6.55528 14 6.43101 13.9686 6.30673 13.9057C6.18246 13.8428 6.07372 13.7643 5.98052 13.6543L3.9611 11.6588L2.00382 13.6543C1.91062 13.7486 1.78634 13.8271 1.66207 13.89C1.5378 13.9371 1.39799 13.9686 1.25819 13.9528C0.978577 13.9371 0.730033 13.8428 0.528091 13.6543C0.434887 13.56 0.357217 13.45 0.310615 13.3243C0.264013 13.1986 0.232945 13.0729 0.232945 12.9315C0.232945 12.7901 0.264013 12.6644 0.310615 12.5387C0.357217 12.413 0.434887 12.303 0.528091 12.2087L2.59411 10.2132C1.86401 9.97753 1.14945 9.66328 0.481489 9.27046C0.248479 9.11333 0.0931396 8.87764 0.0310036 8.61053C-0.0311323 8.34341 -6.43316e-05 8.06058 0.139742 7.82489C0.217411 7.69919 0.310615 7.60491 0.434887 7.52635C0.543625 7.44779 0.683431 7.38494 0.823237 7.36922C0.963043 7.3378 1.10285 7.3378 1.24265 7.36922C1.38246 7.40065 1.50673 7.4635 1.631 7.54206C2.34557 7.98202 3.16887 8.21771 4.0077 8.21771C4.84654 8.21771 5.66984 7.98202 6.3844 7.54206C6.49314 7.4635 6.63295 7.40065 6.77275 7.36922C6.91256 7.3378 7.05237 7.3378 7.19217 7.36922C7.33198 7.40065 7.45625 7.44779 7.58052 7.52635C7.68926 7.60491 7.798 7.7149 7.87567 7.82489C8.01547 8.06058 8.06207 8.34341 7.99994 8.61053C7.92227 8.87764 7.76693 9.11333 7.54945 9.27046C6.86596 9.66328 6.13586 9.97753 5.39023 10.2132Z" fill="white"/>
</svg>
