<svg width="15" height="15" viewBox="0 0 15 15" fill="none" xmlns="http://www.w3.org/2000/svg">
<path d="M15 3.01758C14.9268 3.12012 14.8682 3.23437 14.7803 3.32227C14.335 3.77637 13.8838 4.22168 13.4385 4.66992C13.4004 4.70801 13.377 4.75781 13.3535 4.79297C12.2959 3.73535 11.2646 2.7041 10.2188 1.6582C10.3477 1.53516 10.4854 1.40625 10.6201 1.27148C10.9746 0.919922 11.3203 0.56543 11.6777 0.219727C11.7656 0.134766 11.8799 0.0732422 11.9824 0C12.0498 0 12.1201 0 12.1875 0C12.2959 0.0849609 12.416 0.164062 12.5156 0.260742C13.2598 0.999023 14.001 1.74023 14.7422 2.4873C14.8389 2.58691 14.915 2.7041 15.0029 2.81543C15 2.87988 15 2.9502 15 3.01758Z" fill="#1E3CAD"/>
<path d="M0 14.4727C0.585937 13.1074 1.16895 11.7451 1.75195 10.3828C2.70996 11.3408 3.65918 12.29 4.61719 13.248C3.25488 13.8311 1.89258 14.4141 0.527344 15C0.46875 15 0.410156 15 0.351562 15C0.178711 14.9385 0.0615234 14.8213 0 14.6484C0 14.5898 0 14.5312 0 14.4727Z" fill="#1E3CAD"/>
<path d="M15 2.8125C14.915 2.7041 14.8359 2.58398 14.7393 2.48438C14.001 1.74023 13.2598 0.999023 12.5127 0.257812C12.4131 0.161133 12.2959 0.0849609 12.1846 -0.00292969C13.1221 -0.00292969 14.0596 -0.00292969 14.9971 -0.00292969C15 0.9375 15 1.875 15 2.8125Z" fill="white"/>
<path d="M0 14.6484C0.0615234 14.8213 0.178711 14.9385 0.351562 15C0.234375 15 0.117188 15 0 15C0 14.8828 0 14.7656 0 14.6484Z" fill="white"/>
<path d="M9.60644 2.33789C10.626 3.35742 11.6484 4.37988 12.6621 5.39355C10.2305 7.8252 7.7959 10.2598 5.37598 12.6797C4.36816 11.6719 3.33984 10.6406 2.32324 9.62402C4.73438 7.21289 7.17187 4.77246 9.60644 2.33789Z" fill="#1E3CAD"/>
</svg>
