<svg width="90" height="85" viewBox="0 0 90 85" fill="none" xmlns="http://www.w3.org/2000/svg">
<path d="M67.2244 0H22.7754C19.8366 0 17.6326 2.40741 17.6326 5.18518V69.8148V79.6296C17.6326 82.5926 20.0203 84.8148 22.7754 84.8148H67.2244C70.1632 84.8148 72.3673 82.4074 72.3673 79.6296V69.8148V5.18518C72.3673 2.40741 70.1632 0 67.2244 0ZM19.2856 5.18518C19.2856 3.33333 20.755 1.85185 22.5918 1.85185H67.0407C68.8775 1.85185 70.3469 3.33333 70.3469 5.18518V68.8889H19.2856V5.18518ZM70.5305 79.6296C70.5305 81.4815 69.0611 82.963 67.2244 82.963H22.7754C20.9387 82.963 19.4693 81.4815 19.4693 79.6296V70.7407H70.7142V79.6296H70.5305Z" fill="currentColor"/>
<path d="M36 9.81487C35.8164 9.62969 35.2653 9.4445 35.0817 9.62968C34.898 9.62968 34.898 9.81487 34.7143 9.81487C34.7143 10.0001 34.5306 10.0001 34.5306 10.1852C34.5306 10.3704 34.5306 10.3704 34.5306 10.5556C34.5306 10.7408 34.7143 11.1112 34.7143 11.2964C34.7143 11.2964 34.898 11.4815 35.0817 11.4815C35.2653 11.4815 35.2653 11.4815 35.449 11.4815C35.6327 11.4815 35.6327 11.4815 35.8164 11.4815C36 11.4815 36 11.2964 36.1837 11.2964C36.3674 11.1112 36.3674 10.926 36.3674 10.5556C36.3674 10.3704 36.3674 10.3704 36.3674 10.1852C36 10.0001 36 10.0001 36 9.81487Z" fill="currentColor"/>
<path d="M54.7347 9.62964H41.5102C40.9591 9.62964 40.5918 10 40.5918 10.5556C40.5918 11.1111 40.9591 11.4815 41.5102 11.4815H54.7347C55.2857 11.4815 55.653 11.1111 55.653 10.5556C55.653 10 55.2857 9.62964 54.7347 9.62964Z" fill="currentColor"/>
<path d="M5.87753 23.889C5.51018 23.5186 4.95916 23.5186 4.59182 23.889C-1.46941 30.0001 -1.46941 40.1853 4.59182 46.2964C4.77549 46.4816 4.95916 46.4816 5.32651 46.4816C5.69386 46.4816 5.87753 46.4816 6.0612 46.2964C6.42855 45.926 6.42855 45.3705 6.0612 45.0001C0.734674 39.6297 0.734674 30.7408 6.0612 25.1853C6.24488 24.8149 6.24488 24.2594 5.87753 23.889Z" fill="currentColor"/>
<path d="M11.7551 29.8148C11.3877 29.4444 10.8367 29.4444 10.4693 29.8148C7.53057 32.7777 7.53057 37.4074 10.4693 40.1851C10.653 40.3703 10.8367 40.3703 11.204 40.3703C11.5714 40.3703 11.7551 40.3703 11.9387 40.1851C12.3061 39.8148 12.3061 39.2592 11.9387 38.8888C10.8367 37.7777 10.2857 36.4814 10.2857 35C10.2857 33.5185 10.8367 32.037 11.9387 31.1111C12.1224 30.7407 12.1224 30.1851 11.7551 29.8148Z" fill="currentColor"/>
<path d="M85.4082 23.889C85.0408 23.5186 84.4898 23.5186 84.1224 23.889C83.7551 24.2594 83.7551 24.8149 84.1224 25.1853C89.449 30.5557 89.449 39.4445 84.1224 45.0001C83.7551 45.3705 83.7551 45.926 84.1224 46.2964C84.3061 46.4816 84.4898 46.4816 84.8571 46.4816C85.2245 46.4816 85.4081 46.4816 85.5918 46.2964C91.4694 40.0001 91.4694 30.0001 85.4082 23.889Z" fill="currentColor"/>
<path d="M78.2449 29.8148C77.8775 30.1851 77.8775 30.7407 78.2449 31.1111C79.3469 32.2222 79.8979 33.5185 79.8979 35C79.8979 36.4814 79.3469 37.9629 78.2449 38.8888C77.8775 39.2592 77.8775 39.8148 78.2449 40.1851C78.4285 40.3703 78.6122 40.3703 78.9796 40.3703C79.3469 40.3703 79.5306 40.3703 79.7143 40.1851C81.1837 38.7037 81.9183 36.8518 81.9183 35C81.9183 33.1481 81.1837 31.1111 79.7143 29.8148C79.1632 29.4444 78.6122 29.4444 78.2449 29.8148Z" fill="currentColor"/>
<path d="M40.9591 77.5926H48.8571C49.4081 77.5926 49.7755 77.2222 49.7755 76.6666C49.7755 76.1111 49.4081 75.7407 48.8571 75.7407H40.9591C40.4081 75.7407 40.0408 76.1111 40.0408 76.6666C40.0408 77.2222 40.5918 77.5926 40.9591 77.5926Z" fill="black"/>
</svg>
