<svg version="1.1" width="15" height="15" id="Слой_1" xmlns="http://www.w3.org/2000/svg" xmlns:xlink="http://www.w3.org/1999/xlink" x="0px" y="0px"
	 viewBox="0 0 15 15" style="enable-background:new 0 0 15 15;" xml:space="preserve">
<g>
	<defs>
		<rect id="SVGID_1_" width="15" height="15"/>
	</defs>
	<clipPath id="SVGID_2_">
		<use xlink:href="#SVGID_1_"  style="overflow:visible;"/>
	</clipPath>
	<g class="st0">
		<path class="st1" d="M12.1,15c-1.5-0.1-2.6-0.4-3.8-0.9c-1.6-0.7-2.9-1.7-4.1-2.9C2.8,9.9,1.7,8.4,0.9,6.6C0.4,5.5,0.1,4.4,0,3.1
			C0,2.5,0.2,2,0.6,1.6s0.9-0.8,1.4-1c0.3-0.2,0.7-0.4,1-0.5C3.3-0.1,3.4,0,3.6,0.2c0.7,1.1,1.5,2.1,2.2,3.2C6.1,3.7,6,4,5.7,4.3
			C5.4,4.6,5,4.9,4.7,5.1C4.3,5.4,4.2,5.8,4.5,6.2c0.3,0.5,0.6,1,0.9,1.5c0.5,0.8,1.2,1.5,2,2c0.5,0.3,1,0.6,1.5,0.9
			c0.3,0.2,0.7,0.1,1-0.2c0.3-0.4,0.6-0.7,0.9-1.1C11,9,11.3,8.9,11.6,9.2c1,0.7,2.1,1.5,3.1,2.2c0.3,0.2,0.3,0.3,0.2,0.6
			c-0.3,0.7-0.6,1.4-1.1,2c-0.2,0.2-0.4,0.4-0.6,0.6C12.8,14.9,12.4,15,12.1,15z"/>
	</g>
</g>
</svg>
