<svg width="20" height="20" viewBox="0 0 20 20" fill="none" xmlns="http://www.w3.org/2000/svg">
<path d="M9.93698 14.3855C10.2368 14.579 10.558 14.7081 10.8792 14.8801C11.0291 14.9661 11.1575 14.9446 11.286 14.8156C11.7571 14.321 12.2496 13.8479 12.7207 13.3747C13.3417 12.7511 14.134 12.7511 14.7764 13.3747C15.5473 14.1489 16.3181 14.9231 17.089 15.6973C17.7314 16.3425 17.7314 17.1382 17.089 17.8049C16.6607 18.2565 16.1896 18.6651 15.7828 19.1382C15.1832 19.8049 14.4338 20.0414 13.5558 19.9769C12.2924 19.9124 11.1361 19.4823 10.0226 18.9446C7.53869 17.7403 5.41877 16.0629 3.66288 13.9339C2.31385 12.3425 1.24318 10.6436 0.536547 8.70808C0.193934 7.78335 -0.063025 6.83711 0.0226281 5.82636C0.0654546 5.2027 0.301001 4.66507 0.750679 4.23496C1.24318 3.76184 1.71428 3.26722 2.18537 2.7941C2.82777 2.17045 3.62006 2.17045 4.24104 2.7941C4.62648 3.1812 5.01192 3.5683 5.39736 3.95539C5.7828 4.34249 6.14682 4.70808 6.53226 5.09518C7.19608 5.76184 7.19608 6.53604 6.53226 7.2027C6.06117 7.67582 5.59008 8.14894 5.11899 8.62206C4.99051 8.75109 4.99051 8.83711 5.05475 9.00916C5.37595 9.76184 5.82563 10.45 6.33954 11.0737C7.36738 12.364 8.54511 13.5038 9.93698 14.3855ZM9.18751 0.536038C9.0162 0.944641 9.05903 1.33174 9.35882 1.67582C9.59436 1.93389 9.89415 1.9769 10.2368 1.9984C13.2346 2.17045 15.5044 3.54679 17.0034 6.17045C17.6672 7.33174 17.967 8.57905 17.9884 9.91238C18.0098 10.536 18.438 10.9231 19.059 10.9016C19.6586 10.8801 20.0226 10.4715 20.0012 9.84786C19.9156 7.15969 18.9305 4.85862 16.8535 2.70808C16.5537 2.47152 16.0398 2.01991 15.483 1.65432C13.8556 0.579049 12.0569 0.0199095 10.1083 -0.00159586C9.68002 -0.0446066 9.35882 0.127436 9.18751 0.536038ZM8.99479 5.00916C9.10186 5.43926 9.46588 5.74034 9.95839 5.74034C11.0719 5.76184 12.0569 6.10593 12.892 6.88012C13.7914 7.71883 14.2196 8.7726 14.2625 10.0199C14.2625 10.235 14.3481 10.493 14.4766 10.6651C14.755 11.0307 15.2261 11.1167 15.6543 10.9661C16.0398 10.8156 16.2753 10.4715 16.2539 10.0199C16.2325 8.29948 15.6115 6.83711 14.4123 5.5683C13.2132 4.3855 11.7357 3.76184 10.0226 3.71883C9.85132 3.71883 9.6586 3.76184 9.4873 3.82636C9.08044 4.04141 8.88772 4.51453 8.99479 5.00916Z" fill="currentColor"/>
</svg>
