<svg width="12" height="9" viewBox="0 0 12 9" fill="none" xmlns="http://www.w3.org/2000/svg">
<path d="M11.9998 2.70316C11.9998 4.42649 11.9998 6.11316 11.9998 7.83649V7.87316C11.8798 8.53316 11.2798 8.97316 10.5598 8.97316C7.55979 8.97316 4.51979 8.97316 1.51979 8.97316C0.679795 8.97316 0.0397949 8.38649 0.0397949 7.61649C0.0397949 6.03982 0.0397949 4.46316 0.0397949 2.88649C0.0397949 2.77649 0.0397949 2.66649 0.0797949 2.55649C0.239795 1.93316 0.799795 1.52982 1.51979 1.52982C2.03979 1.52982 2.55979 1.52982 3.07979 1.52982C3.11979 1.52982 3.1598 1.52982 3.1998 1.52982C3.1998 1.45649 3.1998 1.38316 3.1998 1.30982C3.23979 0.686489 3.67979 0.209823 4.35979 0.063156C4.47979 0.0264893 4.59979 0.0264893 4.71979 0.0264893C5.59979 0.0264893 6.47979 0.0264893 7.35979 0.0264893C8.23979 0.0264893 8.8398 0.576489 8.8398 1.38316C8.8398 1.41982 8.8398 1.45649 8.8398 1.49316C8.9198 1.49316 8.95979 1.49316 8.99979 1.49316C9.51979 1.49316 10.0398 1.49316 10.5598 1.49316C11.1198 1.49316 11.5598 1.71316 11.8398 2.15316C11.9198 2.37316 11.9198 2.51982 11.9998 2.70316ZM5.99979 2.62982C4.51979 2.62982 3.27979 3.72982 3.27979 5.12316C3.27979 6.47982 4.47979 7.61649 5.95979 7.61649C7.43979 7.61649 8.6798 6.51649 8.6798 5.12316C8.7198 3.72982 7.51979 2.62982 5.99979 2.62982Z"/>
</svg>
