<svg width="11" height="10" viewBox="0 0 11 10" fill="none" xmlns="http://www.w3.org/2000/svg">
<path d="M8.44516 6.03659C9.29677 7.31707 10.0774 8.59756 11 10C9.86452 10 8.87097 10 7.94839 10C7.80645 10 7.52258 9.7561 7.45161 9.57317C6.95484 8.71951 6.45806 7.86585 5.96129 7.0122C5.81935 6.82927 5.60645 6.64634 5.39355 6.64634C4.6129 6.58537 3.76129 6.64634 2.83871 6.64634C2.83871 7.80488 2.83871 8.90244 2.83871 10C1.84516 10 0.993548 10 0.0709677 10C0 6.70732 0 3.41463 0 0C0.425806 0 0.922581 0 1.41935 0C2.83871 0 4.25806 0 5.74839 0C7.45161 0 8.87097 0.487805 9.50968 1.89024C10.1484 3.29268 9.93548 4.63415 8.5871 5.79268C8.51613 5.85366 8.51613 5.91463 8.44516 6.03659ZM2.83871 4.5122C3.76129 4.5122 4.6129 4.5122 5.46452 4.5122C6.31613 4.5122 6.88387 4.02439 6.88387 3.41463C6.88387 2.80488 6.31613 2.19512 5.53548 2.13415C4.68387 2.07317 3.76129 2.13415 2.83871 2.13415C2.83871 2.92683 2.83871 3.71951 2.83871 4.5122Z" fill="white"/>
</svg>
