<svg width="20" height="20" viewBox="0 0 20 20" fill="none" xmlns="http://www.w3.org/2000/svg">
<g clip-path="url(#clip0_877_2225)">
<path d="M9.99928 20C15.1659 20 19.4993 16.0833 19.9993 10.9167C20.0826 10.4167 19.666 10.0833 19.2493 9.99999H19.166H17.4993C17.0826 9.99999 16.7493 10.3333 16.6659 10.75C16.2493 14.4167 12.9993 17.0833 9.33261 16.6667C5.66595 16.25 2.99928 13 3.41595 9.33332C3.74928 5.91666 6.58261 3.33332 9.99928 3.33332C11.0826 3.33332 12.1659 3.58332 13.0826 4.08332C13.1659 4.08332 13.1659 4.24999 13.1659 4.24999C13.1659 4.24999 13.1659 4.24999 13.0826 4.33332L11.4993 5.49999C11.3326 5.58332 11.3326 5.74999 11.4159 5.83332C11.4159 5.91666 11.4993 5.91666 11.5826 5.99999L17.9993 6.91666C18.166 6.99999 18.3326 6.83332 18.3326 6.66666V6.58332L17.4159 0.249989C17.4159 0.0833226 17.2493 -1.0781e-05 17.0826 -1.0781e-05C16.9993 -1.0781e-05 16.9159 0.0833225 16.9159 0.166656L15.8326 1.66666C15.7493 1.74999 15.6659 1.74999 15.6659 1.66666C13.9159 0.499989 11.8326 -0.166677 9.74928 -0.0833441C4.49928 0.249989 0.24928 4.41666 -0.000720074 9.66666C-0.167387 15.1667 4.16595 19.8333 9.66595 20C9.74928 20 9.91595 20 9.99928 20Z" fill="currentColor"/>
</g>
<defs>
<clipPath id="clip0_877_2225">
<rect width="20" height="20" fill="white"/>
</clipPath>
</defs>
</svg>
