<svg width="19" height="20" viewBox="0 0 19 20" fill="none" xmlns="http://www.w3.org/2000/svg">
<g clip-path="url(#clip0_755_1418)">
<path d="M6.66663 2.59998C6.99996 2.79998 7.39996 2.66664 7.59996 2.33331C8.13329 1.39998 9.39996 1.06664 10.3333 1.59998C10.6666 1.79998 10.8666 1.99998 11.0666 2.33331C11.2666 2.66664 11.6666 2.73331 12 2.59998C12.3333 2.39998 12.4 1.99998 12.2666 1.66664C11.3333 0.0666445 9.3333 -0.466689 7.7333 0.466644C7.19996 0.733311 6.79996 1.19998 6.5333 1.66664C6.26663 1.99998 6.39996 2.39998 6.66663 2.59998Z" fill="currentColor"/>
<path d="M18 4H0.666667C0.266667 4 0 4.26667 0 4.66667C0 5.06667 0.266667 5.33333 0.666667 5.33333H2L2.6 18.0667C2.66667 19.1333 3.53333 20 4.6 20H14.0667C15.1333 20 16 19.1333 16.0667 18.0667L16.6667 5.33333H18C18.4 5.33333 18.6667 5.06667 18.6667 4.66667C18.6667 4.26667 18.4 4 18 4ZM6.66667 15.3333C6.66667 15.7333 6.4 16 6 16C5.6 16 5.33333 15.7333 5.33333 15.3333V9.33333C5.33333 8.93333 5.6 8.66667 6 8.66667C6.4 8.66667 6.66667 8.93333 6.66667 9.33333V15.3333ZM10 15.3333C10 15.7333 9.73333 16 9.33333 16C8.93333 16 8.66667 15.7333 8.66667 15.3333V9.33333C8.66667 8.93333 8.93333 8.66667 9.33333 8.66667C9.73333 8.66667 10 8.93333 10 9.33333V15.3333ZM13.3333 15.3333C13.3333 15.7333 13.0667 16 12.6667 16C12.2667 16 12 15.7333 12 15.3333V9.33333C12 8.93333 12.2667 8.66667 12.6667 8.66667C13.0667 8.66667 13.3333 8.93333 13.3333 9.33333V15.3333Z" fill="currentColor"/>
</g>
<defs>
<clipPath id="clip0_755_1418">
<rect width="18.6667" height="20" fill="white"/>
</clipPath>
</defs>
</svg>
