<svg width="20" height="20" viewBox="0 0 20 20" fill="none" xmlns="http://www.w3.org/2000/svg">
<g clip-path="url(#clip0_1999_3811)">
<path d="M20 9.45441V10.4225C20 10.4612 19.98 10.5193 19.96 10.5581C19.82 11.9328 19.26 13.2494 18.34 14.3143C17.14 15.7471 15.6 16.6959 13.8 17.2961C12.62 17.6833 11.38 17.877 10.14 17.877C9.09998 17.8576 8.05998 17.7802 7.01998 17.6253C6.83998 17.5865 6.67998 17.6253 6.51998 17.7027C5.41998 18.3417 4.19998 18.7676 2.91998 18.9225C2.49998 18.9806 2.05998 19 1.63998 18.9806C1.29998 18.9612 1.03998 18.7095 1.05998 18.3804C1.05998 18.2642 1.09998 18.1674 1.15998 18.0706C1.21998 17.9738 1.27998 17.8963 1.33998 17.8189C1.89998 17.1412 2.37998 16.3861 2.75998 15.5922C2.81998 15.5148 2.79998 15.418 2.71998 15.3599C2.01998 14.779 1.43998 14.1013 0.95998 13.3462C0.55998 12.7073 0.27998 11.9909 0.13998 11.2551C0.0799805 10.9647 0.0399805 10.6742 -0.0200195 10.3838V9.41569C-1.95336e-05 9.3576 -1.95336e-05 9.29952 0.0199805 9.26079C0.13998 8.11842 0.55998 7.03414 1.21998 6.06603C1.95998 5.03984 2.89998 4.16854 4.01998 3.52958C5.09998 2.89063 6.25998 2.4453 7.49998 2.21296C9.41998 1.82571 11.42 1.8838 13.3 2.40658C14.36 2.69701 15.38 3.14234 16.3 3.74257C17.32 4.40088 18.2 5.25282 18.86 6.24029C19.34 6.93733 19.66 7.71182 19.84 8.54439C19.9 8.87355 19.94 9.16398 20 9.45441Z" fill="currentColor"/>
</g>
<defs>
<clipPath id="clip0_1999_3811">
<rect width="20" height="20" fill="white"/>
</clipPath>
</defs>
</svg>
