<svg version="1.1" width="46" height="80" xmlns="http://www.w3.org/2000/svg" x="0px" y="0px"
	 viewBox="0 0 46 80" style="enable-background:new 0 0 46 80;" xml:space="preserve">
<linearGradient x1="22.9599" y1="43.8933" x2="22.9599" y2="15.9376">
	<stop  offset="0" style="stop-color:#000000"/>
	<stop  offset="1" style="stop-color:#000000"/>
</linearGradient>
<path class="st0" d="M18.8,38.1c-0.6,0-1.3,0.6-1.3,1.3v11.4h-4c-0.6,0-1.3,0.6-1.3,1.3c0,0.7,0.6,1.3,1.3,1.3h4v2.7h-4
	c-0.6,0-1.3,0.6-1.3,1.3c0,0.7,0.6,1.3,1.3,1.3h4v6.1c0,0.6,0.6,1.3,1.3,1.3c0.7,0,1.3-0.6,1.3-1.3v-6.1h8.2c0.6,0,1.3-0.6,1.3-1.3
	c0-0.7-0.6-1.3-1.3-1.3H20v-2.7h4.8c5.6,0,8.8-3,8.8-8.1c0-4.8-2.9-7.1-8.8-7.1H18.8z M31.2,45.2c0,3.7-2.1,5.6-6.2,5.6h-4.8V40.7
	h4.8C30.7,40.7,31.2,43,31.2,45.2z"/>
<linearGradient x1="22.8139" y1="82" x2="22.8139" y2="2">
	<stop  offset="0" style="stop-color:#000000"/>
	<stop  offset="1" style="stop-color:#000000"/>
</linearGradient>
<path class="st1" d="M44.6,25.9l-13.2-8.5l0.1-0.2c0.7-1.6,1-3.3,1-5.3C32.5,5.3,28.2,0,22.9,0s-9.6,5.3-9.6,11.8
	c0,1.7,0.3,3.5,1,5.4l0.1,0.2L1.2,25.9c-0.3,0.3-0.6,0.7-0.6,1.1v51.6c0,0.6,0.6,1.3,1.3,1.3h41.8c0.6,0,1.3-0.6,1.3-1.3V27.1V27
	C45.1,26.6,45,26.3,44.6,25.9z M23,2.6c3.9,0,7.1,4.2,7.1,9.3c0,1.5-0.2,2.7-0.6,3.8L29.3,16l-5.6-3.7c-0.4-0.2-1-0.2-1.4,0L16.7,16
	l-0.2-0.3c-0.4-1.2-0.6-2.5-0.6-3.8C15.9,6.7,19.1,2.6,23,2.6z M42.5,77.1h-0.2v0.3h-39V27.8l13.4-8.7l6.2-4.2l5,3.4l-0.2,0.2
	c-0.5,0.6-1,1.1-1.5,1.5L26.1,20L26,19.8c-0.8-0.6-1.9-1-3-1c-1.7,0-3,0.9-3.8,1.7c-0.1,0.1-0.2,0.2-0.2,0.3
	c-0.6,0.8-0.9,1.9-0.9,2.9c0,2.8,2.2,5,5,5s5-2.2,5-5c0-0.6-0.1-1.1-0.3-1.5l-0.1-0.2l0.2-0.2c1-0.7,1.7-1.5,2.2-2.2l0.2-0.2
	l12.4,8.1v49.5H42.5z M25.4,23.1v0.7c0,1.3-1,2.4-2.4,2.4s-2.4-1-2.4-2.4v-0.7l0.4,0.2c0.6,0.2,1.3,0.3,2,0.3c0.6,0,1.3-0.1,2-0.3
	L25.4,23.1z"/>
</svg>
