<svg width="15" height="15" viewBox="0 0 15 15" fill="none" xmlns="http://www.w3.org/2000/svg">
<path d="M1.42857 0H11.8929C12.2857 0 12.6429 0.142857 12.8929 0.428571L14.5714 2.10714C14.8571 2.35714 15 2.71429 15 3.10714V13.5714C15 14.3571 14.3571 15 13.5714 15H1.42857C0.642857 15 0 14.3571 0 13.5714V1.42857C0 0.642857 0.642857 0 1.42857 0ZM3.21429 1.42857H1.78571C1.57143 1.42857 1.42857 1.57143 1.42857 1.78571V13.2143C1.42857 13.4286 1.57143 13.5714 1.78571 13.5714H13.2143C13.4286 13.5714 13.5714 13.4286 13.5714 13.2143V3.25C13.5714 3.14286 13.5357 3.07143 13.4643 3L12 1.53571C11.9286 1.46429 11.8571 1.42857 11.75 1.42857H11.6429C11.5357 1.42857 11.4286 1.53571 11.4286 1.67857V3.57143C11.4286 4.35714 10.7857 5 10 5H5C4.21429 5 3.57143 4.35714 3.57143 3.57143V1.78571C3.57143 1.57143 3.42857 1.42857 3.21429 1.42857ZM7.5 6.07143C9.28571 6.07143 10.7143 7.5 10.7143 9.28571C10.7143 11.0714 9.28571 12.5 7.5 12.5C5.71429 12.5 4.28571 11.0714 4.28571 9.28571C4.28571 7.5 5.71429 6.07143 7.5 6.07143ZM5.35714 3.57143H9.64286C9.85714 3.57143 10 3.42857 10 3.21429V1.78571C10 1.57143 9.85714 1.42857 9.64286 1.42857H5.35714C5.14286 1.42857 5 1.57143 5 1.78571V3.21429C5 3.42857 5.14286 3.57143 5.35714 3.57143ZM7.5 7.5C6.5 7.5 5.71429 8.28571 5.71429 9.28571C5.71429 10.2857 6.5 11.0714 7.5 11.0714C8.5 11.0714 9.28571 10.2857 9.28571 9.28571C9.28571 8.28571 8.5 7.5 7.5 7.5Z" fill="currentColor"/>
</svg>
