<svg width="16" height="14" viewBox="0 0 16 14" fill="none" xmlns="http://www.w3.org/2000/svg">
<path d="M7.99921 9.69668C6.67047 9.74152 5.38172 9.8671 4.15075 10.3514C3.0131 10.7999 2.15986 11.5758 1.56437 12.6432C1.37772 12.975 1.20885 13.3159 1.03109 13.6522C0.888886 13.9213 0.657801 14.0469 0.408939 13.9841C0.146746 13.9168 -0.0043486 13.7105 9.53575e-05 13.4056C9.53575e-05 12.1588 0.035647 10.9165 0.266733 9.68771C0.493374 8.48131 0.911106 7.36013 1.7599 6.44076C2.46205 5.67835 3.3375 5.19848 4.30629 4.87558C5.44394 4.49886 6.62159 4.36881 7.81257 4.31499C7.86589 4.3105 7.92367 4.3105 7.99921 4.30602C7.99921 4.24323 7.99921 4.18045 7.99921 4.12215C7.99921 2.94714 7.99921 1.76766 7.99921 0.592655C7.99921 0.345994 8.09254 0.153151 8.31918 0.0500017C8.55026 -0.0531474 8.75468 0.00963889 8.928 0.180059C8.94578 0.193513 8.95911 0.211452 8.97688 0.224906C10.95 2.05917 12.9187 3.89791 14.8918 5.73217C15.1895 6.01022 15.4873 6.28379 15.785 6.56633C16.0694 6.83541 16.0739 7.1628 15.785 7.4274C13.4964 9.56213 11.2077 11.6924 8.91467 13.8271C8.74135 13.9886 8.54138 14.0469 8.31473 13.9482C8.08809 13.8451 7.99032 13.6567 7.99032 13.41C7.99032 12.244 7.99032 11.078 7.99032 9.91194C7.99921 9.84916 7.99921 9.78189 7.99921 9.69668ZM9.06576 12.2306C10.9544 10.4681 12.812 8.73694 14.6785 7.00135C12.8076 5.25678 10.95 3.53016 9.06576 1.77214C9.06576 1.87978 9.06576 1.94256 9.06576 2.00086C9.06576 2.92024 9.06576 3.83961 9.06576 4.75898C9.06576 5.18054 8.86578 5.37787 8.44361 5.38684C8.0792 5.39581 7.71036 5.4003 7.34595 5.42272C6.32384 5.48551 5.31506 5.62902 4.35073 5.99677C3.27973 6.40488 2.42205 7.0731 1.88433 8.10908C1.48882 8.87148 1.31106 9.69219 1.20441 10.5353C1.1733 10.7865 1.15108 11.0421 1.12442 11.3426C1.17774 11.2843 1.19552 11.2663 1.21329 11.2439C2.02654 10.1765 3.10642 9.52626 4.3685 9.14057C5.7328 8.72349 7.13264 8.61585 8.55026 8.61585C8.84801 8.61585 9.06576 8.85355 9.07021 9.15851C9.07465 9.49038 9.07021 9.81777 9.07021 10.1496C9.06576 10.8313 9.06576 11.5085 9.06576 12.2306Z" fill="#1C1C1C"/>
</svg>
