<svg width="14" height="15" viewBox="0 0 14 15" fill="none" xmlns="http://www.w3.org/2000/svg">
<path d="M3.85883 14.2962C3.29664 14.2962 2.84688 13.8464 2.84688 13.2842V13.1718L3.1842 9.57376L0.822965 6.87518C0.485646 6.42542 0.485646 5.86324 0.935404 5.41348C1.04784 5.30104 1.16028 5.18859 1.38516 5.18859L4.75835 4.40149L6.44494 1.2532C6.66982 0.803442 7.34446 0.578577 7.79422 0.915895C7.90666 1.02833 8.0191 1.14076 8.13154 1.2532L9.81813 4.40149L13.1913 5.18859C13.7535 5.30103 14.0908 5.86326 13.9784 6.42546C13.9784 6.65034 13.866 6.76274 13.7535 6.87518L11.3923 9.57376L11.7296 13.1718C11.7296 13.734 11.3923 14.1838 10.8301 14.2962C10.7176 14.2962 10.4928 14.2962 10.3803 14.1838L7.4569 12.7221L4.30859 14.1838C4.19615 14.1838 4.08371 14.2962 3.85883 14.2962ZM4.98323 11.5977L7.00714 10.5857C7.23202 10.4732 7.56934 10.4732 7.79422 10.5857L9.81813 11.5977L9.70569 9.23645C9.70569 8.89913 9.81813 8.67424 9.93057 8.44936L11.3923 6.76277L9.14349 6.31298C8.91861 6.20054 8.69374 6.08814 8.46886 5.86326L7.4569 3.72688L6.3325 5.75078C6.22006 5.97566 5.99519 6.20057 5.65787 6.20057L3.40908 6.65029L4.87079 8.33688C5.09567 8.56176 5.09567 8.78665 5.09567 9.12397L4.98323 11.5977Z" fill="currentColor"/>
</svg>
