<svg width="15" height="13" viewBox="0 0 15 13" fill="none" xmlns="http://www.w3.org/2000/svg">
<path d="M4.31963 6.52491C4.80674 6.00257 5.1737 5.39637 5.48637 4.68872C5.83674 5.5065 6.24592 6.16963 6.77851 6.71323C7.28765 7.23289 7.88788 7.6213 8.60746 7.93853C7.872 8.29441 7.26911 8.70901 6.76134 9.23714C6.2327 9.78698 5.82845 10.438 5.47908 11.2227C5.10619 10.424 4.68597 9.76963 4.15149 9.22023C3.63622 8.69056 3.03376 8.27784 2.30713 7.92251C3.13497 7.542 3.78746 7.09556 4.31963 6.52491Z" stroke="white"/>
<path d="M11.7278 2.74492C11.9162 2.54291 12.0743 2.32194 12.212 2.08154C12.3728 2.37329 12.5579 2.63073 12.7797 2.85699C12.9839 3.06545 13.2102 3.23833 13.4608 3.38593C13.2035 3.54595 12.974 3.7281 12.7681 3.94215C12.5492 4.16983 12.3667 4.4238 12.2075 4.70706C12.0399 4.41773 11.8512 4.16068 11.6281 3.93143C11.4194 3.71682 11.1888 3.53494 10.9324 3.37524C11.2363 3.19633 11.4989 2.99042 11.7278 2.74492Z" stroke="white"/>
<path d="M12.1832 11.3054C12.1929 11.295 12.2024 11.2845 12.2119 11.2739C12.239 11.3056 12.2673 11.3366 12.2968 11.3667C12.3166 11.3868 12.3366 11.4064 12.3571 11.4254C12.334 11.4471 12.3114 11.4695 12.2892 11.4926C12.2627 11.5202 12.2371 11.5484 12.2125 11.5772C12.1857 11.5461 12.1579 11.5157 12.1291 11.486C12.1078 11.4642 12.0861 11.443 12.0642 11.4224C12.1053 11.3853 12.1449 11.3464 12.1832 11.3054Z" stroke="white"/>
</svg>
