<svg version="1.1" width="16" height="17" x="0px" y="0px" xmlns="http://www.w3.org/2000/svg"
	 viewBox="0 0 16 17" style="enable-background:new 0 0 16 17;" xml:space="preserve">
<g>
	<defs>
		<rect id="SVGID_1_" x="0.4" y="0.8" width="15.5" height="15.5"/>
	</defs>
	<g class="st0">
		<path class="st1" d="M8.2,12c-1.9,0-3.5-1.6-3.5-3.5C4.7,6.6,6.3,5,8.2,5s3.5,1.6,3.5,3.5C11.7,10.4,10.1,12,8.2,12z M8.2,6
			C6.8,6,5.7,7.1,5.7,8.5S6.8,11,8.2,11c1.4,0,2.5-1.1,2.5-2.5S9.5,6,8.2,6z"/>
		<rect x="7.7" y="1.4" class="st1" width="1" height="2.4"/>
		<rect x="7.7" y="13.3" class="st1" width="1" height="2.4"/>
		<rect x="1" y="8" class="st1" width="2.4" height="1"/>
		<rect x="12.9" y="8" class="st1" width="2.4" height="1"/>
		<rect x="2.8" y="12.2" transform="matrix(0.7071 -0.7071 0.7071 0.7071 -7.8243 6.5284)" class="st1" width="2.4" height="1"/>
		<rect x="11.2" y="3.8" transform="matrix(0.7071 -0.7071 0.7071 0.7071 0.5936 10.0152)" class="st1" width="2.4" height="1"/>
		<rect x="3.5" y="3.1" transform="matrix(0.7071 -0.7071 0.7071 0.7071 -1.8719 4.0628)" class="st1" width="1" height="2.4"/>
		<rect x="11.9" y="11.5" transform="matrix(0.7069 -0.7073 0.7073 0.7069 -5.3588 12.4859)" class="st1" width="1" height="2.4"/>
	</g>
</g>
</svg>
