<svg width="12" height="10" viewBox="0 0 12 10" fill="none" xmlns="http://www.w3.org/2000/svg">
<path d="M12 0.637257C11.9279 0.971481 11.8468 1.36809 11.7656 1.76025C11.2249 4.31818 10.6842 6.87612 10.1434 9.43405C10.0263 9.98218 9.57113 10.1604 9.116 9.83066C8.25081 9.20232 7.38112 8.57843 6.52043 7.94118C6.38975 7.8476 6.32667 7.86096 6.22302 7.97237C5.81747 8.39127 5.4029 8.80571 4.98833 9.22014C4.63684 9.57219 4.2403 9.47861 4.08709 9.00624C3.76715 7.99911 3.4427 6.99198 3.12727 5.98485C3.09122 5.87344 3.03714 5.81997 2.92899 5.78877C2.08633 5.54813 1.24818 5.29858 0.410029 5.05348C0.355955 5.03565 0.297374 5.01783 0.2433 4.99555C0.090089 4.9287 0.00897746 4.81284 0.00447126 4.64795C-3.49334e-05 4.48307 0.0720642 4.35829 0.220769 4.28699C0.346942 4.22906 0.477622 4.18004 0.603795 4.13102C4.1006 2.78075 7.60643 1.43494 11.1077 0.0846721C11.2519 0.0267399 11.4006 -0.0222797 11.5584 0.0133709C11.8287 0.0713031 12.009 0.303032 12 0.637257ZM9.77391 1.77808C9.71082 1.77808 9.66576 1.81373 9.61619 1.84492C7.6605 3.04367 5.70932 4.23797 3.75363 5.43672C3.54184 5.56596 3.51029 5.65063 3.58239 5.88681C3.83023 6.68004 4.07807 7.46881 4.32591 8.26203C4.34394 8.31551 4.33943 8.40018 4.41153 8.39572C4.48363 8.39127 4.47011 8.3066 4.47913 8.25312C4.53771 7.75847 4.59629 7.26827 4.64585 6.77362C4.65937 6.60874 4.72697 6.48842 4.84863 6.38146C6.48889 4.95098 8.12464 3.51604 9.76039 2.08556C9.80094 2.04991 9.84601 2.01872 9.87304 1.97416C9.93162 1.88503 9.87304 1.78253 9.77391 1.77808Z" fill="#FDFEFE"/>
</svg>
