<svg width="14" height="12" viewBox="0 0 14 12" fill="none" xmlns="http://www.w3.org/2000/svg">
<path d="M14.0001 0.764574C13.916 1.16564 13.8214 1.64158 13.7267 2.11217C13.0959 5.18169 12.465 8.2512 11.8341 11.3207C11.6974 11.9785 11.1665 12.1924 10.6355 11.7967C9.62609 11.0426 8.61144 10.294 7.60731 9.52928C7.45485 9.41698 7.38125 9.43302 7.26034 9.56671C6.78719 10.0694 6.30352 10.5667 5.81985 11.064C5.40979 11.4865 4.94715 11.3742 4.76841 10.8074C4.39515 9.5988 4.01663 8.39024 3.64862 7.18169C3.60656 7.048 3.54347 6.98382 3.4173 6.94639C2.4342 6.65762 1.45635 6.35816 0.47851 6.06404C0.415423 6.04265 0.347079 6.02126 0.283992 5.99452C0.105246 5.91431 0.0106161 5.77527 0.00535889 5.57741C0.00010166 5.37955 0.0842173 5.22981 0.257706 5.14425C0.404908 5.07473 0.557368 5.01591 0.70457 4.95709C4.78418 3.33677 8.87431 1.72179 12.9592 0.101472C13.1274 0.0319536 13.3009 -0.02687 13.4849 0.0159108C13.8003 0.0854295 14.0106 0.363504 14.0001 0.764574ZM11.403 2.13356C11.3294 2.13356 11.2769 2.17634 11.219 2.21377C8.93739 3.65227 6.66101 5.08543 4.37937 6.52393C4.13228 6.67901 4.09548 6.78062 4.1796 7.06404C4.46875 8.01591 4.75789 8.96243 5.04704 9.91431C5.06807 9.97848 5.06281 10.0801 5.14693 10.0747C5.23105 10.0694 5.21527 9.96778 5.22579 9.90361C5.29413 9.31003 5.36248 8.72179 5.42031 8.12821C5.43608 7.93035 5.51494 7.78596 5.65688 7.65762C7.57051 5.94104 9.47889 4.21912 11.3873 2.50254C11.4346 2.45976 11.4871 2.42233 11.5187 2.36885C11.587 2.2619 11.5187 2.13891 11.403 2.13356Z" fill="#FDFEFE"/>
</svg>
