<svg width="13" height="10" viewBox="0 0 13 10" fill="none" xmlns="http://www.w3.org/2000/svg">
<path d="M13 1.22927C12.6837 1.68915 12.2843 2.07388 11.8243 2.4015C11.7316 2.46763 11.7029 2.53075 11.7061 2.64196C11.738 3.80817 11.4696 4.91427 10.9329 5.96327C10.2939 7.21665 9.36102 8.23258 8.09904 8.96898C7.20447 9.49197 6.22684 9.80156 5.1853 9.93381C4.45048 10.027 3.71566 10.027 2.98403 9.9278C1.92332 9.78353 0.932907 9.44388 0.0255591 8.90285C0.0191693 8.89985 0.0159744 8.89083 0 8.8758C1.44409 8.99903 2.74121 8.6654 3.92652 7.82981C3.72524 7.81479 3.55591 7.80276 3.39297 7.76669C2.47284 7.55028 1.83706 7.02428 1.47284 6.20372C1.41853 6.07748 1.42812 6.07147 1.57508 6.09251C1.89457 6.13459 2.21086 6.11656 2.52716 6.05344C2.54633 6.05043 2.5655 6.03841 2.59105 6.02939C1.05751 5.67171 0.4377 4.38226 0.504792 3.53465C0.686901 3.62483 0.86901 3.69696 1.0607 3.74505C1.2524 3.79315 1.44728 3.83823 1.67732 3.82621C1.10224 3.43246 0.728435 2.9275 0.57508 2.28728C0.42492 1.65007 0.533546 1.05194 0.865815 0.483859C0.916933 0.495881 0.932907 0.528944 0.958466 0.555996C2.07668 1.79134 3.48562 2.58786 5.17252 2.94554C5.54633 3.02368 5.92652 3.06576 6.3099 3.09582C6.40575 3.10484 6.39936 3.07178 6.38658 3.00264C6.23323 2.06186 6.50479 1.25332 7.26837 0.619116C7.88818 0.105139 8.623 -0.0842206 9.4409 0.0330021C10.0096 0.114156 10.4984 0.351607 10.9073 0.733333C10.9585 0.781424 11 0.793447 11.0735 0.778418C11.5911 0.670213 12.0831 0.498887 12.5495 0.255425C12.5815 0.23739 12.6166 0.222362 12.6773 0.19531C12.4696 0.781424 12.0958 1.21425 11.5751 1.55089C11.738 1.5569 11.8946 1.52083 12.0511 1.48777C12.2077 1.4517 12.3642 1.41262 12.5176 1.36754C12.6741 1.31945 12.8307 1.26534 12.9872 1.21124C12.9904 1.21725 12.9968 1.22326 13 1.22927Z" fill="white"/>
</svg>
