<svg width="20" height="20" viewBox="0 0 20 20" fill="none" xmlns="http://www.w3.org/2000/svg">
<g clip-path="url(#clip0_1999_3773)">
<path fill-rule="evenodd" clip-rule="evenodd" d="M14.2613 10.1226C11.6662 12.709 7.31177 12.7313 4.73868 10.1226C3.57309 10.903 2.38551 12.1962 1.68176 13.8907C1.21992 14.961 1 16.0758 1 17.2352C1 18.9743 6.674 20 9.511 20C12.348 20 18.022 18.9075 18.022 17.2352C18.022 14.4259 16.5485 11.6165 14.2613 10.1226Z" fill="currentColor"/>
<path fill-rule="evenodd" clip-rule="evenodd" d="M9.42306 10.3456C12.304 10.3679 14.5912 8.09363 14.6132 5.17278C14.6352 2.36341 12.348 0.022276 9.577 -2.05602e-05C6.71801 -0.0223171 4.43082 2.25193 4.40883 5.15048C4.36484 7.95985 6.65204 10.3233 9.42306 10.3456Z" fill="currentColor"/>
</g>
<defs>
<clipPath id="clip0_1999_3773">
<rect width="20" height="20" fill="white"/>
</clipPath>
</defs>
</svg>
