<svg xmlns="http://www.w3.org/2000/svg" width="80" height="80" viewBox="0 0 80 80" fill="none">
  <path d="M76.3405 23.5832C78.5769 21.0419 80 17.6874 80 14.1296C80 6.30241 73.5959 0 65.8704 0C62.2109 0 58.9581 1.32147 56.4168 3.55781C51.2325 1.32147 45.7433 0.101652 39.9492 0.101652C17.8907 0.101652 0 17.9924 0 40.0508C0 62.1093 17.8907 80 39.9492 80C62.0076 80 79.8984 62.1093 79.8984 40.1525C79.8984 34.46 78.6785 28.9708 76.4422 23.8882C76.4422 23.7865 76.3405 23.6849 76.3405 23.5832ZM39.9492 75.9339C32.6302 75.9339 25.8196 73.7992 20.1271 70.0381C20.1271 69.8348 20.2287 69.6315 20.2287 69.5299C20.2287 58.6531 29.0724 49.8094 39.9492 49.8094C50.8259 49.8094 59.6696 58.6531 59.6696 69.5299C59.6696 69.7332 59.6696 69.9365 59.7713 70.0381C54.0788 73.7992 47.2681 75.9339 39.9492 75.9339ZM31.0038 35.7815C31.0038 30.8005 35.0699 26.8361 39.9492 26.8361C44.8285 26.8361 48.8945 30.8005 48.8945 35.7815C48.8945 40.3558 45.54 44.1169 41.0673 44.6252C40.6607 44.6252 40.3558 44.7268 39.9492 44.7268C39.5426 44.7268 39.2376 44.7268 38.831 44.6252C34.3583 44.1169 31.0038 40.2541 31.0038 35.7815ZM64.5489 66.1754C63.3291 57.1283 57.23 49.6061 48.9962 46.3532C52.0457 43.8119 53.9771 39.9492 53.9771 35.7815C53.9771 28.0559 47.6747 21.7535 39.9492 21.7535C32.2236 21.7535 25.9212 27.9543 25.9212 35.6798C25.9212 39.9492 27.8526 43.8119 30.9022 46.3532C22.6684 49.6061 16.5693 57.1283 15.3494 66.1754C8.4371 59.6696 4.06607 50.3177 4.06607 40.0508C4.06607 20.2287 20.1271 4.16773 39.9492 4.16773C44.7268 4.16773 49.4028 5.18424 53.6722 6.91233C52.4524 9.04701 51.7408 11.4867 51.7408 14.1296C51.7408 21.9568 58.1449 28.2592 65.8704 28.2592C68.5133 28.2592 70.953 27.5476 73.0877 26.2262C74.9174 30.5972 75.8323 35.1715 75.8323 40.0508C75.8323 50.3177 71.4612 59.6696 64.5489 66.1754ZM65.8704 24.2948C60.2795 24.2948 55.8069 19.8221 55.8069 14.2313C55.8069 8.64041 60.3812 4.16773 65.8704 4.16773C71.3596 4.16773 75.9339 8.64041 75.9339 14.2313C75.9339 19.8221 71.4613 24.2948 65.8704 24.2948Z" fill="#FFAD03"/>
  <path d="M72.071 14.1296C72.071 15.2478 71.1562 16.1626 70.038 16.1626H67.8017V18.399C67.8017 19.5172 66.8868 20.432 65.7686 20.432C64.6505 20.432 63.7356 19.5172 63.7356 18.399V16.1626H61.6009C60.4827 16.1626 59.5679 15.2478 59.5679 14.1296C59.5679 13.0114 60.4827 12.0966 61.6009 12.0966H63.7356V9.96189C63.7356 8.84371 64.6505 7.92885 65.7686 7.92885C66.8868 7.92885 67.8017 8.84371 67.8017 9.96189V12.0966H70.038C71.1562 12.0966 72.071 13.0114 72.071 14.1296Z" fill="#FFAD03"/>
</svg>
