<svg version="1.1" width="80" height="80" xmlns="http://www.w3.org/2000/svg"  x="0px" y="0px"
	 viewBox="0 0 80 80" style="enable-background:new 0 0 80 80;" xml:space="preserve">
<path class="st0" d="M34.6,43.4H49c2.7,0,4.9-2.2,4.9-4.9v-1.8c0-4.4-2.5-8.6-6.5-10.6l-0.6-0.3l0.6-0.5c1.9-1.5,3-3.9,3-6.4
	c0-4.6-3.8-8.4-8.5-8.4c-4.7,0-8.5,3.8-8.5,8.4c0,2.4,1.1,4.8,3,6.4l0.6,0.5l-0.6,0.3c-4,2-6.5,6.1-6.5,10.6v1.8
	C29.7,41.1,31.9,43.4,34.6,43.4z M36,18.9c0-3.2,2.7-5.8,5.9-5.8c3.2,0,5.9,2.6,5.9,5.8s-2.7,5.8-5.9,5.8C38.6,24.7,36,22.1,36,18.9
	z M32.3,36.7c0-5.2,4.3-9.4,9.5-9.4s9.5,4.2,9.5,9.4v1.8c0,1.3-1.1,2.2-2.3,2.2H34.6c-1.3,0-2.3-1-2.3-2.2V36.7z"/>
<path class="st1" d="M0.9,51c-0.7,1.1-1.1,2.4-0.8,3.6L3.2,73c0.2,1.3,0.9,2.4,1.9,3.1c1.1,0.7,2.3,1,3.7,0.8l13.5-2.2h0.8h0.1
	l10,2.4c0.5,0.1,0.8,0.2,1.1,0.2c0.2,0,0.5,0,0.8-0.1l20.6-3.4c1.1-0.2,2.1-0.7,2.8-1.6l21.1-23.7c0.2-0.2,0.3-0.4,0.3-0.6
	c0-0.4-0.2-0.7-0.4-1l-0.2-0.2c-2.6-2.2-6.1-3-9.4-2.2l-1,0.2l0.4-0.9c1.6-3.8,2.5-7.8,2.5-11.9c0-16.7-13.5-30.2-30.1-30.2
	S11.7,15.1,11.7,31.8c0,5.1,1.3,10.1,3.8,14.7l0.4,0.7h-1.1L4.1,49C2.8,49.3,1.6,49.9,0.9,51z M14.3,31.8
	c0-15.2,12.3-27.6,27.4-27.6s27.4,12.4,27.4,27.6c0,6.9-2.5,13.4-7.1,18.6l-0.9,1c-1.2,1.2-2.5,2.3-3.8,3.2L57,54.8l-0.2-0.5
	c-2.1-3.7-6.4-5.7-10.5-5l-14.2,2.3c-0.4,0.1-0.7,0-1.1-0.1h-0.1l-8.6-3.5c-0.9-0.4-1.9-0.6-3.1-0.9H19L18.9,47
	C16,42.6,14.3,37.3,14.3,31.8z M3.2,52.5c0.3-0.4,0.8-0.7,1.5-0.9l10.8-1.8c2.1-0.3,4.1-0.1,5.9,0.6l8.6,3.4
	c0.7,0.3,1.7,0.4,2.7,0.3l14.1-2.3c3.5-0.6,6.9,1.3,8.3,4.5l0.2,0.6l-13.8,2.2c-0.3,0.1-0.6,0.2-0.8,0.6c-0.2,0.2-0.2,0.6-0.2,1
	c0.2,0.7,0.8,1.2,1.5,1.1l15.1-2.5c0.2,0,0.3-0.1,0.4-0.2c0.1-0.1,0.2-0.2,0.4-0.3l9.2-9.8c2.4-2.6,6.2-3.2,9.3-1.4l0.5,0.3
	L56.5,70.6c-0.3,0.4-0.7,0.6-1.4,0.8l-20.5,3.3h-0.8h-0.1l-10.2-2.3c-0.6-0.2-1.1-0.2-1.8-0.1L8.3,74.6c-1.2,0.2-2.4-0.6-2.6-1.9
	L2.6,54.2C2.5,53.5,2.7,52.9,3.2,52.5z"/>
</svg>
