<svg width="15" height="15" viewBox="0 0 15 15" fill="none" xmlns="http://www.w3.org/2000/svg">
<path d="M10.9886 6.0737C10.946 5.59928 10.8395 5.22671 10.6503 4.89675C10.4048 4.47184 10.0909 4.21742 9.62629 4.06652C9.32348 3.96595 9.20112 3.97745 9.09162 4.11446C8.98956 4.24282 8.96965 4.50009 9.04765 4.66663C9.10243 4.78754 9.16572 4.83087 9.34161 4.87817C9.57585 4.93715 9.73771 5.0138 9.88499 5.12909C10.1975 5.37614 10.3431 5.76288 10.3587 6.38893C10.366 6.68292 10.3845 6.77327 10.4595 6.87752C10.5985 7.06808 10.8458 7.031 10.9507 6.80299C10.9892 6.71696 10.9951 6.6796 10.9992 6.48003C11.0019 6.35645 10.998 6.17252 10.9886 6.0737Z" fill="white"/>
<path d="M12.9889 6.14422C12.9025 4.79438 12.3209 3.70832 11.2801 2.94423C10.6936 2.51486 9.98478 2.21962 9.20773 2.07604C8.92313 2.02469 8.3991 1.98307 8.30915 2.00688C8.22429 2.02892 8.10434 2.11231 8.05088 2.18773C7.99427 2.26951 7.98153 2.4521 8.02982 2.55773C8.10767 2.73429 8.25255 2.79667 8.6582 2.82889C9.28372 2.87856 9.92882 3.07804 10.4162 3.37336C10.9726 3.7096 11.4151 4.16957 11.7012 4.70995C11.9484 5.17437 12.1005 5.84352 12.0963 6.44278C12.0949 6.65947 12.1317 6.78184 12.2277 6.87139C12.3727 7.00896 12.5839 7.03904 12.7703 6.9477C12.977 6.849 13.0253 6.67588 12.9889 6.14422Z" fill="white"/>
<path d="M14.9284 11.9738C14.8988 11.8871 14.8299 11.7532 14.7807 11.6763C14.4706 11.2055 12.8045 9.89427 11.9725 9.4655C11.4976 9.22008 11.1457 9.13831 10.8848 9.21508C10.6042 9.29446 10.4565 9.42582 9.98644 10.0132C9.79697 10.2488 9.60253 10.4693 9.55088 10.504C9.42291 10.5933 9.17185 10.6651 8.99466 10.6651C8.58366 10.6626 7.83788 10.3949 7.2645 10.0429C6.819 9.77041 6.24806 9.28206 5.80997 8.79871C5.29313 8.23118 4.94119 7.73044 4.66313 7.16531C4.30378 6.43913 4.21275 5.99547 4.36284 5.67077C4.39978 5.58899 4.449 5.50222 4.47113 5.47493C4.49325 5.45014 4.72463 5.25929 4.98056 5.05106C5.48269 4.64958 5.56388 4.55791 5.65734 4.28279C5.77547 3.9332 5.7435 3.57631 5.56144 3.21692C5.4211 2.9443 5.05444 2.34943 4.78866 1.96526C4.43672 1.45965 3.56053 0.378977 3.38578 0.232693C3.07078 -0.0250491 2.66717 -0.0696941 2.22167 0.103841C1.75163 0.287265 0.870533 1.00109 0.493977 1.49929C0.154348 1.95039 0.0239516 2.27012 0.00424533 2.69148C-0.0129766 3.03847 0.0165452 3.18223 0.198673 3.62589C1.62366 7.10583 3.75 9.88438 6.67135 12.0903C8.19722 13.2428 9.77972 14.1203 11.4213 14.7201C12.3787 15.0696 12.7945 15.0869 13.2843 14.7995C13.491 14.6755 14.003 14.1476 14.2884 13.7634C14.7609 13.1239 14.9357 12.829 14.9849 12.5934C15.0194 12.4324 14.9923 12.1523 14.9284 11.9738Z" fill="white"/>
<path d="M14.9976 6.64997C14.9677 5.81653 14.8314 5.13297 14.5472 4.37079C14.2666 3.62101 13.9827 3.13183 13.4464 2.47013C12.9393 1.84971 12.5455 1.49546 11.9209 1.10113C11.0494 0.551723 9.98893 0.188148 8.80046 0.0352449C8.39508 -0.0181974 8.30345 -0.0143826 8.17902 0.0710411C7.93807 0.232851 7.94127 0.636456 8.18302 0.795841C8.26301 0.846541 8.33402 0.865017 8.65825 0.908704C9.15597 0.977684 9.47602 1.0427 9.8557 1.14936C11.3448 1.56843 12.4899 2.42503 13.2555 3.69665C13.8961 4.75645 14.162 5.81644 14.1243 7.17021C14.1112 7.62778 14.1207 7.70837 14.1887 7.81833C14.3188 8.02324 14.662 8.06381 14.838 7.89378C14.9476 7.79007 14.9682 7.71228 14.9898 7.32056C15.0001 7.11621 15.0024 6.81458 14.9976 6.64997Z" fill="white"/>
</svg>
