<svg width="17" height="17" viewBox="0 0 17 17" fill="none" xmlns="http://www.w3.org/2000/svg">
<path fill-rule="evenodd" clip-rule="evenodd" d="M14.0956 2.34855C15.3519 3.44505 16.048 5.86839 15.5771 9.70784C15.1657 13.0942 12.8112 13.6943 12.0207 13.8958C11.959 13.9107 11.8978 13.9274 11.8371 13.9459C11.6229 14.0139 9.74441 14.4857 7.29811 14.28L7.05501 14.5622C5.81062 16.0072 5.59556 16.2554 5.15271 16.116C4.74216 15.991 4.76596 15.3663 4.76596 15.3663L4.76937 13.8261H4.76596C1.19257 12.8171 1.24272 9.09754 1.28437 7.1128C1.32687 5.12805 1.70937 3.52495 2.79907 2.4327C5.22411 0.198896 12.0692 0.475996 14.0956 2.3477V2.34855ZM5.51056 15.555C5.99166 15.0688 7.53951 13.1971 7.53951 13.1971C9.61351 13.3314 11.2659 12.9191 11.4444 12.8613C11.4852 12.8486 11.5456 12.8341 11.6195 12.8171C12.2927 12.659 14.1636 12.2213 14.5095 9.42564C14.5095 9.41204 14.5138 9.36275 14.5223 9.2837C14.6047 8.4796 15.0034 4.5866 13.3017 3.1246C11.7717 1.7306 5.77067 1.29795 3.64397 3.23255C2.72172 4.1463 2.40892 5.50375 2.37577 7.16125L2.37237 7.3372C2.33497 9.03294 2.26867 12.0139 5.19437 12.8265C5.19437 12.8265 5.18247 15.1793 5.18247 15.385C5.17991 15.6978 5.35246 15.7131 5.51056 15.555ZM8.39632 3.98055C8.14387 3.97715 8.14387 3.5955 8.39632 3.5955C10.5893 3.60995 12.3539 5.12975 12.3752 7.7503C12.3786 8.007 11.9918 8.0104 11.9918 7.7537C11.9748 5.32185 10.3581 3.995 8.39632 3.98055ZM10.9769 7.35079C10.971 7.60409 11.3577 7.616 11.3611 7.3593C11.3934 5.9143 10.4746 4.7243 8.74736 4.5985C8.49492 4.58065 8.46856 4.9657 8.72101 4.98355C10.2187 5.09405 11.0075 6.08514 10.9769 7.35079ZM9.77162 9.1052C9.90761 8.92669 10.2391 8.81279 10.563 8.99469C11.0007 9.24204 11.5575 9.62794 11.9264 9.97645C12.1346 10.1464 12.1822 10.4065 12.0394 10.6819V10.6862C11.719 11.2531 11.1172 11.8804 10.4984 11.6807L10.4924 11.6713C9.86426 11.4945 8.38441 10.7304 7.45026 9.9841C5.80637 8.68105 5.09577 7.02865 4.70647 6.1251C4.64201 5.96989 4.57256 5.81681 4.49821 5.6661C4.29931 5.04475 4.92151 4.44125 5.48932 4.1191H5.49527C5.76812 3.97545 6.03076 4.02305 6.20586 4.23555C6.24667 4.2908 6.29766 4.3503 6.35801 4.4217C6.54246 4.6393 6.81786 4.964 7.18421 5.60575C7.36611 5.9313 7.25391 6.2628 7.07456 6.4005L6.71756 6.68695C6.53651 6.83315 6.56031 7.10515 6.56031 7.10515C6.56031 7.10515 7.08987 9.1137 9.06951 9.62115C9.06951 9.62115 9.34151 9.64579 9.48601 9.46305L9.77162 9.1052ZM9.01851 6.0197C9.64921 6.0554 9.95607 6.37584 9.98837 7.03204C10.0003 7.28874 10.3845 7.2709 10.3726 7.01505C10.3301 6.15655 9.86936 5.6797 9.03976 5.63465C8.78646 5.6202 8.76266 6.00525 9.01851 6.02055V6.0197Z" fill="white"/>
</svg>
