<svg version="1.1" width="14" height="9" xmlns="http://www.w3.org/2000/svg" x="0px" y="0px"
	 viewBox="0 0 14 8.9" style="enable-background:new 0 0 14 8.9;" xml:space="preserve">
<path class="st0" d="M0,1.4c0.1-0.3,0.1-0.6,0.3-0.8C0.6,0.3,1,0,1.5,0c0.3,0,0.6,0,1,0C4.2,0,6,0,7.8,0C8.5,0,9,0.3,9.3,1
	c0.1,0.2,0.1,0.5,0.1,0.7c0,1.8,0,3.6,0,5.5c0,0.9-0.5,1.5-1.3,1.7c-0.1,0-0.2,0-0.4,0c-2.1,0-4.1,0-6.2,0C0.8,8.9,0.2,8.4,0,7.5
	c0,0,0,0,0,0C0,5.5,0,3.4,0,1.4z"/>
<path class="st0" d="M14,4.5c0,0.9,0,1.7,0,2.6c0,0.7-0.6,1.1-1.2,1c-0.1,0-0.2-0.1-0.3-0.1c-0.7-0.5-1.5-0.9-2.2-1.4
	c-0.1-0.1-0.1-0.1-0.1-0.2c0-1.2,0-2.4,0-3.6c0-0.1,0-0.1,0.1-0.2c0.8-0.5,1.5-1,2.3-1.4c0.5-0.3,1.1,0,1.3,0.6c0,0.1,0,0.2,0,0.4
	C14,2.8,14,3.6,14,4.5z"/>
</svg>
