<svg width="13" height="7" viewBox="0 0 13 7" fill="none" xmlns="http://www.w3.org/2000/svg">
<path d="M13 6.61686C12.9176 6.85019 12.7985 6.94526 12.5299 6.95102C11.9469 6.9683 11.3609 6.96254 10.7809 6.99423C10.2742 7.02303 9.87436 6.83867 9.5325 6.51604C9.25473 6.25102 9.00139 5.96871 8.72973 5.69793C8.63205 5.59999 8.51912 5.51357 8.40008 5.43579C8.19862 5.30616 8.05211 5.33209 7.88728 5.50205C7.69803 5.69505 7.6492 5.93703 7.61867 6.18476C7.60341 6.30863 7.60341 6.4325 7.59425 6.55637C7.57899 6.79258 7.45384 6.93373 7.20355 6.95102C6.91358 6.97118 6.62055 6.97118 6.32752 6.96254C6.08639 6.95678 5.84525 6.94526 5.61022 6.90781C4.90818 6.79546 4.31907 6.45554 3.74828 6.0753C3.21717 5.72098 2.82342 5.24855 2.43882 4.76748C1.45901 3.54032 0.711187 2.18929 0.0549301 0.789289C-0.0732689 0.512746 0.0213542 0.35719 0.344904 0.334145C0.579936 0.316861 0.818019 0.322622 1.0561 0.319742C1.43154 0.316861 1.81004 0.316861 2.18548 0.31398C2.46324 0.31398 2.64638 0.429207 2.77153 0.671182C3.10118 1.31645 3.43999 1.95884 3.79102 2.59546C3.93753 2.86336 4.12677 3.11398 4.38623 3.3041C4.44727 3.35019 4.52053 3.39052 4.59379 3.41645C4.7403 3.46542 4.85324 3.41645 4.92954 3.2897C5.05469 3.08229 5.06385 2.84896 5.09437 2.61851C5.15847 2.09135 5.15237 1.56707 5.03333 1.04567C4.96617 0.746079 4.76777 0.587643 4.46253 0.524268C4.4137 0.512746 4.36791 0.48682 4.31907 0.466655C4.34654 0.423445 4.36486 0.371593 4.39844 0.334145C4.52969 0.195873 4.69451 0.109454 4.88986 0.0806469C5.62243 -0.0230568 6.355 -0.0374601 7.08756 0.072005C7.44774 0.126737 7.57899 0.241964 7.61257 0.636614C7.64004 0.950606 7.60951 1.26748 7.60646 1.58147C7.60036 1.99628 7.5912 2.4111 7.59731 2.82591C7.59731 2.9469 7.62783 3.07365 7.67361 3.186C7.77434 3.42797 7.97275 3.46254 8.18031 3.29546C8.52217 3.02756 8.7511 2.67612 8.98613 2.33044C9.3402 1.8148 9.63323 1.25596 9.87742 0.676943C9.90489 0.610688 9.93846 0.544433 9.97814 0.483939C10.0361 0.394639 10.1247 0.339906 10.2406 0.339906C11.0098 0.331264 11.779 0.319742 12.5513 0.319742C12.7344 0.319742 12.9267 0.351429 13.003 0.555956C13.003 0.610688 13.003 0.668301 13.003 0.723034C12.9206 0.904515 12.8535 1.09464 12.7558 1.26748C12.4322 1.84361 11.9927 2.34773 11.5837 2.86912C11.3731 3.13703 11.1594 3.40781 10.9702 3.69011C10.8267 3.90616 10.8633 4.11357 11.0404 4.30657C11.1258 4.39875 11.2174 4.48805 11.312 4.57447C11.66 4.90575 12.0232 5.22262 12.3559 5.5683C12.6429 5.86789 12.9389 6.17036 13.0061 6.5967C13 6.60246 13 6.6111 13 6.61686Z" fill="white"/>
</svg>
