<svg width="16" height="16" viewBox="0 0 16 16" fill="none" xmlns="http://www.w3.org/2000/svg">
<path fill-rule="evenodd" clip-rule="evenodd" d="M3.92516 14.8853L3.63296 14.7119L0.605177 15.506L1.41336 12.5549L1.22315 12.2524C0.422332 10.9791 -0.000615648 9.50752 6.72617e-07 7.99646C0.0017486 3.58721 3.59053 0 8.00328 0C10.1401 0.000737299 12.1487 0.833612 13.6591 2.34524C15.1695 3.85688 16.0008 5.86607 16 8.00293C15.9983 12.4125 12.4095 16 8.00015 16H7.99692C6.5614 15.9995 5.15346 15.614 3.92516 14.8853ZM11.8583 9.90617C12.0012 9.98051 12.0977 10.0307 12.1388 10.1047C12.19 10.1966 12.19 10.6382 12.0195 11.1535C11.8487 11.6686 11.0304 12.1388 10.6369 12.2021C10.2841 12.2589 9.8375 12.2826 9.34686 12.1147C9.04941 12.013 8.6679 11.8774 8.17929 11.6501C6.2592 10.7574 4.96159 8.75356 4.71637 8.37481C4.6992 8.34825 4.68717 8.32966 4.6804 8.32007L4.67879 8.31775C4.57038 8.162 3.84413 7.11857 3.84413 6.03868C3.84413 5.02283 4.30758 4.49035 4.52087 4.24523C4.53552 4.22846 4.54896 4.21301 4.56098 4.19887C4.7487 3.97808 4.97058 3.92284 5.10708 3.92284C5.24368 3.92284 5.38038 3.92425 5.49971 3.93071C5.51436 3.93152 5.52971 3.93142 5.54558 3.93132C5.6649 3.93051 5.81373 3.9296 5.96053 4.30926C6.01701 4.45541 6.09956 4.67195 6.18675 4.90041C6.36296 5.36239 6.55776 5.87294 6.59201 5.94677C6.64323 6.05717 6.67728 6.18594 6.60908 6.3332C6.59878 6.35522 6.58928 6.37612 6.58029 6.39602C6.52896 6.50874 6.49128 6.59166 6.40428 6.70104C6.37003 6.74407 6.33467 6.79043 6.29931 6.83688C6.22878 6.9292 6.15836 7.02161 6.09703 7.08747C5.99448 7.19745 5.88779 7.31674 6.00721 7.53752C6.12674 7.75831 6.53775 8.48046 7.1466 9.06525C7.80111 9.69387 8.37005 9.9596 8.6583 10.0943C8.71468 10.1206 8.76025 10.1419 8.79369 10.1599C8.99849 10.2704 9.11792 10.2519 9.23744 10.1047C9.35687 9.95758 9.74939 9.46076 9.88589 9.23998C10.0225 9.01929 10.1591 9.05605 10.3467 9.12958C10.5345 9.20331 11.5415 9.73669 11.7463 9.84708C11.7863 9.8687 11.8237 9.88809 11.8583 9.90617Z" fill="white"/>
</svg>
