<svg width="20" height="19" viewBox="0 0 20 19" fill="none" xmlns="http://www.w3.org/2000/svg">
<path d="M11.4286 10C11.4286 10.8571 10.8571 11.4286 10 11.4286C9.14286 11.4286 8.57143 10.7143 8.57143 10V5.71428C8.57143 4.99999 9.14286 4.28571 10 4.28571C10.8571 4.28571 11.4286 4.99999 11.4286 5.71428V10ZM11.4286 15C11.4286 15.4286 11.1429 15.7143 10.7143 15.7143H9.28572C8.85715 15.7143 8.57143 15.4286 8.57143 15V13.5714C8.57143 13.1429 8.85715 12.8571 9.28572 12.8571H10.7143C11.1429 12.8571 11.4286 13.1429 11.4286 13.5714V15ZM19.7143 15.1429L11.8571 1.14285C11 -0.428578 8.85715 -0.428578 8 1.14285L0.285715 15C-0.571428 16.7143 0.571429 18.5714 2.28572 18.5714H17.8571C19.4286 18.5714 20.5714 16.7143 19.7143 15.1429Z" fill="#E11D1D"/>
</svg>
