<svg version="1.1" width="14.2" height="14.2" xmlns="http://www.w3.org/2000/svg"  x="0px" y="0px"
	 viewBox="0 0 14.2 14.2" style="enable-background:new 0 0 14.2 14.2;" xml:space="preserve">
<path class="st0" d="M7.1,14.2C3.2,14.2,0,11,0,7.1C0,3.2,3.2,0,7.1,0c3.9,0,7.1,3.2,7.1,7.1C14.2,11,11,14.2,7.1,14.2z M7.1,1.5
	C4,1.5,1.5,4,1.5,7.1c0,3.1,2.5,5.6,5.6,5.6c3.1,0,5.6-2.5,5.6-5.6C12.7,4,10.2,1.5,7.1,1.5z"/>
<path class="st0" d="M7.1,8.5c-0.4,0-0.8-0.3-0.8-0.8V3.2c0-0.4,0.3-0.8,0.8-0.8s0.8,0.3,0.8,0.8v4.5C7.8,8.1,7.5,8.5,7.1,8.5z"/>
<circle class="st1" cx="7.1" cy="10.3" r="0.6"/>
</svg>
