<svg width="40" height="40" viewBox="0 0 40 40" fill="none" xmlns="http://www.w3.org/2000/svg">
<g clip-path="url(#clip0)">
<path fill-rule="evenodd" clip-rule="evenodd" d="M9.47034 37.5704C9.47034 37.0181 9.91805 36.5704 10.4703 36.5704H29.2024C29.7547 36.5704 30.2024 37.0181 30.2024 37.5704C30.2024 38.1227 29.7547 38.5704 29.2024 38.5704H10.4703C9.91805 38.5704 9.47034 38.1227 9.47034 37.5704Z" fill="#21A038"/>
<path fill-rule="evenodd" clip-rule="evenodd" d="M15.1329 35.6674C13.9805 35.6674 13.0245 36.6166 13.0245 37.8194H11.0245V36.9899C11.0245 36.7157 11.1349 36.4672 11.3137 36.2865C11.9152 34.7568 13.3907 33.6674 15.1329 33.6674H24.4581C26.2003 33.6674 27.6758 34.7568 28.2773 36.2865C28.4561 36.4672 28.5665 36.7157 28.5665 36.9899V37.8194H26.5665C26.5665 36.6166 25.6105 35.6674 24.4581 35.6674H15.1329Z" fill="#21A038"/>
<path fill-rule="evenodd" clip-rule="evenodd" d="M16.8324 25.3769C16.8324 23.7595 18.1668 22.3861 19.7956 22.3861C21.4244 22.3861 22.7588 23.7595 22.7588 25.3769V34.3354C22.7588 34.8877 22.3111 35.3354 21.7588 35.3354C21.2065 35.3354 20.7588 34.8877 20.7588 34.3354V25.3769C20.7588 24.8376 20.2936 24.3861 19.7956 24.3861C19.2976 24.3861 18.8324 24.8376 18.8324 25.3769V34.3354C18.8324 34.8877 18.3847 35.3354 17.8324 35.3354C17.2801 35.3354 16.8324 34.8877 16.8324 34.3354V25.3769Z" fill="#21A038"/>
<path fill-rule="evenodd" clip-rule="evenodd" d="M19.7955 7.87C20.3478 7.87 20.7955 8.31771 20.7955 8.87V23.1373C20.7955 23.6896 20.3478 24.1373 19.7955 24.1373C19.2432 24.1373 18.7955 23.6896 18.7955 23.1373V8.87C18.7955 8.31771 19.2432 7.87 19.7955 7.87Z" fill="#21A038"/>
<path fill-rule="evenodd" clip-rule="evenodd" d="M19.8773 4.14661C19.6247 4.14661 19.4049 4.34928 19.4049 4.63969V7.12817C19.4049 7.41859 19.6247 7.62126 19.8773 7.62126C20.1299 7.62126 20.3497 7.41858 20.3497 7.12817V4.63969C20.3497 4.34928 20.1299 4.14661 19.8773 4.14661ZM17.4049 4.63969C17.4049 3.27112 18.4939 2.14661 19.8773 2.14661C21.2607 2.14661 22.3497 3.27112 22.3497 4.63969V7.12817C22.3497 8.49675 21.2607 9.62126 19.8773 9.62126C18.4939 9.62126 17.4049 8.49674 17.4049 7.12817V4.63969Z" fill="#21A038"/>
<path fill-rule="evenodd" clip-rule="evenodd" d="M18.769 3.87415C18.7694 3.8743 18.7697 3.87445 18.405 4.80554L18.7697 3.87445C19.284 4.07592 19.5375 4.65611 19.336 5.17033C19.1349 5.68359 18.5566 5.93714 18.0431 5.73775C18.0427 5.73764 18.0422 5.73744 18.0415 5.73718L18.023 5.73035C18.0041 5.72352 17.9725 5.71234 17.9288 5.69789C17.8415 5.66898 17.7065 5.62717 17.5306 5.58114C17.178 5.48887 16.6655 5.38087 16.0446 5.32448C14.7997 5.21144 13.1532 5.30827 11.4794 6.12005C9.59802 7.03247 8.13181 7.63538 6.61798 7.73208C5.07524 7.83062 3.60706 7.39903 1.71594 6.54672C1.21243 6.31979 0.98822 5.72765 1.21515 5.22414C1.44208 4.72063 2.03421 4.49642 2.53772 4.72335C4.32759 5.53002 5.4361 5.80349 6.49049 5.73614C7.5738 5.66694 8.72517 5.23299 10.6066 4.32052C12.6956 3.30742 14.73 3.19687 16.2255 3.33268C16.9747 3.40071 17.5971 3.53119 18.037 3.64629C18.2573 3.70395 18.4329 3.75805 18.5571 3.79913C18.6192 3.81968 18.6685 3.83701 18.7042 3.84994C18.7221 3.85641 18.7365 3.86178 18.7475 3.86591L18.7613 3.87117L18.7662 3.87306L18.7681 3.87382L18.769 3.87415Z" fill="#21A038"/>
<path fill-rule="evenodd" clip-rule="evenodd" d="M-0.182007 18.7365H13.5971V19.7365C13.5971 23.5935 10.5449 26.7088 6.70756 26.7088C2.87018 26.7088 -0.182007 23.5935 -0.182007 19.7365V18.7365ZM1.9148 20.7365C2.36531 23.0238 4.33532 24.7088 6.70756 24.7088C9.0798 24.7088 11.0498 23.0238 11.5003 20.7365H1.9148Z" fill="#21A038"/>
<path fill-rule="evenodd" clip-rule="evenodd" d="M6.36293 5.95913C6.87112 6.17538 7.10779 6.76265 6.89154 7.27084L1.73816 19.3814C1.52192 19.8896 0.934645 20.1263 0.426456 19.91C-0.0817324 19.6938 -0.318397 19.1065 -0.10215 18.5983L5.05122 6.48774C5.26747 5.97955 5.85474 5.74288 6.36293 5.95913Z" fill="#21A038"/>
<path fill-rule="evenodd" clip-rule="evenodd" d="M7.05445 6.04106C7.56317 5.82606 8.14985 6.06416 8.36485 6.57288L13.5182 18.7664C13.7332 19.2751 13.4951 19.8618 12.9864 20.0768C12.4777 20.2918 11.891 20.0537 11.676 19.545L6.52263 7.35146C6.30763 6.84275 6.54573 6.25606 7.05445 6.04106Z" fill="#21A038"/>
<path fill-rule="evenodd" clip-rule="evenodd" d="M21.6769 4.80554L21.3121 3.87445C20.7979 4.07592 20.5443 4.65611 20.7458 5.17033C20.9472 5.68433 21.527 5.93787 22.041 5.73689L22.0404 5.73713L22.0403 5.73718C22.0389 5.73773 22.0383 5.73797 22.0385 5.73788L22.0394 5.7375M21.6769 4.80554C21.3121 3.87445 21.3125 3.8743 21.3129 3.87415L21.3137 3.87382L21.3157 3.87306L21.3206 3.87117L21.3344 3.86591C21.3453 3.86178 21.3598 3.85641 21.3776 3.84994C21.4133 3.83701 21.4627 3.81968 21.5248 3.79913C21.6489 3.75805 21.8246 3.70395 22.0449 3.64629C22.4847 3.53119 23.1072 3.40071 23.8564 3.33268C25.3519 3.19687 27.3863 3.30742 29.4752 4.32052C31.3567 5.23299 32.5081 5.66694 33.5914 5.73614C34.6458 5.80349 35.7543 5.53002 37.5441 4.72335C38.0476 4.49642 38.6398 4.72063 38.8667 5.22414C39.0936 5.72765 38.8694 6.31979 38.3659 6.54672C36.4748 7.39903 35.0066 7.83062 33.4639 7.73208C31.95 7.63538 30.4838 7.03247 28.6025 6.12005C26.9287 5.30827 25.2821 5.21144 24.0373 5.32448C23.4163 5.38087 22.9038 5.48887 22.5512 5.58114C22.3753 5.62717 22.2404 5.66898 22.153 5.69789C22.1094 5.71234 22.0777 5.72352 22.0589 5.73035L22.0403 5.73718" fill="#21A038"/>
<path fill-rule="evenodd" clip-rule="evenodd" d="M26.4028 18.7365H40.182V19.7365C40.182 23.5935 37.1298 26.7088 33.2924 26.7088C29.455 26.7088 26.4028 23.5935 26.4028 19.7365V18.7365ZM28.4996 20.7365C28.9502 23.0238 30.9202 24.7088 33.2924 24.7088C35.6646 24.7088 37.6347 23.0238 38.0852 20.7365H28.4996Z" fill="#21A038"/>
<path fill-rule="evenodd" clip-rule="evenodd" d="M33.637 5.95913C34.1452 5.74288 34.7325 5.97955 34.9487 6.48774L40.1021 18.5983C40.3184 19.1065 40.0817 19.6938 39.5735 19.91C39.0653 20.1263 38.478 19.8896 38.2618 19.3814L33.1084 7.27084C32.8922 6.76265 33.1288 6.17538 33.637 5.95913Z" fill="#21A038"/>
<path fill-rule="evenodd" clip-rule="evenodd" d="M32.9455 6.04106C33.4542 6.25606 33.6923 6.84275 33.4773 7.35146L28.324 19.545C28.109 20.0537 27.5223 20.2918 27.0136 20.0768C26.5048 19.8618 26.2667 19.2751 26.4817 18.7664L31.6351 6.57288C31.8501 6.06416 32.4368 5.82606 32.9455 6.04106Z" fill="#21A038"/>
</g>
<defs>
<clipPath id="clip0">
<rect width="40" height="40" fill="white"/>
</clipPath>
</defs>
</svg>
