<svg width="17" height="17" viewBox="0 0 17 17" fill="none" xmlns="http://www.w3.org/2000/svg">
<g clip-path="url(#clip0_1970_5688)">
<path fill-rule="evenodd" clip-rule="evenodd" d="M13.9203 3.07361C13.2131 2.36588 12.3728 1.80506 11.4479 1.42343C10.5231 1.04181 9.53182 0.846927 8.5313 0.850012C4.3323 0.850012 0.915304 4.25001 0.913604 8.43116C0.913604 9.76736 1.2638 11.0713 1.93105 12.2213L0.849854 16.15L4.8882 15.096C6.00604 15.7017 7.25739 16.0187 8.52875 16.0183H8.53215C12.7312 16.0183 16.1482 12.6174 16.1499 8.43711C16.1499 6.41156 15.3594 4.50671 13.9203 3.07361ZM8.5313 14.7382H8.5296C7.39607 14.7386 6.28312 14.4354 5.3064 13.8601L5.0752 13.7233L2.6782 14.3489L3.31825 12.0233L3.1678 11.7853C2.5337 10.7816 2.19794 9.61836 2.19965 8.43116C2.20135 4.95721 5.04205 2.13011 8.5347 2.13011C10.2262 2.13096 11.8157 2.78716 13.0108 3.97886C13.5999 4.5618 14.0671 5.25611 14.3852 6.02136C14.7033 6.78662 14.866 7.60752 14.8638 8.43626C14.8621 11.9111 12.0223 14.7382 8.5313 14.7382ZM12.0053 10.0181C11.8149 9.92376 10.879 9.46561 10.7048 9.40271C10.5297 9.33896 10.403 9.30751 10.2764 9.49706C10.1489 9.68661 9.7842 10.1142 9.67285 10.24C9.56235 10.3666 9.45185 10.3819 9.26145 10.2867C9.07105 10.1924 8.45735 9.99261 7.7306 9.34661C7.1645 8.84511 6.782 8.22461 6.6715 8.03506C6.561 7.84466 6.6596 7.74266 6.7548 7.64831C6.8398 7.56331 6.9452 7.42731 7.0404 7.31681C7.1356 7.20631 7.16705 7.12641 7.2308 7.00061C7.2937 6.87396 7.26225 6.76346 7.21465 6.66911C7.16705 6.57391 6.7871 5.64061 6.62815 5.26236C6.47345 4.89261 6.3162 4.94276 6.19975 4.93681C6.07799 4.93166 5.95612 4.92939 5.83425 4.93001C5.73785 4.93266 5.64303 4.95516 5.55572 4.99611C5.4684 5.03706 5.39047 5.09558 5.3268 5.16801C5.15255 5.35671 4.6604 5.81571 4.6604 6.74731C4.6604 7.67976 5.34295 8.58076 5.43815 8.70741C5.53335 8.83406 6.78115 10.7474 8.6894 11.5677C9.14415 11.7632 9.4986 11.8796 9.77485 11.9672C10.2313 12.1117 10.6461 12.0913 10.9734 12.042C11.3389 11.9876 12.0996 11.5838 12.2586 11.141C12.4167 10.699 12.4167 10.3199 12.3691 10.24C12.3223 10.1609 12.1957 10.1133 12.0053 10.019V10.0181Z" fill="white"/>
</g>
<defs>
<clipPath id="clip0_1970_5688">
<rect width="17" height="17" fill="white"/>
</clipPath>
</defs>
</svg>
