<svg width="40" height="40" viewBox="0 0 40 40" fill="none" xmlns="http://www.w3.org/2000/svg">
<g clip-path="url(#clip0_189_2402)">
<path fill-rule="evenodd" clip-rule="evenodd" d="M20.0001 16.8C21.3334 16.8 22.4001 15.7333 22.4001 14.4C22.4001 13.0667 21.3334 12 20.0001 12C18.6668 12 17.6001 13.0667 17.6001 14.4C17.6001 15.7333 18.6668 16.8 20.0001 16.8Z" fill="#FF8541"/>
<path fill-rule="evenodd" clip-rule="evenodd" d="M20 0C8.93333 0 0 8.93333 0 20C0 31.0667 8.93333 40 20 40C31.0667 40 40 31.0667 40 20C40 8.93333 31.0667 0 20 0ZM20 8.26667C23.4667 8.26667 26.1333 11.0667 26.1333 14.4C26.1333 17.7333 23.3333 20.4 20.1333 20.4C16.8 20.4 14 17.7333 14 14.4C13.8667 10.9333 16.5333 8.26667 20 8.26667ZM24.9333 27.6C25.2 27.8667 25.6 28.2667 25.8667 28.5333C26.5333 29.2 26.5333 30.4 25.8667 31.0667C25.0667 31.8667 24 31.8667 23.3333 31.0667C22.2667 30.1333 21.3333 29.0667 20.4 28.1333C20.2667 28 20.2667 28 20.1333 27.8667C19.7333 28.2667 19.4667 28.5333 19.0667 28.9333C18.2667 29.7333 17.4667 30.5333 16.6667 31.2C15.8667 31.8667 14.9333 31.8667 14.1333 31.0667C13.4667 30.4 13.4667 29.3333 14.1333 28.6667C15.0667 27.7333 16 26.8 16.9333 25.8667C17.0667 25.7333 17.2 25.6 17.4667 25.4667C16.6667 25.2 16 24.9333 15.3333 24.6667C14.6667 24.4 14.1333 24.1333 13.6 23.6C13.0667 22.9333 13.0667 22 13.6 21.3333C14.1333 20.6667 15.0667 20.5333 15.8667 20.9333C16.8 21.4667 17.8667 21.8667 19.0667 22C20.5333 22.1333 21.8667 22 23.2 21.3333C23.4667 21.2 23.7333 21.0667 24 20.9333C24.9333 20.4 26 20.6667 26.5333 21.6C27.0667 22.5333 26.8 23.6 25.8667 24.1333C25.3333 24.4 24.8 24.6667 24.2667 24.9333C23.7333 25.2 23.2 25.3333 22.5333 25.6C23.3333 26.1333 24.1333 26.9333 24.9333 27.6Z" fill="#FF8541"/>
</g>
<defs>
<clipPath id="clip0_189_2402">
<rect width="40" height="40" fill="white"/>
</clipPath>
</defs>
</svg>
