<svg width="40" height="40" viewBox="0 0 40 40" fill="none" xmlns="http://www.w3.org/2000/svg">
<g clip-path="url(#clip0_189_2400)">
<path d="M20 0C8.93333 0 0 8.93333 0 20C0 31.0667 8.93333 40 20 40C31.0667 40 40 31.0667 40 20C40 8.93333 31.0667 0 20 0ZM26.1333 22.8C26.2667 22.9333 26.5333 23.3333 27.0667 23.7333C28.1333 24.8 28.9333 25.6 29.3333 26.4C29.3333 26.4 29.3333 26.5333 29.4667 26.5333C29.4667 26.5333 29.4667 26.6667 29.6 26.8C29.6 26.9333 29.6 27.0667 29.6 27.2C29.6 27.3333 29.4667 27.4667 29.3333 27.4667C29.2 27.6 28.9333 27.6 28.6667 27.6H25.6C25.4667 27.6 25.2 27.6 24.9333 27.6C24.6667 27.4667 24.5333 27.4667 24.2667 27.3333L24 27.4667C23.7333 27.3333 23.4667 27.0667 23.2 26.6667C22.9333 26.2667 22.6667 26 22.4 25.7333C22.1333 25.4667 21.8667 25.2 21.7333 25.0667C21.4667 24.9333 21.2 24.8 21.0667 24.9333C21.0667 24.9333 21.0667 24.9333 20.9333 24.9333C20.9333 24.9333 20.8 25.0667 20.6667 25.0667C20.5333 25.2 20.5333 25.3333 20.4 25.4667C20.2667 25.6 20.2667 25.8667 20.1333 26.1333C20.1333 26.4 20 26.6667 20 27.0667C20 27.2 20 27.3333 20 27.3333C20 27.4667 20 27.4667 19.8667 27.6C19.7333 27.7333 19.4667 27.8667 19.2 27.8667H17.8667C17.3333 27.8667 16.6667 27.8667 16.1333 27.7333C15.6 27.6 15.0667 27.3333 14.5333 27.0667C14.1333 26.8 13.7333 26.5333 13.3333 26.2667C12.9333 26 12.6667 25.7333 12.5333 25.6L12.2667 25.3333C12.1333 25.2 12.1333 25.2 12 24.9333C11.8667 24.8 11.6 24.4 11.2 23.8667C10.8 23.3333 10.4 22.6667 9.86667 22C9.46667 21.3333 8.93333 20.5333 8.4 19.4667C7.86667 18.4 7.33333 17.3333 6.8 16.2667C6.8 16.1333 6.66667 16 6.66667 15.8667C6.66667 15.7333 6.66667 15.7333 6.66667 15.7333V15.6C6.8 15.4667 7.06667 15.3333 7.33333 15.3333H10.6667C10.8 15.3333 10.8 15.3333 10.9333 15.4667C11.0667 15.4667 11.0667 15.6 11.0667 15.6C11.2 15.7333 11.3333 15.8667 11.3333 16C11.4667 16.4 11.7333 16.8 11.8667 17.2C12.1333 17.6 12.2667 18 12.4 18.1333L12.5333 18.5333C12.8 19.0667 12.9333 19.4667 13.2 19.7333C13.4667 20.1333 13.6 20.4 13.7333 20.5333C13.8667 20.6667 14.1333 20.9333 14.2667 20.9333C14.4 21.0667 14.5333 21.0667 14.6667 21.0667C14.8 21.0667 14.9333 21.0667 14.9333 21.0667C14.9333 21.0667 15.0667 20.9333 15.0667 20.8C15.2 20.6667 15.2 20.5333 15.2 20.2667C15.2 20 15.3333 19.7333 15.3333 19.3333C15.3333 18.9333 15.3333 18.4 15.3333 17.8667C15.3333 17.6 15.3333 17.2 15.2 16.9333C15.2 16.6667 15.0667 16.5333 15.0667 16.4L14.9333 16.2667C14.8 16 14.4 15.8667 13.8667 15.7333C13.7333 15.7333 13.7333 15.6 13.8667 15.4667C14 15.3333 14.1333 15.2 14.2667 15.0667C14.6667 14.8 15.6 14.8 17.0667 14.8C17.7333 14.8 18.2667 14.8 18.6667 14.9333C18.8 14.9333 18.9333 15.0667 19.0667 15.0667C19.2 15.2 19.2 15.2 19.3333 15.3333C19.3333 15.4667 19.4667 15.6 19.4667 15.7333C19.4667 15.8667 19.4667 16 19.4667 16.2667C19.4667 16.5333 19.4667 16.6667 19.4667 16.9333C19.4667 17.2 19.4667 17.4667 19.4667 17.7333C19.4667 18.1333 19.4667 18.4 19.4667 18.6667C19.4667 18.8 19.4667 18.9333 19.4667 19.2C19.4667 19.4667 19.4667 19.6 19.4667 19.7333C19.4667 19.8667 19.4667 20 19.4667 20.2667C19.4667 20.4 19.6 20.6667 19.6 20.6667C19.6 20.8 19.7333 20.9333 19.8667 20.9333C19.8667 20.9333 20 20.9333 20.1333 20.9333C20.2667 20.9333 20.2667 20.9333 20.4 20.8C20.5333 20.6667 20.6667 20.5333 20.8 20.4C20.9333 20.2667 21.2 20 21.4667 19.6C21.7333 19.2 22 18.8 22.2667 18.2667C22.8 17.4667 23.2 16.5333 23.6 15.6C23.6 15.4667 23.7333 15.4667 23.7333 15.3333L23.8667 15.2C23.8667 15.2 23.8667 15.2 24 15.2C24.1333 15.2 24.1333 15.2 24.2667 15.2H27.7333C28 15.2 28.2667 15.2 28.5333 15.2C28.6667 15.2 28.8 15.3333 28.9333 15.3333L29.0667 15.4667C29.2 16 28.6667 17.2 27.3333 18.9333C27.2 19.2 26.9333 19.4667 26.5333 20C25.8667 20.8 25.6 21.3333 25.4667 21.6C25.8667 22.1333 26 22.5333 26.1333 22.8Z" fill="#3B83F1"/>
</g>
<defs>
<clipPath id="clip0_189_2400">
<rect width="40" height="40" fill="white"/>
</clipPath>
</defs>
</svg>
