<svg width="10" height="17" viewBox="0 0 10 17" fill="none" xmlns="http://www.w3.org/2000/svg">
<path d="M6.63503 0C6.99964 0.216927 7.053 0.354167 6.94628 0.779167C6.47052 2.6651 5.99475 4.55104 5.51454 6.43698C5.51009 6.45469 5.51009 6.46797 5.50564 6.50339C5.56789 6.50781 5.62125 6.51224 5.67905 6.51224C6.9196 6.51224 8.15571 6.51667 9.39626 6.51224C9.62303 6.51224 9.81422 6.56094 9.93428 6.76901C10.0543 6.97708 9.99653 7.16745 9.87203 7.35781C7.90226 10.4656 5.93695 13.5779 3.97163 16.6901C3.84268 16.8937 3.68261 17.0266 3.42916 16.9956C3.12681 16.9602 2.94006 16.6724 3.02009 16.3581C3.24686 15.4417 3.48252 14.5253 3.71374 13.6089C3.96718 12.6039 4.22063 11.5945 4.47852 10.5896C4.48297 10.563 4.48741 10.5365 4.49631 10.4966C4.42516 10.4966 4.36736 10.4966 4.30956 10.4966C3.06901 10.4966 1.8329 10.4966 0.592349 10.4966C0.370028 10.4966 0.183278 10.4435 0.0676714 10.2443C-0.0523819 10.0362 0.000975099 9.84583 0.121028 9.65547C2.09079 6.54323 4.05611 3.43099 6.03032 0.323177C6.11036 0.194792 6.25709 0.10625 6.36825 0C6.45718 0 6.54611 0 6.63503 0Z" fill="#FF4D4F"/>
</svg>
