<svg width="164" height="26" viewBox="0 0 164 26" fill="none" xmlns="http://www.w3.org/2000/svg">
<path d="M73.255 7.50015L76.6737 4.98364H65.2284V20.058H76.6737V17.5415H68.4985V13.6927H75.4846V11.1762H68.4985V7.50015H73.255Z" fill="#21A038"/>
<path d="M56.5825 10.8555H52.6187V7.50015H58.9607L62.3794 4.98364H49.3486V20.058H56.1613C59.9764 20.058 62.1813 18.331 62.1813 15.321C62.1813 12.4345 60.1994 10.8555 56.5825 10.8555ZM56.0375 17.5415H52.6187V13.372H56.0375C58.1184 13.372 59.0846 14.0628 59.0846 15.4691C59.0846 16.8754 58.0441 17.5415 56.0375 17.5415Z" fill="#21A038"/>
<path d="M85.9389 4.98364H79.7208V20.058H82.9909V15.7898H85.9637C89.9275 15.7898 92.4048 13.7174 92.4048 10.3867C92.4048 7.05606 89.9275 4.98364 85.9389 4.98364ZM85.8646 13.2733H82.9661V7.50015H85.8646C87.9704 7.50015 89.11 8.53636 89.11 10.3867C89.11 12.2371 87.9704 13.2733 85.8646 13.2733Z" fill="#21A038"/>
<path d="M43.7499 16.8015C42.8828 17.2702 41.9166 17.5169 40.9257 17.5169C37.9777 17.5169 35.8472 15.4198 35.8472 12.5333C35.8472 9.64668 37.9777 7.5496 40.9257 7.5496C41.991 7.52493 43.0314 7.87033 43.8985 8.48712L46.252 6.76011L46.1034 6.61208C44.7408 5.40317 42.9076 4.78638 40.8266 4.78638C38.5722 4.78638 36.516 5.5512 35.0296 6.93281C33.5432 8.36376 32.7009 10.3622 32.7505 12.4346C32.7257 14.5317 33.5432 16.5547 35.0296 18.035C36.5904 19.4907 38.6713 20.3048 40.8018 20.2555C43.1553 20.2555 45.2115 19.4413 46.5988 17.961L44.4931 16.4067L43.7499 16.8015Z" fill="#21A038"/>
<path d="M131.72 5.00831V20.0827H134.99V13.9148H141.952V20.0827H145.222V5.00831H141.952V11.2009H134.99V5.00831H131.72ZM126.097 20.0827H129.54L123.149 5.00831H119.829L113.314 20.0827H116.608L117.921 17.0481H124.858L126.097 20.0827ZM118.912 14.5316L121.439 8.48701L123.818 14.5316H118.912ZM152.555 13.9888H154.586L159.59 20.058H163.802L157.113 12.2618L162.96 4.98364H159.219L154.363 11.4476H152.555V4.98364H149.285V20.058H152.555V13.9888ZM102.512 10.8802V7.52482H111.059V5.00831H99.2423V20.0827H106.055C109.87 20.0827 112.075 18.3557 112.075 15.3457C112.075 12.4591 110.093 10.8802 106.476 10.8802H102.512ZM102.512 17.5662V13.3967H105.931C108.012 13.3967 108.978 14.0875 108.978 15.4937C108.978 16.9 107.963 17.5908 105.931 17.5908H102.512V17.5662Z" fill="#21A038"/>
<path d="M22.519 4.88501C23.1136 5.64983 23.609 6.48866 24.0302 7.37684L12.5849 15.7899L7.77881 12.7799V9.17787L12.5601 12.1631L22.519 4.88501Z" fill="#21A038"/>
<path d="M2.89849 12.5333C2.89849 12.3606 2.89849 12.2126 2.92326 12.0399L0.0247734 11.8918C0.0247734 12.0892 0 12.3113 0 12.5086C0 15.9627 1.41208 19.096 3.69124 21.3657L5.74743 19.318C3.98852 17.591 2.89849 15.1978 2.89849 12.5333Z" fill="url(#paint0_linear)"/>
<path d="M12.56 2.91124C12.7335 2.91124 12.8821 2.91124 13.0555 2.93591L13.2042 0.0493298C13.006 0.0493298 12.783 0.0246582 12.5848 0.0246582C9.11654 0.0246582 5.97032 1.43094 3.69116 3.70073L5.74736 5.74847C7.48149 3.99679 9.90929 2.91124 12.56 2.91124Z" fill="url(#paint1_linear)"/>
<path d="M12.5601 22.1551C12.3867 22.1551 12.2381 22.1551 12.0647 22.1304L11.916 25.017C12.1142 25.017 12.3372 25.0417 12.5354 25.0417C16.0036 25.0417 19.1499 23.6354 21.429 21.3656L19.3728 19.3179C17.6387 21.0942 15.2357 22.1551 12.5601 22.1551Z" fill="url(#paint2_linear)"/>
<path d="M18.0103 4.58892L20.4629 2.78789C18.3076 1.06088 15.5578 0 12.5602 0V2.88658C14.5916 2.91125 16.4744 3.52804 18.0103 4.58892Z" fill="url(#paint3_linear)"/>
<path d="M25.145 12.5332C25.145 11.7684 25.0707 11.0282 24.9469 10.2881L22.2466 12.2865C22.2466 12.3605 22.2466 12.4592 22.2466 12.5332C22.2466 15.3704 21.0079 17.9116 19.0508 19.6633L21.0079 21.8097C23.5348 19.5399 25.145 16.2093 25.145 12.5332Z" fill="#21A038"/>
<path d="M12.5602 22.1551C9.71122 22.1551 7.15956 20.9215 5.40065 18.9724L3.24536 20.9215C5.54929 23.4626 8.86893 25.0416 12.5602 25.0416V22.1551Z" fill="url(#paint4_linear)"/>
<path d="M6.09426 5.40302L4.13716 3.25659C1.5855 5.55105 0 8.85705 0 12.5331H2.89849C2.89849 9.72055 4.13716 7.15471 6.09426 5.40302Z" fill="url(#paint5_linear)"/>
<defs>
<linearGradient id="paint0_linear" x1="3.39142" y1="21.0145" x2="0.446459" y2="12.4942" gradientUnits="userSpaceOnUse">
<stop offset="0.1444" stop-color="#F2E913"/>
<stop offset="0.3037" stop-color="#E7E518"/>
<stop offset="0.5823" stop-color="#CADB26"/>
<stop offset="0.891" stop-color="#A3CD39"/>
</linearGradient>
<linearGradient id="paint1_linear" x1="4.51738" y1="3.36606" x2="12.0295" y2="0.500712" gradientUnits="userSpaceOnUse">
<stop offset="0.0592" stop-color="#0FA8E0"/>
<stop offset="0.5385" stop-color="#0099F9"/>
<stop offset="0.9234" stop-color="#0291EB"/>
</linearGradient>
<linearGradient id="paint2_linear" x1="11.7458" y1="22.5794" x2="20.7027" y2="20.5532" gradientUnits="userSpaceOnUse">
<stop offset="0.1226" stop-color="#A3CD39"/>
<stop offset="0.2846" stop-color="#86C339"/>
<stop offset="0.8693" stop-color="#21A038"/>
</linearGradient>
<linearGradient id="paint3_linear" x1="11.9647" y1="1.84689" x2="19.4119" y2="4.1468" gradientUnits="userSpaceOnUse">
<stop offset="0.0566" stop-color="#0291EB"/>
<stop offset="0.79" stop-color="#0C8ACB"/>
</linearGradient>
<linearGradient id="paint4_linear" x1="3.98235" y1="21.3903" x2="11.9778" y2="24.3804" gradientUnits="userSpaceOnUse">
<stop offset="0.1324" stop-color="#F2E913"/>
<stop offset="0.2977" stop-color="#EBE716"/>
<stop offset="0.5306" stop-color="#D9E01F"/>
<stop offset="0.8023" stop-color="#BBD62D"/>
<stop offset="0.9829" stop-color="#A3CD39"/>
</linearGradient>
<linearGradient id="paint5_linear" x1="2.20548" y1="12.8818" x2="5.39038" y2="4.58915" gradientUnits="userSpaceOnUse">
<stop offset="0.0698" stop-color="#A3CD39"/>
<stop offset="0.2599" stop-color="#81C55F"/>
<stop offset="0.9216" stop-color="#0FA8E0"/>
</linearGradient>
</defs>
</svg>
