<svg width="119" height="123" viewBox="0 0 119 123" fill="none" xmlns="http://www.w3.org/2000/svg">
<rect x="0.551025" width="87.863" height="120.234" rx="10" fill="url(#paint0_linear)"/>
<path d="M70.9125 13.485C79.9347 12.9542 81.9692 20.119 81.8586 23.7677H59.6347L54.3275 24.7628V19.7873V13.485C56.0965 13.7061 61.8902 14.0157 70.9125 13.485Z" fill="#29C67C"/>
<g filter="url(#filter0_d)">
<path d="M49.6839 116.312H10.2115C7.02716 116.312 6.89448 112.553 7.22618 110.674V21.1144C7.22618 13.9497 13.4179 12.8219 16.5138 13.1536H71.5761C62.5539 13.1536 60.0772 21.1144 59.9666 25.0948V110.674C59.9666 115.981 56.6496 116.644 54.9911 116.312H49.6839Z" fill="white"/>
</g>
<rect x="13.7359" y="27.6973" width="17.2484" height="5.30721" rx="2.65361" fill="#29C67C"/>
<rect x="13.7359" y="36.3213" width="39.8041" height="3.98041" rx="1.9902" fill="#29C67C"/>
<rect x="13.7359" y="42.2921" width="39.8041" height="3.98041" rx="1.9902" fill="#29C67C"/>
<rect x="13.7359" y="88.0667" width="19.2386" height="3.98041" rx="1.9902" fill="#21BA72"/>
<rect x="13.7359" y="94.0371" width="19.2386" height="3.98041" rx="1.9902" fill="#21BA72"/>
<rect x="13.7359" y="102.662" width="38.4773" height="3.98041" rx="1.9902" fill="#21BA72"/>
<circle cx="31.8903" cy="67.4634" r="15.8121" fill="#261E74"/>
<circle cx="29.4808" cy="67.4635" r="15.8121" fill="#4C4DC1"/>
<circle cx="29.4809" cy="67.4636" r="12.8003" fill="#21BA72"/>
<path d="M29.8182 71.0173C34.2907 71.9141 37.0493 70.6063 37.7624 67.0501C38.4537 63.603 36.7485 61.4682 31.9269 60.5014L26.8435 59.4821L23.7811 74.754L26.5082 75.3009L27.462 70.5448L29.8182 71.0173ZM31.6638 63.0585C34.3255 63.5922 35.3156 64.5397 34.9393 66.416C34.5237 68.4886 33.0485 69.0551 30.5177 68.5477L27.9651 68.0358L29.0675 62.5379L31.6638 63.0585Z" fill="white"/>
<path d="M22.8941 71.0173L29.6021 72.4207L29.111 74.7685L22.4029 73.3651L22.8941 71.0173Z" fill="white"/>
<path d="M23.9222 67.252L30.6303 68.6553L30.1391 71.0031L23.4311 69.5998L23.9222 67.252Z" fill="white"/>
<path d="M81.0599 36.6024C69.9855 39.3628 47.2941 47.0493 45.1244 48.0685C42.4123 118.139 81.0599 121.961 81.0599 121.961C109.808 111.769 116.091 70.1514 115.639 50.6165L81.0599 36.6024Z" fill="#45ADA2" fill-opacity="0.73"/>
<path d="M83.8134 32.0132C72.739 34.9516 50.0477 43.1341 47.878 44.219C45.1659 118.81 83.8134 122.879 83.8134 122.879C112.562 112.029 118.845 67.7266 118.393 46.9314L83.8134 32.0132Z" fill="#0198F7"/>
<path d="M83.6989 37.5203C74.3503 40.1025 55.1953 47.2932 53.3638 48.2466C51.0743 113.797 83.6989 117.372 83.6989 117.372C107.967 107.837 113.271 68.9048 112.889 50.6303L83.6989 37.5203Z" fill="#21BA72"/>
<path d="M111.972 50.6303L83.5372 37.5203V117.372C107.177 107.837 112.344 68.9048 111.972 50.6303Z" fill="#2CCC81"/>
<defs>
<filter id="filter0_d" x="7.10223" y="10.5548" width="77.2118" height="108.376" filterUnits="userSpaceOnUse" color-interpolation-filters="sRGB">
<feFlood flood-opacity="0" result="BackgroundImageFix"/>
<feColorMatrix in="SourceAlpha" type="matrix" values="0 0 0 0 0 0 0 0 0 0 0 0 0 0 0 0 0 0 127 0"/>
<feOffset dx="10.1903"/>
<feGaussianBlur stdDeviation="1.27379"/>
<feColorMatrix type="matrix" values="0 0 0 0 0 0 0 0 0 0 0 0 0 0 0 0 0 0 0.25 0"/>
<feBlend mode="normal" in2="BackgroundImageFix" result="effect1_dropShadow"/>
<feBlend mode="normal" in="SourceGraphic" in2="effect1_dropShadow" result="shape"/>
</filter>
<linearGradient id="paint0_linear" x1="44.4825" y1="21.3877" x2="44.4825" y2="120.234" gradientUnits="userSpaceOnUse">
<stop stop-color="#4784E1"/>
<stop offset="1" stop-color="#ACCEFA"/>
</linearGradient>
</defs>
</svg>
