<svg width="165" height="145" viewBox="0 0 165 145" fill="none" xmlns="http://www.w3.org/2000/svg">
<path d="M83.0813 79.7095L83.7568 78.1333C83.9112 77.773 85.3223 78.2834 86.0085 78.5836C86.0835 79.1841 86.1886 80.43 86.0085 80.6102C84.5674 81.3307 83.4566 80.3099 83.0813 79.7095Z" fill="#F7E5DB"/>
<rect x="18.9083" y="60.3451" width="21.6161" height="62.1464" rx="6" fill="#21BA72"/>
<rect x="54.9353" y="47.2853" width="21.6161" height="74.7558" rx="6" fill="#21BA72"/>
<rect x="14.405" y="62.5967" width="21.6161" height="62.1464" rx="6" fill="url(#paint0_linear)"/>
<rect x="50.4319" y="49.9873" width="21.6161" height="74.7558" rx="6" fill="url(#paint1_linear)"/>
<path d="M24.7628 41.4309L60.1142 21.6161L93.439 51.3383L139.373 4.72852" stroke="#4784E1" stroke-width="5"/>
<circle cx="24.9881" cy="40.7555" r="5.17886" fill="#21BA72"/>
<circle cx="60.5645" cy="21.8413" r="5.17886" fill="#21BA72"/>
<circle cx="138.923" cy="5.17886" r="5.17886" fill="#21BA72"/>
<rect x="111.227" y="25.6692" width="41.4309" height="93.6699" rx="5" fill="#21BA72"/>
<rect x="106.274" y="31.0732" width="41.4309" height="93.6699" rx="5" fill="url(#paint2_linear)"/>
<path d="M134.278 24.1277C140.403 23.7675 141.784 28.6311 141.709 31.1079H126.623L123.02 31.7834V28.4059V24.1277C124.221 24.2778 128.154 24.488 134.278 24.1277Z" fill="white"/>
<g filter="url(#filter0_d)">
<path d="M119.868 93.93H93.0728C90.9112 93.93 90.8211 91.3781 91.0463 90.1021V29.3068C91.0463 24.4432 95.2494 23.6776 97.351 23.9028H134.729C128.604 23.9028 126.923 29.3068 126.848 32.0088V90.1021C126.848 93.7048 124.596 94.1552 123.47 93.93H119.868Z" fill="white"/>
</g>
<rect x="95.4653" y="33.7754" width="11.7087" height="3.60269" rx="1.80134" fill="#B9C4D9"/>
<rect x="95.4653" y="39.6296" width="27.0202" height="2.70202" rx="1.35101" fill="#B9C4D9"/>
<rect x="95.4653" y="43.6827" width="27.0202" height="2.70202" rx="1.35101" fill="#B9C4D9"/>
<rect x="95.7426" y="48.4042" width="27.0202" height="2.70202" rx="1.35101" fill="#B9C4D9"/>
<rect x="95.7426" y="52.9606" width="27.0202" height="2.70202" rx="1.35101" fill="#B9C4D9"/>
<rect x="95.7426" y="57.517" width="27.0202" height="2.70202" rx="1.35101" fill="#B9C4D9"/>
<rect x="95.7426" y="62.0735" width="27.0202" height="2.70202" rx="1.35101" fill="#B9C4D9"/>
<rect x="95.4653" y="74.756" width="13.0597" height="2.70202" rx="1.35101" fill="#B9C4D9"/>
<rect x="95.4653" y="78.8088" width="13.0597" height="2.70202" rx="1.35101" fill="#B9C4D9"/>
<rect x="95.4653" y="84.6633" width="26.1195" height="2.70202" rx="1.35101" fill="#B9C4D9"/>
<path d="M111.227 73.5907C111.227 74.1311 110.477 74.4163 110.101 74.4914C109.726 74.3413 108.976 73.8609 108.976 73.1404C108.976 72.4198 109.276 71.9395 109.426 71.7894C109.276 71.339 109.066 70.4384 109.426 70.4384C109.876 70.4384 111.227 72.9152 111.227 73.5907Z" fill="#F7E5D1"/>
<path d="M124.512 79.4451V78.0941L127.665 77.8689L127.89 79.4451C127.169 80.1656 125.338 79.7453 124.512 79.4451Z" fill="#F7E5D1"/>
<path d="M124.512 78.0942C122.351 77.3737 123.311 74.4915 124.062 73.1405C125.638 73.1405 128.565 77.6439 127.439 78.0942C126.313 78.5445 124.512 78.3194 124.512 78.0942Z" fill="#F7E5D1"/>
<path d="M124.287 73.3657C125.008 73.7259 124.737 74.8668 124.512 75.3922C124.873 77.914 127.064 78.0942 128.115 77.869C129.091 77.3436 130.907 75.7524 130.367 73.5908C129.691 70.8888 127.439 71.114 126.314 71.3391C125.413 71.5193 125.338 70.6636 125.413 70.2133C125.413 69.763 125.143 68.9974 124.062 69.5378C122.711 70.2133 123.386 72.9153 124.287 73.3657Z" fill="#251D73"/>
<path d="M121.36 111.419C120.639 106.916 121.06 101.436 121.36 99.2598C122.711 98.3592 131.943 97.4585 132.843 99.2599C133.294 100.161 132.018 103.463 131.718 104.889C130.997 107.411 130.967 110.894 131.042 112.32C131.042 113.581 132.693 122.902 133.519 127.406H130.592C130.231 126.145 127.59 116.673 126.314 112.32C126.494 114.661 126.839 123.803 126.989 128.081H124.287C124.287 126.82 122.336 116.448 121.36 111.419Z" fill="url(#paint3_linear)"/>
<path d="M111.227 73.5908L110.101 74.4915C113.929 81.6969 120.459 86.6506 120.459 86.8757C121.18 87.9565 121.51 89.4276 121.585 90.0281C121.945 91.6493 121.435 96.2577 121.135 98.3593C120.909 99.9355 121.81 100.161 122.936 99.9355H132.168C133.068 99.7553 133.294 99.4101 133.294 99.26C134.194 94.3063 132.618 83.0479 131.717 80.7962C130.997 78.9949 128.865 79.145 127.89 79.4452C126.629 80.1657 125.113 79.7454 124.512 79.4452L123.837 79.8955L122.26 80.571C120.909 81.0214 119.784 81.0214 117.307 79.4452C115.325 78.1842 112.428 75.0169 111.227 73.5908Z" fill="url(#paint4_linear)"/>
<path d="M127.214 131.009C126.314 131.189 123.687 130.934 122.486 130.783C122.035 130.558 122.035 130.333 122.261 129.883C122.441 129.523 123.987 129.282 124.737 129.207C125.488 129.207 127.034 129.252 127.214 129.432C127.439 129.658 127.439 131.009 127.214 131.009Z" fill="#1A3562"/>
<path d="M133.667 130.108C132.766 130.288 130.139 130.033 128.938 129.883C128.488 129.658 128.488 129.432 128.713 128.982C128.893 128.622 130.439 128.382 131.19 128.307C131.94 128.307 133.487 128.352 133.667 128.532C133.892 128.757 133.892 130.108 133.667 130.108Z" fill="#1A3562"/>
<path d="M87.3592 78.8088C88.6202 78.0883 88.335 75.3563 88.0347 74.0803H86.6837L85.1076 75.4313L84.6572 77.9082C85.0325 78.5086 86.0983 79.5294 87.3592 78.8088Z" fill="#F7E3DA"/>
<path d="M87.1342 80.6102C85.6931 79.7096 82.3306 79.9347 80.8295 80.1599C78.6679 81.6009 77.6771 84.8134 77.4519 86.2395C77.3018 87.1401 76.9566 89.4368 76.7764 91.4183C76.5513 93.8952 77.0016 97.9482 77.4519 99.2992C77.8122 100.38 78.6528 100.65 79.0281 100.65C79.9288 101.101 87.1342 100.425 88.4852 100.2C89.566 100.02 89.536 99.5244 89.3859 99.2992C89.3108 98.0232 89.0706 95.021 88.7103 93.2197C88.26 90.968 88.7103 88.9415 88.7103 88.9415C88.7103 88.9415 90.5117 90.5176 92.0879 90.5176C93.664 90.5176 94.3395 88.9415 93.4389 87.5905L91.1872 84.2129C90.4366 83.3873 88.5752 81.5109 87.1342 80.6102Z" fill="url(#paint5_linear)"/>
<path d="M79.0279 105.829C78.3074 104.208 77.9771 101.1 77.9021 99.7495C78.1273 99.2991 88.9353 99.7495 89.3856 99.7495C91.7274 105.334 90.0611 113.935 88.9353 117.538C87.8545 119.519 86.8337 126.169 86.4585 129.246H83.9816C83.0809 126.995 85.1075 113.26 84.8823 113.26C83.0809 116.142 80.9794 124.518 80.1538 128.346H77.6769C77.4517 126.544 79.0279 118.213 79.4783 114.611C79.9286 111.008 79.9286 107.856 79.0279 105.829Z" fill="url(#paint6_linear)"/>
<path d="M77.4519 131.048V129.697H80.6043C81.3548 129.997 82.6308 130.688 81.7301 131.048C80.8294 131.408 78.5027 131.198 77.4519 131.048Z" fill="#1B4E9D"/>
<path d="M83.7566 131.948V130.597H86.9089C87.6595 130.898 88.9355 131.588 88.0348 131.948C87.1341 132.309 84.8074 132.099 83.7566 131.948Z" fill="#1B4E9D"/>
<path d="M85.558 78.1333C84.2971 79.2141 83.2313 78.1333 82.856 77.4578C82.5558 76.8573 82.1354 75.161 82.856 73.1796C83.7566 70.7027 87.3593 71.8286 88.26 72.0537C89.1607 72.2789 89.611 74.3054 88.26 74.3054C87.1792 74.3054 86.7589 75.2061 86.6838 75.6564C86.8339 76.0317 86.8189 77.0525 85.558 78.1333Z" fill="#251D73"/>
<defs>
<filter id="filter0_d" x="90.9622" y="22.868" width="48.7667" height="72.1101" filterUnits="userSpaceOnUse" color-interpolation-filters="sRGB">
<feFlood flood-opacity="0" result="BackgroundImageFix"/>
<feColorMatrix in="SourceAlpha" type="matrix" values="0 0 0 0 0 0 0 0 0 0 0 0 0 0 0 0 0 0 127 0"/>
<feOffset dx="4"/>
<feGaussianBlur stdDeviation="0.5"/>
<feColorMatrix type="matrix" values="0 0 0 0 0 0 0 0 0 0 0 0 0 0 0 0 0 0 0.25 0"/>
<feBlend mode="normal" in2="BackgroundImageFix" result="effect1_dropShadow"/>
<feBlend mode="normal" in="SourceGraphic" in2="effect1_dropShadow" result="shape"/>
</filter>
<linearGradient id="paint0_linear" x1="25.2131" y1="73.6516" x2="25.2131" y2="124.743" gradientUnits="userSpaceOnUse">
<stop stop-color="#4784E1"/>
<stop offset="1" stop-color="#ACCEFA"/>
</linearGradient>
<linearGradient id="paint1_linear" x1="61.2399" y1="63.2852" x2="61.2399" y2="124.743" gradientUnits="userSpaceOnUse">
<stop stop-color="#4784E1"/>
<stop offset="1" stop-color="#ACCEFA"/>
</linearGradient>
<linearGradient id="paint2_linear" x1="126.989" y1="47.7357" x2="126.989" y2="124.743" gradientUnits="userSpaceOnUse">
<stop stop-color="#4784E1"/>
<stop offset="1" stop-color="#ACCEFA"/>
</linearGradient>
<linearGradient id="paint3_linear" x1="127.24" y1="98.9569" x2="127.24" y2="128.081" gradientUnits="userSpaceOnUse">
<stop stop-color="#083579"/>
<stop offset="1" stop-color="#356DC4"/>
</linearGradient>
<linearGradient id="paint4_linear" x1="121.972" y1="73.5908" x2="121.972" y2="100.009" gradientUnits="userSpaceOnUse">
<stop stop-color="#21BA72"/>
<stop offset="1" stop-color="#0D9C59"/>
</linearGradient>
<linearGradient id="paint5_linear" x1="85.382" y1="79.9585" x2="85.382" y2="100.802" gradientUnits="userSpaceOnUse">
<stop stop-color="#21BA72"/>
<stop offset="1" stop-color="#0D9C59"/>
</linearGradient>
<linearGradient id="paint6_linear" x1="83.5313" y1="129.922" x2="84.2068" y2="99.5243" gradientUnits="userSpaceOnUse">
<stop stop-color="#467FD7"/>
<stop offset="1" stop-color="#062D68"/>
</linearGradient>
</defs>
</svg>
