<svg width="97" height="96" viewBox="0 0 97 96" fill="none" xmlns="http://www.w3.org/2000/svg">
<g clip-path="url(#clip0)">
<path d="M31.8 40V42.3C31.8 43.1 32.4 43.7 33.2 43.7C34 43.7 34.6 43.1 34.6 42.3V40H39.4C40.2 40 40.8 39.4 40.8 38.6C40.8 37.8 40.2 37.2 39.4 37.2H34.6V36H39.2C42.6 36 45.4 33.2 45.4 29.8C45.4 26.4 42.6 23.6 39.2 23.6H33.4C33.2 23.6 33 23.6 32.9 23.7C32.3 23.9 31.8 24.4 31.8 25.1V37.2H29.9C29.1 37.2 28.5 37.8 28.5 38.6C28.5 39.4 29.1 40 29.9 40H31.8ZM34.6 26.4H39.2C41.1 26.4 42.6 27.9 42.6 29.8C42.6 31.7 41.1 33.2 39.2 33.2H34.6V26.4Z" fill="#21A038"/>
<path d="M30 67.6C29.1 66.9 27.9 67.1 27.2 68L17.7 80.6L11.7 75.5C10.9 74.8 9.6 74.9 8.9 75.7C8.2 76.5 8.3 77.8 9.1 78.5L18.4 86.3L30.4 70.3C31 69.5 30.9 68.3 30 67.6Z" fill="#21A038"/>
<path d="M84.2 8.3L46.1 0L43.2 13.1H16.7V56.6C7.3 58.1 0 66.2 0 76.1C0 86.9 8.8 95.8 19.7 95.8C28.8 95.8 36.4 89.6 38.6 81.3H72.4V75.4L86.2 78.4L97 28.1L84.2 8.3ZM83.9 15.6L90.2 25.5L82.1 23.7L83.9 15.6ZM19.7 91.7C11 91.7 4 84.7 4 76.1C4 67.5 11 60.4 19.7 60.4C28.3 60.4 35.4 67.4 35.4 76.1C35.4 84.8 28.3 91.7 19.7 91.7ZM68.3 77H39.3C39.3 76.7 39.3 76.4 39.3 76.1C39.3 73.6 38.8 71.3 38 69.1H60.1V64.9H35.8C32.5 60.1 27.1 56.9 21 56.5V17.4H52.8V32.9H68.3V77ZM57 28.7V20.4L65.3 28.7H57ZM83 73.3L72.5 71.1V63.1L76.7 64L77.6 59.8L72.5 58.7V50.7L79.2 52.2L80.1 48L72.5 46.4V38.4L81.8 40.4L82.7 36.2L72.5 34V29.9L55.7 13.1H47.6L49.3 5L80.4 11.7L77.1 26.9L92.3 30.2L83 73.3Z" fill="#21A038"/>
<path d="M60.1 52.8H29.1V57H60.1V52.8Z" fill="#21A038"/>
</g>
<defs>
<clipPath id="clip0">
<rect width="97" height="95.7" fill="white"/>
</clipPath>
</defs>
</svg>
