<svg width="176" height="188" viewBox="0 0 176 188" fill="none" xmlns="http://www.w3.org/2000/svg">
<path d="M18.1942 160.321V158.516H22.4055C23.4082 158.917 25.1127 159.839 23.9095 160.321C22.7063 160.802 19.598 160.521 18.1942 160.321Z" fill="#1B4E9D"/>
<rect x="24.1918" y="32.4366" width="88.4119" height="120.985" rx="13" fill="url(#paint0_linear)"/>
<rect x="80.031" y="59.1927" width="78.7176" height="19.7763" rx="9.88817" fill="#18A261"/>
<rect x="80.031" y="56.0907" width="78.7176" height="19.7763" rx="9.88817" fill="white"/>
<path d="M94.993 46.0059C104.072 45.4719 106.119 52.6813 106.007 56.3528H83.6447L78.3043 57.3542V52.3476V46.0059C80.0844 46.2284 85.9143 46.5399 94.993 46.0059Z" fill="#20AE6B"/>
<g filter="url(#filter0_d)">
<path d="M73.6317 149.476H33.9127C30.7085 149.476 30.575 145.693 30.9088 143.802V53.683C30.9088 46.4735 37.1392 45.3387 40.2544 45.6725H95.6607C86.5821 45.6725 84.0899 53.683 83.9787 57.6883V143.802C83.9787 149.142 80.6409 149.81 78.9721 149.476H73.6317Z" fill="white"/>
</g>
<rect x="37.4592" y="60.307" width="17.3562" height="5.34036" rx="2.67018" fill="#29C67C"/>
<rect x="37.4592" y="68.985" width="40.0527" height="4.00527" rx="2.00264" fill="#29C67C"/>
<rect x="37.4592" y="74.9929" width="40.0527" height="4.00527" rx="2.00264" fill="#29C67C"/>
<rect x="37.4592" y="121.053" width="19.3588" height="4.00527" rx="2.00264" fill="#29C67C"/>
<rect x="37.4592" y="127.061" width="19.3588" height="4.00527" rx="2.00264" fill="#29C67C"/>
<rect x="37.4592" y="135.74" width="38.7176" height="4.00527" rx="2.00264" fill="#29C67C"/>
<path d="M40.177 92.8731C40.177 97.6178 42.8944 99.9901 47.3803 99.9901C52.0388 99.9901 55.1013 97.6178 55.1013 92.8731C55.1013 88.0421 52.1682 85.8423 47.9842 85.8423C43.1964 85.8423 40.177 88.2578 40.177 92.8731ZM44.3178 92.8731C44.3178 90.9321 45.353 89.7675 47.6823 89.7675C50.0115 89.7675 51.0036 90.9321 51.0036 92.8731C51.0036 94.9866 49.839 96.065 47.7685 96.065C45.5687 96.065 44.3178 94.9004 44.3178 92.8731ZM58.3363 109.609C58.3363 114.311 61.0106 116.726 65.4965 116.726C70.1549 116.726 73.2174 114.311 73.2174 109.609C73.2174 104.735 70.2843 102.578 66.1004 102.578C61.3125 102.578 58.3363 104.951 58.3363 109.609ZM62.434 109.609C62.434 107.668 63.4692 106.503 65.7984 106.503C68.1277 106.503 69.1629 107.668 69.1629 109.609C69.1629 111.723 67.9551 112.801 65.8847 112.801C63.6849 112.801 62.434 111.636 62.434 109.609ZM70.1549 86.1874H65.1946L43.3258 116.381H48.4155L70.1549 86.1874Z" fill="#29C67C"/>
<path d="M90.4296 61.8871C90.9669 60.3526 93.137 60.3526 93.6744 61.8871C93.911 62.5629 94.5419 63.0213 95.2578 63.0375C96.8832 63.0744 97.5538 65.1382 96.2605 66.1235C95.6908 66.5574 95.4499 67.299 95.6556 67.9849C96.1229 69.5421 94.3672 70.8177 93.0306 69.8921C92.4419 69.4844 91.6621 69.4844 91.0734 69.8921C89.7367 70.8177 87.9811 69.5421 88.4483 67.9849C88.6541 67.299 88.4131 66.5574 87.8435 66.1235C86.5502 65.1382 87.2208 63.0744 88.8462 63.0375C89.5621 63.0213 90.1929 62.5629 90.4296 61.8871Z" fill="#21BA72"/>
<path d="M107.491 61.8871C108.029 60.3526 110.199 60.3526 110.736 61.8871C110.973 62.5629 111.604 63.0213 112.32 63.0375C113.945 63.0744 114.616 65.1382 113.322 66.1235C112.753 66.5574 112.512 67.299 112.718 67.9849C113.185 69.5421 111.429 70.8177 110.092 69.8921C109.504 69.4844 108.724 69.4844 108.135 69.8921C106.799 70.8177 105.043 69.5421 105.51 67.9849C105.716 67.299 105.475 66.5574 104.905 66.1235C103.612 65.1382 104.283 63.0744 105.908 63.0375C106.624 63.0213 107.255 62.5629 107.491 61.8871Z" fill="#21BA72"/>
<path d="M124.553 61.8871C125.091 60.3526 127.261 60.3526 127.798 61.8871C128.035 62.5629 128.666 63.0213 129.382 63.0375C131.007 63.0744 131.678 65.1382 130.384 66.1235C129.815 66.5574 129.574 67.299 129.78 67.9849C130.247 69.5421 128.491 70.8177 127.154 69.8921C126.566 69.4844 125.786 69.4844 125.197 69.8921C123.861 70.8177 122.105 69.5421 122.572 67.9849C122.778 67.299 122.537 66.5574 121.967 66.1235C120.674 65.1382 121.345 63.0744 122.97 63.0375C123.686 63.0213 124.317 62.5629 124.553 61.8871Z" fill="#21BA72"/>
<path d="M141.615 61.8871C142.153 60.3526 144.323 60.3526 144.86 61.8871C145.097 62.5629 145.728 63.0213 146.444 63.0375C148.069 63.0744 148.74 65.1382 147.446 66.1235C146.877 66.5574 146.636 67.299 146.841 67.9849C147.309 69.5421 145.553 70.8177 144.216 69.8921C143.628 69.4844 142.848 69.4844 142.259 69.8921C140.922 70.8177 139.167 69.5421 139.634 67.9849C139.84 67.299 139.599 66.5574 139.029 66.1235C137.736 65.1382 138.407 63.0744 140.032 63.0375C140.748 63.0213 141.379 62.5629 141.615 61.8871Z" fill="#21BA72"/>
<path d="M35.4019 93.6278C37.1436 92.7049 36.7496 89.2052 36.335 87.5708H34.4689L32.2919 89.3014L31.6699 92.4741C32.1883 93.2433 33.6603 94.5508 35.4019 93.6278Z" fill="#27C8B8"/>
<path d="M35.0908 95.9356C33.1004 94.7818 28.4561 95.0703 26.3828 95.3587C23.3972 97.2046 22.0288 101.32 21.7178 103.146C21.5104 104.3 21.0336 107.242 20.7847 109.78C20.4737 112.953 21.0958 118.145 21.7178 119.875C22.2154 121.26 23.3764 121.606 23.8948 121.606C25.1388 122.183 35.0908 121.317 36.9569 121.029C38.4497 120.798 38.4082 120.164 38.2009 119.875C38.0972 118.241 37.7655 114.395 37.2679 112.088C36.6458 109.203 37.2679 106.608 37.2679 106.608C37.2679 106.608 39.7559 108.627 41.9329 108.627C44.1099 108.627 45.0429 106.608 43.7989 104.877L40.6889 100.55C39.6522 99.4929 37.0813 97.0893 35.0908 95.9356Z" fill="#27C8B8"/>
<path d="M32.9137 92.7624C31.1721 94.1469 29.7 92.7624 29.1817 91.8972C28.767 91.128 28.1865 88.9552 29.1817 86.417C30.4257 83.2442 35.4017 84.6864 36.6458 84.9748C37.8898 85.2632 38.5118 87.8591 36.6458 87.8591C35.1529 87.8591 34.5724 89.0128 34.4687 89.5897C34.6761 90.0704 34.6553 91.378 32.9137 92.7624Z" fill="#27C8B8"/>
<path d="M31.43 90.534C33.1145 89.5714 32.7335 85.9216 32.3324 84.217H30.5276L28.4219 86.0219L27.8203 89.3307C28.3217 90.1329 29.7455 91.4965 31.43 90.534Z" fill="#F7E3DA"/>
<path d="M31.1291 92.9405C29.2039 91.7373 24.7119 92.0381 22.7065 92.3389C19.8188 94.264 18.4953 98.5555 18.1945 100.461C17.9939 101.664 17.5327 104.732 17.292 107.379C16.9912 110.688 17.5929 116.103 18.1945 117.907C18.6758 119.351 19.7988 119.712 20.3001 119.712C21.5033 120.314 31.1291 119.411 32.9339 119.111C34.3778 118.87 34.3377 118.208 34.1371 117.907C34.0369 116.203 33.716 112.192 33.2347 109.786C32.6331 106.778 33.2347 104.07 33.2347 104.07C33.2347 104.07 35.6412 106.176 37.7468 106.176C39.8524 106.176 40.7549 104.07 39.5516 102.265L36.5436 97.7534C35.5409 96.6504 33.0542 94.1437 31.1291 92.9405Z" fill="url(#paint1_linear)"/>
<path d="M20.3 126.631C19.3374 124.465 18.8963 120.314 18.796 118.509C19.0968 117.907 33.5354 118.509 34.137 118.509C37.2654 125.969 35.0395 137.46 33.5354 142.272C32.0916 144.92 30.7279 153.803 30.2266 157.914H26.9177C25.7145 154.906 28.4217 136.557 28.1209 136.557C25.7145 140.407 22.907 151.597 21.804 156.711H18.4952C18.1944 154.305 20.3 143.175 20.9016 138.362C21.5032 133.549 21.5032 129.338 20.3 126.631Z" fill="url(#paint2_linear)"/>
<path d="M26.6171 161.524V159.719H30.8283C31.831 160.12 33.5356 161.043 32.3324 161.524C31.1291 162.005 28.0208 161.724 26.6171 161.524Z" fill="#1B4E9D"/>
<path d="M29.0234 89.6314C27.3388 91.0753 25.915 89.6314 25.4137 88.729C25.0126 87.9269 24.4511 85.6608 25.4137 83.0137C26.6169 79.7049 31.4298 81.2089 32.633 81.5097C33.8362 81.8105 34.4378 84.5177 32.633 84.5177C31.1891 84.5177 30.6276 85.721 30.5274 86.3226C30.7279 86.8239 30.7079 88.1876 29.0234 89.6314Z" fill="#251D73"/>
<defs>
<filter id="filter0_d" x="30.7841" y="43.0734" width="77.6146" height="109.021" filterUnits="userSpaceOnUse" color-interpolation-filters="sRGB">
<feFlood flood-opacity="0" result="BackgroundImageFix"/>
<feColorMatrix in="SourceAlpha" type="matrix" values="0 0 0 0 0 0 0 0 0 0 0 0 0 0 0 0 0 0 127 0"/>
<feOffset dx="10.1903"/>
<feGaussianBlur stdDeviation="1.27379"/>
<feColorMatrix type="matrix" values="0 0 0 0 0 0 0 0 0 0 0 0 0 0 0 0 0 0 0.25 0"/>
<feBlend mode="normal" in2="BackgroundImageFix" result="effect1_dropShadow"/>
<feBlend mode="normal" in="SourceGraphic" in2="effect1_dropShadow" result="shape"/>
</filter>
<linearGradient id="paint0_linear" x1="68.3977" y1="53.958" x2="68.3977" y2="153.421" gradientUnits="userSpaceOnUse">
<stop stop-color="#4784E1"/>
<stop offset="1" stop-color="#ACCEFA"/>
</linearGradient>
<linearGradient id="paint1_linear" x1="28.7883" y1="92.0698" x2="28.7883" y2="119.915" gradientUnits="userSpaceOnUse">
<stop stop-color="#21BA72"/>
<stop offset="1" stop-color="#0D9C59"/>
</linearGradient>
<linearGradient id="paint2_linear" x1="26.3161" y1="158.817" x2="27.2185" y2="118.208" gradientUnits="userSpaceOnUse">
<stop stop-color="#467FD7"/>
<stop offset="1" stop-color="#062D68"/>
</linearGradient>
</defs>
</svg>
