<svg width="125" height="409" viewBox="0 0 125 409" fill="none" xmlns="http://www.w3.org/2000/svg">
<g clip-path="url(#clip0)">
<path d="M79.7872 379.925L78.0141 398.54L67.7304 397.299L64.1843 379.57L79.7872 379.925Z" fill="#FFC48E"/>
<path d="M64.1843 379.57L79.7872 379.925L78.0141 398.54L74.468 391.98L68.9716 390.739L64.1843 379.57Z" fill="black"/>
<path d="M40.2482 377.088L40.9574 397.299L29.0779 398.185L24.1134 377.975L40.2482 377.088Z" fill="#FFC48E"/>
<path d="M40.9574 397.299L40.2482 377.088L24.1134 377.975L28.3687 391.98H36.5248L40.9574 397.299Z" fill="black"/>
<path d="M79.4326 51.2359C78.3688 49.463 78.5461 49.2858 78.5461 49.2858C78.5461 49.2858 75 46.8037 73.2269 48.0447L74.2908 54.2498C74.2908 54.2498 76.9503 56.7318 78.0142 56.1999C79.078 55.6681 79.4326 51.2359 79.4326 51.2359Z" fill="black"/>
<path d="M16.6666 204.411L16.312 290.218L20.39 390.74C20.39 390.74 40.0709 389.144 43.9716 388.08L54.9645 220.013C54.9645 220.013 43.0851 193.42 42.7305 193.242C32.2695 189.697 18.7943 185.974 18.7943 185.974L16.6666 204.411Z" fill="#E8C913"/>
<path d="M54.7872 220.013L58.5106 388.789L83.156 388.612L88.1205 297.487L95.7446 187.924L90.2482 179.414L39.1843 190.583C39.5389 190.583 52.4822 214.34 54.7872 220.013Z" fill="#E8C913"/>
<path d="M90.6028 179.414L92.0212 190.76C92.0212 190.76 78.0141 196.788 69.1489 200.157C60.2836 203.525 47.3404 209.553 35.6382 204.766C23.9361 200.157 13.8297 194.129 13.8297 194.129L16.6666 187.037L45.0354 194.661L90.6028 179.414Z" fill="black"/>
<path d="M71.2765 55.8452C76.2411 56.7316 82.4467 52.8313 83.6879 59.9228C84.929 67.0143 97.3403 180.832 97.3403 180.832C97.3403 180.832 92.1985 185.442 75.8864 192.356C59.3971 199.27 35.6382 204.411 18.9716 193.597L23.7588 135.092L33.3333 65.596L71.2765 55.8452Z" fill="white"/>
<path d="M75.5318 65.5962C65.78 75.1697 47.8723 77.6517 42.3758 62.0505C42.1985 61.5186 41.1347 61.6959 41.312 62.405C47.163 78.5381 65.7801 76.588 76.241 66.3053C76.773 65.7735 76.0637 65.0643 75.5318 65.5962Z" fill="black"/>
<path d="M70.5674 40.4214C70.5674 40.4214 70.922 44.8536 75.3546 50.3494C79.7873 55.8453 80.8511 57.4409 76.0639 62.2276C71.2766 67.0144 65.4256 70.3828 61.1702 70.5601C51.0639 70.9147 44.5036 67.0144 44.8582 62.2276C45.2128 57.4409 47.1631 45.5627 47.1631 45.5627L70.5674 40.4214Z" fill="#FFC48E"/>
<path d="M42.9077 52.8317C46.9857 60.2777 52.1276 61.3414 53.3687 61.5187C55.6737 61.696 57.8013 60.1004 59.3971 58.5048C63.1205 54.7818 66.312 50.5269 68.9716 45.9175C68.9716 45.9175 64.8935 67.3691 57.0921 67.3691C49.2907 67.3691 42.9077 52.8317 42.9077 52.8317Z" fill="black"/>
<path d="M78.5461 49.1084C78.9007 53.3633 72.1631 77.4742 70.0355 89.5297C67.9078 101.585 61.5248 120.378 65.6028 136.865C69.5035 153.353 87.234 182.428 87.9433 183.492C88.6525 184.555 98.7589 203.525 111.17 202.639C123.582 201.575 125 197.143 125 197.143C125 197.143 108.511 168.422 104.255 152.289C101.596 142.538 112.943 69.1418 112.943 69.1418L90.7801 57.6181L78.5461 49.1084Z" fill="#0E6322"/>
<path d="M105.142 155.658C98.9361 156.012 85.9929 156.19 78.9007 156.012L77.6595 160.444L101.064 162.217L107.092 160.444L105.142 155.658Z" fill="black"/>
<path d="M91.312 62.9369C89.7163 60.2776 88.1205 57.7956 86.3475 55.1363C85.9929 54.6045 85.1063 55.1363 85.4609 55.6682C87.0567 58.3275 88.6524 60.8095 90.4255 63.4688C90.7801 64.0006 91.6666 63.6461 91.312 62.9369Z" fill="black"/>
<path d="M90.0709 63.4686C88.1206 64.7096 85.9929 65.7734 83.6879 66.6598C83.156 66.8371 83.3333 67.9008 84.0426 67.7235C86.3475 66.8371 88.4752 65.7734 90.6028 64.5324C91.1347 64.0005 90.6028 63.1141 90.0709 63.4686Z" fill="black"/>
<path d="M84.3971 68.4325C86.5248 70.028 88.6525 71.8009 90.2482 73.7511C90.6028 74.2829 91.312 73.5738 90.9574 73.0419C89.1844 70.9145 87.0567 69.1416 84.7518 67.546C84.3972 67.1914 83.8652 68.0779 84.3971 68.4325Z" fill="black"/>
<path d="M90.7801 74.4607C82.6241 90.9483 75.8865 107.968 70.5674 125.697C70.3901 126.406 71.2766 126.583 71.6312 126.051C76.9504 108.5 83.6879 91.4802 91.6667 75.1698C92.0213 74.4607 91.1348 73.9288 90.7801 74.4607Z" fill="black"/>
<path d="M112.943 68.9648C114.894 68.9648 119.326 77.8292 119.504 88.8209C119.858 104.599 122.872 144.312 118.972 149.985C115.071 155.658 92.3758 158.14 78.1915 154.772C78.1915 154.772 78.7234 132.611 76.773 129.597C74.8227 126.76 72.5177 125.519 72.5177 125.519L93.7943 129.065C93.617 129.242 104.255 68.9648 112.943 68.9648Z" fill="#0E6322"/>
<path d="M78.0142 154.949C78.0142 154.949 78.5461 132.788 76.5957 129.774C74.6454 126.937 72.3404 125.696 72.3404 125.696C72.3404 125.696 70.3901 127.292 69.8581 131.015C69.3262 134.738 70.3901 144.843 72.3404 149.098C74.2908 153.353 78.0142 154.949 78.0142 154.949Z" fill="black"/>
<path d="M45.5674 52.2999C45.5674 52.2999 44.6809 72.3332 44.1489 81.9067C43.7943 91.4802 36.1702 131.902 33.3333 143.602C30.4965 155.303 15.7801 209.908 11.1702 213.631C11.1702 213.631 9.57448 215.758 10.9929 202.816C12.4114 189.874 16.6667 166.472 18.4397 157.431C20.2128 148.389 12.2341 99.4581 14.0071 66.6601C14.0071 66.6601 35.2837 57.6184 38.2979 57.2639C38.2979 57.4412 41.1348 51.768 45.5674 52.2999Z" fill="#0E6322"/>
<path d="M63.8298 133.674C65.7802 135.092 69.1489 144.134 69.1489 144.134C69.1489 144.134 61.3475 147.502 53.9007 143.779C46.4539 140.056 40.7802 136.688 40.7802 136.688C40.7802 136.688 32.6241 144.134 31.0284 142.716C29.2553 141.297 31.0284 133.674 31.0284 133.674L45.5674 130.66L63.8298 133.674Z" fill="black"/>
<path d="M34.2198 118.782C32.4467 109.386 31.7375 99.6352 31.2056 90.0617C30.851 85.8068 30.4964 81.5519 30.3191 77.2971C30.3191 75.7015 29.6099 73.2195 30.4964 71.8012C31.5602 70.0283 36.5248 68.0782 38.4751 67.1917C39.007 66.8372 38.4751 65.9507 37.9432 66.3053C35.6382 67.369 30.1418 69.1419 28.9006 71.9785C27.6595 74.4605 29.6099 81.3746 29.7872 84.3885C30.6737 95.9121 31.2056 107.613 33.3333 119.137C33.5106 119.669 34.3971 119.314 34.2198 118.782Z" fill="black"/>
<path d="M50.8865 122.327C50.8865 122.327 46.4538 111.868 44.5035 111.69C42.5531 111.513 27.8368 111.513 27.1276 112.399C26.4184 113.286 31.2056 122.15 31.2056 122.15C31.2056 122.15 50.8865 134.383 50.8865 122.327Z" fill="black"/>
<path d="M14.0071 66.6597C14.0071 66.6597 9.57443 69.8508 8.3333 82.0836C7.09216 94.3164 3.72337 115.768 3.72337 123.214C3.72337 123.214 -0.531951 128.533 0.177269 134.206C0.886489 139.879 13.2978 156.012 13.2978 156.012C13.2978 156.012 4.9645 140.411 10.2837 129.774C12.0567 126.405 20.9219 130.128 20.9219 130.128L14.3617 88.9978L14.0071 66.6597Z" fill="#0E6322"/>
<path d="M13.6525 95.9121L21.4539 133.142L13.2979 135.092C13.2979 135.092 11.3475 115.414 12.5886 110.627C14.0071 105.663 13.6525 95.9121 13.6525 95.9121Z" fill="black"/>
<path d="M13.1205 155.835C13.1205 155.835 4.78718 140.234 10.1063 129.596C11.8794 126.228 20.7446 129.951 20.7446 129.951C20.7446 129.951 27.6595 150.871 13.1205 155.835Z" fill="black"/>
<path d="M72.5177 125.696C72.5177 125.696 64.539 114.705 63.1205 114.35C61.7021 113.996 56.0283 112.577 53.9007 114.173C51.773 115.768 48.4042 117.009 48.4042 117.541C48.4042 118.073 48.5815 120.023 52.4822 118.96C56.3829 117.896 57.9787 118.073 57.9787 118.073C57.9787 118.073 58.6879 120.378 56.0283 120.732C53.3688 120.91 48.4042 121.264 48.4042 121.264C48.4042 121.264 39.3617 117.541 37.234 118.605C35.1063 119.669 34.3971 120.023 36.8794 121.087C39.3617 122.151 45.39 125.519 47.5177 125.874L44.3262 125.696C44.3262 125.696 36.5248 121.973 33.156 121.619C31.0283 121.442 27.6595 121.973 30.1418 123.569C32.6241 125.165 36.3475 127.469 36.3475 127.469C36.3475 127.469 37.4113 131.547 40.2482 132.788C43.2624 134.029 45.39 134.384 45.39 134.384C45.39 134.384 48.2269 137.929 51.0638 139.17C53.9007 140.411 65.6028 139.17 65.6028 139.17L78.1914 147.857C78.1914 147.857 78.1915 131.37 76.9503 129.597L72.5177 125.696Z" fill="#FFC48E"/>
<path d="M37.766 128.178C34.9291 128.887 39.539 131.369 38.4752 132.256C38.4752 132.256 40.7801 131.724 39.8936 132.787C39.0071 133.851 30.3191 139.17 30.3191 139.17C30.3191 139.17 27.305 140.765 25.8865 140.943C24.4681 141.297 21.4539 140.056 21.4539 140.056C21.4539 140.056 21.4539 141.652 20.5674 142.361C19.6808 143.247 11.3475 148.034 9.21985 144.488C9.21985 144.488 6.73758 135.092 10.1064 129.596L14.0071 128.71C14.0071 128.71 20.3901 122.328 21.9858 120.377C23.7589 118.427 23.4043 116.654 25.5319 117.895C27.1277 118.782 25.7092 121.618 24.4681 123.391C23.2269 125.164 21.6312 129.064 21.6312 129.064C21.6312 129.064 24.8227 128.001 28.3688 127.646C31.9149 127.292 37.766 128.178 37.766 128.178Z" fill="#FFC48E"/>
<path d="M9.21985 144.666C11.1702 148.211 19.6808 143.425 20.5674 142.538C21.4539 141.652 21.4539 140.234 21.4539 140.234C21.4539 140.234 24.4681 141.297 25.8865 141.12C27.305 140.765 30.3191 139.347 30.3191 139.347C30.3191 139.347 39.0071 134.028 39.8936 132.965C40.2482 132.61 39.3617 132.256 38.6525 131.724C37.4113 130.483 35.8156 128.887 37.7659 128.355C37.7659 128.355 31.9149 127.469 28.3688 127.823C24.8227 128.178 21.8085 129.419 21.8085 129.419L19.1489 134.56L12.9433 138.106L9.21985 144.666Z" fill="#D3875E"/>
<path d="M70.5674 40.4212C70.5674 43.6124 66.6667 50.7039 66.6667 50.7039C66.6667 50.7039 59.2199 62.0502 52.8369 62.0502C46.4539 62.0502 37.766 43.4351 37.4114 40.244C37.0568 37.0528 32.9787 24.82 33.5107 16.133C33.5107 16.133 43.7944 3.54565 51.7731 5.4958C57.9787 7.09138 66.3121 5.85037 69.5036 22.1607C70.2128 26.7702 70.7447 32.6206 70.5674 40.4212Z" fill="#FFC48E"/>
<path d="M70.0354 31.9116L66.312 25.352L65.0709 17.3741C65.0709 17.3741 55.6737 20.9199 48.9361 22.6927C42.1985 24.4656 37.234 25.7066 34.0425 22.6927C30.851 19.6789 27.3049 20.0334 28.1914 16.4877C29.0779 12.942 28.1914 7.09152 32.624 3.90036C37.0567 0.709206 47.3404 -1.06366 54.0779 0.354633C60.8155 1.77293 69.3262 4.07765 68.085 9.39625C68.085 9.39625 70.7446 7.97795 73.5815 9.04167C76.5957 10.46 75.1772 30.6706 70.0354 31.9116Z" fill="black"/>
<path d="M68.2623 38.6484C70.5673 39.8894 75.3545 39.003 75.8864 33.6844C76.4184 28.3658 72.3403 27.1248 68.6169 31.2024L68.2623 38.6484Z" fill="#FFC48E"/>
<path d="M68.4397 45.5631C65.7801 49.9952 59.5744 61.5189 53.1915 60.987C48.7588 60.6324 45.39 56.023 43.2624 52.4773C42.9078 51.9454 42.0213 52.4772 42.3759 53.0091C44.6808 56.9094 48.4042 61.6961 53.3688 62.0507C60.2837 62.4053 66.312 51.059 69.3262 46.0949C69.6808 45.5631 68.7943 45.0312 68.4397 45.5631Z" fill="black"/>
<path d="M94.5035 72.1557C91.1347 75.3469 88.4751 78.8926 86.7021 83.1475C86.5248 83.6793 87.234 84.2112 87.5886 83.6793C89.3616 79.6018 91.8439 75.8787 95.2127 72.8649C95.7446 72.5103 95.0354 71.8011 94.5035 72.1557Z" fill="black"/>
<path d="M97.8722 96.9754C95.0354 107.613 92.5531 118.25 90.6027 129.064C90.4254 129.773 91.4893 129.951 91.6666 129.419C93.6169 118.604 96.0992 107.967 98.9361 97.33C99.1134 96.6208 98.0495 96.2663 97.8722 96.9754Z" fill="black"/>
<path d="M114.716 130.66C106.383 126.405 98.7589 129.419 90.0709 128.533C84.7518 128.001 79.4326 126.583 74.1135 125.519C73.4043 125.342 73.2269 126.405 73.7589 126.583C78.7234 127.469 83.6879 128.533 88.6525 129.419C97.5177 131.015 105.496 127.114 114.184 131.724C114.716 131.901 115.248 131.015 114.716 130.66Z" fill="black"/>
<path d="M104.433 155.125C96.0992 155.48 87.7659 155.835 79.4325 155.48C78.7233 155.48 78.7233 156.544 79.4325 156.544C87.7659 156.898 96.0992 156.544 104.433 156.189C105.142 156.012 105.142 155.125 104.433 155.125Z" fill="black"/>
<path d="M88.2978 153.53C89.3617 152.998 90.6028 152.112 90.4255 150.694C90.2482 149.453 88.8297 148.921 87.5886 149.098C86.5248 149.275 85.4609 150.339 85.6382 151.403C85.8156 152.644 86.7021 153.353 87.9432 153.176C88.6524 153.176 88.2978 152.112 87.5886 152.112C86.8794 152.289 86.3475 151.403 86.5248 150.871C86.7021 150.339 87.4113 149.985 87.9432 149.985C88.6524 149.985 89.3617 150.516 89.007 151.226C88.8297 151.757 88.1205 152.112 87.5886 152.467C87.0567 152.998 87.5886 153.885 88.2978 153.53Z" fill="black"/>
<path d="M13.6524 67.5465C13.2978 74.4607 13.4751 81.3749 14.007 88.289C14.007 88.9982 15.0708 88.9982 15.0708 88.289C14.5389 81.3749 14.3616 74.4607 14.7162 67.5465C14.7162 66.8374 13.8297 66.8374 13.6524 67.5465Z" fill="black"/>
<path d="M13.8297 89.3525C13.6524 101.763 11.702 114.173 12.2339 126.583C12.2339 127.292 13.2978 127.292 13.2978 126.583C12.9432 114.173 14.8935 101.763 14.8935 89.3525C14.8935 88.8206 13.8297 88.8206 13.8297 89.3525Z" fill="black"/>
<path d="M9.04253 121.441C7.26948 121.619 5.49643 122.15 4.07799 123.214C3.54608 123.569 4.07799 124.455 4.60991 124.101C5.85104 123.214 7.44679 122.505 9.04253 122.505C9.75175 122.328 9.75175 121.264 9.04253 121.441Z" fill="black"/>
<path d="M8.15597 115.414C6.02831 117.364 4.60987 119.668 3.72334 122.505C3.54604 123.214 4.60987 123.391 4.78717 122.86C5.31909 120.2 6.73753 118.073 8.86519 116.123C9.2198 115.768 8.51058 115.059 8.15597 115.414Z" fill="black"/>
<path d="M37.7659 58.3275C36.8794 60.2777 35.9929 62.2279 35.4609 64.178C35.4609 64.3553 35.4609 64.5326 35.6382 64.7099C36.5248 65.419 37.4113 65.9509 38.1205 66.66C38.6524 67.0146 39.1843 66.1282 38.6524 65.7736C37.7659 65.0644 36.8794 64.5326 36.1702 63.8234C36.1702 64.0007 36.3475 64.178 36.3475 64.3553C36.8794 62.4051 37.5886 60.455 38.6524 58.6821C38.8297 58.3275 38.1205 57.7957 37.7659 58.3275Z" fill="black"/>
<path d="M54.6098 217.708C51.9503 213.808 50.1772 209.375 49.1134 204.766C48.9361 204.057 48.0496 204.411 48.0496 205.121C48.9361 209.907 50.8864 214.339 53.546 218.417C54.2552 218.772 55.1418 218.24 54.6098 217.708Z" fill="black"/>
<path d="M51.5957 214.694C49.6454 221.963 49.1135 229.764 48.4042 237.21C47.1631 250.861 46.0993 264.512 45.2128 278.163C43.2624 306.883 41.6667 335.604 40.2482 364.501C39.8936 370.884 39.539 377.266 39.3617 383.826C39.3617 384.535 40.4255 384.535 40.4255 383.826C41.6667 358.296 42.9078 332.767 44.5035 307.238C45.5674 288.445 46.8085 269.476 48.4042 250.683C49.2908 238.982 49.4681 226.395 52.6596 215.226C52.6596 214.34 51.773 214.162 51.5957 214.694Z" fill="black"/>
<path d="M87.0567 208.312C83.5106 202.993 83.6879 196.611 81.5602 190.938C81.3829 190.406 80.3191 190.583 80.4964 191.292C82.6241 197.143 82.6241 203.525 86.1702 209.021C86.5248 209.375 87.4113 208.844 87.0567 208.312Z" fill="black"/>
<path d="M91.3121 208.844C88.1206 204.766 88.6525 199.802 86.8795 195.193C86.7022 194.661 85.6383 194.838 85.8156 195.547C87.5887 200.334 87.2341 205.298 90.4256 209.553C90.7802 209.73 91.6667 209.198 91.3121 208.844Z" fill="black"/>
<path d="M90.0709 210.439C84.5745 268.412 81.9149 326.562 79.078 384.712C79.078 385.421 80.1418 385.421 80.1418 384.712C82.8014 326.562 85.6383 268.412 91.1348 210.439C91.1348 209.73 90.2482 209.73 90.0709 210.439Z" fill="black"/>
<path d="M55.4964 126.76C51.5957 126.05 47.5177 125.873 43.617 124.987C42.9078 124.809 42.7305 125.873 43.2624 126.05C47.1631 127.114 51.2411 127.291 55.1418 127.823C55.8511 127.823 56.0284 126.937 55.4964 126.76Z" fill="black"/>
<path d="M54.6098 130.837C47.163 131.369 39.007 128.71 32.4467 125.164C31.9148 124.987 31.3829 125.873 31.9148 126.228C38.6524 129.774 46.9857 132.61 54.6098 131.901C55.319 131.901 55.319 130.837 54.6098 130.837Z" fill="black"/>
<path d="M53.7234 134.915C49.1135 135.093 44.6808 134.029 40.6028 131.901C40.0709 131.547 39.539 132.433 40.0709 132.788C44.3262 135.093 48.9362 136.156 53.7234 135.979C54.4326 135.979 54.4326 134.915 53.7234 134.915Z" fill="black"/>
<path d="M60.1064 138.815C55.1419 140.765 49.6454 139.347 46.0993 135.092C45.7447 134.56 45.0355 135.269 45.3901 135.801C48.9362 140.233 54.9646 141.829 60.2837 139.702C60.9929 139.702 60.8156 138.638 60.1064 138.815Z" fill="black"/>
<path d="M37.9432 131.724C35.2836 133.852 32.4467 135.802 29.2552 137.397C28.7233 137.752 29.2552 138.638 29.7872 138.284C32.9786 136.688 35.8155 134.561 38.6524 132.433C39.007 132.079 38.2978 131.37 37.9432 131.724Z" fill="black"/>
<path d="M37.5886 130.483C32.624 132.433 27.8368 134.029 22.6949 135.624C21.9857 135.802 22.3403 136.865 23.0495 136.688C28.0141 135.092 32.9786 133.497 37.9432 131.547C38.2978 131.192 38.1205 130.128 37.5886 130.483Z" fill="black"/>
<path d="M20.922 139.17C17.9078 138.993 15.0709 138.284 12.5887 136.865C12.0568 136.511 11.5248 137.397 12.0568 137.752C14.8936 139.17 17.9078 140.057 20.922 140.234C21.6312 140.234 21.6312 139.17 20.922 139.17Z" fill="black"/>
<path d="M49.8226 47.5129C48.5815 47.8675 47.1631 47.8675 45.9219 47.8675C45.2127 47.8675 45.2127 48.9312 45.9219 48.9312C47.3404 48.9312 48.7588 48.9312 50.1772 48.5767C50.7092 48.2221 50.3546 47.3356 49.8226 47.5129Z" fill="black"/>
<path d="M45.7446 47.6902C45.9219 41.8397 45.39 35.9892 45.9219 30.1388C45.9219 29.4296 45.0354 29.4296 44.8581 30.1388C44.3262 35.9892 45.0354 41.8397 44.6808 47.6902C44.6808 48.3993 45.7446 48.3993 45.7446 47.6902Z" fill="black"/>
<path d="M54.6099 35.9889C54.6099 36.8753 54.7872 37.7618 55.3191 38.4709C55.851 39.18 56.9148 38.4709 56.3829 37.7618C56.0283 37.2299 55.851 36.698 55.851 35.9889C55.851 35.2797 54.6099 35.2797 54.6099 35.9889Z" fill="black"/>
<path d="M40.4255 38.2939C40.6028 39.003 40.7801 39.5349 41.1347 40.244C41.312 40.9532 42.5531 40.5986 42.3758 39.8894C42.1985 39.1803 42.0212 38.6484 41.6666 37.9393C41.312 37.2301 40.0709 37.5847 40.4255 38.2939Z" fill="black"/>
<path d="M56.383 50.8815C52.8369 53.5408 49.2908 53.7181 45.3901 51.4133C44.8581 51.0588 44.3262 51.9452 44.8581 52.2998C49.1135 54.7818 53.0142 54.7818 56.9149 51.7679C57.2695 51.4133 56.7376 50.5269 56.383 50.8815Z" fill="black"/>
<path d="M62.0567 29.4297C58.3333 26.2385 53.3688 25.7066 48.9361 27.8341C48.4042 28.1887 48.9361 29.0751 49.4681 28.7205C53.3688 26.7704 57.9787 27.3022 61.3475 30.1388C61.8794 30.4934 62.5886 29.7842 62.0567 29.4297Z" fill="black"/>
<path d="M41.312 28.7205C40.0709 26.593 36.3475 27.1249 35.9929 29.6069C35.8156 30.316 36.8794 30.4933 37.0567 29.9615C37.4113 28.3659 39.7163 28.0113 40.6028 29.4296C40.7801 29.7842 41.6666 29.2523 41.312 28.7205Z" fill="black"/>
<path d="M72.8722 32.089C72.3403 32.9754 71.8084 33.8618 71.2765 34.7483C70.9219 35.2801 71.8084 35.812 72.163 35.2801C72.6949 34.3937 73.2268 33.5072 73.7588 32.6208C74.1134 32.089 73.2268 31.5571 72.8722 32.089Z" fill="black"/>
<path d="M78.0142 398.54C78.0142 398.54 86.5248 404.568 86.5248 407.05C86.5248 409.532 78.3688 409.177 73.0496 408.645C67.7305 408.114 59.5745 407.404 59.5745 407.404C59.5745 407.404 61.1702 396.767 67.9078 397.299L78.0142 398.54Z" fill="black"/>
<path d="M40.9574 397.299C40.9574 397.299 44.1489 404.568 43.617 406.518C43.0851 408.468 10.9929 406.518 10.9929 406.518C10.9929 406.518 9.2198 398.185 29.078 398.185L40.9574 397.299Z" fill="black"/>
</g>
<defs>
<clipPath id="clip0">
<rect width="125" height="409" fill="white"/>
</clipPath>
</defs>
</svg>
