<svg width="40" height="35" viewBox="0 0 40 35" fill="none" xmlns="http://www.w3.org/2000/svg">
<g clip-path="url(#clip0)">
<path d="M29.6697 -0.000178157L0 19.6328L10.0699 34.8507L39.7397 15.2177L29.6697 -0.000178157Z" fill="#5EB552"/>
<path d="M2.9389 21.2892L9.50923 31.2184C10.2753 30.7114 11.3182 30.911 11.8348 31.6918C11.8933 31.7802 11.9468 31.893 11.9906 31.9912L36.3716 15.8578C36.2984 15.7792 36.2252 15.7005 36.1569 15.5974C35.65 14.8314 35.8496 13.7885 36.6303 13.2718L30.06 3.34263C29.294 3.84954 28.2511 3.64998 27.7344 2.8692L3.41233 18.9636C3.92899 19.7443 3.70495 20.7823 2.9389 21.2892Z" fill="#5C992C"/>
<path d="M24.5441 24.489C28.4413 21.9102 29.5101 16.6603 26.9312 12.7631C24.3524 8.86589 19.1025 7.79715 15.2053 10.376C11.3081 12.9548 10.2394 18.2047 12.8182 22.1019C15.3971 25.9991 20.6469 27.0678 24.5441 24.489Z" fill="#5EB552"/>
<path d="M10.3276 25.4444C10.9785 25.0137 11.157 24.1369 10.7263 23.486C10.2956 22.8351 9.41878 22.6566 8.76789 23.0873C8.11701 23.518 7.93851 24.3948 8.36922 25.0457C8.79992 25.6966 9.67673 25.8751 10.3276 25.4444Z" fill="#5EB552"/>
<path d="M30.9815 11.7774C31.6324 11.3467 31.8109 10.4699 31.3802 9.81901C30.9495 9.16813 30.0727 8.98963 29.4218 9.42034C28.7709 9.85104 28.5924 10.7278 29.0231 11.3787C29.4539 12.0296 30.3307 12.2081 30.9815 11.7774Z" fill="#5EB552"/>
<path d="M15.7707 11.2304C12.3529 13.492 11.416 18.0943 13.6776 21.512C15.9392 24.9298 20.5415 25.8667 23.9592 23.6051C27.377 21.3435 28.3139 16.7413 26.0523 13.3235C23.8005 9.92047 19.1885 8.96884 15.7707 11.2304ZM23.5401 22.9716C20.4759 24.9993 16.3485 24.1718 14.3209 21.1076C12.2932 18.0434 13.1354 13.9063 16.1996 11.8786C19.2638 9.851 23.4009 10.6932 25.4286 13.7574C27.4562 16.8216 26.6043 20.944 23.5401 22.9716Z" fill="#5C992C"/>
</g>
<defs>
<clipPath id="clip0">
<rect width="35.5773" height="18.248" fill="white" transform="translate(0 19.6328) rotate(-33.4933)"/>
</clipPath>
</defs>
</svg>
