<svg width="45" height="50" viewBox="0 0 45 50" fill="none" xmlns="http://www.w3.org/2000/svg">
<path d="M45 5.54187C45 2.46305 42.5172 0 39.4138 0H13.7172C10.6138 0 8.13103 2.46305 8.13103 5.54187V9.42118C8.06896 9.42118 8.0069 9.42118 7.94483 9.42118H5.58621C2.48276 9.42118 0 11.8842 0 14.9631V44.4581C0 47.5369 2.48276 50 5.58621 50H30.1655C33.269 50 35.7517 47.5369 35.7517 44.4581V43.0419H39.4138C42.5172 43.0419 45 40.5788 45 37.5V5.54187ZM33.269 44.4581C33.269 46.1823 31.9034 47.5369 30.1655 47.5369H5.58621C3.84828 47.5369 2.48276 46.1823 2.48276 44.4581V14.9631C2.48276 13.2389 3.84828 11.8842 5.58621 11.8842H7.94483C8.0069 11.8842 8.06896 11.8842 8.13103 11.8842V37.5C8.13103 40.5788 10.6138 43.0419 13.7172 43.0419H33.331V44.4581H33.269ZM42.5172 37.5C42.5172 39.2241 41.1517 40.5788 39.4138 40.5788H13.7172C11.9793 40.5788 10.6138 39.2241 10.6138 37.5V5.54187C10.6138 3.81773 11.9793 2.46305 13.7172 2.46305H39.4759C41.2138 2.46305 42.5793 3.81773 42.5793 5.54187L42.5172 37.5Z" fill="#21A038"/>
<path d="M36.1241 27.3398H17.1931C16.5103 27.3398 15.9517 27.894 15.9517 28.5714C15.9517 29.2487 16.5103 29.8029 17.1931 29.8029H36.1241C36.8069 29.8029 37.3655 29.2487 37.3655 28.5714C37.3655 27.894 36.8069 27.3398 36.1241 27.3398Z" fill="#21A038"/>
<path d="M36.1241 18.9655H17.1931C16.5103 18.9655 15.9517 19.5196 15.9517 20.197C15.9517 20.8743 16.5103 21.4285 17.1931 21.4285H36.1241C36.8069 21.4285 37.3655 20.8743 37.3655 20.197C37.3655 19.5196 36.8069 18.9655 36.1241 18.9655Z" fill="#21A038"/>
<path d="M17.1931 13.0542H29.2345C29.9172 13.0542 30.4759 12.5001 30.4759 11.8227C30.4759 11.1454 29.9172 10.5912 29.2345 10.5912H17.1931C16.5103 10.5912 15.9517 11.1454 15.9517 11.8227C15.9517 12.5001 16.5103 13.0542 17.1931 13.0542Z" fill="#21A038"/>
</svg>
