<svg width="115" height="141" viewBox="0 0 115 141" fill="none" xmlns="http://www.w3.org/2000/svg">
<rect x="13.8639" y="12.2639" width="72.8768" height="75.9648" rx="9" fill="#2153CE"/>
<rect x="25.9071" y="19.3663" width="55.8928" height="17.9104" rx="8.9552" fill="white"/>
<rect x="54.9342" y="40.6736" width="11.1168" height="11.1168" rx="5.5584" fill="white"/>
<rect x="70.6831" y="40.6736" width="11.1168" height="11.1168" rx="5.5584" fill="#21BA72"/>
<rect x="39.8031" y="40.6736" width="11.1168" height="11.1168" rx="5.5584" fill="white"/>
<rect x="54.9342" y="54.8785" width="11.1168" height="11.1168" rx="5.5584" fill="white"/>
<rect x="39.8031" y="54.8785" width="11.1168" height="11.1168" rx="5.5584" fill="white"/>
<rect x="54.9342" y="69.0833" width="11.1168" height="11.1168" rx="5.5584" fill="white"/>
<rect x="70.6831" y="54.8785" width="11.1168" height="25.3216" rx="5.5584" fill="white"/>
<rect x="39.8031" y="69.0833" width="11.1168" height="11.1168" rx="5.5584" fill="white"/>
<path d="M52.4617 34.8064C56.1214 34.8064 57.8717 32.6091 57.8717 28.0749C57.8717 24.186 56.6695 22.1456 53.2926 22.1456C50.6937 22.1456 49.0671 23.4884 49.0671 26.488C49.0671 28.8422 50.234 30.2897 52.6738 30.2897C54.2297 30.2897 55.2551 29.627 55.8739 28.3888C55.8916 28.5109 55.8916 28.633 55.8916 28.8248C55.8916 31.6151 54.3888 32.8009 52.5324 32.8009C51.1887 32.8009 50.4108 32.4347 49.8451 32.051V34.3356C50.5522 34.5972 51.4539 34.8064 52.4617 34.8064ZM53.3103 28.5981C51.9843 28.5981 51.3478 27.9005 51.3478 26.331C51.3478 24.7441 52.1611 24.0291 53.3457 24.0291C54.8131 24.0291 55.538 24.9184 55.5557 26.5228C55.4849 27.7959 54.7601 28.5981 53.3103 28.5981Z" fill="black"/>
<path d="M61.3124 34.5797H63.7169L68.2252 23.6977V22.3723H59.7389V24.3604H65.7147L61.3124 34.5797Z" fill="black"/>
<path d="M71.2062 34.5797H79.0207V32.7137H76.6693V22.3723H75.0958L71.2062 24.8661V26.9414L74.424 24.8661V32.7137H71.2062V34.5797Z" fill="black"/>
<path d="M56.2438 3.33197C64.0698 2.87161 65.8345 9.08637 65.7386 12.2513H46.4613L41.8578 13.1145V8.79866V3.33197C43.3923 3.52378 48.4178 3.79232 56.2438 3.33197Z" fill="#1DA766"/>
<g filter="url(#filter0_d)">
<path d="M37.83 92.5253H3.59128C0.829169 92.5253 0.714081 89.2645 1.0018 87.6341V9.94966C1.0018 3.73491 6.37258 2.75666 9.05796 3.04438H56.8195C48.9935 3.04438 46.8452 9.94966 46.7493 13.4023V87.6341C46.7493 92.2376 43.8721 92.813 42.4335 92.5253H37.83Z" fill="#21BA72"/>
</g>
<rect x="6.64856" y="15.6598" width="14.9614" height="4.60352" rx="2.30176" fill="white"/>
<rect x="6.64856" y="23.1404" width="34.5264" height="3.45264" rx="1.72632" fill="white"/>
<rect x="6.64856" y="28.3193" width="34.5264" height="3.45264" rx="1.72632" fill="white"/>
<rect x="6.64856" y="68.0248" width="16.6878" height="3.45264" rx="1.72632" fill="white"/>
<rect x="6.64856" y="73.2036" width="16.6878" height="3.45264" rx="1.72632" fill="white"/>
<rect x="6.64856" y="80.6844" width="33.3755" height="3.45264" rx="1.72632" fill="white"/>
<path d="M8.99109 43.7323C8.99109 47.8224 11.3336 49.8674 15.2005 49.8674C19.2162 49.8674 21.8562 47.8224 21.8562 43.7323C21.8562 39.5679 19.3278 37.6716 15.7211 37.6716C11.5938 37.6716 8.99109 39.7538 8.99109 43.7323ZM12.5606 43.7323C12.5606 42.0591 13.453 41.0552 15.4608 41.0552C17.4687 41.0552 18.3238 42.0591 18.3238 43.7323C18.3238 45.5543 17.3199 46.4838 15.5352 46.4838C13.6389 46.4838 12.5606 45.4799 12.5606 43.7323ZM24.6448 58.1591C24.6448 62.2119 26.9501 64.2942 30.8171 64.2942C34.8328 64.2942 37.4727 62.2119 37.4727 58.1591C37.4727 53.9575 34.9443 52.0984 31.3376 52.0984C27.2104 52.0984 24.6448 54.1434 24.6448 58.1591ZM28.1772 58.1591C28.1772 56.4859 29.0695 55.4819 31.0774 55.4819C33.0852 55.4819 33.9776 56.4859 33.9776 58.1591C33.9776 59.981 32.9365 60.9106 31.1517 60.9106C29.2554 60.9106 28.1772 59.9066 28.1772 58.1591ZM34.8328 37.9691H30.5568L11.7054 63.9967H16.0929L34.8328 37.9691Z" fill="white"/>
<path d="M78.3856 48.1682C78.3856 49.035 77.1817 49.4925 76.5797 49.6129C75.9777 49.3721 74.7738 48.6016 74.7738 47.4458C74.7738 46.2901 75.2554 45.5195 75.4962 45.2788C75.2554 44.5564 74.9183 43.1117 75.4962 43.1117C76.2185 43.1117 78.3856 47.0847 78.3856 48.1682Z" fill="#F7E5D1"/>
<path d="M99.6949 57.5589V55.3918L104.751 55.0306L105.113 57.5589C103.957 58.7147 101.019 58.0405 99.6949 57.5589Z" fill="#F7E5D1"/>
<path d="M99.6951 55.392C96.2278 54.2362 97.7689 49.6131 98.9728 47.446C101.501 47.446 106.196 54.6696 104.39 55.392C102.585 56.1143 99.6951 55.7531 99.6951 55.392Z" fill="#F7E5D1"/>
<path d="M99.3339 47.8071C100.49 48.385 100.056 50.2149 99.6951 51.0577C100.273 55.1029 103.788 55.3918 105.474 55.0306C107.039 54.1879 109.953 51.6355 109.086 48.1682C108.002 43.8341 104.39 44.1953 102.585 44.5565C101.14 44.8454 101.019 43.4729 101.14 42.7506C101.14 42.0282 100.706 40.8002 98.9727 41.667C96.8057 42.7506 97.8892 47.0847 99.3339 47.8071Z" fill="#251D73"/>
<path d="M94.6385 108.846C93.4828 101.622 94.157 92.8338 94.6385 89.3424C96.8056 87.8977 111.614 86.453 113.059 89.3424C113.781 90.7871 111.734 96.0844 111.253 98.3718C110.097 102.417 110.049 108.003 110.169 110.291C110.169 112.313 112.818 127.266 114.142 134.49H109.447C108.869 132.467 104.631 117.274 102.584 110.291C102.873 114.047 103.427 128.711 103.668 135.573H99.3338C99.3338 133.551 96.2036 116.912 94.6385 108.846Z" fill="url(#paint0_linear)"/>
<path d="M78.3856 48.1683L76.5797 49.613C82.7197 61.1708 93.1939 69.1167 93.1939 69.4779C94.3497 71.2115 94.8794 73.5712 94.9998 74.5344C95.5777 77.1348 94.759 84.527 94.2774 87.8979C93.9163 90.4262 95.361 90.7874 97.1669 90.4262H111.975C113.42 90.1373 113.781 89.5834 113.781 89.3427C115.226 81.3967 112.698 63.3378 111.253 59.726C110.097 56.8366 106.678 57.0774 105.113 57.559C103.09 58.7147 100.658 58.0405 99.6951 57.559L98.6116 58.2813L96.0833 59.3649C93.9163 60.0872 92.1104 60.0872 88.1374 57.559C84.959 55.5364 80.3119 50.4558 78.3856 48.1683Z" fill="url(#paint1_linear)"/>
<path d="M104.029 140.269C102.585 140.558 98.3709 140.148 96.4446 139.908C95.7223 139.546 95.7223 139.185 96.0834 138.463C96.3724 137.885 98.8525 137.5 100.056 137.379C101.26 137.379 103.74 137.452 104.029 137.741C104.391 138.102 104.391 140.269 104.029 140.269Z" fill="#1A3562"/>
<path d="M114.38 138.824C112.935 139.113 108.721 138.703 106.795 138.463C106.073 138.101 106.073 137.74 106.434 137.018C106.723 136.44 109.203 136.055 110.407 135.934C111.611 135.934 114.091 136.007 114.38 136.296C114.741 136.657 114.741 138.824 114.38 138.824Z" fill="#1A3562"/>
<defs>
<filter id="filter0_d" x="0.894287" y="0.452418" width="68.6631" height="94.682" filterUnits="userSpaceOnUse" color-interpolation-filters="sRGB">
<feFlood flood-opacity="0" result="BackgroundImageFix"/>
<feColorMatrix in="SourceAlpha" type="matrix" values="0 0 0 0 0 0 0 0 0 0 0 0 0 0 0 0 0 0 127 0"/>
<feOffset dx="10.1903"/>
<feGaussianBlur stdDeviation="1.27379"/>
<feColorMatrix type="matrix" values="0 0 0 0 0 0 0 0 0 0 0 0 0 0 0 0 0 0 0.25 0"/>
<feBlend mode="normal" in2="BackgroundImageFix" result="effect1_dropShadow"/>
<feBlend mode="normal" in="SourceGraphic" in2="effect1_dropShadow" result="shape"/>
</filter>
<linearGradient id="paint0_linear" x1="104.071" y1="88.8565" x2="104.071" y2="135.573" gradientUnits="userSpaceOnUse">
<stop stop-color="#083579"/>
<stop offset="1" stop-color="#356DC4"/>
</linearGradient>
<linearGradient id="paint1_linear" x1="95.6215" y1="48.1683" x2="95.6215" y2="90.5448" gradientUnits="userSpaceOnUse">
<stop stop-color="#21BA72"/>
<stop offset="1" stop-color="#0D9C59"/>
</linearGradient>
</defs>
</svg>
