<svg width="50" height="50" viewBox="0 0 50 50" fill="none" xmlns="http://www.w3.org/2000/svg">
<g clip-path="url(#clip0)">
<path d="M1.6445 31.0367C1.7054 31.0367 1.8272 31.0367 1.8881 31.0367C2.49711 30.9148 2.92342 30.305 2.80162 29.6343C0.670074 19.2684 6.09029 8.65866 15.6518 4.3294C24.787 0.183056 35.6274 2.68306 42.083 10.1831L36.7846 9.02452C36.1756 8.90257 35.5056 9.26842 35.3838 9.93915C35.262 10.6099 35.6274 11.2196 36.2974 11.3416L45.0063 13.1709C45.0672 13.1709 45.189 13.1709 45.2499 13.1709C45.5544 13.1709 45.798 13.0489 46.0416 12.866C46.3461 12.6221 46.4679 12.2562 46.407 11.8294L45.2499 3.17086C45.189 2.50013 44.5799 2.0733 43.91 2.13428C43.2401 2.19525 42.8138 2.80501 42.8747 3.47574L43.4837 8.23184C36.4192 0.305007 24.6043 -2.31694 14.6774 2.19525C4.14145 6.95135 -1.82688 18.7196 0.48737 30.0611C0.609173 30.6709 1.09638 31.0367 1.6445 31.0367Z" fill="#21A038"/>
<path d="M35.2619 47.8659C45.8587 43.1098 51.8271 31.3415 49.4519 19.939C49.3301 19.3293 48.7211 18.9024 48.1121 19.0244C47.5031 19.1463 47.0767 19.7561 47.1986 20.4268C49.3301 30.7317 43.9099 41.3415 34.3484 45.7317C25.2132 49.8781 14.3118 47.3781 7.85629 39.8171L14.3118 41.1585C14.9208 41.2805 15.5908 40.8537 15.7126 40.2439C15.8344 39.6342 15.4081 38.9634 14.799 38.8415L6.09015 37.0732C5.72474 37.0122 5.35933 37.1342 5.05483 37.3781C4.75032 37.622 4.62852 38.0488 4.68942 38.4146L5.90745 47.1342C5.96835 47.7439 6.51646 48.1707 7.06457 48.1707C7.12547 48.1707 7.18637 48.1707 7.24728 48.1707C7.91719 48.1098 8.3435 47.5 8.2217 46.8293L7.67359 43.1098C12.363 47.7439 18.4531 50 25.0914 50C28.5627 50 32.0341 49.3293 35.2619 47.8659Z" fill="#21A038"/>
<path d="M29.0499 10C25.0304 8.90248 20.8891 9.45126 17.296 11.5244C13.7028 13.5976 11.1449 16.9513 10.0487 20.9756C7.79536 29.2683 12.7284 37.8049 21.011 40C22.3508 40.3659 23.7515 40.5488 25.0913 40.5488C27.771 40.5488 30.3898 39.8171 32.8258 38.4756C36.419 36.4025 38.9768 33.0488 40.0731 29.0244C41.4738 23.8415 40.134 18.3537 36.419 14.3903C35.9927 13.9025 35.2619 13.9025 34.7747 14.3293C34.2874 14.7561 34.2874 15.4878 34.7138 15.9756C37.8197 19.3293 38.9768 23.9635 37.8197 28.4147C36.9062 31.8293 34.7138 34.6342 31.6687 36.4025C28.6236 38.1708 25.0913 38.5976 21.6809 37.683C14.6772 35.7927 10.475 28.5366 12.363 21.5244C13.2765 18.1098 15.4689 15.3049 18.514 13.5366C21.5591 11.7683 25.0913 11.3415 28.5018 12.2561C29.1108 12.4391 29.7807 12.0732 29.9634 11.4025C30.0243 10.8537 29.6589 10.183 29.0499 10Z" fill="#21A038"/>
<path d="M27.6492 26.9512C30.877 26.9512 33.4958 24.3293 33.4958 21.0976C33.4958 17.8658 30.877 15.2439 27.6492 15.2439H21.8027C21.62 15.2439 21.4982 15.3049 21.3764 15.3658C20.8892 15.4878 20.5847 15.9146 20.5847 16.4024V27.9878H18.2704C17.7223 27.9878 17.2351 28.4756 17.2351 29.0244C17.2351 29.5732 17.7223 30.061 18.2704 30.061H20.5238V33.7805C20.5238 34.3293 21.011 34.8171 21.5591 34.8171C22.1072 34.8171 22.5944 34.3293 22.5944 33.7805V30.061H29.7808C30.3289 30.061 30.8161 29.5732 30.8161 29.0244C30.8161 28.4756 30.3289 27.9878 29.7808 27.9878H22.5944V26.9512H27.6492ZM22.5944 24.878V17.378H27.5883C29.659 17.378 31.3642 19.0854 31.3642 21.1585C31.3642 23.2317 29.659 24.939 27.5883 24.939H22.5944V24.878Z" fill="#21A038"/>
</g>
<defs>
<clipPath id="clip0">
<rect width="50" height="50" fill="white"/>
</clipPath>
</defs>
</svg>
