<svg width="30" height="50" viewBox="0 0 30 50" fill="none" xmlns="http://www.w3.org/2000/svg">
<path d="M23.5934 16.2562C22.9158 15.7636 21.9302 15.8867 21.4374 16.5641L14.0452 26.3547L9.36343 22.4138C8.68582 21.8596 7.70019 21.9212 7.14578 22.5985C6.59136 23.2759 6.65296 24.2611 7.33058 24.8153L14.538 30.8498L23.9014 18.4113C24.3942 17.734 24.271 16.7488 23.5934 16.2562Z" fill="#21A038"/>
<path d="M25.5647 0H4.43532C1.97125 0 0 1.97044 0 4.4335V45.5665C0 48.0296 1.97125 50 4.43532 50H25.5647C28.0287 50 30 48.0296 30 45.5665V9.60591V8.80542V4.4335C30 1.97044 28.0287 0 25.5647 0ZM2.21766 4.4335C2.21766 3.20197 3.20329 2.21675 4.43532 2.21675H25.5647C26.7967 2.21675 27.7823 3.20197 27.7823 4.4335V5.54187H2.21766V4.4335ZM27.7823 45.5665C27.7823 46.798 26.7967 47.7832 25.5647 47.7832H4.43532C3.20329 47.7832 2.21766 46.798 2.21766 45.5665V41.133H27.7823V45.5665ZM27.7823 38.9163H2.21766V7.75862H27.7823V8.80542V9.54434V38.9163Z" fill="#21A038"/>
<path d="M14.4764 45.5666H15.5852C16.2012 45.5666 16.694 45.074 16.694 44.4582C16.694 43.8425 16.2012 43.3499 15.5852 43.3499H14.4764C13.8604 43.3499 13.3676 43.8425 13.3676 44.4582C13.3676 45.074 13.8604 45.5666 14.4764 45.5666Z" fill="#21A038"/>
</svg>
