<svg width="145" height="154" viewBox="0 0 145 154" fill="none" xmlns="http://www.w3.org/2000/svg">
<path d="M27.0769 72.8845C28.9817 71.7961 28.5509 67.669 28.0973 65.7416H26.0565L23.6755 67.7824L22.9952 71.524C23.5621 72.431 25.1721 73.973 27.0769 72.8845Z" fill="#F7E3DA"/>
<path d="M26.7369 75.6057C24.56 74.2452 19.4806 74.5853 17.213 74.9254C13.9476 77.1023 12.451 81.955 12.1109 84.1093C11.8841 85.4698 11.3626 88.9392 11.0905 91.9325C10.7503 95.674 11.4306 101.797 12.1109 103.837C12.6551 105.47 13.925 105.878 14.4919 105.878C15.8524 106.558 26.7369 105.538 28.7777 105.198C30.4104 104.926 30.365 104.177 30.1383 103.837C30.0249 101.91 29.6621 97.3747 29.1179 94.6536C28.4376 91.2522 29.1179 88.1909 29.1179 88.1909C29.1179 88.1909 31.839 90.5719 34.22 90.5719C36.6009 90.5719 37.6214 88.1909 36.2608 86.1501L32.8594 81.048C31.7256 79.8008 28.9138 76.9663 26.7369 75.6057Z" fill="url(#paint0_linear)"/>
<path d="M14.4917 113.701C13.4033 111.252 12.9044 106.558 12.791 104.518C13.1312 103.837 29.4579 104.518 30.1382 104.518C33.6756 112.953 31.1586 125.946 29.4579 131.389C27.8252 134.382 26.2832 144.427 25.7163 149.076H21.9748C20.6142 145.674 23.6755 124.926 23.3354 124.926C20.6142 129.28 17.4396 141.933 16.1924 147.715H12.4509C12.1108 144.994 14.4917 132.409 15.172 126.967C15.8523 121.525 15.8523 116.763 14.4917 113.701Z" fill="url(#paint1_linear)"/>
<path d="M12.1108 151.797V149.756H16.8728C18.0066 150.21 19.9341 151.253 18.5735 151.797C17.2129 152.341 13.6982 152.024 12.1108 151.797Z" fill="#1B4E9D"/>
<path d="M21.6348 153.157V151.117H26.3967C27.5305 151.57 29.458 152.613 28.0974 153.157C26.7369 153.702 23.2221 153.384 21.6348 153.157Z" fill="#1B4E9D"/>
<path d="M24.3559 71.864C22.4511 73.4967 20.8411 71.864 20.2742 70.8436C19.8207 69.9366 19.1858 67.3742 20.2742 64.381C21.6348 60.6394 27.077 62.3401 28.4376 62.6803C29.7981 63.0204 30.4784 66.0817 28.4376 66.0817C26.8049 66.0817 26.17 67.4422 26.0566 68.1225C26.2833 68.6894 26.2607 70.2314 24.3559 71.864Z" fill="#251D73"/>
<path d="M49 90.9078V83.2147L112 82C111.865 84.5644 112 90.9078 112 90.9078C110.704 93.8231 106.328 97.0944 101.669 98.6009C90.6489 102.164 72.701 101.098 65.0032 99.6132C55.0772 96.9813 51.0257 93.7421 49 90.9078Z" fill="#1F1865"/>
<path d="M112 81.5C112 88.9558 97.897 95 80.5 95C63.103 95 49 88.9558 49 81.5C49 74.0442 63.103 68 80.5 68C97.897 68 112 74.0442 112 81.5Z" fill="#4C4BC2"/>
<path d="M104 80C104 84.9706 93.4787 89 80.5 89C67.5213 89 57 84.9706 57 80C57 75.0294 67.5213 71 80.5 71C93.4787 71 104 75.0294 104 80Z" fill="#39E4D2"/>
<path d="M80.69 81.5138C85.8196 82.4886 89.1832 82.1254 90.3982 80.3637C91.5759 78.656 89.8126 77.3551 84.2827 76.3042L78.4525 75.1962L73.2349 82.762L76.3627 83.3564L77.9876 81.0002L80.69 81.5138ZM83.7008 77.5994C86.7535 78.1796 87.8087 78.7835 87.1677 79.7131C86.4596 80.7399 84.675 80.8652 81.7724 80.3136L78.8448 79.7572L80.7231 77.0335L83.7008 77.5994Z" fill="#1B2270"/>
<path d="M72.6 80.7244L80.2872 82.2167L79.4613 83.3775L71.774 81.8852L72.6 80.7244Z" fill="#1B2270"/>
<path d="M74.2053 78.8901L81.8926 80.3824L81.0667 81.5432L73.3794 80.0509L74.2053 78.8901Z" fill="#1B2270"/>
<path d="M51 115.908V108.215L113 107C112.867 109.564 113 115.908 113 115.908C111.724 118.823 107.418 122.094 102.833 123.601C91.9878 127.164 74.3248 126.098 66.7492 124.613C56.9807 121.981 52.9936 118.742 51 115.908Z" fill="#1F1865"/>
<path d="M113 107.5C113 114.956 99.1208 121 82 121C64.8792 121 51 114.956 51 107.5C51 100.044 64.8792 94 82 94C99.1208 94 113 100.044 113 107.5Z" fill="#4C4BC2"/>
<path d="M106 106C106 110.971 95.2548 115 82 115C68.7452 115 58 110.971 58 106C58 101.029 68.7452 97 82 97C95.2548 97 106 101.029 106 106Z" fill="#39E4D2"/>
<path d="M81.9109 107.147C87.0404 108.121 90.4041 107.758 91.619 105.997C92.7967 104.289 91.0334 102.988 85.5035 101.937L79.6733 100.829L74.4558 108.395L77.5835 108.989L79.2084 106.633L81.9109 107.147ZM84.9216 103.232C87.9743 103.812 89.0295 104.416 88.3885 105.346C87.6804 106.373 85.8958 106.498 82.9932 105.946L80.0656 105.39L81.9439 102.666L84.9216 103.232Z" fill="#1B2270"/>
<path d="M73.8204 106.357L81.5077 107.85L80.6818 109.01L72.9945 107.518L73.8204 106.357Z" fill="#1B2270"/>
<path d="M75.4259 104.523L83.1132 106.015L82.2872 107.176L74.6 105.684L75.4259 104.523Z" fill="#1B2270"/>
<path d="M52 102.908V95.2147L116 94C115.863 96.5644 116 102.908 116 102.908C114.683 105.823 110.238 109.094 105.505 110.601C94.31 114.164 76.0772 113.098 68.2572 111.613C58.1736 108.981 54.0579 105.742 52 102.908Z" fill="#1F1865"/>
<path d="M115 94C115 101.18 100.897 107 83.5 107C66.103 107 52 101.18 52 94C52 86.8203 66.103 81 83.5 81C100.897 81 115 86.8203 115 94Z" fill="#4C4BC2"/>
<path d="M108 92.5C108 97.7467 97.4787 102 84.5 102C71.5213 102 61 97.7467 61 92.5C61 87.2533 71.5213 83 84.5 83C97.4787 83 108 87.2533 108 92.5Z" fill="#39E4D2"/>
<path d="M84.352 93.7201C89.4816 94.6949 92.8452 94.3317 94.0602 92.57C95.2379 90.8623 93.4746 89.5614 87.9447 88.5105L82.1145 87.4025L76.8969 94.9683L80.0247 95.5627L81.6496 93.2065L84.352 93.7201ZM87.3628 89.8057C90.4155 90.3859 91.4707 90.9898 90.8296 91.9194C90.1215 92.9462 88.337 93.0715 85.4344 92.5199L82.5068 91.9635L84.3851 89.2398L87.3628 89.8057Z" fill="#1B2270"/>
<path d="M76.2617 92.9304L83.949 94.4227L83.1231 95.5835L75.4358 94.0912L76.2617 92.9304Z" fill="#1B2270"/>
<path d="M77.8672 91.0963L85.5545 92.5886L84.7285 93.7494L77.0413 92.2571L77.8672 91.0963Z" fill="#1B2270"/>
<path d="M49 90.9078V83.2147L112 82C111.865 84.5644 112 90.9078 112 90.9078C110.704 93.8231 106.328 97.0944 101.669 98.6009C90.6489 102.164 72.701 101.098 65.0032 99.6132C55.0772 96.9813 51.0257 93.7421 49 90.9078Z" fill="#1F1865"/>
<path d="M112 81.5C112 88.9558 97.897 95 80.5 95C63.103 95 49 88.9558 49 81.5C49 74.0442 63.103 68 80.5 68C97.897 68 112 74.0442 112 81.5Z" fill="#4C4BC2"/>
<path d="M104 80C104 84.9706 93.4787 89 80.5 89C67.5213 89 57 84.9706 57 80C57 75.0294 67.5213 71 80.5 71C93.4787 71 104 75.0294 104 80Z" fill="#39E4D2"/>
<path d="M80.69 81.5138C85.8196 82.4886 89.1832 82.1254 90.3982 80.3637C91.5759 78.656 89.8126 77.3551 84.2827 76.3042L78.4525 75.1962L73.2349 82.762L76.3627 83.3564L77.9876 81.0002L80.69 81.5138ZM83.7008 77.5994C86.7535 78.1796 87.8087 78.7835 87.1677 79.7131C86.4596 80.7399 84.675 80.8652 81.7724 80.3136L78.8448 79.7572L80.7231 77.0335L83.7008 77.5994Z" fill="#1B2270"/>
<path d="M72.6 80.7244L80.2872 82.2167L79.4613 83.3775L71.774 81.8852L72.6 80.7244Z" fill="#1B2270"/>
<path d="M74.2053 78.8901L81.8926 80.3824L81.0667 81.5432L73.3794 80.0509L74.2053 78.8901Z" fill="#1B2270"/>
<path d="M65 77.9078V70.2147L128 69C127.865 71.5644 128 77.9078 128 77.9078C126.704 80.8231 122.328 84.0944 117.669 85.6009C106.649 89.164 88.701 88.0978 81.0032 86.6132C71.0772 83.9813 67.0257 80.7421 65 77.9078Z" fill="#1F1865"/>
<path d="M128 70C128 77.1797 113.897 83 96.5 83C79.103 83 65 77.1797 65 70C65 62.8203 79.103 57 96.5 57C113.897 57 128 62.8203 128 70Z" fill="#4C4BC2"/>
<path d="M120 68.5C120 73.1944 109.479 77 96.5 77C83.5213 77 73 73.1944 73 68.5C73 63.8056 83.5213 60 96.5 60C109.479 60 120 63.8056 120 68.5Z" fill="#21BA72"/>
<path d="M96.5582 69.3076C101.688 70.2825 105.051 69.9193 106.266 68.1575C107.444 66.4498 105.681 65.1489 100.151 64.098L94.3207 62.99L89.1031 70.5558L92.2309 71.1502L93.8558 68.794L96.5582 69.3076ZM99.5689 65.3933C102.622 65.9734 103.677 66.5774 103.036 67.5069C102.328 68.5337 100.543 68.6591 97.6406 68.1074L94.713 67.5511L96.5913 64.8274L99.5689 65.3933Z" fill="#1B2270"/>
<path d="M88.4678 68.5183L96.155 70.0106L95.3291 71.1714L87.6418 69.6791L88.4678 68.5183Z" fill="#1B2270"/>
<path d="M90.0732 66.684L97.7605 68.1763L96.9346 69.3371L89.2473 67.8448L90.0732 66.684Z" fill="#1B2270"/>
<path d="M49 62.9078V55.2147L112 54C111.865 56.5644 112 62.9078 112 62.9078C110.704 65.8231 106.328 69.0944 101.669 70.6009C90.6489 74.164 72.701 73.0978 65.0032 71.6132C55.0772 68.9813 51.0257 65.7421 49 62.9078Z" fill="#1F1865"/>
<path d="M112 54C112 61.1797 97.897 67 80.5 67C63.103 67 49 61.1797 49 54C49 46.8203 63.103 41 80.5 41C97.897 41 112 46.8203 112 54Z" fill="#4C4BC2"/>
<path d="M104 52.5C104 57.7467 93.4787 62 80.5 62C67.5213 62 57 57.7467 57 52.5C57 47.2533 67.5213 43 80.5 43C93.4787 43 104 47.2533 104 52.5Z" fill="#21BA72"/>
<path d="M80.69 53.8468C85.8196 54.8216 89.1832 54.4585 90.3982 52.6967C91.5759 50.989 89.8126 49.6881 84.2827 48.6372L78.4525 47.5292L73.2349 55.095L76.3627 55.6894L77.9876 53.3332L80.69 53.8468ZM83.7008 49.9324C86.7535 50.5126 87.8087 51.1166 87.1677 52.0461C86.4596 53.0729 84.675 53.1983 81.7724 52.6466L78.8448 52.0902L80.7231 49.3666L83.7008 49.9324Z" fill="#1B2270"/>
<path d="M72.6 53.0571L80.2872 54.5494L79.4613 55.7102L71.774 54.2179L72.6 53.0571Z" fill="#1B2270"/>
<path d="M74.2053 51.2229L81.8926 52.7152L81.0667 53.876L73.3794 52.3837L74.2053 51.2229Z" fill="#1B2270"/>
<path d="M98.251 54.0222C105.46 53.5998 107.085 59.3033 106.997 62.2078H89.2403L85 63V59.0392V54.0222C86.4134 54.1983 91.0425 54.4447 98.251 54.0222Z" fill="white"/>
<g filter="url(#filter0_d)">
<path d="M81.0224 135.944H50.4113C47.9418 135.944 47.8389 132.959 48.0961 131.467V60.3611C48.0961 54.6727 52.8979 53.7773 55.2987 54.0406H98C91.0032 54.0406 89.0825 60.3611 88.9967 63.5214V131.467C88.9967 135.68 86.4244 136.207 85.1382 135.944H81.0224Z" fill="white"/>
</g>
<path d="M52 67C52 65.8954 53.0332 65 54.3077 65H64.6923C65.9668 65 67 65.8954 67 67C67 68.1046 65.9668 69 64.6923 69H54.3077C53.0332 69 52 68.1046 52 67Z" fill="#29C67C"/>
<path d="M52 74C52 72.8954 52.7163 72 53.6 72H82.4C83.2837 72 84 72.8954 84 74C84 75.1046 83.2837 76 82.4 76H53.6C52.7163 76 52 75.1046 52 74Z" fill="#29C67C"/>
<path d="M52 94.5C52 93.6716 52.7163 93 53.6 93H82.4C83.2837 93 84 93.6716 84 94.5C84 95.3284 83.2837 96 82.4 96H53.6C52.7163 96 52 95.3284 52 94.5Z" fill="#29C67C"/>
<path d="M52 78.5C52 77.6716 52.7163 77 53.6 77H82.4C83.2837 77 84 77.6716 84 78.5C84 79.3284 83.2837 80 82.4 80H53.6C52.7163 80 52 79.3284 52 78.5Z" fill="#29C67C"/>
<path d="M52 99.5C52 98.6716 52.7163 98 53.6 98H82.4C83.2837 98 84 98.6716 84 99.5C84 100.328 83.2837 101 82.4 101H53.6C52.7163 101 52 100.328 52 99.5Z" fill="#29C67C"/>
<path d="M52 84C52 83.4477 52.741 83 53.6552 83H66.3448C67.259 83 68 83.4477 68 84C68 84.5523 67.259 85 66.3448 85H53.6552C52.741 85 52 84.5523 52 84Z" fill="#29C67C"/>
<path d="M52 88.5C52 87.6716 52.741 87 53.6552 87H66.3448C67.259 87 68 87.6716 68 88.5C68 89.3284 67.259 90 66.3448 90H53.6552C52.741 90 52 89.3284 52 88.5Z" fill="#29C67C"/>
<path d="M53 109.992C53 111.878 54.2399 113 56.0999 113C57.9846 113 59.1997 111.762 59.1997 110.008C59.1997 108.13 57.9598 107.008 56.0999 107C54.2151 107 53 108.238 53 109.992ZM54.0911 110C54.0911 108.787 54.8516 107.964 56.0916 107.956C57.4142 107.964 58.1086 108.861 58.1086 110C58.1086 111.222 57.3398 112.044 56.1081 112.044C54.7855 112.036 54.0911 111.139 54.0911 110Z" fill="#4C4BC2"/>
<path d="M61.167 112.909H62.1259V109.609H63.465V108.753H59.8444V109.609H61.167V112.909Z" fill="#4C4BC2"/>
<path d="M64.3435 112.909H65.3107V111.188H65.972L67.2698 112.909H68.4436L66.7656 110.715L68.2122 108.753H67.1375L65.9803 110.374H65.3107V108.753H64.3435V112.909Z" fill="#4C4BC2"/>
<path d="M69.2963 110.258C69.5773 109.817 70.0154 109.518 70.7759 109.518C71.3298 109.518 71.6108 109.701 71.6108 110.291V110.474H70.6767C69.66 110.474 68.9739 110.74 68.9739 111.687C68.9739 112.501 69.4699 112.975 70.3048 112.975C70.9661 112.975 71.4703 112.643 71.6687 112.161V112.909H72.578V110.166C72.578 109.086 71.9828 108.67 70.7759 108.67C70.065 108.67 69.5691 108.837 69.2963 109.044V110.258ZM70.6106 112.102C70.1808 112.102 69.9493 111.903 69.9493 111.587C69.9493 111.213 70.2221 111.105 70.7925 111.105H71.6108V111.446C71.5695 111.729 71.2636 112.102 70.6106 112.102Z" fill="#4C4BC2"/>
<path d="M73.5695 112.485C73.7761 112.717 74.4044 112.992 75.1318 112.992C76.2478 112.992 77 112.535 77 111.662C77 111.105 76.6941 110.823 76.1403 110.715C76.5536 110.54 76.8264 110.274 76.8264 109.751C76.8264 109.094 76.3387 108.67 75.1897 108.67H75.1566C74.5201 108.67 73.958 108.837 73.6439 109.044V110.258C73.9663 109.817 74.4622 109.518 75.1566 109.518C75.6609 109.526 75.8427 109.693 75.8427 109.975C75.8427 110.324 75.5451 110.465 75.0988 110.465H74.5118V111.172H75.2227C75.7849 111.172 76.0246 111.305 76.0246 111.629C76.0246 111.978 75.6774 112.144 75.1318 112.144C74.3548 112.144 73.8092 111.853 73.5695 111.488V112.485Z" fill="#4C4BC2"/>
<defs>
<filter id="filter0_d" x="48" y="51.4524" width="62.7379" height="87.0952" filterUnits="userSpaceOnUse" color-interpolation-filters="sRGB">
<feFlood flood-opacity="0" result="BackgroundImageFix"/>
<feColorMatrix in="SourceAlpha" type="matrix" values="0 0 0 0 0 0 0 0 0 0 0 0 0 0 0 0 0 0 127 0"/>
<feOffset dx="10.1903"/>
<feGaussianBlur stdDeviation="1.27379"/>
<feColorMatrix type="matrix" values="0 0 0 0 0 0 0 0 0 0 0 0 0 0 0 0 0 0 0.25 0"/>
<feBlend mode="normal" in2="BackgroundImageFix" result="effect1_dropShadow"/>
<feBlend mode="normal" in="SourceGraphic" in2="effect1_dropShadow" result="shape"/>
</filter>
<linearGradient id="paint0_linear" x1="24.09" y1="74.6212" x2="24.09" y2="106.107" gradientUnits="userSpaceOnUse">
<stop stop-color="#21BA72"/>
<stop offset="1" stop-color="#0D9C59"/>
</linearGradient>
<linearGradient id="paint1_linear" x1="21.2945" y1="150.096" x2="22.3149" y2="104.177" gradientUnits="userSpaceOnUse">
<stop stop-color="#467FD7"/>
<stop offset="1" stop-color="#062D68"/>
</linearGradient>
</defs>
</svg>
