<svg width="49" height="49" viewBox="0 0 49 49" fill="none" xmlns="http://www.w3.org/2000/svg">
<path d="M40.0481 0C35.9962 0 32.4625 2.68558 31.426 6.59615H3.76923C1.69615 6.59615 0 8.29231 0 10.3654V35.8077C0 37.8808 1.69615 39.5769 3.76923 39.5769H26.95L36.0904 48.7173C36.2788 48.9058 36.5144 49 36.75 49C36.8913 49 36.9856 48.9529 37.1269 48.9529C37.4567 48.8115 37.6923 48.4817 37.6923 48.0577V39.5769H41.4615C43.5346 39.5769 45.2308 37.8808 45.2308 35.8077V16.2548C47.5865 14.6058 49 11.8731 49 8.95192C49 4.00481 44.9952 0 40.0481 0ZM43.3462 35.8077C43.3462 36.8442 42.4981 37.6923 41.4615 37.6923H36.75C36.2317 37.6923 35.8077 38.1163 35.8077 38.6346V45.7962L27.9865 37.975C27.7981 37.7865 27.5625 37.6923 27.3269 37.6923H3.76923C2.73269 37.6923 1.88462 36.8442 1.88462 35.8077V10.3654C1.88462 9.32885 2.73269 8.48077 3.76923 8.48077H31.0962C31.0962 8.62212 31.0962 8.81058 31.0962 8.95192C31.0962 13.899 35.101 17.9038 40.0481 17.9038C40.2837 17.9038 40.5663 17.9038 40.8019 17.8567H41.0375C41.226 17.8567 41.4144 17.8096 41.6029 17.7625L41.7913 17.7154C42.0269 17.6683 42.2625 17.6212 42.5452 17.5269H42.5923C42.8279 17.4798 43.0163 17.3856 43.2519 17.2913L43.3462 17.2442V35.8077ZM40.0481 16.0192C36.1375 16.0192 32.9808 12.8625 32.9808 8.95192C32.9808 8.52788 33.0279 8.10385 33.075 7.72692C33.6875 4.33462 36.6087 1.88462 40.0481 1.88462C43.9587 1.88462 47.1154 5.04135 47.1154 8.95192C47.1154 12.8625 43.9587 16.0192 40.0481 16.0192Z" fill="#21A038"/>
<path d="M32.9808 16.4904H12.25C11.7318 16.4904 11.3077 16.9144 11.3077 17.4327C11.3077 17.9509 11.7318 18.375 12.25 18.375H32.9808C33.4991 18.375 33.9231 17.9509 33.9231 17.4327C33.9231 16.9144 33.4991 16.4904 32.9808 16.4904Z" fill="#21A038"/>
<path d="M32.9808 22.1443H12.25C11.7318 22.1443 11.3077 22.5683 11.3077 23.0866C11.3077 23.6049 11.7318 24.0289 12.25 24.0289H32.9808C33.4991 24.0289 33.9231 23.6049 33.9231 23.0866C33.9231 22.5683 33.4991 22.1443 32.9808 22.1443Z" fill="#21A038"/>
<path d="M32.9808 27.7981H12.25C11.7318 27.7981 11.3077 28.2221 11.3077 28.7404C11.3077 29.2587 11.7318 29.6827 12.25 29.6827H32.9808C33.4991 29.6827 33.9231 29.2587 33.9231 28.7404C33.9231 28.2221 33.4991 27.7981 32.9808 27.7981Z" fill="#21A038"/>
<path d="M44.8538 5.1827C44.4298 4.85289 43.8644 4.94712 43.5346 5.37116L39.1057 11.3077L36.2788 8.90481C35.9019 8.57501 35.2894 8.62212 34.9596 8.99904C34.6298 9.37597 34.6769 9.98847 35.0538 10.3183L39.4355 13.9933L45.0894 6.45481C45.3721 6.07789 45.2778 5.46539 44.8538 5.1827Z" fill="#21A038"/>
</svg>
