<svg width="148" height="160" viewBox="0 0 148 160" fill="none" xmlns="http://www.w3.org/2000/svg">
<path d="M57.2438 5.5841C60.0161 2.57641 64.7656 2.57641 67.5379 5.58411L98.5115 39.1877C102.633 43.6595 99.4614 50.8969 93.3798 50.8969C89.5253 50.8969 86.4007 54.0215 86.4007 57.876V140.631C86.4007 144.497 83.2667 147.631 79.4007 147.631H44.9841C41.1182 147.631 37.9841 144.497 37.9841 140.631V57.7551C37.9841 53.9674 34.9136 50.8969 31.126 50.8969C25.1497 50.8969 22.0328 43.7849 26.0832 39.3906L57.2438 5.5841Z" fill="url(#paint0_linear)"/>
<path d="M91.7117 43.1488C98.5066 42.7491 100.039 48.1451 99.9555 50.8931H83.218L79.221 51.6425V47.8953V43.1488C80.5533 43.3154 84.9168 43.5485 91.7117 43.1488Z" fill="#29C67C"/>
<g filter="url(#filter0_d)">
<path d="M75.7236 120.591H45.9958C43.5976 120.591 43.4977 117.76 43.7475 116.344V48.8946C43.7475 43.4987 48.4107 42.6493 50.7423 42.8991H92.2113C85.4164 42.8991 83.5511 48.8946 83.4678 51.8924V116.344C83.4678 120.341 80.9697 120.841 79.7206 120.591H75.7236Z" fill="white"/>
</g>
<rect x="48.6504" y="53.8524" width="12.9903" height="3.99701" rx="1.99851" fill="#43C9B8"/>
<rect x="48.6504" y="60.3475" width="29.9776" height="2.99776" rx="1.49888" fill="#43C9B8"/>
<rect x="48.6504" y="64.8442" width="29.9776" height="2.99776" rx="1.49888" fill="#43C9B8"/>
<rect x="48.6504" y="99.3184" width="14.4892" height="2.99776" rx="1.49888" fill="#43C9B8"/>
<rect x="48.6504" y="103.815" width="14.4892" height="2.99776" rx="1.49888" fill="#43C9B8"/>
<rect x="48.6504" y="110.31" width="28.9783" height="2.99776" rx="1.49888" fill="#43C9B8"/>
<path d="M50.6843 78.2266C50.6843 81.7778 52.7181 83.5534 56.0756 83.5534C59.5622 83.5534 61.8544 81.7778 61.8544 78.2266C61.8544 74.6108 59.6591 72.9644 56.5276 72.9644C52.9441 72.9644 50.6843 74.7722 50.6843 78.2266ZM53.7835 78.2266C53.7835 76.7738 54.5583 75.9022 56.3016 75.9022C58.0449 75.9022 58.7874 76.7738 58.7874 78.2266C58.7874 79.8085 57.9158 80.6156 56.3662 80.6156C54.7197 80.6156 53.7835 79.7439 53.7835 78.2266ZM64.2756 90.7526C64.2756 94.2715 66.2772 96.0794 69.6347 96.0794C73.1213 96.0794 75.4135 94.2715 75.4135 90.7526C75.4135 87.1046 73.2182 85.4904 70.0867 85.4904C66.5032 85.4904 64.2756 87.266 64.2756 90.7526ZM67.3426 90.7526C67.3426 89.2998 68.1174 88.4282 69.8607 88.4282C71.604 88.4282 72.3788 89.2998 72.3788 90.7526C72.3788 92.3345 71.4749 93.1416 69.9253 93.1416C68.2788 93.1416 67.3426 92.2699 67.3426 90.7526ZM73.1213 73.2226H69.4087L53.041 95.8211H56.8504L73.1213 73.2226Z" fill="url(#paint1_linear)"/>
<path d="M45.3482 89.982C45.3482 90.5253 46.1027 90.812 46.4799 90.8875C46.8572 90.7366 47.6117 90.2537 47.6117 89.5293C47.6117 88.805 47.3099 88.3221 47.159 88.1712C47.3099 87.7185 47.5211 86.8131 47.159 86.8131C46.7063 86.8131 45.3482 89.303 45.3482 89.982Z" fill="#F7E5D1"/>
<path d="M31.9933 95.8673V94.5092L28.8244 94.2828L28.5981 95.8673C29.3224 96.5916 31.1634 96.1691 31.9933 95.8673Z" fill="#F7E5D1"/>
<path d="M31.9934 94.5092C34.1663 93.7848 33.2006 90.8875 32.4461 89.5294C30.8616 89.5294 27.919 94.0565 29.0508 94.5092C30.1825 94.9619 31.9934 94.7355 31.9934 94.5092Z" fill="#F7E5D1"/>
<path d="M32.2197 89.7559C31.4954 90.1181 31.767 91.2649 31.9934 91.7931C31.6312 94.3282 29.428 94.5093 28.3717 94.283C27.3909 93.7548 25.565 92.1552 26.1082 89.9823C26.7873 87.266 29.0508 87.4924 30.1825 87.7187C31.088 87.8998 31.1634 87.0397 31.088 86.587C31.088 86.1343 31.3596 85.3647 32.4461 85.9079C33.8042 86.587 33.1251 89.3032 32.2197 89.7559Z" fill="#251D73"/>
<path d="M35.1623 128.009C35.8866 123.482 35.4641 117.974 35.1623 115.786C33.8041 114.881 24.5237 113.975 23.6183 115.786C23.1656 116.692 24.4482 120.011 24.75 121.445C25.4744 123.98 25.5045 127.481 25.4291 128.915C25.4291 130.182 23.7692 139.553 22.9392 144.08H25.8818C26.244 142.813 28.8998 133.291 30.1825 128.915C30.0014 131.269 29.6543 140.459 29.5034 144.759H32.2197C32.2197 143.492 34.1814 133.064 35.1623 128.009Z" fill="url(#paint2_linear)"/>
<path d="M45.3482 89.9822L46.48 90.8876C42.632 98.1309 36.0678 103.111 36.0678 103.337C35.3434 104.423 35.0114 105.902 34.936 106.506C34.5738 108.136 35.0869 112.768 35.3887 114.881C35.6151 116.465 34.7096 116.692 33.5779 116.465H24.2974C23.392 116.284 23.1656 115.937 23.1656 115.786C22.2602 110.807 23.8447 99.489 24.7501 97.2255C25.4744 95.4146 27.6173 95.5655 28.5981 95.8673C29.8657 96.5917 31.3898 96.1692 31.9934 95.8673L32.6725 96.3201L34.2569 96.9991C35.615 97.4518 36.7468 97.4518 39.2367 95.8673C41.2286 94.5998 44.141 91.4157 45.3482 89.9822Z" fill="url(#paint3_linear)"/>
<path d="M29.277 147.702C30.1824 147.883 32.8232 147.627 34.0304 147.476C34.4831 147.249 34.4831 147.023 34.2568 146.57C34.0757 146.208 32.5214 145.967 31.7669 145.891C31.0124 145.891 29.4581 145.937 29.277 146.118C29.0507 146.344 29.0507 147.702 29.277 147.702Z" fill="#1A3562"/>
<path d="M22.7906 146.797C23.696 146.978 26.3368 146.721 27.544 146.57C27.9967 146.344 27.9967 146.118 27.7704 145.665C27.5893 145.303 26.035 145.061 25.2805 144.986C24.526 144.986 22.9717 145.031 22.7906 145.212C22.5643 145.439 22.5643 146.797 22.7906 146.797Z" fill="#1A3562"/>
<path d="M117.47 101.199L117.867 100.206H118.462H119.454C119.586 100.537 119.771 101.357 119.454 101.992C119.136 102.627 117.999 101.728 117.47 101.199Z" fill="#F7E6D2"/>
<path d="M107.945 145.051C107.31 144.892 106.225 145.779 105.762 146.242C107.35 147.194 109.731 146.771 110.723 146.44C110.789 145.977 110.842 145.131 110.525 145.448C110.128 145.845 108.739 145.25 107.945 145.051Z" fill="#21375C"/>
<path d="M108.143 136.717C107.032 127.034 109.4 119.454 110.723 116.874C111.257 115.684 118.263 117.866 119.851 118.66C121.121 119.295 120.38 122.364 119.851 123.819C119.057 127.788 122.563 137.775 124.415 142.273L122.43 143.067C122.43 142.432 120.314 138.834 119.255 137.114C117.073 134.138 113.501 126.2 113.501 126.399C111.517 132.749 111.12 143.861 110.525 144.059C110.048 144.218 108.739 143.993 108.143 143.861C108.461 142.591 108.276 138.569 108.143 136.717Z" fill="url(#paint4_linear)"/>
<path d="M112.707 107.151C111.596 107.469 106.953 106.622 104.77 106.159C104.439 106.49 103.818 107.27 103.976 107.746C104.135 108.223 109.334 109.532 111.914 110.128H112.707L113.303 108.739L112.707 107.151Z" fill="url(#paint5_linear)"/>
<path d="M117.668 93.4596C116.874 93.9359 117.337 95.6424 117.668 96.4361C119.851 96.4361 120.049 98.2219 119.454 99.4125C118.978 100.365 119.652 101 120.049 101.198C120.644 100.801 122.073 99.8094 123.026 99.0156C123.978 98.2219 123.422 96.5684 123.026 95.8408C122.43 95.2455 121.16 93.9359 120.843 93.4596C120.446 92.8644 118.66 92.8644 117.668 93.4596Z" fill="#261E74"/>
<path d="M117.47 100.206C116.2 99.0952 116.94 96.8331 117.47 95.8409C121.121 96.3172 120.843 98.9497 120.248 100.206C119.851 100.669 118.74 101.318 117.47 100.206Z" fill="#F7E6D2"/>
<path d="M105.365 89.8881L104.373 90.6818C104.373 92.0046 104.334 94.6503 104.175 94.6503C104.969 99.4126 109.929 103.381 112.31 104.77C112.787 105.088 112.906 105.828 112.906 106.159C112.588 107.27 111.318 113.104 110.723 115.882C110.406 117.946 111.252 118.726 111.715 118.859C112.985 120.287 116.477 121.041 118.065 121.24C119.97 121.557 120.975 120.711 121.24 120.248C122.351 118.343 122.893 112.84 123.026 110.326C123.026 105.167 121.835 102.984 120.446 101.794C119.335 100.841 117.073 100.206 116.081 100.008H112.906C109.89 100.325 106.622 93.3936 105.365 89.8881Z" fill="url(#paint6_linear)"/>
<path d="M122.232 144.654C121.901 144.985 121.24 145.726 121.24 146.043C121.24 147.035 121.24 146.44 122.232 146.639C123.026 146.797 124.944 145.382 125.804 144.654L125.407 143.861C125.341 143.662 125.01 143.424 124.216 144.059C123.422 144.694 122.563 144.72 122.232 144.654Z" fill="#21375C"/>
<circle cx="86.3164" cy="99.4126" r="20.835" fill="#261E74"/>
<circle cx="83.1415" cy="99.4126" r="20.835" fill="#4C4DC1"/>
<circle cx="83.1415" cy="99.4127" r="16.8664" fill="#21BA72"/>
<path d="M83.586 104.095C89.4793 105.277 93.1142 103.554 94.0538 98.868C94.9646 94.3259 92.7178 91.513 86.3646 90.239L79.6664 88.8959L75.6312 109.019L79.2246 109.74L80.4813 103.473L83.586 104.095ZM86.0179 93.6084C89.525 94.3117 90.8297 95.5601 90.3339 98.0324C89.7863 100.763 87.8424 101.51 84.5077 100.841L81.1442 100.167L82.5969 92.9224L86.0179 93.6084Z" fill="white"/>
<path d="M74.4626 104.095L83.3015 105.945L82.6543 109.038L73.8154 107.189L74.4626 104.095Z" fill="white"/>
<path d="M75.8173 99.134L84.6562 100.983L84.009 104.077L75.1701 102.228L75.8173 99.134Z" fill="white"/>
<defs>
<filter id="filter0_d" x="43.6542" y="40.313" width="61.2951" height="82.8791" filterUnits="userSpaceOnUse" color-interpolation-filters="sRGB">
<feFlood flood-opacity="0" result="BackgroundImageFix"/>
<feColorMatrix in="SourceAlpha" type="matrix" values="0 0 0 0 0 0 0 0 0 0 0 0 0 0 0 0 0 0 127 0"/>
<feOffset dx="10.1903"/>
<feGaussianBlur stdDeviation="1.27379"/>
<feColorMatrix type="matrix" values="0 0 0 0 0 0 0 0 0 0 0 0 0 0 0 0 0 0 0.25 0"/>
<feBlend mode="normal" in2="BackgroundImageFix" result="effect1_dropShadow"/>
<feBlend mode="normal" in="SourceGraphic" in2="effect1_dropShadow" result="shape"/>
</filter>
<linearGradient id="paint0_linear" x1="62.3908" y1="0" x2="62.3908" y2="147.631" gradientUnits="userSpaceOnUse">
<stop stop-color="#639DF7"/>
<stop offset="1" stop-color="#2153CE"/>
</linearGradient>
<linearGradient id="paint1_linear" x1="78.628" y1="95.8596" x2="42.8855" y2="71.6469" gradientUnits="userSpaceOnUse">
<stop stop-color="#114088"/>
<stop offset="1" stop-color="#669CEA"/>
</linearGradient>
<linearGradient id="paint2_linear" x1="29.2507" y1="115.482" x2="29.2507" y2="144.759" gradientUnits="userSpaceOnUse">
<stop stop-color="#083579"/>
<stop offset="1" stop-color="#356DC4"/>
</linearGradient>
<linearGradient id="paint3_linear" x1="34.5464" y1="89.9822" x2="34.5464" y2="116.54" gradientUnits="userSpaceOnUse">
<stop stop-color="#21BA72"/>
<stop offset="1" stop-color="#0D9C59"/>
</linearGradient>
<linearGradient id="paint4_linear" x1="116.279" y1="113.699" x2="116.135" y2="144.114" gradientUnits="userSpaceOnUse">
<stop stop-color="#356DC4"/>
<stop offset="0.0001" stop-color="#0A387D"/>
<stop offset="1" stop-color="#4581DA"/>
</linearGradient>
<linearGradient id="paint5_linear" x1="108.627" y1="106.159" x2="108.627" y2="110.128" gradientUnits="userSpaceOnUse">
<stop stop-color="#47CAB9"/>
<stop offset="1" stop-color="#22A99F"/>
</linearGradient>
<linearGradient id="paint6_linear" x1="113.713" y1="89.8881" x2="113.713" y2="121.309" gradientUnits="userSpaceOnUse">
<stop stop-color="#21BA72"/>
<stop offset="1" stop-color="#0D9C59"/>
</linearGradient>
</defs>
</svg>
