<svg width="133" height="139" viewBox="0 0 133 139" fill="none" xmlns="http://www.w3.org/2000/svg">
<rect x="15.7279" y="12.7268" width="111.02" height="78.8211" rx="7" fill="url(#paint0_linear)"/>
<rect x="15.7279" y="25.137" width="111.02" height="17.7767" fill="white"/>
<rect x="88.5117" y="67.0632" width="29.1806" height="13.081" rx="6.54048" fill="white"/>
<path d="M78.5301 3.36066C87.0304 2.86064 88.9472 9.61092 88.843 13.0486H67.9046L62.9044 13.9861V9.29842V3.36066C64.5712 3.56901 70.0297 3.86068 78.5301 3.36066Z" fill="#29C67C"/>
<g filter="url(#filter0_d)">
<path d="M58.5296 100.24H21.3405C18.3404 100.24 18.2154 96.6979 18.5279 94.927V10.5485C18.5279 3.79823 24.3615 2.73569 27.2783 3.0482H79.1554C70.6551 3.0482 68.3216 10.5485 68.2175 14.2987V94.927C68.2175 99.9272 65.0923 100.552 63.5298 100.24H58.5296Z" fill="#29C67C"/>
</g>
<rect x="24.6612" y="16.7507" width="16.2507" height="5.00021" rx="2.5001" fill="white"/>
<rect x="24.6612" y="24.8759" width="37.5015" height="3.75015" rx="1.87508" fill="white"/>
<rect x="24.6612" y="30.5011" width="37.5015" height="3.75015" rx="1.87508" fill="white"/>
<rect x="24.6612" y="73.6279" width="18.1257" height="3.75015" rx="1.87508" fill="white"/>
<rect x="24.6612" y="79.2531" width="18.1257" height="3.75015" rx="1.87508" fill="white"/>
<rect x="24.6612" y="87.3785" width="36.2515" height="3.75015" rx="1.87508" fill="white"/>
<path d="M27.2057 47.2423C27.2057 51.6848 29.7501 53.906 33.9503 53.906C38.312 53.906 41.1794 51.6848 41.1794 47.2423C41.1794 42.719 38.4331 40.6593 34.5157 40.6593C30.0328 40.6593 27.2057 42.9209 27.2057 47.2423ZM31.0828 47.2423C31.0828 45.4249 32.0521 44.3345 34.233 44.3345C36.4138 44.3345 37.3427 45.4249 37.3427 47.2423C37.3427 49.2212 36.2523 50.2309 34.3137 50.2309C32.254 50.2309 31.0828 49.1404 31.0828 47.2423ZM44.2084 62.9121C44.2084 67.3142 46.7123 69.5759 50.9125 69.5759C55.2742 69.5759 58.1416 67.3142 58.1416 62.9121C58.1416 58.3485 55.3954 56.3292 51.4779 56.3292C46.995 56.3292 44.2084 58.5504 44.2084 62.9121ZM48.0451 62.9121C48.0451 61.0948 49.0143 60.0043 51.1952 60.0043C53.3761 60.0043 54.3453 61.0948 54.3453 62.9121C54.3453 64.8911 53.2145 65.9007 51.276 65.9007C49.2163 65.9007 48.0451 64.8103 48.0451 62.9121ZM55.2742 40.9824H50.6298L30.1539 69.2528H34.9195L55.2742 40.9824Z" fill="url(#paint1_linear)"/>
<path d="M100.186 127.963C99.4734 127.784 98.2552 128.78 97.7352 129.3C99.5179 130.369 102.192 129.894 103.306 129.522C103.38 129.002 103.44 128.052 103.083 128.408C102.638 128.854 101.078 128.185 100.186 127.963Z" fill="#21375C"/>
<path d="M100.409 118.603C99.1612 107.729 101.82 99.2163 103.306 96.3194C103.906 94.9823 111.774 97.4336 113.557 98.3249C114.983 99.038 114.151 102.485 113.557 104.119C112.665 108.576 116.602 119.792 118.682 124.843L116.454 125.734C116.454 125.021 114.077 120.98 112.888 119.049C110.437 115.706 106.426 106.793 106.426 107.016C104.197 114.146 103.752 126.625 103.083 126.848C102.548 127.027 101.078 126.774 100.409 126.625C100.766 125.199 100.558 120.683 100.409 118.603Z" fill="url(#paint2_linear)"/>
<path d="M105.534 85.4002C104.287 85.7567 99.0721 84.806 96.6209 84.286C96.2495 84.6574 95.5513 85.5339 95.7295 86.0687C95.9078 86.6035 101.746 88.0743 104.643 88.7428H105.534L106.203 87.1829L105.534 85.4002Z" fill="url(#paint3_linear)"/>
<path d="M111.105 70.0245C110.214 70.5593 110.734 72.4757 111.105 73.367C113.557 73.367 113.78 75.3726 113.111 76.7096C112.576 77.7793 113.334 78.4923 113.78 78.7152C114.448 78.2695 116.052 77.1553 117.122 76.264C118.192 75.3726 117.568 73.5156 117.122 72.6985C116.454 72.03 115.027 70.5593 114.671 70.0245C114.225 69.3559 112.22 69.3559 111.105 70.0245Z" fill="#261E74"/>
<path d="M110.883 77.6011C109.457 76.3532 110.288 73.8128 110.883 72.6986C114.983 73.2334 114.671 76.1898 114.002 77.6011C113.557 78.121 112.309 78.849 110.883 77.6011Z" fill="#F7E6D2"/>
<path d="M97.2897 66.0133L96.1755 66.9047C96.1755 68.3903 96.131 71.3614 95.9527 71.3614C96.8441 76.7096 102.415 81.1664 105.089 82.7262C105.624 83.0828 105.758 83.9147 105.758 84.2861C105.401 85.534 103.975 92.0855 103.306 95.2052C102.95 97.5227 103.901 98.3992 104.421 98.5478C105.847 100.152 109.769 100.999 111.551 101.222C113.691 101.578 114.82 100.628 115.117 100.108C116.365 97.9684 116.974 91.7884 117.122 88.9657C117.122 83.1719 115.785 80.7207 114.225 79.3836C112.978 78.314 110.437 77.6009 109.323 77.3781H105.758C102.37 77.7346 98.701 69.9501 97.2897 66.0133Z" fill="url(#paint4_linear)"/>
<path d="M116.231 127.517C115.859 127.888 115.117 128.72 115.117 129.077C115.117 130.191 115.117 129.522 116.231 129.745C117.122 129.923 119.276 128.334 120.242 127.517L119.796 126.625C119.722 126.403 119.351 126.135 118.459 126.848C117.568 127.561 116.602 127.591 116.231 127.517Z" fill="#21375C"/>
<circle cx="75.897" cy="76.7094" r="23.3981" fill="#261E74"/>
<circle cx="72.3315" cy="76.7095" r="23.3981" fill="#4C4DC1"/>
<circle cx="72.3315" cy="76.7096" r="18.9413" fill="#21BA72"/>
<path d="M72.8308 81.9682C79.449 83.2953 83.5311 81.3602 84.5863 76.0979C85.6092 70.997 83.0859 67.838 75.9511 66.4073L68.429 64.8989L63.8973 87.4978L67.9328 88.307L69.3441 81.2691L72.8308 81.9682ZM75.5618 70.1912C79.5004 70.981 80.9656 72.383 80.4088 75.1594C79.7938 78.2264 77.6108 79.0648 73.8658 78.3138L70.0886 77.5564L71.72 69.4208L75.5618 70.1912Z" fill="white"/>
<path d="M62.5848 81.9685L72.511 84.0451L71.7842 87.5193L61.858 85.4427L62.5848 81.9685Z" fill="white"/>
<path d="M64.1063 76.3967L74.0325 78.4733L73.3057 81.9475L63.3794 79.8709L64.1063 76.3967Z" fill="white"/>
<defs>
<filter id="filter0_d" x="18.4111" y="0.452418" width="73.4822" height="102.402" filterUnits="userSpaceOnUse" color-interpolation-filters="sRGB">
<feFlood flood-opacity="0" result="BackgroundImageFix"/>
<feColorMatrix in="SourceAlpha" type="matrix" values="0 0 0 0 0 0 0 0 0 0 0 0 0 0 0 0 0 0 127 0"/>
<feOffset dx="10.1903"/>
<feGaussianBlur stdDeviation="1.27379"/>
<feColorMatrix type="matrix" values="0 0 0 0 0 0 0 0 0 0 0 0 0 0 0 0 0 0 0.25 0"/>
<feBlend mode="normal" in2="BackgroundImageFix" result="effect1_dropShadow"/>
<feBlend mode="normal" in="SourceGraphic" in2="effect1_dropShadow" result="shape"/>
</filter>
<linearGradient id="paint0_linear" x1="71.2381" y1="26.7479" x2="71.2381" y2="91.5479" gradientUnits="userSpaceOnUse">
<stop stop-color="#4784E1"/>
<stop offset="1" stop-color="#ACCEFA"/>
</linearGradient>
<linearGradient id="paint1_linear" x1="62.163" y1="69.3009" x2="17.4496" y2="39.0112" gradientUnits="userSpaceOnUse">
<stop stop-color="#114088"/>
<stop offset="1" stop-color="#669CEA"/>
</linearGradient>
<linearGradient id="paint2_linear" x1="109.546" y1="92.7539" x2="109.384" y2="126.91" gradientUnits="userSpaceOnUse">
<stop stop-color="#356DC4"/>
<stop offset="0.0001" stop-color="#0A387D"/>
<stop offset="1" stop-color="#4581DA"/>
</linearGradient>
<linearGradient id="paint3_linear" x1="100.952" y1="84.286" x2="100.952" y2="88.7428" gradientUnits="userSpaceOnUse">
<stop stop-color="#47CAB9"/>
<stop offset="1" stop-color="#22A99F"/>
</linearGradient>
<linearGradient id="paint4_linear" x1="106.664" y1="66.0133" x2="106.664" y2="101.3" gradientUnits="userSpaceOnUse">
<stop stop-color="#21BA72"/>
<stop offset="1" stop-color="#0D9C59"/>
</linearGradient>
</defs>
</svg>
