<svg width="30" height="50" viewBox="0 0 30 50" fill="none" xmlns="http://www.w3.org/2000/svg">
<path d="M25.5647 0H4.43532C1.97125 0 0 1.97044 0 4.4335V45.5665C0 48.0296 1.97125 50 4.43532 50H25.5647C28.0287 50 30 48.0296 30 45.5665V9.60591V8.80542V4.4335C30 1.97044 28.0287 0 25.5647 0ZM2.21766 4.4335C2.21766 3.20197 3.20329 2.21675 4.43532 2.21675H25.5647C26.7967 2.21675 27.7823 3.20197 27.7823 4.4335V5.54187H2.21766V4.4335ZM27.7823 45.5665C27.7823 46.798 26.7967 47.7832 25.5647 47.7832H4.43532C3.20329 47.7832 2.21766 46.798 2.21766 45.5665V41.133H27.7823V45.5665ZM27.7823 38.9163H2.21766V7.75862H27.7823V8.80542V9.54434V38.9163Z" fill="#21A038"/>
<path d="M14.4764 45.5666H15.5852C16.2012 45.5666 16.694 45.074 16.694 44.4582C16.694 43.8425 16.2012 43.3499 15.5852 43.3499H14.4764C13.8604 43.3499 13.3676 43.8425 13.3676 44.4582C13.3676 45.074 13.8604 45.5666 14.4764 45.5666Z" fill="#21A038"/>
<path d="M13.1211 13.7314H11.6427V14.4704H13.1211V13.7314Z" fill="#21A038"/>
<path d="M16.8789 14.4704H15.4005V13.7314H14.6613V15.2709H16.8789V14.4704Z" fill="#21A038"/>
<path d="M15.4004 20.5048H16.1396V21.3053H16.8788V20.5048H17.6797V22.0443H18.4189V13.7314H17.6797V16.7487H16.8788V17.4876H17.6797V19.7659H16.8788V18.2881H16.1396V19.027H15.4004V16.7487H16.8788V16.0098H14.6612V15.2709H13.8604V14.4704H13.1211V15.2709H11.6427V16.0098H13.8604V17.4876H14.6612V19.7659H15.4004V20.5048Z" fill="#21A038"/>
<path d="M5.60577 19.027H10.9035V13.7314H5.60577V19.027ZM6.34499 14.4704H10.1027V18.2265H6.34499V14.4704Z" fill="#21A038"/>
<path d="M19.1581 13.7314V19.027H24.4559V13.7314H19.1581ZM23.6551 18.2881H19.8974V14.5319H23.6551V18.2881Z" fill="#21A038"/>
<path d="M9.36349 15.2708H7.08423V17.5491H9.36349V15.2708Z" fill="#21A038"/>
<path d="M22.9158 15.2708H20.6365V17.5491H22.9158V15.2708Z" fill="#21A038"/>
<path d="M13.1211 16.7488H11.6427V17.4877H12.3819V18.2882H13.1211V16.7488Z" fill="#21A038"/>
<path d="M10.8419 19.7659H9.36346V20.5048H10.8419V19.7659Z" fill="#21A038"/>
<path d="M21.3758 19.7659H20.6365V20.5048H21.3758V19.7659Z" fill="#21A038"/>
<path d="M22.9159 19.7659H22.1766V22.0442H22.9159V23.522H24.4559V21.3053H22.9159V19.7659Z" fill="#21A038"/>
<path d="M24.3942 19.7659H23.655V20.5048H24.3942V19.7659Z" fill="#21A038"/>
<path d="M7.82347 20.5049H6.34503V21.2438H7.82347V20.5049Z" fill="#21A038"/>
<path d="M9.36349 20.5049H8.62427V21.2438H9.36349V20.5049Z" fill="#21A038"/>
<path d="M6.34499 21.3054H5.60577V22.0443H6.34499V21.3054Z" fill="#21A038"/>
<path d="M10.8419 21.3054H10.1027V22.0443H10.8419V21.3054Z" fill="#21A038"/>
<path d="M8.62429 23.522V22.0442H7.08425V22.7831H6.34503V23.522H7.08425V24.2609H7.82347V23.522H8.62429Z" fill="#21A038"/>
<path d="M10.1027 22.0442H9.36346V22.7831H10.1027V22.0442Z" fill="#21A038"/>
<path d="M17.6181 22.0442H16.8788V22.7831H17.6181V22.0442Z" fill="#21A038"/>
<path d="M10.8419 22.7832H10.1027V23.5221H10.8419V22.7832Z" fill="#21A038"/>
<path d="M6.34499 23.5222H5.60577V26.5395H6.34499V23.5222Z" fill="#21A038"/>
<path d="M9.36347 24.2611V23.5222H8.62425V24.2611H7.82343V25.0616H8.62425V24.2611H9.36347Z" fill="#21A038"/>
<path d="M10.8419 24.261H10.1027V24.9999H10.8419V24.261Z" fill="#21A038"/>
<path d="M21.3758 24.261H19.8974V24.9999H21.3758V24.261Z" fill="#21A038"/>
<path d="M24.3943 24.261H22.9158V24.9999H24.3943V24.261Z" fill="#21A038"/>
<path d="M9.36349 25.0615H8.62427V25.8004H9.36349V25.0615Z" fill="#21A038"/>
<path d="M7.82345 25.8003H7.08423V26.5392H7.82345V25.8003Z" fill="#21A038"/>
<path d="M10.8419 25.8003H9.36346V26.5392H10.8419V25.8003Z" fill="#21A038"/>
<path d="M13.8604 26.5393H13.1212V27.2782H13.8604V26.5393Z" fill="#21A038"/>
<path d="M21.4374 21.3053H20.6981V22.0442H19.9589V21.3053H20.6981V20.5664H19.9589V19.8275H19.2197V22.1058H18.4805V24.3841H17.002V22.7832H16.2628V24.261H15.4004V21.9827H14.6612V21.2438H15.4004V20.5048H14.6612V19.7659H13.922V18.2881H13.1827V19.027H12.4435V18.2881H11.7043V19.7659H13.1827V20.5048H13.922V21.9827H14.6612V23.4605H13.922V21.9827H11.6427V22.7832H12.3819V24.261H11.6427V27.2782H12.3819V26.5393H13.1211V25.0615H12.3819V24.3226H13.1211V25.0615H13.8604V24.3226H14.5996V25.0615H13.8604V26.5393H14.5996V27.2782H15.4004V25.8004H16.1396V27.2782H16.8788V26.5393H17.6181V27.2782H16.8788V28.0172H16.1396V30.2955H14.6612V31.0344H16.1396V31.7733H14.6612V31.0344H13.922V31.7733H14.6612V32.5122H18.4189V31.7733H17.6797V31.0344H16.9404V28.7561H17.6797V29.5566H18.4189V30.2955H17.6797V31.0344H18.4189V30.2955H19.1581V29.5566H21.4374V30.2955H22.1766V29.5566H22.9158V28.8176H22.1766V27.3398H21.4374V26.6009H24.4558V25.862H22.9774V25.1231H21.499V25.862H18.4805V25.1231H19.2197V24.3841H19.9589V23.6452H21.4374V24.3841H22.1766V22.1058H21.4374V21.3053ZM17.6797 25.8004H16.9404V25.0615H17.6797V25.8004ZM20.6365 26.5393V28.8176H18.3573V26.5393H20.6365Z" fill="#21A038"/>
<path d="M14.5996 27.2783H13.8604V28.7562H14.5996V27.2783Z" fill="#21A038"/>
<path d="M19.8974 27.2783H19.1581V28.0172H19.8974V27.2783Z" fill="#21A038"/>
<path d="M24.3942 27.2783H23.655V28.7562H24.3942V27.2783Z" fill="#21A038"/>
<path d="M5.60577 32.5739H10.9035V27.2783H5.60577V32.5739ZM6.34499 28.0788H10.1027V31.835H6.34499V28.0788Z" fill="#21A038"/>
<path d="M13.8604 29.5564H13.1211V28.0786H11.6427V28.8175H12.3819V31.0959H13.1211V30.2954H13.8604V29.5564Z" fill="#21A038"/>
<path d="M9.36349 28.8176H7.08423V31.096H9.36349V28.8176Z" fill="#21A038"/>
<path d="M15.4005 28.8176H14.6613V29.5565H15.4005V28.8176Z" fill="#21A038"/>
<path d="M24.3942 29.5566H23.655V32.5739H24.3942V29.5566Z" fill="#21A038"/>
<path d="M20.6366 30.2954H19.1581V32.5737H19.8974V31.8348H21.4374V32.5737H22.1766V31.0959H20.6366V30.2954Z" fill="#21A038"/>
<path d="M22.9159 30.2954H22.1766V31.0343H22.9159V30.2954Z" fill="#21A038"/>
<path d="M13.1212 31.835H12.382V32.5739H13.1212V31.835Z" fill="#21A038"/>
</svg>
