<svg width="41" height="50" viewBox="0 0 41 50" fill="none" xmlns="http://www.w3.org/2000/svg">
<path d="M13.3189 44.4581C13.3189 43.8424 13.8099 43.3498 14.4237 43.3498H15.5284C16.1422 43.3498 16.6332 43.8424 16.6332 44.4581C16.6332 45.0739 16.1422 45.5665 15.5284 45.5665H14.4237C13.8099 45.5665 13.3189 45.0739 13.3189 44.4581ZM41 12.2537V30.0493C41 30.665 40.509 31.1576 39.8952 31.1576H29.8907V45.5665C29.8907 48.0296 27.9266 50 25.4716 50H4.41916C1.96407 50 0 48.0296 0 45.5665V4.4335C0 1.97044 1.96407 0 4.41916 0H25.4716C27.9266 0 29.8907 1.97044 29.8907 4.4335V11.0837H39.8952C40.509 11.0837 41 11.6379 41 12.2537ZM2.20958 5.54187H27.6811V4.4335C27.6811 3.20197 26.6991 2.21675 25.4716 2.21675H4.41916C3.19162 2.21675 2.20958 3.20197 2.20958 4.4335V5.54187ZM27.6811 41.133H2.20958V45.5665C2.20958 46.798 3.19162 47.7832 4.41916 47.7832H25.4716C26.6991 47.7832 27.6811 46.798 27.6811 45.5665V41.133ZM27.6811 31.0961H21.4207L15.6512 35.3448C15.4671 35.468 15.2216 35.5296 14.976 35.5296C14.7919 35.5296 14.6078 35.468 14.485 35.4064C14.1168 35.2217 13.8713 34.8522 13.8713 34.4212V31.0961H10.0045C9.39072 31.0961 8.8997 30.6034 8.8997 29.9877V12.2537C8.8997 11.6379 9.39072 11.1453 10.0045 11.1453H27.7425V7.8202H2.20958V38.9163H27.6811V31.0961ZM38.7904 13.3621H11.0479V28.9409H14.9147C15.5284 28.9409 16.0195 29.4335 16.0195 30.0493V32.3276L20.3772 29.1872C20.5614 29.064 20.8069 29.0025 21.0524 29.0025H38.7904V13.3621Z" fill="#21A038"/>
</svg>
