<svg width="44" height="44" viewBox="0 0 44 44" fill="none" xmlns="http://www.w3.org/2000/svg">
<g clip-path="url(#clip0)">
<path d="M17.5 0H14V1.7H17.5V0Z" fill="#21A038"/>
<path d="M26.2 1.7H22.7V0H21V3.5H26.2V1.7Z" fill="#21A038"/>
<path d="M22.7 15.7H24.5V17.5H26.2V15.7H28V19.2H29.7V0H28V7H26.2V8.7H28V14H26.2V10.5H24.5V12.2H22.7V7H26.2V5.2H21V3.5H19.2V1.7H17.5V3.5H14V5.2H19.2V8.7H21V14H22.7V15.7Z" fill="#21A038"/>
<path d="M0 12.2H12.2V0H0V12.2ZM1.7 1.7H10.4V10.4H1.7V1.7Z" fill="#21A038"/>
<path d="M31.5 0V12.2H43.7V0H31.5ZM42 10.5H33.3V1.7H42V10.5Z" fill="#21A038"/>
<path d="M8.7 3.5H3.5V8.7H8.7V3.5Z" fill="#21A038"/>
<path d="M40.2 3.5H35V8.7H40.2V3.5Z" fill="#21A038"/>
<path d="M17.5 7H14V8.7H15.7V10.5H17.5V7Z" fill="#21A038"/>
<path d="M12.2 14H8.70001V15.7H12.2V14Z" fill="#21A038"/>
<path d="M36.7 14H35V15.7H36.7V14Z" fill="#21A038"/>
<path d="M40.2 14H38.5V19.2H40.2V22.7H43.7V17.5H40.2V14Z" fill="#21A038"/>
<path d="M43.7 14H42V15.7H43.7V14Z" fill="#21A038"/>
<path d="M5.20001 15.7H1.70001V17.4H5.20001V15.7Z" fill="#21A038"/>
<path d="M8.7 15.7H7V17.4H8.7V15.7Z" fill="#21A038"/>
<path d="M1.7 17.5H0V19.2H1.7V17.5Z" fill="#21A038"/>
<path d="M12.2 17.5H10.5V19.2H12.2V17.5Z" fill="#21A038"/>
<path d="M7.00001 22.7V19.2H3.50001V21H1.70001V22.7H3.50001V24.5H5.20001V22.7H7.00001Z" fill="#21A038"/>
<path d="M10.4 19.2H8.70001V20.9H10.4V19.2Z" fill="#21A038"/>
<path d="M27.9 19.2H26.2V20.9H27.9V19.2Z" fill="#21A038"/>
<path d="M12.2 21H10.5V22.7H12.2V21Z" fill="#21A038"/>
<path d="M1.7 22.7H0V29.7H1.7V22.7Z" fill="#21A038"/>
<path d="M8.70001 24.5V22.7H7.00001V24.5H5.20001V26.2H7.00001V24.5H8.70001Z" fill="#21A038"/>
<path d="M12.2 24.5H10.5V26.2H12.2V24.5Z" fill="#21A038"/>
<path d="M36.7 24.5H33.2V26.2H36.7V24.5Z" fill="#21A038"/>
<path d="M43.7 24.5H40.2V26.2H43.7V24.5Z" fill="#21A038"/>
<path d="M8.7 26.2H7V27.9H8.7V26.2Z" fill="#21A038"/>
<path d="M5.2 28H3.5V29.7H5.2V28Z" fill="#21A038"/>
<path d="M12.2 28H8.70001V29.7H12.2V28Z" fill="#21A038"/>
<path d="M19.2 29.7H17.5V31.4H19.2V29.7Z" fill="#21A038"/>
<path d="M36.7 17.5H35V19.2H33.3V17.5H35V15.8H33.3V14H31.6V19.2H29.9V24.4H26.4V21H24.7V24.5H23V19.3H21V17.6H22.7V15.9H21V14H19.3V10.5H17.6V12.2H15.9V10.5H14V14H17.5V15.7H19.2V19.2H21V22.7H19.3V19.2H14V21H15.7V24.5H14V31.5H15.7V29.8H17.4V26.3H15.7V24.6H17.4V26.3H19.1V24.6H21V26.3H19.3V29.8H21V31.5H22.7V28H24.4V31.5H26.1V29.8H28V31.5H26.3V33.2H24.6V38.4H21V40.1H24.5V42H21V40.3H19.3V42H21V43.7H29.7V42H28V40.3H26.3V35H28V36.7H29.7V38.4H28V40.1H29.7V38.4H31.4V36.7H36.6V38.4H38.3V36.7H40V35H38.3V31.5H36.6V29.8H43.6V28H40.1V26.3H36.6V28H29.6V26.3H31.3V24.6H33V22.9H36.5V24.6H38.2V19.4H36.5V17.5H36.7ZM28 28H26.3V26.3H28V28ZM35 29.7V35H29.8V29.8H35V29.7Z" fill="#21A038"/>
<path d="M20.9 31.5H19.2V35H20.9V31.5Z" fill="#21A038"/>
<path d="M33.2 31.5H31.5V33.2H33.2V31.5Z" fill="#21A038"/>
<path d="M43.7 31.5H42V35H43.7V31.5Z" fill="#21A038"/>
<path d="M0 43.7H12.2V31.5H0V43.7ZM1.7 33.2H10.4V42H1.7V33.2Z" fill="#21A038"/>
<path d="M19.2 36.7H17.5V33.2H14V35H15.7V40.2H17.5V38.5H19.2V36.7Z" fill="#21A038"/>
<path d="M8.7 35H3.5V40.2H8.7V35Z" fill="#21A038"/>
<path d="M22.7 35H21V36.7H22.7V35Z" fill="#21A038"/>
<path d="M43.7 36.7H42V43.7H43.7V36.7Z" fill="#21A038"/>
<path d="M35 38.5H31.5V43.7H33.2V42H36.7V43.7H38.5V40.2H35V38.5Z" fill="#21A038"/>
<path d="M40.2 38.5H38.5V40.2H40.2V38.5Z" fill="#21A038"/>
<path d="M17.4 42H15.7V43.7H17.4V42Z" fill="#21A038"/>
</g>
<defs>
<clipPath id="clip0">
<rect width="43.7" height="43.7" fill="white"/>
</clipPath>
</defs>
</svg>
