<svg width="87" height="15" viewBox="0 0 87 15" fill="none" xmlns="http://www.w3.org/2000/svg">
<path fill-rule="evenodd" clip-rule="evenodd" d="M5.00195 1.19914H4.25634C3.12845 1.19914 2.03734 1.9545 2.03734 4.14719C2.03734 6.26592 3.03762 6.94848 4.25634 6.94848H5.00195V1.19856V1.19914ZM3.83784 8.12781L1.61884 13.176H0L2.43745 7.77722C1.29116 7.18667 0.527731 6.11857 0.527731 4.14661C0.527731 1.38259 2.25522 0 4.31038 0H6.40291V13.1771H5.00138V8.12781H3.83784Z" fill="#FF0000"/>
<path fill-rule="evenodd" clip-rule="evenodd" d="M33.6114 8.53256C33.6114 5.62062 34.7209 3.76047 36.8675 3.76047C37.6855 3.76047 38.1587 3.98178 38.5588 4.23978L38.3576 5.60257C37.9764 5.27177 37.4303 4.95844 36.8485 4.95844C35.8299 4.95844 35.1026 6.11914 35.1026 8.4586C35.1026 10.7812 35.6488 12.1078 36.7939 12.1078C37.4849 12.1078 38.0126 11.8312 38.3403 11.5371L38.668 12.6052C38.1759 13.0286 37.5941 13.3052 36.7577 13.3052C34.7934 13.3052 33.6109 11.7019 33.6109 8.53256H33.6114ZM29.4649 8.55003V13.1754H28.0461V3.88918H29.4649V8.18255L31.6655 3.88918H33.1027L30.8291 8.25593L33.4298 13.1754H31.8834L29.4649 8.5512V8.55003ZM22.7906 7.68519H25.1361C25.1361 6.09992 24.8814 4.93922 24.0628 4.93922C23.1902 4.93922 22.8809 6.02654 22.7901 7.6846L22.7906 7.68519ZM24.3543 13.3052C22.463 13.3052 21.2983 11.7753 21.2983 8.91985C21.2983 5.93453 22.1169 3.75989 24.0634 3.75989C25.5908 3.75989 26.5911 4.92117 26.5911 8.07189V8.86394H22.7722C22.7722 10.9646 23.3546 12.07 24.4819 12.07C25.2827 12.07 25.9191 11.7013 26.283 11.4433L26.6106 12.5487C26.0283 13.0088 25.2655 13.3041 24.3554 13.3041L24.3543 13.3052ZM18.3158 5.0493H16.7332V5.21586C16.7332 7.16861 16.6424 10.0246 15.8784 11.9966H18.3158V5.04988V5.0493ZM20.444 15H19.1707V13.1754H15.2426V15H13.9687V11.9966H14.532C15.3696 10.0246 15.4605 7.15114 15.4605 4.68181V3.88976H19.7151V11.9966H20.4429V15H20.444ZM13.15 3.88918V13.1754H11.7497V9.01129H9.63989V13.1754H8.22168V3.88918H9.64046V7.83195H11.7502V3.88918H13.1506H13.15Z" fill="black"/>
<path fill-rule="evenodd" clip-rule="evenodd" d="M47.5721 13.9365H48.4833V0.736084H47.5721V6.82787H43.6561V0.736666H42.7363V13.9365H43.6561V7.58556H47.5721V13.9365ZM52.8851 14.1211C54.4706 14.1211 55.6916 12.3116 55.6916 9.22906C55.6916 6.03466 54.4706 4.44765 52.8851 4.44765C51.2996 4.44765 50.0786 6.23791 50.0786 9.33971C50.0786 12.5149 51.2996 14.1211 52.8851 14.1211ZM52.8851 13.4193C51.8101 13.4193 50.9351 12.1823 50.9351 9.28438C50.9351 6.4598 51.8101 5.1669 52.8851 5.1669C53.9601 5.1669 54.8351 6.36662 54.8351 9.28438C54.8351 12.0903 53.9601 13.4193 52.8851 13.4193ZM59.2271 13.9365C60.9574 13.9365 62.106 13.0874 62.106 11.2593C62.106 10.1335 61.5771 9.35776 60.3929 9.00717C61.2863 8.60124 61.6864 7.82492 61.6864 6.88436C61.6864 5.40801 60.8126 4.63226 59.1903 4.63226H57.2587V13.9365H59.2271ZM59.1546 5.31482C60.2107 5.31482 60.8678 5.73997 60.8678 6.92105C60.8678 8.21395 60.1561 8.76722 59.1546 8.76722H58.0969V5.31482H59.1546ZM59.2087 9.41309C60.5389 9.41309 61.2495 9.96636 61.2495 11.3152C61.2495 12.7537 60.4113 13.272 59.2271 13.272H58.0969V9.41251H59.2087V9.41309ZM65.9692 14.1211C67.5558 14.1211 68.7757 12.3116 68.7757 9.22906C68.7757 6.03466 67.5552 4.44765 65.9703 4.44765C64.3837 4.44765 63.1632 6.23791 63.1632 9.33971C63.1632 12.5149 64.3842 14.1211 65.9697 14.1211H65.9692ZM65.9692 13.4193C64.8942 13.4193 64.0203 12.1823 64.0203 9.28438C64.0203 6.4598 64.8942 5.1669 65.9692 5.1669C67.0442 5.1669 67.9197 6.36662 67.9197 9.28438C67.9197 12.0903 67.0447 13.4193 65.9697 13.4193H65.9692ZM72.9124 13.364C71.4914 13.364 70.8533 11.8498 70.8533 9.30244C70.8533 6.68169 71.5086 5.18495 72.9124 5.18495C73.696 5.18495 74.2795 5.66542 74.6802 6.23791L74.917 5.31541C74.5158 4.81688 73.8593 4.44765 72.9119 4.44765C71.0349 4.44765 69.9961 6.23849 69.9961 9.30302C69.9961 12.3314 71.0539 14.1217 72.8935 14.1217C74.3335 14.1217 75.0079 13.088 75.0079 13.088L74.7342 12.3675C74.7342 12.3675 74.0961 13.3646 72.9119 13.3646L72.9124 13.364ZM80.8399 5.3521V4.6311H75.7374V5.3521H77.8701V13.9365H78.7267V5.3521H80.8399ZM86.1805 13.9365H86.9997V4.63168H86.2523L83.2647 11.1672C83.0819 11.5732 82.8997 11.9797 82.7721 12.4042H82.7174C82.7537 11.9966 82.7905 11.5912 82.7905 11.0927V4.63168H81.9885V13.9365H82.7174L85.7068 7.3823C85.9063 6.97638 86.0707 6.58851 86.1983 6.18258H86.2529" fill="black"/>
</svg>
