<svg width="40" height="40" viewBox="0 0 40 40" fill="none" xmlns="http://www.w3.org/2000/svg">
    <g clip-path="url(#a)" fill-rule="evenodd" clip-rule="evenodd" fill="#FF8541">
        <path d="M20 16.8a2.39 2.39 0 0 0 2.4-2.4A2.39 2.39 0 0 0 20 12a2.39 2.39 0 0 0-2.4 2.4 2.39 2.39 0 0 0 2.4 2.4z"/>
        <path d="M20 0C8.933 0 0 8.933 0 20s8.933 20 20 20 20-8.933 20-20S31.067 0 20 0zm0 8.267c3.467 0 6.133 2.8 6.133 6.133s-2.8 6-6 6C16.8 20.4 14 17.733 14 14.4c-.133-3.467 2.533-6.133 6-6.133zM24.933 27.6l.934.933c.666.667.666 1.867 0 2.534-.8.8-1.867.8-2.534 0-1.066-.934-2-2-2.933-2.934l-.267-.266-1.066 1.066c-.8.8-1.6 1.6-2.4 2.267-.8.667-1.734.667-2.534-.133a1.69 1.69 0 0 1 0-2.4l2.8-2.8c.134-.134.267-.267.534-.4-.8-.267-1.467-.534-2.134-.8-.666-.267-1.2-.534-1.733-1.067a1.806 1.806 0 0 1 0-2.267c.533-.666 1.467-.8 2.267-.4.933.534 2 .934 3.2 1.067 1.466.133 2.8 0 4.133-.667l.8-.4c.933-.533 2-.266 2.533.667.534.933.267 2-.666 2.533l-1.6.8c-.534.267-1.067.4-1.734.667.8.533 1.6 1.333 2.4 2z"/>
    </g>
    <defs>
        <clipPath id="a">
            <path fill="#fff" d="M0 0h40v40H0z"/>
        </clipPath>
    </defs>
</svg>
