<?xml version="1.0" encoding="UTF-8"?><!DOCTYPE svg PUBLIC "-//W3C//DTD SVG 1.1//EN" "http://www.w3.org/Graphics/SVG/1.1/DTD/svg11.dtd"><svg xmlns="http://www.w3.org/2000/svg" xmlns:xlink="http://www.w3.org/1999/xlink"><defs>
        <clipPath id="a">
            <path d="M0 0h17v17H0z"/>
        </clipPath>
    
        <clipPath id="a">
            <path d="M0 0h40v40H0z"/>
        </clipPath>
    
        <clipPath id="a">
            <path d="M0 0h20v20H0z"/>
        </clipPath>
    
        <clipPath id="a">
            <path d="M0 0h14v9H0z"/>
        </clipPath>
    
        <path id="a" d="M0 0h15v10.8H0z"/>
    
        <clipPath id="a">
            <path d="M0 0h17v17H0z"/>
        </clipPath>
    
        <path id="a" d="M0 0h15v15H0z"/>
    
        <clipPath id="a">
            <path d="M0 0h20v20H0z"/>
        </clipPath>
    
        <clipPath id="a">
            <path d="M0 0h18.667v20H0z"/>
        </clipPath>
    
        <clipPath id="a">
            <path d="M0 0h20v20H0z"/>
        </clipPath>
    
        <clipPath id="a">
            <path d="M0 0h20v20H0z"/>
        </clipPath>
    
        <clipPath id="a">
            <path d="M0 0h40v40H0z"/>
        </clipPath>
    </defs><symbol id="icon-Viber" viewBox="0 0 17 17">
    <path fill-rule="evenodd" clip-rule="evenodd" d="M14.096 2.349c1.256 1.096 1.952 3.52 1.481 7.359-.411 3.386-2.766 3.986-3.556 4.188a3.232 3.232 0 0 0-.184.05c-.214.068-2.093.54-4.539.334l-.243.282c-1.244 1.445-1.46 1.693-1.902 1.554-.41-.125-.387-.75-.387-.75l.003-1.54h-.003c-3.573-1.009-3.523-4.728-3.482-6.713.043-1.985.425-3.588 1.515-4.68C5.224.199 12.07.476 14.096 2.348zM5.51 15.555c.48-.486 2.029-2.358 2.029-2.358 2.074.134 3.726-.278 3.904-.336.041-.012.102-.027.175-.044.674-.158 2.545-.596 2.89-3.391 0-.014.005-.063.013-.142.083-.804.481-4.697-1.22-6.16-1.53-1.393-7.531-1.826-9.658.109-.922.913-1.235 2.27-1.268 3.928l-.004.176c-.037 1.696-.103 4.677 2.822 5.49l-.012 2.558c-.002.313.17.328.329.17zM8.396 3.981c-.252-.004-.252-.385 0-.385 2.193.014 3.958 1.534 3.98 4.154.003.257-.384.26-.384.004-.017-2.432-1.634-3.759-3.596-3.773zm2.58 3.37c-.005.253.382.265.385.008.032-1.445-.886-2.635-2.614-2.76-.252-.018-.278.367-.026.385 1.498.11 2.287 1.101 2.256 2.367zM9.773 9.105c.136-.178.467-.292.791-.11.438.247.994.633 1.363.981.209.17.256.43.113.706v.004c-.32.567-.922 1.194-1.54.995l-.007-.01c-.628-.176-2.108-.94-3.042-1.687C5.806 8.681 5.096 7.03 4.706 6.125a7.796 7.796 0 0 0-.208-.459c-.199-.621.424-1.225.991-1.547h.006c.273-.144.536-.096.71.117.042.055.093.114.153.186.184.217.46.542.826 1.184.182.325.07.657-.11.795l-.356.286c-.181.146-.158.418-.158.418s.53 2.009 2.51 2.516c0 0 .272.025.416-.158l.286-.358zM9.019 6.02c.63.035.937.356.97 1.012.011.257.395.239.384-.017-.043-.858-.504-1.335-1.333-1.38-.254-.015-.277.37-.021.386V6.02z"/>
</symbol><symbol id="icon-WhatsApp" viewBox="0 0 17 17">
    <g clip-path="url(#a)">
        <path fill-rule="evenodd" clip-rule="evenodd" d="M13.92 3.074A7.585 7.585 0 0 0 8.531.85C4.332.85.915 4.25.914 8.431c0 1.336.35 2.64 1.017 3.79L.85 16.15l4.038-1.054a7.637 7.637 0 0 0 3.64.922h.004c4.2 0 7.616-3.4 7.618-7.58 0-2.026-.79-3.931-2.23-5.364zM8.531 14.738H8.53a6.346 6.346 0 0 1-3.224-.878l-.23-.137-2.398.626.64-2.326-.15-.238A6.263 6.263 0 0 1 2.2 8.431c.001-3.474 2.842-6.3 6.335-6.3 1.691 0 3.28.656 4.476 1.848a6.247 6.247 0 0 1 1.853 4.457c-.002 3.475-2.842 6.302-6.333 6.302zm3.474-4.72c-.19-.094-1.126-.552-1.3-.615-.175-.064-.302-.095-.429.094-.127.19-.492.617-.603.743-.11.127-.221.142-.412.047-.19-.095-.804-.294-1.53-.94a5.68 5.68 0 0 1-1.06-1.312c-.11-.19-.011-.292.084-.387.085-.085.19-.22.285-.331.096-.11.127-.19.19-.316.064-.127.032-.238-.015-.332-.048-.095-.428-1.028-.587-1.407-.155-.37-.312-.32-.428-.325a7.72 7.72 0 0 0-.366-.007.701.701 0 0 0-.507.238c-.174.189-.667.648-.667 1.58s.683 1.833.778 1.96c.095.126 1.343 2.04 3.251 2.86.455.195.81.312 1.086.4.456.144.871.123 1.198.074.366-.054 1.127-.458 1.286-.901.158-.442.158-.821.11-.901-.047-.08-.173-.127-.364-.221z"/>
    </g>
    
</symbol><symbol id="icon-actions" viewBox="0 0 13 13">
    <path d="M3.157 6.314A3.131 3.131 0 0 1 0 3.157 3.131 3.131 0 0 1 3.157 0a3.131 3.131 0 0 1 3.157 3.157 3.131 3.131 0 0 1-3.157 3.157zm0-4.457c-.743 0-1.3.557-1.3 1.3s.557 1.3 1.3 1.3 1.3-.557 1.3-1.3-.557-1.3-1.3-1.3zM9.843 13a3.131 3.131 0 0 1-3.157-3.157 3.131 3.131 0 0 1 3.157-3.157A3.131 3.131 0 0 1 13 9.843 3.131 3.131 0 0 1 9.843 13zm0-4.457c-.743 0-1.3.557-1.3 1.3s.557 1.3 1.3 1.3 1.3-.557 1.3-1.3-.557-1.3-1.3-1.3zm-7.707 3.714L12.164 2.23a.898.898 0 0 0 0-1.3.898.898 0 0 0-1.3 0L.836 10.864a.898.898 0 0 0 0 1.3.994.994 0 0 0 1.3.093c0-.093 0-.093 0 0z" fill="currentColor"/>
</symbol><symbol id="icon-add-basket" viewBox="0 0 21 23">
    <path d="M17.784 13l-.892-4.397A2 2 0 0 0 14.932 7H4.67A2 2 0 0 0 2.69 8.704l-1.004 6.704A4 4 0 0 0 5.643 20H11"/>
    <path d="M6.5 8.3V4.945C6.5 3.35 8 2 10 2s3.5 1.35 3.5 2.945V8.3"/>
    <path fill-rule="evenodd" clip-rule="evenodd" d="M15 23a6 6 0 1 0 0-12 6 6 0 0 0 0 12zm-.41-5.248v2.59h1.176v-2.59h2.583v-1.176h-2.583V14H14.59v2.576H12v1.176h2.59z"/>
</symbol><symbol id="icon-arrow-bottom" viewBox="0 0 8 5">
    <path fill-rule="evenodd" clip-rule="evenodd" d="M.293 1.879A1 1 0 1 1 1.707.464l2.121 2.122L5.95.464A1 1 0 0 1 7.364 1.88L4.542 4.7a1 1 0 0 1-1.42.006L.291 1.879z"/>
</symbol><symbol id="icon-arrow-left" viewBox="0 0 5 8">
    <path fill-rule="evenodd" clip-rule="evenodd" d="M3.293 7.364A1 1 0 0 0 4.707 5.95L2.586 3.828l2.121-2.12A1 1 0 1 0 3.293.292L.471 3.115a1 1 0 0 0-.006 1.42l2.828 2.829z"/>
</symbol><symbol id="icon-arrow-link-bottom" viewBox="0 0 13 8">
    <path class="st0" d="M6.4 7.8L0 1.4 1.4 0l5 4.9L11.3 0l1.4 1.4z"/>
</symbol><symbol id="icon-arrow-link-left" viewBox="0 0 15 26">
    <path fill-rule="evenodd" clip-rule="evenodd" d="M15 .873L13.925 0 1.075 12.006 0 13l1.075.994 12.85 11.885L15 24.886 2.19 13 15 .873z"/>
</symbol><symbol id="icon-arrow-link-right" viewBox="0 0 15 26">
    <path fill-rule="evenodd" clip-rule="evenodd" d="M0 25.127L1.075 26l12.85-12.006L15 13l-1.075-.994L1.075.121 0 1.114 12.81 13 0 25.127z"/>
</symbol><symbol id="icon-arrow-link-top" viewBox="0 0 13 8">
    <path class="st0" d="M11.3 7.8l-4.9-5-5 5L0 6.4 6.4 0l6.3 6.4z"/>
</symbol><symbol id="icon-arrow-long-left" viewBox="0 0 12 8">
    <path d="M.646 3.646a.5.5 0 0 0 0 .708l3.182 3.182a.5.5 0 1 0 .708-.708L1.707 4l2.829-2.828a.5.5 0 1 0-.708-.708L.646 3.646zM12 3.5H1v1h11v-1z"/>
</symbol><symbol id="icon-arrow-right" viewBox="0 0 5 8">
    <path fill-rule="evenodd" clip-rule="evenodd" d="M1.707 7.364A1 1 0 0 1 .293 5.95l2.121-2.122-2.121-2.12A1 1 0 0 1 1.707.292l2.822 2.822.006.006a1 1 0 0 1 0 1.415L1.707 7.364z"/>
</symbol><symbol id="icon-arrow-top" viewBox="0 0 12 16">
    <path fill-rule="evenodd" clip-rule="evenodd" d="M.697 5.243L5.47.47a.75.75 0 0 1 1.06 0l4.773 4.773a.75.75 0 0 1-1.06 1.06L6.75 2.811V15a.75.75 0 0 1-1.5 0V2.81L1.757 6.304a.75.75 0 0 1-1.06-1.06z"/>
</symbol><symbol id="icon-basket" viewBox="0 0 16.7 18.8">
    <path d="M12.7 18.8H4c-1.2 0-2.3-.5-3-1.4-.8-.9-1.1-2-.9-3.2l1.1-7.7c.1-1 1-1.7 2-1.7h10.2c1 0 1.8.7 2 1.7l1.3 7.7c.2 1.2-.1 2.4-.9 3.3-.8.7-2 1.3-3.1 1.3zM2.6 6.7l-1.1 7.7c-.1.7.1 1.4.6 2 .5.5 1.2.9 1.9.9h8.7c.7 0 1.4-.3 1.9-.9.5-.6.7-1.3.5-2l-1.3-7.7c0-.2-.2-.4-.5-.4H3.1c-.3 0-.5.1-.5.4z"/>
    <path d="M11.9 7.8c-.4 0-.8-.3-.8-.8V3.7c0-1.2-1.2-2.2-2.8-2.2s-2.8 1-2.8 2.2V7c0 .4-.3.8-.8.8s-.5-.3-.5-.8V3.7C4.2 1.6 6 0 8.4 0c2.4 0 4.3 1.6 4.3 3.7V7c0 .5-.4.8-.8.8z"/>
</symbol><symbol id="icon-cadesign" viewBox="0 0 10 19">
    <title>
        facebook
    </title>
    <path d="M9.766.157v2.946H8.014c-.64 0-1.071.134-1.295.402-.223.268-.335.67-.335 1.205v2.11h3.27l-.435 3.303H6.384v8.471H2.97v-8.47H.123V6.82H2.97V4.387c0-1.384.387-2.457 1.161-3.22C4.904.404 5.934.023 7.222.023c1.093 0 1.941.045 2.544.134z" fill-rule="evenodd"/>
</symbol><symbol id="icon-cart" viewBox="0 0 40 40">
    <g clip-path="url(#a)" fill-rule="evenodd" clip-rule="evenodd">
        <path d="M-.093.889a1 1 0 0 1 1-1h4.717c1.289 0 2.458.964 2.622 2.28l.7 4.209h28.242c1.68 0 3.082 1.504 2.802 3.288v.007l-2.718 15.8c-.17 1.469-1.494 2.372-2.805 2.372H10.491L6.266 2.45l-.003-.026c-.03-.269-.305-.535-.64-.535H.908a1 1 0 0 1-1-1zM9.28 8.378l2.906 17.466h22.282c.492 0 .79-.326.82-.612l.003-.034L38.015 9.35a.845.845 0 0 0-.827-.972H9.28z"/>
        <path d="M10.25 27.667c-1.19 0-2.175.993-2.175 2.11 0 1.118.984 2.112 2.174 2.112h26.304a1 1 0 0 1 0 2H10.25c-2.256 0-4.174-1.851-4.174-4.111s1.918-4.111 4.174-4.111h1.724a1 1 0 1 1 0 2h-1.724z"/>
        <path d="M15.057 34.333c-1.12 0-1.994.885-1.994 1.934 0 1.048.874 1.933 1.994 1.933s1.993-.885 1.993-1.933c0-1.05-.873-1.934-1.993-1.934zm-3.994 1.934c0-2.192 1.807-3.934 3.994-3.934 2.186 0 3.993 1.742 3.993 3.934 0 2.191-1.807 3.933-3.993 3.933-2.187 0-3.994-1.742-3.994-3.933z"/>
        <path d="M32.29 34.333c-1.12 0-1.993.885-1.993 1.934 0 1.048.873 1.933 1.993 1.933s1.993-.885 1.993-1.933c0-1.05-.873-1.934-1.993-1.934zm-3.993 1.934c0-2.192 1.807-3.934 3.993-3.934 2.187 0 3.993 1.742 3.993 3.934 0 2.191-1.806 3.933-3.993 3.933-2.186 0-3.993-1.742-3.993-3.933z"/>
        <path d="M23.674 11.711a1 1 0 0 1 1 1v9.333a1 1 0 0 1-2 0v-9.333a1 1 0 0 1 1-1z"/>
        <path d="M15.756 11.807a1 1 0 0 1 1.11.876l1.089 9.244a1 1 0 0 1-1.987.234l-1.088-9.244a1 1 0 0 1 .876-1.11z"/>
        <path d="M31.59 11.807a1 1 0 0 1 .877 1.11l-1.088 9.244a1 1 0 0 1-1.987-.234l1.089-9.244a1 1 0 0 1 1.11-.876z"/>
    </g>
    
</symbol><symbol id="icon-check-mark" viewBox="0 0 18 18">
    <path d="M16.145 2.571a.7.7 0 0 0-.99 0L6.92 10.804l-4.241-4.27a.698.698 0 0 0-.989 0L.204 8.019a.703.703 0 0 0 0 .99l6.217 6.258a.704.704 0 0 0 .99 0L17.63 5.047a.7.7 0 0 0 0-.994l-1.485-1.482z"/>
</symbol><symbol id="icon-check" viewBox="0 0 15 10">
    <path fill-rule="evenodd" clip-rule="evenodd" d="M1.59 0L0 1.514l7.33 6.972L8.92 10l1.591-1.514L15 4.216l-1.59-1.513-4.49 4.27L1.59 0z"/>
</symbol><symbol id="icon-clip" viewBox="0 0 15 13">
    <path d="M10.371.16c2.215-.005 3.971 1.743 3.963 3.887-.004 1.066-.38 1.992-1.132 2.748-1.992 2-3.988 3.991-5.983 5.983-.22.219-.533.227-.732.025-.198-.203-.186-.509.037-.732 1.959-1.958 3.913-3.917 5.872-5.871.459-.459.756-.996.876-1.636.28-1.525-.797-3.074-2.326-3.335-1.009-.17-1.885.1-2.608.822-2.107 2.1-4.21 4.203-6.309 6.31-.926.925-.678 2.405.492 2.913.669.293 1.31.198 1.863-.281.364-.314.69-.67 1.029-1.008 1.67-1.67 3.339-3.339 5.008-5.004.198-.198.293-.421.21-.698a.633.633 0 0 0-1.016-.294 3.337 3.337 0 0 0-.124.12 3356.523 3356.523 0 0 0-5.433 5.425c-.128.128-.269.228-.463.207a.47.47 0 0 1-.413-.306.483.483 0 0 1 .09-.52c.154-.162.315-.314.472-.471C5.438 6.749 7.132 5.055 8.83 3.36c.587-.586 1.446-.69 2.111-.26.798.512.96 1.657.335 2.405a1.112 1.112 0 0 1-.115.124c-1.996 1.995-3.992 4-5.996 5.991a2.747 2.747 0 0 1-3.681.198C.227 10.815.095 8.906 1.23 7.758c2.153-2.17 4.318-4.33 6.483-6.487.752-.74 1.67-1.1 2.657-1.112z"/>
</symbol><symbol id="icon-clock" viewBox="0 0 20 20">
    <g clip-path="url(#a)" fill="currentColor">
        <path d="M9.918 0C5.098 0 .934 3.393.016 8.084A1.236 1.236 0 0 0 1 9.53a1.247 1.247 0 0 0 1.459-.974c.688-3.523 3.82-6.087 7.459-6.087 4.197 0 7.606 3.376 7.606 7.532 0 4.156-3.41 7.532-7.606 7.532a7.769 7.769 0 0 1-2.525-.422 1.258 1.258 0 0 0-1.59.747 1.24 1.24 0 0 0 .754 1.575c1.082.373 2.213.568 3.36.568C15.476 20 20 15.52 20 10.016 20 4.513 15.475 0 9.918 0z"/>
        <path d="M11.328 10.91l3.393-2.615-.278-.649-4.263.682c-.082-.016-.164-.033-.262-.033-.934 0-1.689.747-1.689 1.673 0 .925.755 1.672 1.689 1.672a1.641 1.641 0 0 0 1.41-.73z"/>
        <path d="M3.557 17.289c.68 0 1.23-.545 1.23-1.218 0-.672-.55-1.217-1.23-1.217-.679 0-1.23.545-1.23 1.217 0 .673.551 1.218 1.23 1.218z"/>
        <path d="M1.344 13.344c.68 0 1.23-.545 1.23-1.217 0-.673-.55-1.218-1.23-1.218-.679 0-1.23.545-1.23 1.218 0 .672.551 1.217 1.23 1.217z"/>
    </g>
    
</symbol><symbol id="icon-close" viewBox="0 0 13 13">
    <path d="M.178 11.675l1.251 1.224L6.496 7.72l5.179 5.067 1.199-1.226-5.178-5.067 5.091-5.203-1.25-1.224L6.444 5.27 1.266.203.066 1.43l5.18 5.067-5.068 5.179z"/>
</symbol><symbol id="icon-copy" viewBox="0 0 14 14">
    <path fill-rule="evenodd" clip-rule="evenodd" d="M6.533 5.203a1.6 1.6 0 0 0 0 2.263l.003.001L5.404 8.6l-.002-.002a3.2 3.2 0 0 1 0-4.526L7.665 1.81a3.2 3.2 0 0 1 4.525 4.525l-.76.76-1.13-1.132.76-.76a1.6 1.6 0 0 0-2.263-2.262L6.533 5.203zM7.47 8.79a1.6 1.6 0 0 0 .004-2.259L8.605 5.4A3.2 3.2 0 0 1 8.6 9.92l-2.263 2.262A3.199 3.199 0 1 1 1.81 7.657l2.263-2.263c.045-.044.09-.088.137-.13l-1.83 1.832L3.51 8.224l-.565.565a1.6 1.6 0 1 0 2.262 2.263L7.47 8.789z"/>
</symbol><symbol id="icon-cross" viewBox="0 0 16 16">
    <path fill-rule="evenodd" clip-rule="evenodd" d="M16 2.34L13.66 0 8 5.66 2.34 0 0 2.34 5.66 8 0 13.66 2.34 16 8 10.34 13.66 16 16 13.66 10.34 8 16 2.34z"/>
</symbol><symbol id="icon-double-arrow-bottom" viewBox="0 0 10 10">
    <path fill-rule="evenodd" clip-rule="evenodd" d="M4.343 5.38c.343.327.971.327 1.314 0l4.057-3.858a.888.888 0 0 0 0-1.25c-.343-.326-.971-.326-1.314 0L4.971 3.478 1.6.272C1.257-.054.629-.054.286.272a.888.888 0 0 0 0 1.25L4.343 5.38z" fill="currentColor"/>
    <path fill-rule="evenodd" clip-rule="evenodd" d="M4.343 9.728c.343.326.971.326 1.314 0L9.714 5.87a.888.888 0 0 0 0-1.25c-.343-.327-.971-.327-1.314 0L5.029 7.826 1.6 4.62c-.343-.327-.971-.327-1.314 0a.888.888 0 0 0 0 1.25l4.057 3.858z" fill="currentColor"/>
</symbol><symbol id="icon-download-v2" viewBox="0 0 20 20">
    <path fill-rule="evenodd" clip-rule="evenodd" d="M4 9.867c.2.333.4.6.667.8L8.8 14.8c.2.2.467.467.734.667.333.2.666.266 1.066 0 .2-.134.334-.267.534-.4l3-3c.466-.467.933-.934 1.4-1.467.333-.333.6-.667.733-1.133.2-.6-.067-1.067-.733-1.267-.2-.067-.334-.067-.534-.067h-1.6c-.133 0-.2-.066-.2-.2v-7.2c0-.466-.266-.733-.733-.733h-4.8c-.467 0-.733.267-.733.733V8c0 .133 0 .2-.2.2h-.667c-.467 0-.933-.067-1.333.067-.667.133-1 .6-.867 1.266-.067 0 0 .2.133.334z" fill="currentColor"/>
    <path fill-rule="evenodd" clip-rule="evenodd" d="M19.267 16.867H.733c-.466 0-.733.266-.733.733v1.667C0 19.8.267 20 .733 20h18.534c.466 0 .733-.267.733-.667v-1.666c0-.534-.2-.8-.733-.8z" fill="currentColor"/>
</symbol><symbol id="icon-exit" viewBox="0 0 15 15">
    <path d="M6.176 14.16c0 .3-.33.563-.661.563H.662c-.353 0-.662-.263-.662-.563V1.407c0-.3.309-.562.662-.562h4.853c.353 0 .661.262.661.562 0 .3-.33.563-.661.563H1.324v11.627h4.19c.354 0 .662.263.662.563z"/>
    <path d="M15 7.783a.592.592 0 0 1-.177.394l-3.529 3.188c-.242.188-.706.263-.97.056a.528.528 0 0 1 0-.825l2.492-2.25H3.75c-.375 0-.662-.244-.662-.563 0-.319.287-.563.662-.563h9.066L10.323 4.99c-.22-.188-.264-.62 0-.825.265-.207.729-.15.971.056l3.53 3.188c.11.112.176.225.176.375z"/>
</symbol><symbol id="icon-eye" viewBox="0 0 14 9">
    <g clip-path="url(#a)">
        <path d="M0 4.473c.137-.227.27-.454.415-.677.732-1.151 1.683-2.1 2.886-2.798A7.251 7.251 0 0 1 6.242.037c2.128-.207 3.986.417 5.605 1.741.903.739 1.6 1.634 2.14 2.65a.161.161 0 0 1 0 .14c-.77 1.436-1.84 2.616-3.292 3.45a7.134 7.134 0 0 1-2.907.94c-2.128.207-3.986-.416-5.605-1.741A8.573 8.573 0 0 1 .111 4.7C.077 4.638.034 4.58 0 4.522v-.05zm7.021-2.79C5.424 1.675 4.12 2.925 4.093 4.49c-.026 1.535 1.301 2.819 2.916 2.827 1.596.008 2.902-1.242 2.928-2.806.026-1.535-1.302-2.818-2.916-2.827z"/>
        <path d="M7.021 2.81c.964.005 1.747.764 1.747 1.692 0 .937-.796 1.696-1.768 1.688-.963-.008-1.747-.771-1.738-1.7.004-.928.796-1.684 1.76-1.68z"/>
    </g>
    
</symbol><symbol id="icon-fier" viewBox="0 0 13 15">
    <path class="st0" d="M6.5 15.1C2.9 15.1 0 12.3 0 8.9c0-1.1.6-2.6 1.2-3.6.2-.3.4-.6.6-.8l.7-.7.1.2.7-.2V5c.2.2.3.3.5.4.1.2.2.2.3.2h.1c.1-.1.1-.1.1-.2.1-.3 0-.9-.1-1.7-.1-.9.2-1.8 1-2.5.3-.3.7-.6 1.1-.8.1 0 .2-.1.3-.1l.5-.3.3.6c.2.2.3.4.5.6.5.9 1.1 1.6 1.7 2.2l.2.2c1.8 1.7 3.2 3 3.2 5.3 0 3.4-2.9 6.2-6.5 6.2zM2.3 6.3c-.4.8-.8 1.9-.8 2.6 0 2.6 2.2 4.7 5 4.7s5-2.1 5-4.7c0-1.6-1.1-2.6-2.7-4.2l-.3-.2C7.9 3.8 7.2 3 6.6 2.1c0 0 0-.1-.1-.1l-.2.2c-.5.4-.7.9-.6 1.3.2 1 .2 1.7.1 2.2-.1.3-.2.6-.4.9-.1.2-.3.3-.5.4-.2.1-.3.1-.4.1h-.2-.1l-.2.1c-.1 0-.2 0-.3-.1-.3-.1-.5-.2-.7-.3-.3-.2-.5-.3-.7-.5zm.4-1v-.2.2z"/>
</symbol><symbol id="icon-filter" viewBox="0 0 20 20">
    <path d="M.976 6.35h1.149a4.371 4.371 0 0 0 8.521 0h8.374a.977.977 0 0 0 0-1.952h-8.37a4.372 4.372 0 0 0-5.24-3.285 4.366 4.366 0 0 0-3.285 3.285H.976a.977.977 0 0 0 0 1.953zm5.41-3.397a2.417 2.417 0 1 1 0 4.833 2.417 2.417 0 0 1 0-4.833z" fill="currentColor"/>
    <path d="M19.024 13.412h-1.149a4.371 4.371 0 0 0-8.521 0H.976a.977.977 0 0 0 0 1.952H9.35a4.371 4.371 0 0 0 8.522 0h1.148a.977.977 0 0 0 .004-1.952zm-5.413 3.397a2.417 2.417 0 1 1-.002-4.833 2.417 2.417 0 0 1 .002 4.833z" fill="currentColor"/>
</symbol><symbol id="icon-geolocation" viewBox="0 0 12 15">
    <path fill-rule="evenodd" clip-rule="evenodd" d="M5.8 15c-1.3-1.6-2.7-3-3.9-4.6-.7-.9-1.3-1.9-1.6-3-.5-2-.2-3.9 1.2-5.5.9-1 2-1.6 3.3-1.8C6-.1 7.4 0 8.6.7c1.5.8 2.4 2.1 2.8 3.8.4 1.8 0 3.4-.9 4.9-.7 1.1-1.5 2-2.3 2.9-.8.9-1.6 1.8-2.4 2.6v.1zm0-7.2c1.3 0 2.4-1.1 2.4-2.4C8.2 4.1 7.1 3 5.9 3 4.6 3 3.5 4 3.5 5.4c-.1 1.3 1 2.4 2.3 2.4z"/>
</symbol><symbol id="icon-hamb-mobile" viewBox="0 0 20 16">
    <path class="st0" d="M19 16H1c-.6 0-1-.4-1-1s.4-1 1-1h18c.6 0 1 .4 1 1s-.4 1-1 1z"/>
    <path class="st0" d="M13 9H1c-.6 0-1-.4-1-1s.4-1 1-1h12c.6 0 1 .4 1 1s-.4 1-1 1z"/>
    <path class="st0" d="M19 2H1c-.6 0-1-.4-1-1s.4-1 1-1h18c.6 0 1 .4 1 1s-.4 1-1 1z"/>
</symbol><symbol id="icon-hamburger" viewBox="0 0 20 14">
    <path class="st0" d="M0 0h20v2H0z"/>
    <path class="st0" d="M0 6h20v2H0z"/>
    <path class="st0" d="M0 12h20v2H0z"/>
</symbol><symbol id="icon-handshake" viewBox="0 0 36 33">
    <path d="M18.033 3.823c.346-.352.636-.653.932-.949C20.11 1.707 21.476.954 23.09.719c2.299-.33 4.336.274 6.015 1.898 1.563 1.513 3.092 3.065 4.62 4.617 1.189 1.211 1.847 2.68 1.976 4.376.173 2.255-.575 4.159-2.17 5.739-.185.184-.38.362-.548.558-.044.055-.067.195-.028.25.653.916.452 2.569-.457 3.367-.558.486-1.189.787-1.93.843-.246.017-.341.1-.352.368-.04 1.424-1.206 2.64-2.623 2.752-.279.023-.435.09-.469.419-.106 1.016-.636 1.775-1.551 2.227-.625.307-1.289.324-1.959.162-.206-.05-.329-.017-.463.173-.798 1.167-1.875 2.082-2.862 3.076-1.088 1.088-2.885 1.1-3.996.39-.641-.413-1.032-1.01-1.25-1.724-.072-.224-.184-.313-.407-.374-1.562-.424-2.69-1.312-3.063-2.976-.023-.095-.145-.223-.24-.24-1.412-.245-2.31-1.088-2.69-2.433-.15-.542-.362-.782-.926-.944-1.4-.402-2.288-1.367-2.522-2.824-.067-.408-.235-.67-.502-.938-.787-.77-1.574-1.546-2.344-2.34-1.1-1.127-1.752-2.483-1.93-4.052-.263-2.26.373-4.237 1.958-5.872a172.218 172.218 0 0 1 4.743-4.728C8.492 1.177 10.17.585 12.074.63c1.914.039 3.538.748 4.894 2.093.346.346.68.704 1.065 1.1zm-6.115-1.786c-1.585.01-2.941.575-4.057 1.685a544.179 544.179 0 0 0-4.397 4.4c-2.288 2.316-2.271 5.855.028 8.155l2.131 2.132c.257.257.257.251.52-.005 1.054-1.022 2.103-2.055 3.163-3.065.731-.698 1.613-.899 2.578-.648 1.217.313 2.165 1.524 2.221 2.78.017.402.017.402.435.408.179.005.357 0 .525.039 1.272.268 2.143 1.217 2.327 2.529.022.161.083.217.245.234a3.233 3.233 0 0 1 2.935 2.992c.012.173.073.235.246.257a3.25 3.25 0 0 1 1.434.57c.72.507 1.066 1.238 1.283 2.059.028.106.09.262.173.29.82.29 1.752.09 1.987-.988.078-.357.09-.72-.201-1.016a4543.685 4543.685 0 0 1-5.162-5.292c-.513-.524-1.026-1.049-1.534-1.58-.251-.262-.29-.54-.134-.842.134-.268.396-.447.714-.346.262.083.508.29.709.49 2.143 2.184 4.274 4.377 6.417 6.566a.894.894 0 0 0 .48.24c.49.083.943-.056 1.328-.363a1.307 1.307 0 0 0 .095-1.954 5551.56 5551.56 0 0 1-5.759-5.805c-.251-.252-.502-.497-.742-.76a.738.738 0 0 1-.117-.803c.14-.274.362-.375.664-.375.262 0 .43.151.591.319 2.11 2.127 4.213 4.253 6.322 6.38.09.09.196.207.307.223.681.118 1.306 0 1.853-.457.396-.33.53-1.24.1-1.675-3.035-3.042-6.037-6.112-9.045-9.183-.178-.178-.273-.095-.402.034-1.099 1.072-2.193 2.149-3.303 3.21-1.39 1.323-3.024 1.898-4.927 1.44-1.088-.257-2.015-.82-2.673-1.747-.541-.76-.48-1.474.145-2.15.33-.351.675-.692 1.016-1.038 1.467-1.468 2.935-2.93 4.408-4.393.15-.15.173-.246.005-.402-.306-.285-.591-.592-.892-.882-1.122-1.083-2.467-1.652-4.04-1.663zm22.41 10.165c0-.073.005-.151 0-.223-.007-.084-.029-.168-.034-.246-.095-1.346-.614-2.507-1.546-3.461a362.94 362.94 0 0 0-4.631-4.639A5.393 5.393 0 0 0 24.6 2.065c-1.73-.112-3.247.457-4.48 1.674-2.54 2.512-5.05 5.046-7.584 7.57-.206.206-.212.368-.028.569a3.39 3.39 0 0 0 2.333 1.161c1.2.095 2.198-.352 3.046-1.172 1.312-1.267 2.617-2.54 3.923-3.807.424-.413.776-.413 1.2.005.38.38.759.765 1.138 1.15 2.511 2.551 5.017 5.108 7.522 7.665.134.134.218.128.34 0 .23-.24.48-.47.709-.715 1.05-1.116 1.574-2.445 1.607-3.963zM19.165 23.947c.006-.871-.642-1.68-1.445-1.842-.34-.067-.642-.017-.915.256a326.747 326.747 0 0 1-3.694 3.679.505.505 0 0 0-.162.519c.195.949.831 1.468 1.685 1.809.39.156.653.089.943-.224a166.381 166.381 0 0 1 3.22-3.36c.262-.257.385-.536.368-.837zm-4.737-4.65c-.436-.006-.837.05-1.172.385-.977.966-1.947 1.948-2.974 2.858-.475.419-.486.815-.274 1.317l.028.078c.285.776.837 1.212 1.652 1.295a.518.518 0 0 0 .368-.122 597.331 597.331 0 0 0 3.767-3.768.576.576 0 0 0 .156-.285c.14-1.033-.67-1.859-1.551-1.758zm-1.691-1.62c-.067-.24-.106-.49-.207-.714-.474-1.01-1.55-1.267-2.31-.541-1.171 1.116-2.32 2.255-3.487 3.377a.487.487 0 0 0-.145.502c.212.905 1.049 1.647 1.975 1.709.134.01.307-.073.413-.168 1.105-1.05 2.193-2.121 3.303-3.165.296-.285.43-.592.458-1zm5.335 13.331c.396.022.792-.078 1.082-.368.87-.86 1.746-1.72 2.572-2.63.603-.67.597-1.038.157-1.825-.006-.006-.012-.017-.017-.022-.268-.492-.703-.743-1.228-.815-.184-.023-.452.05-.58.184-1.228 1.245-2.433 2.512-3.638 3.779-.062.067-.106.206-.084.29.218.787.636 1.396 1.736 1.407z"/>
</symbol><symbol id="icon-heart" viewBox="0 0 20 17.8">
    <path class="st0" d="M14.4 0c-1.7 0-3.2.7-4.3 2C9 .7 7.5 0 5.8 0 2.6 0 0 2.8 0 6.3c0 7.1 9.7 11.4 9.8 11.4.1 0 .2.1.3.1.1 0 .2 0 .3-.1.1 0 9.8-4.3 9.8-11.4.1-3.5-2.5-6.3-5.8-6.3zM5.8 1.6c1.5 0 2.8.8 3.7 2.2.1.2.4.4.7.4s.6-.2.7-.4c.7-1.4 2.1-2.2 3.6-2.2 2.4 0 4.2 2 4.2 4.7 0 5.4-7 9-8.6 9.8-1.6-.8-8.6-4.4-8.6-9.8.1-2.7 1.9-4.7 4.3-4.7z"/>
</symbol><symbol id="icon-home" viewBox="0 0 21 19">
    <path d="M20.564 9.347l-8.95-8.57-.6-.574A.746.746 0 0 0 10.5 0a.746.746 0 0 0-.514.203L.436 9.347c-.14.134-.251.293-.326.469a1.366 1.366 0 0 0-.11.552c.01.781.688 1.405 1.503 1.405h.985V19h16.024v-7.227h1.005c.397 0 .77-.149 1.05-.417.138-.132.247-.289.322-.461a1.383 1.383 0 0 0-.324-1.547zm-8.767 8.055H9.203v-4.526h2.594v4.526zm5.047-7.227v7.227H13.28v-5.059c0-.49-.415-.887-.927-.887H8.647c-.512 0-.927.397-.927.887v5.06H4.156v-7.228H1.932l8.57-8.203.535.512 8.033 7.691h-2.226z"/>
</symbol><symbol id="icon-jersey" viewBox="0 0 80 64">
    <path class="st0" d="M78.8 45h-15v-7.2c0-.6-.6-1.2-1.2-1.2h-1.4v-7.2c2.4-2.2 5-4.8 6-6 .4-.4.5-1 .2-1.4-1-2.5-9.4-12.4-11.1-14.4C51.9 2.2 42.4.1 42 0c-.3-.1-.7 0-1 .2-1.5 1-4.2 1.7-7 1.7s-5.5-.6-7-1.7c-.3-.2-.7-.3-1-.2-.4.1-10 2.2-14.5 7.5-1.7 2-10 11.9-11.2 14.6-.2.5-.1 1 .2 1.4 2.2 2.2 9.5 9.6 11.2 10.2.5.2 1 .1 1.4-.3l.5-.5v24.5c0 .7.6 1.3 1.3 1.3h22.2v3.7c0 .6.6 1.2 1.2 1.2H79c.6 0 1.2-.6 1.2-1.2V46.2c-.2-.6-.7-1.2-1.4-1.2zm-41.9-7.1v18.3H16V30c0-.6-.3-1-.8-1.2-.5-.2-1-.1-1.4.2l-1.9 1.9c-1.4-1.2-5.1-4.6-9-8.6 1.6-2.6 6.6-8.6 10.3-13.2 3.4-4 10.3-5.9 12.5-6.5 2 1.2 4.9 1.8 8.1 1.8s6.1-.6 8.1-1.8c2.2.6 9.2 2.6 12.6 6.6 3.8 4.5 8.7 10.6 10.3 13.2l-3.5 3.5v-4.3c0-.6-.6-1.2-1.2-1.2H43.9c-.6 0-1.2.6-1.2 1.2v15h-4.6c-.6.1-1.2.6-1.2 1.3zm13.8-12.3h2.6c.4 0 .8-.3.8-.8v-2H59v13.8H45.1V22.8H50v2c-.1.5.3.8.7.8zm10.8 35.6H39.3V39H48v4.1c0 .4.3.8.8.8H52c.4 0 .8-.3.8-.8V39h8.7v22.2zm16.2 0H63.9V47.4h4.9v2c0 .4.3.8.8.8H72c.4 0 .8-.3.8-.8v-2h4.9v13.8z"/>
</symbol><symbol id="icon-medal" viewBox="0 0 60 80">
    <path class="st0" d="M15 42.1l3.2 5.4 6.1 1.4 5.8 2.6 5.8-2.5 6.2-1.4 3.2-5.4 4.2-4.7-.6-6.2.6-6.3-4.2-4.7-3.2-5.4-6.1-1.5-5.8-2.6-5.8 2.5-6.2 1.4-3.2 5.4-4.2 4.7.6 6.2-.6 6.3 4.2 4.8zm-1.6-16.4l3.6-4 2.8-4.7 5.3-1.1 5-2.2 4.9 2.2 5.4 1.2 2.7 4.6 3.7 4.2-.6 5.4.6 5.4-3.6 4-2.8 4.7-5.3 1.1-5 2.2-4.9-2.2-5.4-1.2-2.7-4.6-3.7-4.2.6-5.5-.6-5.3z"/>
    <path class="st1" d="M51.5 50.2l1.2-2.3 7-7.1-1.4-9.4 1.4-9.9-6.7-6.7-4.6-8.9L39 4.5 30 0l-8.5 4.3-9.8 1.6-4.3 8.5-7 7.1 1.4 9.4-1.4 9.9 6.7 6.7 1.4 2.6L0 70.6l12.6 1.7 10 7.7L30 62.3h.1L37.4 80l10.1-7.7L60 70.6l-8.5-20.4zM3.1 39.9l1.1-7.8 4.3.1.1-2.5-4.4-.1-1.1-7.3 5.4-5.6 3.3 2.5 1.5-2-3.3-2.5 3.4-6.6L21.1 7l1.2 4.2 2.4-.7-1.3-4.2L30 2.9l7 3.4-1.5 4 2.3.9 1.6-4.1 7.3 1.2 3.8 6.9-3.7 2.6 1.4 2.1 3.8-2.6 5.2 5.2-1.2 7.7-4.2-.2-.1 2.5 4.2.2L57 40l-5.6 5.7-3.4-2.6-1.5 2 3.4 2.6-3.3 6.4-7.6 1.3-1.3-4.2-2.3.8 1.3 4.2-6.6 3.4L23 56l1.4-4.2L22 51l-1.5 4.3-7.1-1.1-3.6-7 3.5-2.5-1.4-2.1-3.6 2.5-5.2-5.2zM21.6 76l-7-5.3 2.5-5.1-2.2-1.1-2.5 5.2-8.8-1.1L10 53l1.8 3.4 8.2 1.3 2.2.7v-.1l5.6 2.8L21.6 76zm10.7-14.8l6.2-3.2 9.8-1.7 1.7-3.2 6.4 15.4-8.6 1.1-2.4-5-2.2 1.1 2.3 4.9-7.1 5.4-6.1-14.8z"/>
    <path d="M22.1 41.7l8-3.7 8 3.7-1-8.7 5.9-6.5-8.6-1.8-4.3-7.7-4.3 7.7-8.6 1.8 5.9 6.5-1 8.7zM22 28l5.4-1.1 2.7-4.8 2.7 4.8 5.4 1.1-3.7 4.1.6 5.4-5-2.2-5 2.2.6-5.4L22 28z"/>
</symbol><symbol id="icon-message" viewBox="0 0 15 10">
    
    <g class="st0">
        <path class="st1" d="M.7.1c.2 0 .4-.1.6-.1h12.4c.2 0 .4.1.6.1v.1l-.1.1-5.9 5.9c-.5.5-1.1.5-1.6 0L.8.3S.7.3.7.1C.7.2.7.2.7.1z"/>
        <path class="st1" d="M5.4 5.9l.8.8c.8.9 1.8.9 2.7 0l.7-.7 4.7 4.7c-.2 0-.4.1-.7.1H1.3c-.2 0-.5 0-.7-.2C2.2 9 3.8 7.5 5.4 5.9z"/>
        <path class="st1" d="M10.2 5.4c1.5-1.5 3.1-3 4.7-4.6.1.1.1.3.1.5v8.1c0 .2-.1.4-.1.6-1.6-1.5-3.1-3.1-4.7-4.6z"/>
        <path class="st1" d="M.1.7l4.7 4.7C3.2 6.9 1.7 8.5.1 10c0-.1-.1-.3-.1-.5V1.3C0 1.1.1.9.1.7z"/>
    </g>
</symbol><symbol id="icon-minus" viewBox="0 0 11 11">
    <path d="M0 5h11v1H0z"/>
</symbol><symbol id="icon-new" viewBox="0 0 17 17">
    <g clip-path="url(#a)" fill="currentColor">
        <path d="M4.7 10.108H3.075v2.573H.61v1.746h2.466V17H4.7v-2.573h2.466v-1.746H4.7v-2.573z"/>
        <path d="M16.592 2.297L12.995.123A.562.562 0 0 0 12.617 0h-2.03l-.435.03c-.262 0-.407.521-.407.828 0 .735-.55 1.317-1.247 1.317-.696 0-1.247-.582-1.247-1.317C7.25.398 6.901 0 6.438 0h-2.06a.697.697 0 0 0-.406.123L.404 2.267c-.319.183-.464.582-.377.98l1.015 3.798c.116.429.551.705.958.582l1.044-.276V8H4.64V6.249a.83.83 0 0 0-.32-.674c-.203-.153-.464-.215-.696-.153l-1.305.337-.58-2.328L4.61 1.715h1.16c.348 1.256 1.48 2.175 2.756 2.175 1.276 0 2.379-.888 2.756-2.175h1.16l2.872 1.716-.638 2.358-1.305-.337a.826.826 0 0 0-1.016.827v6.463H9v1.685h4.14c.435 0 .812-.367.812-.858V7.351l1.044.276c.406.123.841-.153.958-.582l1.015-3.798a.825.825 0 0 0-.377-.95z"/>
    </g>
    
</symbol><symbol id="icon-ok" viewBox="0 0 8 14">
    <path fill-rule="evenodd" clip-rule="evenodd" d="M3.961 7.228a3.52 3.52 0 0 1-2.5-1.053 3.655 3.655 0 0 1-1.026-2.53c0-.958.373-1.87 1.04-2.545A3.59 3.59 0 0 1 3.978.016c.466 0 .932.094 1.367.283.435.188.823.455 1.15.785.325.346.59.739.76 1.179.171.44.264.91.249 1.382 0 .472-.078.943-.264 1.383a3.42 3.42 0 0 1-.761 1.163c-.327.33-.715.597-1.15.77a3.421 3.421 0 0 1-1.367.267zm0-5.091c-.202 0-.388.047-.575.126a1.467 1.467 0 0 0-.481.33c-.14.141-.249.314-.31.502a1.272 1.272 0 0 0-.094.582c0 .188.031.393.109.565.077.173.186.346.326.472.14.141.295.235.481.314.187.063.373.094.56.094.186 0 .372-.031.559-.094.17-.063.342-.173.481-.314a1.6 1.6 0 0 0 .327-.472 1.67 1.67 0 0 0 .124-.565c0-.205-.031-.393-.093-.582a1.514 1.514 0 0 0-.311-.502 1.467 1.467 0 0 0-.482-.33 1.824 1.824 0 0 0-.62-.126zm1.43 8.076L7.41 12.21c.093.094.17.204.217.33.047.125.078.251.078.393 0 .14-.031.267-.078.392a.937.937 0 0 1-.217.33c-.094.11-.202.189-.327.252a.882.882 0 0 1-.388.094.834.834 0 0 1-.388-.094 1.015 1.015 0 0 1-.326-.252L3.96 11.66l-1.957 1.995a1.329 1.329 0 0 1-.342.236.875.875 0 0 1-.404.063 1.13 1.13 0 0 1-.73-.299.937.937 0 0 1-.217-.33 1.105 1.105 0 0 1-.078-.393c0-.14.031-.267.078-.392a.937.937 0 0 1 .217-.33l2.066-1.996c-.73-.235-1.445-.55-2.113-.943a1.086 1.086 0 0 1-.45-.66 1.064 1.064 0 0 1 .109-.785.899.899 0 0 1 .295-.299.85.85 0 0 1 .388-.157.945.945 0 0 1 .42 0c.14.032.264.095.388.173.715.44 1.538.676 2.377.676.839 0 1.662-.236 2.376-.676.11-.079.249-.141.389-.173a.945.945 0 0 1 .42 0c.139.032.263.079.388.157.108.079.217.189.295.299.14.236.186.518.124.786a1.232 1.232 0 0 1-.45.66c-.684.392-1.414.707-2.16.942z"/>
</symbol><symbol id="icon-pen" viewBox="0 0 15 15">
    <path d="M15 3.018c-.073.102-.132.216-.22.304-.445.454-.896.9-1.341 1.348-.039.038-.062.088-.085.123l-3.135-3.135c.129-.123.266-.252.401-.387.355-.351.7-.706 1.058-1.051.088-.085.202-.147.304-.22h.206c.108.085.228.164.328.26C13.26 1 14 1.74 14.742 2.488c.097.1.173.217.26.328C15 2.88 15 2.95 15 3.018z"/>
    <path d="M0 14.473l1.752-4.09 2.865 2.865L.527 15H.352A.553.553 0 0 1 0 14.648v-.175z"/>
    <path d="M15 2.813c-.085-.109-.164-.229-.26-.329C14 1.74 13.26 1 12.512.258c-.1-.097-.217-.173-.328-.26h2.812C15 .937 15 1.874 15 2.812z"/>
    <path d="M0 14.648c.062.173.179.29.352.352H0v-.352z"/>
    <path d="M9.606 2.338l3.056 3.056-7.286 7.286c-1.008-1.008-2.036-2.04-3.053-3.056l7.283-7.286z"/>
</symbol><symbol id="icon-phone-big" viewBox="0 0 90 85">
    <path d="M67.224 0H22.775c-2.938 0-5.142 2.407-5.142 5.185V79.63a5.155 5.155 0 0 0 5.142 5.185h44.45c2.938 0 5.142-2.408 5.142-5.185V5.185C72.367 2.407 70.163 0 67.224 0zM19.286 5.185c0-1.852 1.469-3.333 3.306-3.333H67.04c1.837 0 3.306 1.481 3.306 3.333V68.89H19.286V5.185zM70.53 79.63c0 1.852-1.47 3.333-3.307 3.333H22.775c-1.836 0-3.306-1.481-3.306-3.333v-8.89h51.245v8.89h-.183z" fill="currentColor"/>
    <path d="M36 9.815c-.184-.185-.735-.37-.918-.185-.184 0-.184.185-.368.185 0 .185-.183.185-.183.37v.37c0 .186.183.556.183.741 0 0 .184.186.368.186h.734c.184 0 .184-.186.368-.186.183-.185.183-.37.183-.74v-.37C36 10 36 10 36 9.814z" fill="currentColor"/>
    <path d="M54.735 9.63H41.51c-.55 0-.918.37-.918.926 0 .555.367.926.918.926h13.225c.55 0 .918-.37.918-.926s-.367-.926-.918-.926z" fill="currentColor"/>
    <path d="M5.878 23.889a.883.883 0 0 0-1.286 0C-1.47 30-1.47 40.185 4.592 46.296c.183.186.367.186.735.186.367 0 .55 0 .734-.186a.9.9 0 0 0 0-1.296c-5.326-5.37-5.326-14.26 0-19.815.184-.37.184-.926-.183-1.296z" fill="currentColor"/>
    <path d="M11.755 29.815a.883.883 0 0 0-1.286 0c-2.938 2.963-2.938 7.592 0 10.37.184.185.368.185.735.185s.551 0 .735-.185a.9.9 0 0 0 0-1.296c-1.102-1.111-1.653-2.408-1.653-3.889 0-1.481.55-2.963 1.653-3.889.183-.37.183-.926-.184-1.296z" fill="currentColor"/>
    <path d="M85.408 23.889a.883.883 0 0 0-1.286 0 .9.9 0 0 0 0 1.296c5.327 5.37 5.327 14.26 0 19.815a.9.9 0 0 0 0 1.296c.184.186.368.186.735.186.368 0 .551 0 .735-.186C91.469 40 91.469 30 85.408 23.89z" fill="currentColor"/>
    <path d="M78.245 29.815a.9.9 0 0 0 0 1.296c1.102 1.111 1.653 2.408 1.653 3.889 0 1.481-.551 2.963-1.653 3.889a.9.9 0 0 0 0 1.296c.183.185.367.185.735.185.367 0 .55 0 .734-.185 1.47-1.481 2.204-3.333 2.204-5.185 0-1.852-.734-3.889-2.204-5.185-.55-.37-1.102-.37-1.47 0z" fill="currentColor"/>
    <path d="M40.96 77.593h7.897c.551 0 .919-.37.919-.926s-.368-.926-.919-.926H40.96c-.55 0-.918.37-.918.926 0 .555.55.926.918.926z"/>
</symbol><symbol id="icon-phone-v2" viewBox="0 0 20 20">
    <path d="M9.937 14.386c.3.193.621.322.942.494.15.086.279.065.407-.064.471-.495.964-.968 1.435-1.441.62-.624 1.413-.624 2.055 0l2.313 2.322c.642.646.642 1.441 0 2.108-.428.451-.9.86-1.306 1.333-.6.667-1.35.903-2.227.839-1.264-.065-2.42-.495-3.533-1.032a18.787 18.787 0 0 1-6.36-5.011c-1.35-1.591-2.42-3.29-3.126-5.226-.343-.925-.6-1.87-.514-2.882.042-.623.278-1.16.728-1.591.492-.473.963-.968 1.434-1.44.643-.625 1.435-.625 2.056 0l1.156 1.16 1.135 1.14c.664.667.664 1.441 0 2.108L5.12 8.623c-.128.128-.128.214-.064.386.32.753.77 1.441 1.285 2.065 1.027 1.29 2.205 2.43 3.597 3.312zM9.187.536c-.17.409-.128.796.172 1.14.235.258.535.3.878.322 2.998.172 5.267 1.549 6.766 4.172.664 1.162.964 2.41.985 3.742.022.624.45 1.011 1.071.99.6-.022.964-.43.942-1.054-.085-2.688-1.07-4.99-3.148-7.14-.3-.236-.813-.688-1.37-1.054a9.777 9.777 0 0 0-5.375-1.656c-.428-.043-.75.13-.92.538zm-.192 4.473c.107.43.47.731.963.731 1.114.022 2.099.366 2.934 1.14.9.839 1.328 1.893 1.37 3.14 0 .215.086.473.215.645.278.366.75.452 1.177.301.386-.15.621-.494.6-.946-.021-1.72-.643-3.183-1.842-4.452-1.199-1.182-2.676-1.806-4.39-1.85-.17 0-.363.044-.535.108-.407.215-.6.689-.492 1.183z" fill="currentColor"/>
</symbol><symbol id="icon-phone" viewBox="0 0 15 15">
    
    <g class="st0">
        <path class="st1" d="M12.1 15c-1.5-.1-2.6-.4-3.8-.9-1.6-.7-2.9-1.7-4.1-2.9C2.8 9.9 1.7 8.4.9 6.6.4 5.5.1 4.4 0 3.1c0-.6.2-1.1.6-1.5S1.5.8 2 .6c.3-.2.7-.4 1-.5.3-.2.4-.1.6.1.7 1.1 1.5 2.1 2.2 3.2.3.3.2.6-.1.9-.3.3-.7.6-1 .8-.4.3-.5.7-.2 1.1l.9 1.5c.5.8 1.2 1.5 2 2l1.5.9c.3.2.7.1 1-.2.3-.4.6-.7.9-1.1.2-.3.5-.4.8-.1 1 .7 2.1 1.5 3.1 2.2.3.2.3.3.2.6-.3.7-.6 1.4-1.1 2l-.6.6c-.4.3-.8.4-1.1.4z"/>
    </g>
</symbol><symbol id="icon-photo" viewBox="0 0 12 9">
    <path d="M12 2.703v5.17c-.12.66-.72 1.1-1.44 1.1H1.52c-.84 0-1.48-.587-1.48-1.357v-4.73c0-.11 0-.22.04-.33C.24 1.933.8 1.53 1.52 1.53H3.2v-.22C3.24.686 3.68.21 4.36.063c.12-.037.24-.037.36-.037h2.64c.88 0 1.48.55 1.48 1.357v.11h1.72c.56 0 1 .22 1.28.66.08.22.08.367.16.55zM6 2.63c-1.48 0-2.72 1.1-2.72 2.493 0 1.357 1.2 2.493 2.68 2.493 1.48 0 2.72-1.1 2.72-2.493C8.72 3.73 7.52 2.63 6 2.63z"/>
</symbol><symbol id="icon-play" viewBox="0 0 10 10">
    <path d="M9.38 4.605c.27.15.27.537 0 .686L1.272 9.778a.392.392 0 0 1-.582-.343V.462c0-.299.32-.488.582-.343L9.38 4.605z"/>
</symbol><symbol id="icon-plus" viewBox="0 0 11 11">
    <path d="M0 5h11v1H0z"/>
    <path d="M5 0h1v11H5z"/>
</symbol><symbol id="icon-r" viewBox="0 0 11 10">
    <path d="M8.445 6.037C9.297 7.317 10.077 8.597 11 10H7.948c-.142 0-.425-.244-.496-.427l-1.49-2.56c-.143-.184-.356-.367-.568-.367-.781-.06-1.633 0-2.555 0V10H.07C0 6.707 0 3.415 0 0h5.748C7.452 0 8.871.488 9.51 1.89c.638 1.403.425 2.744-.923 3.903-.07.06-.07.122-.142.244zM2.84 4.512h2.626c.851 0 1.419-.488 1.419-1.097 0-.61-.568-1.22-1.349-1.28-.851-.062-1.774 0-2.696 0v2.377z"/>
</symbol><symbol id="icon-repeat" viewBox="0 0 20 20">
    <g clip-path="url(#a)">
        <path d="M10 20c5.166 0 9.5-3.917 10-9.083.083-.5-.334-.834-.75-.917H17.498c-.416 0-.75.333-.833.75-.417 3.667-3.667 6.333-7.333 5.917C5.666 16.25 2.999 13 3.416 9.333c.333-3.416 3.167-6 6.583-6 1.084 0 2.167.25 3.084.75.083 0 .083.167.083.167l-.083.083L11.499 5.5c-.166.083-.166.25-.083.333 0 .084.083.084.167.167l6.416.917c.167.083.334-.084.334-.25v-.084L17.416.25c0-.167-.167-.25-.333-.25a.18.18 0 0 0-.167.167l-1.083 1.5c-.084.083-.167.083-.167 0C13.916.5 11.833-.167 9.749-.083 4.5.25.25 4.417 0 9.667-.167 15.167 4.166 19.833 9.666 20h.333z" fill="currentColor"/>
    </g>
    
</symbol><symbol id="icon-reset" viewBox="0 0 19 20">
    <g clip-path="url(#a)" fill="currentColor">
        <path d="M6.667 2.6c.333.2.733.067.933-.267.533-.933 1.8-1.266 2.733-.733.334.2.534.4.734.733.2.334.6.4.933.267.333-.2.4-.6.267-.933a3.29 3.29 0 0 0-4.534-1.2c-.533.266-.933.733-1.2 1.2-.266.333-.133.733.134.933z"/>
        <path d="M18 4H.667C.267 4 0 4.267 0 4.667s.267.666.667.666H2l.6 12.734c.067 1.066.933 1.933 2 1.933h9.467c1.066 0 1.933-.867 2-1.933l.6-12.734H18c.4 0 .667-.266.667-.666S18.4 4 18 4zM6.667 15.333c0 .4-.267.667-.667.667s-.667-.267-.667-.667v-6c0-.4.267-.666.667-.666s.667.266.667.666v6zm3.333 0c0 .4-.267.667-.667.667s-.666-.267-.666-.667v-6c0-.4.266-.666.666-.666s.667.266.667.666v6zm3.333 0c0 .4-.266.667-.666.667S12 15.733 12 15.333v-6c0-.4.267-.666.667-.666s.666.266.666.666v6z"/>
    </g>
    
</symbol><symbol id="icon-review" viewBox="0 0 20 20">
    <g clip-path="url(#a)">
        <path d="M20 9.454v.968c0 .04-.02.097-.04.136a6.806 6.806 0 0 1-1.62 3.756c-1.2 1.433-2.74 2.382-4.54 2.982-1.18.387-2.42.581-3.66.581-1.04-.02-2.08-.097-3.12-.252a.746.746 0 0 0-.5.078 9.425 9.425 0 0 1-3.6 1.22c-.42.058-.86.077-1.28.058-.34-.02-.6-.272-.58-.6 0-.117.04-.214.1-.31.06-.097.12-.175.18-.252.56-.678 1.04-1.433 1.42-2.227.06-.077.04-.174-.04-.232a8.559 8.559 0 0 1-1.76-2.014 6.114 6.114 0 0 1-.82-2.09c-.06-.291-.1-.582-.16-.872v-.968C0 9.358 0 9.3.02 9.26c.12-1.143.54-2.227 1.2-3.195a8.878 8.878 0 0 1 2.8-2.536A10.644 10.644 0 0 1 7.5 2.213c1.92-.387 3.92-.33 5.8.194 1.06.29 2.08.735 3 1.336 1.02.658 1.9 1.51 2.56 2.497.48.697.8 1.472.98 2.304.06.33.1.62.16.91z" fill="currentColor"/>
    </g>
    
</symbol><symbol id="icon-rub" viewBox="0 0 46 80">
    <path class="st0" d="M18.8 38.1c-.6 0-1.3.6-1.3 1.3v11.4h-4c-.6 0-1.3.6-1.3 1.3 0 .7.6 1.3 1.3 1.3h4v2.7h-4c-.6 0-1.3.6-1.3 1.3 0 .7.6 1.3 1.3 1.3h4v6.1c0 .6.6 1.3 1.3 1.3.7 0 1.3-.6 1.3-1.3v-6.1h8.2c.6 0 1.3-.6 1.3-1.3 0-.7-.6-1.3-1.3-1.3H20v-2.7h4.8c5.6 0 8.8-3 8.8-8.1 0-4.8-2.9-7.1-8.8-7.1h-6zm12.4 7.1c0 3.7-2.1 5.6-6.2 5.6h-4.8V40.7H25c5.7 0 6.2 2.3 6.2 4.5z"/>
    <path class="st1" d="M44.6 25.9l-13.2-8.5.1-.2c.7-1.6 1-3.3 1-5.3C32.5 5.3 28.2 0 22.9 0s-9.6 5.3-9.6 11.8c0 1.7.3 3.5 1 5.4l.1.2-13.2 8.5c-.3.3-.6.7-.6 1.1v51.6c0 .6.6 1.3 1.3 1.3h41.8c.6 0 1.3-.6 1.3-1.3V27c.1-.4 0-.7-.4-1.1zM23 2.6c3.9 0 7.1 4.2 7.1 9.3 0 1.5-.2 2.7-.6 3.8l-.2.3-5.6-3.7c-.4-.2-1-.2-1.4 0L16.7 16l-.2-.3c-.4-1.2-.6-2.5-.6-3.8 0-5.2 3.2-9.3 7.1-9.3zm19.5 74.5h-.2v.3h-39V27.8l13.4-8.7 6.2-4.2 5 3.4-.2.2c-.5.6-1 1.1-1.5 1.5h-.1l-.1-.2c-.8-.6-1.9-1-3-1-1.7 0-3 .9-3.8 1.7-.1.1-.2.2-.2.3-.6.8-.9 1.9-.9 2.9 0 2.8 2.2 5 5 5s5-2.2 5-5c0-.6-.1-1.1-.3-1.5l-.1-.2.2-.2c1-.7 1.7-1.5 2.2-2.2l.2-.2 12.4 8.1V77h-.2zm-17.1-54v.7c0 1.3-1 2.4-2.4 2.4s-2.4-1-2.4-2.4v-.7l.4.2c.6.2 1.3.3 2 .3.6 0 1.3-.1 2-.3l.4-.2z"/>
</symbol><symbol id="icon-save" viewBox="0 0 15 15">
    <path d="M1.429 0h10.464c.393 0 .75.143 1 .429l1.678 1.678c.286.25.429.607.429 1v10.464c0 .786-.643 1.429-1.429 1.429H1.43A1.433 1.433 0 0 1 0 13.571V1.43C0 .643.643 0 1.429 0zm1.785 1.429H1.786c-.215 0-.357.142-.357.357v11.428c0 .215.142.357.357.357h11.428c.215 0 .357-.142.357-.357V3.25a.324.324 0 0 0-.107-.25L12 1.536a.324.324 0 0 0-.25-.107h-.107c-.107 0-.214.107-.214.25V3.57C11.429 4.357 10.786 5 10 5H5a1.433 1.433 0 0 1-1.429-1.429V1.786c0-.215-.142-.357-.357-.357zM7.5 6.07a3.2 3.2 0 0 1 3.214 3.215A3.201 3.201 0 0 1 7.5 12.5a3.2 3.2 0 0 1-3.214-3.214A3.2 3.2 0 0 1 7.5 6.07zm-2.143-2.5h4.286c.214 0 .357-.142.357-.357V1.786c0-.215-.143-.357-.357-.357H5.357c-.214 0-.357.142-.357.357v1.428c0 .215.143.357.357.357zM7.5 7.5c-1 0-1.786.786-1.786 1.786S6.5 11.07 7.5 11.07s1.786-.785 1.786-1.785c0-1-.786-1.786-1.786-1.786z" fill="currentColor"/>
</symbol><symbol id="icon-search" viewBox="0 0 14 14">
    <path d="M13.77 12.666l-2.644-2.636a6.157 6.157 0 0 0 1.314-3.81 6.22 6.22 0 1 0-6.22 6.22 6.157 6.157 0 0 0 3.81-1.314l2.636 2.644a.778.778 0 0 0 1.274-.253.777.777 0 0 0-.17-.851zM1.555 6.22a4.665 4.665 0 1 1 9.33 0 4.665 4.665 0 0 1-9.33 0z"/>
</symbol><symbol id="icon-share" viewBox="0 0 16 14">
    <path d="M8 9.697c-1.33.045-2.618.17-3.85.654-1.137.449-1.99 1.225-2.586 2.292-.186.332-.355.673-.533 1.01-.142.268-.373.394-.622.331-.262-.067-.413-.274-.409-.578 0-1.247.036-2.49.267-3.718C.493 8.48.91 7.36 1.76 6.44c.702-.763 1.577-1.243 2.546-1.565 1.138-.377 2.316-.507 3.507-.561.053-.005.11-.005.186-.009v-.184-3.53c0-.246.094-.439.32-.542.231-.103.436-.04.609.13.018.014.031.031.049.045 1.973 1.834 3.942 3.673 5.915 5.507.298.278.595.552.893.834.284.27.289.597 0 .861-2.289 2.135-4.577 4.265-6.87 6.4-.174.162-.374.22-.6.121-.227-.103-.325-.291-.325-.538V9.912c.01-.063.01-.13.01-.215zm1.066 2.534c1.888-1.763 3.746-3.494 5.612-5.23-1.87-1.744-3.728-3.47-5.612-5.229V4.76c0 .422-.2.619-.622.628-.365.009-.734.013-1.098.036-1.022.063-2.03.206-2.995.574-1.071.408-1.929 1.076-2.467 2.112-.395.762-.573 1.583-.68 2.426-.03.252-.053.507-.08.808.054-.059.072-.077.09-.1.813-1.066 1.892-1.717 3.155-2.102 1.364-.418 2.764-.525 4.181-.525.298 0 .516.238.52.543.005.331 0 .659 0 .99-.004.682-.004 1.36-.004 2.082z"/>
</symbol><symbol id="icon-star" viewBox="0 0 14 15">
    <path d="M3.859 14.296c-.562 0-1.012-.45-1.012-1.012v-.112l.337-3.598L.823 6.875c-.337-.45-.337-1.012.112-1.462.113-.112.225-.224.45-.224L4.758 4.4l1.687-3.148c.225-.45.9-.674 1.35-.337l.337.337 1.686 3.148 3.373.788c.563.112.9.674.787 1.236 0 .225-.112.338-.224.45l-2.362 2.699.338 3.598c0 .562-.338 1.012-.9 1.124-.112 0-.337 0-.45-.112l-2.923-1.462-3.148 1.462c-.113 0-.225.112-.45.112zm1.124-2.698l2.024-1.012a.96.96 0 0 1 .787 0l2.024 1.012-.112-2.362c0-.337.112-.562.225-.787l1.461-1.686-2.249-.45c-.224-.112-.45-.225-.674-.45L7.457 3.727 6.332 5.75c-.112.225-.337.45-.674.45l-2.249.45 1.462 1.686c.225.225.225.45.225.787l-.113 2.474z" fill="currentColor"/>
</symbol><symbol id="icon-swiper-next" viewBox="0 0 11 16">
    <path class="st0" d="M2.3 15.7c-.5 0-1-.2-1.4-.6-.8-.8-.8-2 0-2.8L5.2 8 .9 3.8C.1 3 .1 1.8.9 1c.8-.8 2-.8 2.8 0l7.1 7-7.1 7.1c-.3.4-.8.6-1.4.6z"/>
</symbol><symbol id="icon-swiper-prev" viewBox="0 0 11 16">
    <path class="st0" d="M8.5 15.3c-.5 0-1-.2-1.4-.6L0 7.7 7.1.6c.8-.8 2-.8 2.8 0 .8.8.8 2 0 2.8L5.7 7.7l4.2 4.2c.8.8.8 2 0 2.8-.4.4-.9.6-1.4.6z"/>
</symbol><symbol id="icon-switch-dark" viewBox="0 0 15 13">
    <path d="M4.32 6.525c.487-.522.854-1.129 1.166-1.836.35.817.76 1.48 1.293 2.024.509.52 1.109.908 1.828 1.226-.735.355-1.338.77-1.846 1.298-.528.55-.933 1.201-1.282 1.986-.373-.799-.793-1.453-1.328-2.003-.515-.53-1.117-.942-1.844-1.297.828-.381 1.48-.827 2.013-1.398z"/>
    <path d="M11.728 2.745c.188-.202.346-.423.484-.663.16.291.346.549.568.775.204.208.43.381.68.529-.257.16-.486.342-.692.556a3.716 3.716 0 0 0-.56.765 3.652 3.652 0 0 0-1.275-1.332c.303-.179.566-.385.795-.63z"/>
    <path d="M12.183 11.305l.029-.031a1.85 1.85 0 0 0 .145.151 1.869 1.869 0 0 0-.144.152 2.104 2.104 0 0 0-.149-.155c.041-.037.08-.076.12-.117z"/>
</symbol><symbol id="icon-switch-light" viewBox="0 0 16 17">
    <g class="st0">
        <path class="st1" d="M8.2 12c-1.9 0-3.5-1.6-3.5-3.5S6.3 5 8.2 5s3.5 1.6 3.5 3.5S10.1 12 8.2 12zm0-6C6.8 6 5.7 7.1 5.7 8.5S6.8 11 8.2 11s2.5-1.1 2.5-2.5S9.5 6 8.2 6z"/>
        <path class="st1" d="M7.7 1.4h1v2.4h-1z"/>
        <path class="st1" d="M7.7 13.3h1v2.4h-1z"/>
        <path class="st1" d="M1 8h2.4v1H1z"/>
        <path class="st1" d="M12.9 8h2.4v1h-2.4z"/>
        <path class="st1" d="M2.782 13.175l1.697-1.697.707.707-1.697 1.697z"/>
        <path class="st1" d="M11.2 4.783l1.697-1.697.707.707-1.697 1.697z"/>
        <path class="st1" d="M2.795 3.78l.707-.707L5.2 4.77l-.707.707z"/>
        <path class="st1" d="M11.187 12.198l.707-.707 1.698 1.697-.707.707z"/>
    </g>
</symbol><symbol id="icon-telegram" viewBox="0 0 12 10">
    <path d="M12 .637c-.072.334-.153.731-.234 1.123l-1.623 7.674c-.117.548-.572.726-1.027.397-.865-.629-1.735-1.253-2.596-1.89-.13-.093-.193-.08-.297.031-.406.42-.82.834-1.235 1.248-.351.352-.748.259-.9-.214-.32-1.007-.645-2.014-.96-3.021-.037-.112-.09-.165-.199-.196-.843-.24-1.68-.49-2.519-.736-.054-.017-.113-.035-.167-.057a.366.366 0 0 1-.239-.348.362.362 0 0 1 .217-.361c.126-.058.257-.107.383-.156C4.1 2.781 7.606 1.435 11.108.085c.144-.058.293-.107.45-.072.27.058.451.29.442.624zM9.774 1.778c-.063 0-.108.036-.158.067L3.754 5.437c-.212.129-.244.214-.172.45l.744 2.375c.018.054.013.138.086.134.072-.005.058-.09.067-.143.059-.495.117-.985.167-1.48a.553.553 0 0 1 .203-.392c1.64-1.43 3.276-2.865 4.911-4.295.04-.036.086-.067.113-.112a.123.123 0 0 0-.1-.196z"/>
</symbol><symbol id="icon-tg" viewBox="0 0 14 12">
    <path d="M14 .765c-.084.4-.179.877-.273 1.347l-1.893 9.209c-.137.658-.668.871-1.198.476-1.01-.754-2.025-1.503-3.029-2.268-.152-.112-.226-.096-.347.038-.473.502-.956 1-1.44 1.497-.41.422-.873.31-1.052-.257-.373-1.208-.751-2.417-1.12-3.625-.041-.134-.105-.198-.23-.236-.984-.288-1.962-.588-2.94-.882-.063-.021-.13-.043-.194-.07a.44.44 0 0 1-.279-.417.437.437 0 0 1 .253-.433c.147-.07.3-.128.447-.187 4.08-1.62 8.17-3.235 12.254-4.856.168-.069.342-.128.526-.085.315.07.526.348.515.749zm-2.597 1.369c-.074 0-.126.042-.184.08l-6.84 4.31c-.247.155-.284.257-.2.54l.868 2.85c.021.064.016.166.1.16.084-.005.068-.106.079-.17.068-.594.136-1.182.194-1.776a.67.67 0 0 1 .237-.47c1.914-1.717 3.822-3.439 5.73-5.155.048-.043.1-.08.132-.134.068-.107 0-.23-.116-.235z"/>
</symbol><symbol id="icon-twitter" viewBox="0 0 13 10">
    <path d="M13 1.23c-.316.46-.716.844-1.176 1.171-.092.067-.121.13-.118.241.032 1.166-.236 2.272-.773 3.321A7.192 7.192 0 0 1 8.099 8.97c-.895.523-1.872.833-2.914.965a8.431 8.431 0 0 1-2.201-.006A7.766 7.766 0 0 1 .026 8.903C.019 8.9.016 8.89 0 8.876c1.444.123 2.741-.21 3.927-1.046-.202-.015-.371-.027-.534-.063-.92-.217-1.556-.743-1.92-1.563-.054-.127-.045-.133.102-.111.32.042.636.024.952-.04.02-.003.038-.015.064-.024C1.058 5.672.438 4.382.505 3.535c.182.09.364.162.556.21.191.048.386.093.616.081-.575-.394-.949-.898-1.102-1.539C.425 1.65.534 1.052.865.484c.052.012.068.045.093.072 1.119 1.235 2.528 2.032 4.215 2.39.373.078.754.12 1.137.15.096.009.09-.024.077-.093-.154-.941.118-1.75.881-2.384.62-.514 1.355-.703 2.173-.586a2.652 2.652 0 0 1 1.466.7c.052.048.093.06.166.045A5.68 5.68 0 0 0 12.55.255c.033-.018.068-.033.128-.06-.207.586-.581 1.02-1.102 1.356.163.006.32-.03.476-.063.157-.036.313-.075.467-.12.156-.049.313-.103.47-.157.002.006.009.012.012.018z"/>
</symbol><symbol id="icon-user-advantages" viewBox="0 0 80 80">
    <path class="st0" d="M34.6 43.4H49c2.7 0 4.9-2.2 4.9-4.9v-1.8c0-4.4-2.5-8.6-6.5-10.6l-.6-.3.6-.5c1.9-1.5 3-3.9 3-6.4 0-4.6-3.8-8.4-8.5-8.4s-8.5 3.8-8.5 8.4c0 2.4 1.1 4.8 3 6.4l.6.5-.6.3c-4 2-6.5 6.1-6.5 10.6v1.8c-.2 2.6 2 4.9 4.7 4.9zM36 18.9c0-3.2 2.7-5.8 5.9-5.8s5.9 2.6 5.9 5.8-2.7 5.8-5.9 5.8c-3.3 0-5.9-2.6-5.9-5.8zm-3.7 17.8c0-5.2 4.3-9.4 9.5-9.4s9.5 4.2 9.5 9.4v1.8c0 1.3-1.1 2.2-2.3 2.2H34.6c-1.3 0-2.3-1-2.3-2.2v-1.8z"/>
    <path class="st1" d="M.9 51c-.7 1.1-1.1 2.4-.8 3.6L3.2 73c.2 1.3.9 2.4 1.9 3.1 1.1.7 2.3 1 3.7.8l13.5-2.2h.9l10 2.4c.5.1.8.2 1.1.2.2 0 .5 0 .8-.1l20.6-3.4c1.1-.2 2.1-.7 2.8-1.6l21.1-23.7c.2-.2.3-.4.3-.6 0-.4-.2-.7-.4-1l-.2-.2c-2.6-2.2-6.1-3-9.4-2.2l-1 .2.4-.9c1.6-3.8 2.5-7.8 2.5-11.9 0-16.7-13.5-30.2-30.1-30.2s-30 13.4-30 30.1c0 5.1 1.3 10.1 3.8 14.7l.4.7h-1.1L4.1 49c-1.3.3-2.5.9-3.2 2zm13.4-19.2c0-15.2 12.3-27.6 27.4-27.6s27.4 12.4 27.4 27.6c0 6.9-2.5 13.4-7.1 18.6l-.9 1c-1.2 1.2-2.5 2.3-3.8 3.2l-.3.2-.2-.5c-2.1-3.7-6.4-5.7-10.5-5l-14.2 2.3c-.4.1-.7 0-1.1-.1h-.1L22.3 48c-.9-.4-1.9-.6-3.1-.9H19l-.1-.1c-2.9-4.4-4.6-9.7-4.6-15.2zM3.2 52.5c.3-.4.8-.7 1.5-.9l10.8-1.8c2.1-.3 4.1-.1 5.9.6l8.6 3.4c.7.3 1.7.4 2.7.3l14.1-2.3c3.5-.6 6.9 1.3 8.3 4.5l.2.6-13.8 2.2c-.3.1-.6.2-.8.6-.2.2-.2.6-.2 1 .2.7.8 1.2 1.5 1.1l15.1-2.5c.2 0 .3-.1.4-.2.1-.1.2-.2.4-.3l9.2-9.8c2.4-2.6 6.2-3.2 9.3-1.4l.5.3-20.4 22.7c-.3.4-.7.6-1.4.8l-20.5 3.3h-.9l-10.2-2.3c-.6-.2-1.1-.2-1.8-.1L8.3 74.6c-1.2.2-2.4-.6-2.6-1.9L2.6 54.2c-.1-.7.1-1.3.6-1.7z"/>
</symbol><symbol id="icon-user-fill" viewBox="0 0 20 20">
    <g clip-path="url(#a)" fill-rule="evenodd" clip-rule="evenodd" fill="currentColor">
        <path d="M14.261 10.123c-2.595 2.586-6.95 2.608-9.522 0-1.166.78-2.353 2.073-3.057 3.768A8.345 8.345 0 0 0 1 17.235C1 18.975 6.674 20 9.511 20c2.837 0 8.511-1.093 8.511-2.765 0-2.81-1.473-5.618-3.76-7.112z"/>
        <path d="M9.423 10.346c2.881.022 5.168-2.252 5.19-5.173.022-2.81-2.265-5.15-5.036-5.173-2.859-.022-5.146 2.252-5.168 5.15-.044 2.81 2.243 5.173 5.014 5.196z"/>
    </g>
    
</symbol><symbol id="icon-user" viewBox="0 0 18.5 19.8">
    <path d="M17.8 19.8c-.4 0-.8-.3-.8-.8 0-4-3.5-7.3-7.8-7.3S1.5 15 1.5 19c0 .4-.3.8-.8.8S0 19.4 0 19c0-4.8 4.1-8.8 9.3-8.8s9.3 3.9 9.3 8.8c-.1.4-.4.8-.8.8z"/>
    <path d="M9.3 9C6.8 9 4.8 7 4.8 4.5S6.8 0 9.3 0s4.5 2 4.5 4.5S11.7 9 9.3 9zm0-7.5c-1.7 0-3 1.3-3 3s1.3 3 3 3 3-1.3 3-3-1.4-3-3-3z"/>
</symbol><symbol id="icon-vb" viewBox="0 0 15 15">
    <path d="M10.989 6.074c-.043-.475-.15-.847-.339-1.177a1.717 1.717 0 0 0-1.024-.83c-.303-.101-.425-.09-.534.047-.102.129-.122.386-.044.553.054.12.118.164.294.211.234.06.396.136.543.251.313.247.458.634.474 1.26.007.294.025.384.1.489.14.19.387.153.492-.075.038-.086.044-.123.048-.323a4.316 4.316 0 0 0-.01-.406z"/>
    <path d="M12.989 6.144c-.087-1.35-.668-2.436-1.709-3.2a5.051 5.051 0 0 0-2.072-.868c-.285-.051-.809-.093-.899-.07a.548.548 0 0 0-.258.182c-.057.082-.07.264-.021.37.078.176.223.239.628.27.626.05 1.27.25 1.758.545a3.47 3.47 0 0 1 1.285 1.337c.247.464.4 1.134.395 1.733-.001.216.036.339.132.428a.474.474 0 0 0 .542.077c.207-.099.255-.272.219-.804z"/>
    <path d="M14.928 11.974a1.682 1.682 0 0 0-.147-.298c-.31-.47-1.976-1.782-2.809-2.21-.474-.246-.826-.328-1.087-.25-.28.078-.428.21-.899.797-.189.236-.383.456-.435.491-.128.09-.38.161-.556.161-.411-.002-1.157-.27-1.73-.622-.446-.273-1.017-.76-1.455-1.244-.517-.568-.869-1.069-1.147-1.634-.36-.726-.45-1.17-.3-1.494.037-.082.086-.169.108-.196.022-.025.254-.216.51-.424.502-.401.583-.493.676-.768.118-.35.087-.707-.096-1.066-.14-.273-.507-.868-.772-1.252C4.437 1.46 3.56.38 3.386.233 3.07-.025 2.667-.07 2.222.103 1.752.288.87 1.002.494 1.5c-.34.451-.47.771-.49 1.192-.017.347.013.491.195.935C1.624 7.106 3.75 9.884 6.67 12.09c1.526 1.153 3.109 2.03 4.75 2.63.958.35 1.373.367 1.863.08.207-.125.719-.652 1.004-1.037.473-.64.648-.934.697-1.17a1.355 1.355 0 0 0-.057-.62z"/>
    <path d="M14.998 6.65a6.882 6.882 0 0 0-.45-2.28c-.281-.749-.565-1.238-1.102-1.9-.507-.62-.9-.975-1.525-1.369C11.049.551 9.989.188 8.8.035c-.406-.053-.498-.05-.622.036-.24.162-.238.565.004.725.08.05.151.069.475.113.498.069.818.134 1.198.24 1.489.42 2.634 1.276 3.4 2.548.64 1.06.906 2.12.868 3.473-.013.458-.003.538.065.648.13.205.473.246.649.076.11-.104.13-.182.152-.573.01-.205.012-.506.008-.671z"/>
</symbol><symbol id="icon-video-play" viewBox="0 0 21 24">
    <path d="M19.83 10.145c1.334.77 1.334 2.694 0 3.464L3.4 23.095c-1.333.77-3-.192-3-1.732V2.39C.4.85 2.067-.11 3.4.658l16.43 9.487z"/>
</symbol><symbol id="icon-video" viewBox="0 0 14 9">
    <path class="st0" d="M0 1.4C.1 1.1.1.8.3.6.6.3 1 0 1.5 0h6.3c.7 0 1.2.3 1.5 1 .1.2.1.5.1.7v5.5c0 .9-.5 1.5-1.3 1.7H1.5C.8 8.9.2 8.4 0 7.5V1.4z"/>
    <path class="st0" d="M14 4.5v2.6c0 .7-.6 1.1-1.2 1-.1 0-.2-.1-.3-.1-.7-.5-1.5-.9-2.2-1.4-.1-.1-.1-.1-.1-.2V2.8c0-.1 0-.1.1-.2.8-.5 1.5-1 2.3-1.4.5-.3 1.1 0 1.3.6v.4c.1.6.1 1.4.1 2.3z"/>
</symbol><symbol id="icon-vk" viewBox="0 0 13 7">
    <path d="M13 6.617c-.082.233-.201.328-.47.334-.583.017-1.17.012-1.75.043-.506.029-.906-.155-1.247-.478-.278-.265-.532-.547-.803-.818a2.04 2.04 0 0 0-.33-.262c-.201-.13-.348-.104-.513.066-.189.193-.238.435-.268.683-.016.124-.016.248-.025.371-.015.237-.14.378-.39.395-.29.02-.583.02-.876.012a5.386 5.386 0 0 1-.718-.055c-.702-.113-1.29-.452-1.862-.833-.53-.354-.925-.826-1.31-1.308C1.46 3.54.712 2.19.056.79-.073.513.02.357.345.334.58.317.818.323 1.056.32c.376-.003.754-.003 1.13-.006.277 0 .46.115.586.357.33.645.668 1.288 1.019 1.924.147.268.336.519.595.71a.793.793 0 0 0 .208.111c.146.05.26 0 .336-.126.125-.208.134-.441.164-.671a4.542 4.542 0 0 0-.06-1.573c-.068-.3-.266-.458-.571-.522-.05-.011-.095-.037-.144-.057.028-.044.046-.095.08-.133a.828.828 0 0 1 .49-.253A7.593 7.593 0 0 1 7.089.072c.36.055.491.17.525.565.027.314-.003.63-.007.944-.006.415-.015.83-.009 1.245 0 .12.03.248.077.36.1.242.299.277.506.11.342-.268.571-.62.806-.966A9.3 9.3 0 0 0 9.877.677c.028-.066.061-.133.101-.193a.301.301 0 0 1 .263-.144C11.01.33 11.779.32 12.55.32c.183 0 .376.031.452.236v.167c-.082.182-.15.372-.247.544-.324.577-.763 1.08-1.172 1.602-.21.268-.425.539-.614.821-.143.216-.107.424.07.617.086.092.177.181.272.267.348.332.711.649 1.044.994.287.3.583.602.65 1.029-.006.005-.006.014-.006.02z"/>
</symbol><symbol id="icon-wa" viewBox="0 0 16 16">
    <path fill-rule="evenodd" clip-rule="evenodd" d="M3.925 14.885l-.292-.173-3.028.794.808-2.951-.19-.303A7.976 7.976 0 0 1 0 7.996C.002 3.587 3.59 0 8.003 0c2.137 0 4.146.834 5.656 2.345A7.948 7.948 0 0 1 16 8.003C15.998 12.413 12.41 16 8 16h-.003a7.989 7.989 0 0 1-4.072-1.115zm7.933-4.979c.143.075.24.125.28.199.052.092.052.533-.118 1.048-.171.516-.99.986-1.383 1.05-.353.056-.8.08-1.29-.088a11.241 11.241 0 0 1-1.168-.465c-1.92-.893-3.217-2.896-3.463-3.275a2.16 2.16 0 0 0-.036-.055l-.001-.002c-.109-.156-.835-1.2-.835-2.28 0-1.015.464-1.548.677-1.793l.04-.046a.73.73 0 0 1 .546-.276c.137 0 .273.001.393.008h.046c.119 0 .268-.001.415.378l.226.591c.176.462.37.973.405 1.047.051.11.085.239.017.386a5.17 5.17 0 0 0-.029.063c-.051.113-.089.196-.176.305l-.105.136c-.07.092-.14.185-.202.25-.103.11-.21.23-.09.45.12.221.53.943 1.14 1.528.654.629 1.223.895 1.511 1.03.057.026.102.047.136.065.204.11.324.092.443-.055.12-.147.512-.644.649-.865.137-.22.273-.184.46-.11.188.073 1.195.607 1.4.717l.112.06z"/>
</symbol><symbol id="icon-warning" viewBox="0 0 20 19">
    <path d="M11.429 10c0 .857-.572 1.429-1.429 1.429-.857 0-1.429-.715-1.429-1.429V5.714c0-.714.572-1.428 1.429-1.428.857 0 1.429.714 1.429 1.428V10zm0 5c0 .429-.286.714-.715.714H9.286c-.429 0-.715-.285-.715-.714v-1.429c0-.428.286-.714.715-.714h1.428c.429 0 .715.286.715.714V15zm8.285.143l-7.857-14C11-.43 8.857-.43 8 1.143L.286 15c-.857 1.714.285 3.571 2 3.571h15.571c1.572 0 2.714-1.857 1.857-3.428z"/>
</symbol><symbol id="icon-weigher" viewBox="0 0 40 40">
    <g clip-path="url(#a)" fill-rule="evenodd" clip-rule="evenodd">
        <path d="M9.47 37.57a1 1 0 0 1 1-1h18.732a1 1 0 1 1 0 2H10.47a1 1 0 0 1-1-1z"/>
        <path d="M15.133 35.667c-1.152 0-2.108.95-2.108 2.152h-2v-.83c0-.273.11-.522.289-.703a4.106 4.106 0 0 1 3.819-2.619h9.325a4.106 4.106 0 0 1 3.82 2.62c.178.18.289.429.289.703v.83h-2c0-1.203-.957-2.153-2.109-2.153h-9.325z"/>
        <path d="M16.832 25.377c0-1.617 1.335-2.99 2.964-2.99 1.628 0 2.963 1.372 2.963 2.99v8.958a1 1 0 1 1-2 0v-8.958c0-.54-.465-.99-.963-.99-.498 0-.964.45-.964.99v8.958a1 1 0 1 1-2 0v-8.958z"/>
        <path d="M19.796 7.87a1 1 0 0 1 1 1v14.267a1 1 0 1 1-2 0V8.87a1 1 0 0 1 1-1z"/>
        <path d="M19.877 4.147a.477.477 0 0 0-.472.493v2.488c0 .29.22.493.472.493a.477.477 0 0 0 .473-.493V4.64c0-.29-.22-.493-.473-.493zm-2.472.493a2.477 2.477 0 0 1 2.472-2.493A2.477 2.477 0 0 1 22.35 4.64v2.488a2.477 2.477 0 0 1-2.473 2.493 2.477 2.477 0 0 1-2.472-2.493V4.64z"/>
        <path d="M18.769 3.874l-.364.932.365-.932a1 1 0 0 1-.727 1.864h-.002l-.018-.008a6.577 6.577 0 0 0-.492-.15 9.217 9.217 0 0 0-1.486-.256c-1.245-.113-2.892-.016-4.566.796-1.881.912-3.347 1.515-4.861 1.612-1.543.099-3.01-.333-4.902-1.185a1 1 0 0 1 .822-1.824c1.79.807 2.898 1.08 3.952 1.013 1.084-.07 2.235-.503 4.117-1.415 2.089-1.014 4.123-1.124 5.619-.988.749.068 1.371.198 1.811.313a8.6 8.6 0 0 1 .71.22l.014.005.005.002h.002l.001.001z"/>
        <path d="M-.182 18.736h13.78v1c0 3.857-3.053 6.973-6.89 6.973-3.838 0-6.89-3.116-6.89-6.973v-1zm2.097 2c.45 2.288 2.42 3.973 4.793 3.973 2.372 0 4.342-1.685 4.792-3.973H1.915z"/>
        <path d="M6.363 5.96a1 1 0 0 1 .529 1.31L1.738 19.382a1 1 0 1 1-1.84-.783L5.05 6.488a1 1 0 0 1 1.312-.529z"/>
        <path d="M7.054 6.041a1 1 0 0 1 1.31.532l5.154 12.193a1 1 0 0 1-1.842.779L6.523 7.351a1 1 0 0 1 .531-1.31z"/>
        <path d="M21.677 4.806l-.365-.932a1 1 0 0 0 .729 1.863h-.003.001m-.362-.931l-.364-.932h.003l.005-.003.013-.005a3.527 3.527 0 0 1 .19-.067c.125-.041.3-.095.52-.153.44-.115 1.063-.245 1.812-.313 1.496-.136 3.53-.026 5.62.988 1.88.912 3.032 1.346 4.115 1.415 1.055.067 2.163-.206 3.953-1.013a1 1 0 0 1 .822 1.824c-1.891.852-3.36 1.284-4.902 1.185-1.514-.097-2.98-.7-4.861-1.612-1.674-.812-3.32-.909-4.566-.796a9.217 9.217 0 0 0-1.486.257 6.6 6.6 0 0 0-.492.15l-.019.006"/>
        <path d="M26.403 18.736h13.779v1c0 3.857-3.052 6.973-6.89 6.973-3.837 0-6.89-3.116-6.89-6.973v-1zm2.097 2c.45 2.288 2.42 3.973 4.792 3.973 2.373 0 4.343-1.685 4.793-3.973H28.5z"/>
        <path d="M33.637 5.96a1 1 0 0 1 1.312.528l5.153 12.11a1 1 0 1 1-1.84.783l-5.154-12.11a1 1 0 0 1 .529-1.312z"/>
        <path d="M32.946 6.041a1 1 0 0 1 .531 1.31l-5.153 12.194a1 1 0 0 1-1.842-.779l5.153-12.193a1 1 0 0 1 1.31-.532z"/>
    </g>
    
</symbol><symbol id="icon-ya-dzen" viewBox="0 0 20 20">
    <path class="st0" d="M9.7 0c-.1 4.1-.3 6.3-1.8 7.9C6.3 9.4 4.1 9.6 0 9.7v.6c4.1.1 6.3.3 7.9 1.8 1.5 1.5 1.8 3.8 1.8 7.9h.6c.1-4.1.3-6.3 1.8-7.9 1.5-1.5 3.8-1.8 7.9-1.8v-.6c-4.1-.1-6.3-.3-7.9-1.8-1.5-1.5-1.8-3.8-1.8-7.9h-.6z"/>
</symbol><symbol id="icon-yandex" viewBox="0 0 6 12">
    <path fill-rule="evenodd" clip-rule="evenodd" d="M4.687 1.092H3.99c-1.057 0-2.08.688-2.08 2.685 0 1.93.937 2.55 2.08 2.55h.698V1.092v.001zm-1.09 6.31l-2.08 4.597H0l2.284-4.917C1.21 6.545.494 5.572.494 3.776.495 1.26 2.115 0 4.04 0H6v12H4.687V7.402h-1.09z"/>
</symbol></svg>