<svg width="40" height="40" viewBox="0 0 40 40" fill="none" xmlns="http://www.w3.org/2000/svg">
    <g clip-path="url(#a)">
        <path d="M20 0C8.933 0 0 8.933 0 20s8.933 20 20 20 20-8.933 20-20S31.067 0 20 0zm6.133 22.8c.134.133.4.533.934.933 1.066 1.067 1.866 1.867 2.266 2.667 0 0 0 .133.134.133 0 0 0 .134.133.267v.4a.287.287 0 0 1-.267.267c-.133.133-.4.133-.666.133h-3.734c-.266-.133-.4-.133-.666-.267l-.267.134c-.267-.134-.533-.4-.8-.8s-.533-.667-.8-.934l-.667-.666c-.266-.134-.533-.267-.666-.134h-.134s-.133.134-.266.134c-.134.133-.134.266-.267.4-.133.133-.133.4-.267.666 0 .267-.133.534-.133.934v.266c0 .134 0 .134-.133.267-.134.133-.4.267-.667.267h-1.333c-.534 0-1.2 0-1.734-.134-.533-.133-1.066-.4-1.6-.666l-1.2-.8c-.4-.267-.666-.534-.8-.667l-.266-.267c-.134-.133-.134-.133-.267-.4-.133-.133-.4-.533-.8-1.066-.4-.534-.8-1.2-1.333-1.867-.4-.667-.934-1.467-1.467-2.533l-1.6-3.2c0-.134-.133-.267-.133-.4V15.6c.133-.133.4-.267.666-.267h3.334c.133 0 .133 0 .266.134.134 0 .134.133.134.133.133.133.266.267.266.4.134.4.4.8.534 1.2.266.4.4.8.533.933l.133.4c.267.534.4.934.667 1.2.267.4.4.667.533.8.134.134.4.4.534.4.133.134.266.134.4.134h.266s.134-.134.134-.267c.133-.133.133-.267.133-.533 0-.267.133-.534.133-.934v-1.466c0-.267 0-.667-.133-.934 0-.266-.133-.4-.133-.533l-.134-.133c-.133-.267-.533-.4-1.066-.534-.134 0-.134-.133 0-.266l.4-.4c.4-.267 1.333-.267 2.8-.267.666 0 1.2 0 1.6.133.133 0 .266.134.4.134l.266.266c0 .134.134.267.134.4v4.534c0 .133.133.4.133.4 0 .133.133.266.267.266h.266c.134 0 .134 0 .267-.133l.4-.4c.133-.133.4-.4.667-.8.266-.4.533-.8.8-1.333.533-.8.933-1.734 1.333-2.667 0-.133.133-.133.133-.267l.134-.133h4.666c.134 0 .267.133.4.133l.134.134c.133.533-.4 1.733-1.734 3.466-.133.267-.4.534-.8 1.067-.666.8-.933 1.333-1.066 1.6.4.533.533.933.666 1.2z" fill="#3B83F1"/>
    </g>
    <defs>
        <clipPath id="a">
            <path fill="#fff" d="M0 0h40v40H0z"/>
        </clipPath>
    </defs>
</svg>
